<svg width="13" height="13" viewBox="0 0 13 13" fill="none" xmlns="http://www.w3.org/2000/svg">
    <path d="M10.9375 0.625H1.3125C0.574219 0.625 0 1.22656 0 1.9375V11.5625C0 12.3008 0.574219 12.875 1.3125 12.875H10.9375C11.6484 12.875 12.25 12.3008 12.25 11.5625V1.9375C12.25 1.22656 11.6484 0.625 10.9375 0.625ZM6.125 2.97656C6.75391 2.97656 7.27344 3.49609 7.27344 4.125C7.27344 4.78125 6.75391 5.27344 6.125 5.27344C5.46875 5.27344 4.97656 4.78125 4.97656 4.125C4.97656 3.49609 5.46875 2.97656 6.125 2.97656ZM7.65625 9.92188C7.65625 10.1133 7.49219 10.25 7.32812 10.25H4.92188C4.73047 10.25 4.59375 10.1133 4.59375 9.92188V9.26562C4.59375 9.10156 4.73047 8.9375 4.92188 8.9375H5.25V7.1875H4.92188C4.73047 7.1875 4.59375 7.05078 4.59375 6.85938V6.20312C4.59375 6.03906 4.73047 5.875 4.92188 5.875H6.67188C6.83594 5.875 7 6.03906 7 6.20312V8.9375H7.32812C7.49219 8.9375 7.65625 9.10156 7.65625 9.26562V9.92188Z"
          fill="#333742"/>
</svg>
