<?xml version="1.0" standalone="no"?>
<!DOCTYPE svg PUBLIC "-//W3C//DTD SVG 20010904//EN"
 "http://www.w3.org/TR/2001/REC-SVG-20010904/DTD/svg10.dtd">
<svg version="1.0" xmlns="http://www.w3.org/2000/svg"
 width="16.000000pt" height="16.000000pt" viewBox="0 0 16.000000 16.000000"
 preserveAspectRatio="xMidYMid meet">
<metadata>
Created by potrace 1.11, written by Peter Selinger 2001-2013
</metadata>
<g transform="translate(0.000000,16.000000) scale(0.004255,-0.004255)"
fill="#000000" stroke="none">
<path d="M11 3750 c-5 -4 -8 -3692 -2 -3735 1 -7 629 -10 1874 -10 l1872 0 0
1875 0 1875 -1868 0 c-1028 0 -1872 -2 -1876 -5z m3390 -362 c0 -7 1 -691 2
-1521 l2 -1507 -1522 0 -1523 0 0 1520 0 1520 1520 0 c1209 0 1520 -3 1521
-12z"/>
<path d="M1629 2838 c0 -21 -1 -94 -1 -163 0 -69 1 -132 1 -140 1 -13 37 -15
264 -15 l262 0 -1 -512 c-1 -590 -3 -607 -79 -691 -86 -96 -282 -98 -391 -4
-55 47 -97 153 -108 267 -3 30 -5 55 -6 55 -2 0 -259 -4 -286 -4 l-37 -1 6
-112 c8 -146 17 -191 55 -283 28 -68 63 -118 132 -185 114 -112 250 -162 440
-162 306 0 522 159 606 447 16 54 18 130 21 800 l4 740 -440 0 -441 0 -1 -37z"/>
</g>
</svg>
