<svg width="72" height="72" viewBox="0 0 72 72" fill="none" xmlns="http://www.w3.org/2000/svg">
<rect width="72" height="72" rx="12" fill="#111112"/>
<rect width="72" height="72" rx="12" fill="url(#paint0_linear_201_31)" fill-opacity="0.2"/>
<rect x="0.5" y="0.5" width="71" height="71" rx="11.5" stroke="#7A57F1" stroke-opacity="0.2"/>
<ellipse opacity="0.4" cx="28.5002" cy="30.1667" rx="4.16667" ry="4.16667" fill="url(#paint1_linear_201_31)"/>
<ellipse opacity="0.4" cx="43.5002" cy="30.1667" rx="4.16667" ry="4.16667" fill="url(#paint2_linear_201_31)"/>
<ellipse opacity="0.4" cx="36" cy="42.6666" rx="10" ry="5" fill="url(#paint3_linear_201_31)"/>
<path fill-rule="evenodd" clip-rule="evenodd" d="M43.4911 45.9789C45.0523 45.0969 46 43.9371 46 42.6666C46 40.6883 43.7021 38.9784 40.3682 38.1676C41.5473 37.8481 42.8979 37.6666 44.3333 37.6666C48.9357 37.6666 52.6666 39.5321 52.6666 41.8333C52.6666 44.1345 48.9357 46 44.3333 46C44.049 46 43.768 45.9928 43.4911 45.9789Z" fill="url(#paint4_linear_201_31)"/>
<path fill-rule="evenodd" clip-rule="evenodd" d="M28.5091 45.9789C28.2321 45.9928 27.9511 46 27.6668 46C23.0645 46 19.3335 44.1345 19.3335 41.8333C19.3335 39.5321 23.0645 37.6666 27.6668 37.6666C29.1022 37.6666 30.4529 37.8481 31.632 38.1676C28.298 38.9784 26.0002 40.6883 26.0002 42.6666C26.0002 43.9371 26.9479 45.0969 28.5091 45.9789Z" fill="url(#paint5_linear_201_31)"/>
<ellipse cx="36" cy="29.3333" rx="5" ry="5" fill="url(#paint6_linear_201_31)"/>
<defs>
<linearGradient id="paint0_linear_201_31" x1="7.05882" y1="65.25" x2="85.8761" y2="26.9436" gradientUnits="userSpaceOnUse">
<stop stop-color="#7A57F1" stop-opacity="0.61"/>
<stop offset="1" stop-color="#7A57F1" stop-opacity="0"/>
</linearGradient>
<linearGradient id="paint1_linear_201_31" x1="31.6228" y1="32.8333" x2="25.9745" y2="28.4067" gradientUnits="userSpaceOnUse">
<stop stop-color="#6A50FF"/>
<stop offset="1" stop-color="#A897FF"/>
</linearGradient>
<linearGradient id="paint2_linear_201_31" x1="46.6228" y1="32.8333" x2="40.9745" y2="28.4067" gradientUnits="userSpaceOnUse">
<stop stop-color="#6A50FF"/>
<stop offset="1" stop-color="#A897FF"/>
</linearGradient>
<linearGradient id="paint3_linear_201_31" x1="43.4942" y1="45.8666" x2="37.1642" y2="35.9447" gradientUnits="userSpaceOnUse">
<stop stop-color="#6A50FF"/>
<stop offset="1" stop-color="#A897FF"/>
</linearGradient>
<linearGradient id="paint4_linear_201_31" x1="51.1258" y1="44.5" x2="45.37" y2="37.8426" gradientUnits="userSpaceOnUse">
<stop stop-color="#6A50FF"/>
<stop offset="1" stop-color="#A897FF"/>
</linearGradient>
<linearGradient id="paint5_linear_201_31" x1="30.0911" y1="44.5" x2="24.3353" y2="37.8426" gradientUnits="userSpaceOnUse">
<stop stop-color="#6A50FF"/>
<stop offset="1" stop-color="#A897FF"/>
</linearGradient>
<linearGradient id="paint6_linear_201_31" x1="39.7471" y1="32.5333" x2="32.9692" y2="27.2213" gradientUnits="userSpaceOnUse">
<stop stop-color="#6A50FF"/>
<stop offset="1" stop-color="#A897FF"/>
</linearGradient>
</defs>
</svg>
