<svg width="40" height="40" viewBox="0 0 40 40" fill="none" xmlns="http://www.w3.org/2000/svg">
<path opacity="0.4" d="M36.7733 6.69286L32.209 2.19286C31.9518 1.93571 31.5661 1.93571 31.309 2.19286L11.959 21.2214C12.3447 21.4143 12.6661 21.6714 12.9233 21.9286L19.609 28.55C19.9304 28.8714 20.1233 29.1929 20.3161 29.5143L22.309 27.65C22.4376 27.5214 22.5018 27.3286 22.5018 27.2L22.3733 23.7929L25.6518 22.7643C25.909 22.7 26.1018 22.4429 26.1018 22.1857L26.0376 18.7786L29.3161 17.75C29.5733 17.6857 29.7661 17.4286 29.7661 17.1714L29.6376 13.7643L32.9161 12.7357C33.1733 12.6714 33.3661 12.4143 33.3661 12.1571L33.2376 8.75L36.5161 7.72143C36.709 7.65714 36.9018 7.46429 36.9661 7.27143C37.0304 7.07857 36.9661 6.82143 36.7733 6.69286Z" fill="url(#paint0_linear_5845_9311)"/>
<path fill-rule="evenodd" clip-rule="evenodd" d="M5.14173 24.7746C3.59629 26.3531 3.62316 28.8857 5.20173 30.4311L11.024 36.1312C12.6026 37.6766 15.1351 37.6497 16.6805 36.0712L20.1784 32.4983C21.7238 30.9197 21.697 28.3872 20.1184 26.8418L14.2961 21.1417C12.7175 19.5963 10.185 19.6232 8.63957 21.2017L5.14173 24.7746ZM9.47795 26.0899C8.70523 26.8792 8.71866 28.1455 9.50795 28.9182L12.4448 31.7934C13.2341 32.5661 14.5003 32.5527 15.2731 31.7634L15.8408 31.1834C16.6135 30.3941 16.6001 29.1279 15.8108 28.3552L12.874 25.48C12.0847 24.7073 10.8184 24.7207 10.0457 25.51L9.47795 26.0899Z" fill="url(#paint1_linear_5845_9311)"/>
<defs>
<linearGradient id="paint0_linear_5845_9311" x1="33.8541" y1="24.5617" x2="15.6974" y2="11.6161" gradientUnits="userSpaceOnUse">
<stop stop-color="#6A50FF"/>
<stop offset="1" stop-color="#A897FF"/>
</linearGradient>
<linearGradient id="paint1_linear_5845_9311" x1="19.1501" y1="34.1638" x2="7.43504" y2="24.9573" gradientUnits="userSpaceOnUse">
<stop stop-color="#6A50FF"/>
<stop offset="1" stop-color="#A897FF"/>
</linearGradient>
</defs>
</svg>
