<svg width="40" height="40" viewBox="0 0 40 40" fill="none" xmlns="http://www.w3.org/2000/svg">
<path opacity="0.4" d="M31.8356 16.8102C33.8317 18.5163 33.8317 21.4824 31.8356 23.1885C29.0839 25.5404 24.805 28.3327 19.9993 28.3327C15.1937 28.3327 10.9148 25.5404 8.16309 23.1885C6.16699 21.4824 6.16699 18.5163 8.16309 16.8102C10.9148 14.4583 15.1937 11.666 19.9993 11.666C24.805 11.666 29.0839 14.4583 31.8356 16.8102Z" fill="url(#paint0_linear_5923_15852)"/>
<path d="M23.3327 19.9993C23.3327 21.8403 21.8403 23.3327 19.9993 23.3327C18.1584 23.3327 16.666 21.8403 16.666 19.9993C16.666 18.1584 18.1584 16.666 19.9993 16.666C21.8403 16.666 23.3327 18.1584 23.3327 19.9993Z" fill="url(#paint1_linear_5923_15852)"/>
<path fill-rule="evenodd" clip-rule="evenodd" d="M20 2.08301C20.6904 2.08301 21.25 2.64265 21.25 3.33301V6.66634C21.25 7.3567 20.6904 7.91634 20 7.91634C19.3096 7.91634 18.75 7.3567 18.75 6.66634V3.33301C18.75 2.64265 19.3096 2.08301 20 2.08301ZM4.11612 7.44912C4.60427 6.96097 5.39573 6.96097 5.88388 7.44912L8.38388 9.94912C8.87204 10.4373 8.87204 11.2287 8.38388 11.7169C7.89573 12.205 7.10427 12.205 6.61612 11.7169L4.11612 9.21689C3.62796 8.72874 3.62796 7.93728 4.11612 7.44912ZM35.8839 7.44912C36.372 7.93728 36.372 8.72874 35.8839 9.21689L33.3839 11.7169C32.8957 12.205 32.1043 12.205 31.6161 11.7169C31.128 11.2287 31.128 10.4373 31.6161 9.94912L34.1161 7.44912C34.6043 6.96097 35.3957 6.96097 35.8839 7.44912ZM8.38388 28.2825C8.87204 28.7706 8.87204 29.5621 8.38388 30.0502L5.88388 32.5502C5.39573 33.0384 4.60427 33.0384 4.11612 32.5502C3.62796 32.0621 3.62796 31.2706 4.11612 30.7825L6.61612 28.2825C7.10427 27.7943 7.89573 27.7943 8.38388 28.2825ZM31.6161 28.2825C32.1043 27.7943 32.8957 27.7943 33.3839 28.2825L35.8839 30.7825C36.372 31.2706 36.372 32.0621 35.8839 32.5502C35.3957 33.0384 34.6043 33.0384 34.1161 32.5502L31.6161 30.0502C31.128 29.5621 31.128 28.7706 31.6161 28.2825ZM20 32.083C20.6904 32.083 21.25 32.6427 21.25 33.333V36.6663C21.25 37.3567 20.6904 37.9163 20 37.9163C19.3096 37.9163 18.75 37.3567 18.75 36.6663V33.333C18.75 32.6427 19.3096 32.083 20 32.083Z" fill="url(#paint2_linear_5923_15852)"/>
<defs>
<linearGradient id="paint0_linear_5923_15852" x1="29.9917" y1="25.3327" x2="18.6496" y2="11.1103" gradientUnits="userSpaceOnUse">
<stop stop-color="#6A50FF"/>
<stop offset="1" stop-color="#A897FF"/>
</linearGradient>
<linearGradient id="paint1_linear_5923_15852" x1="22.4974" y1="22.1327" x2="17.9788" y2="18.5913" gradientUnits="userSpaceOnUse">
<stop stop-color="#6A50FF"/>
<stop offset="1" stop-color="#A897FF"/>
</linearGradient>
<linearGradient id="paint2_linear_5923_15852" x1="32.1781" y1="31.4663" x2="8.55531" y2="14.6749" gradientUnits="userSpaceOnUse">
<stop stop-color="#6A50FF"/>
<stop offset="1" stop-color="#A897FF"/>
</linearGradient>
</defs>
</svg>
