<svg width="40" height="40" viewBox="0 0 40 40" fill="none" xmlns="http://www.w3.org/2000/svg">
<path opacity="0.4" fill-rule="evenodd" clip-rule="evenodd" d="M15.6179 24.8616C16.0947 25.3609 16.0763 26.1521 15.577 26.6289L5.8627 35.9038C5.36338 36.3805 4.57214 36.3622 4.09541 35.8629C3.61867 35.3636 3.63698 34.5724 4.1363 34.0956L13.8506 24.8207C14.3499 24.3439 15.1412 24.3623 15.6179 24.8616Z" fill="url(#paint0_linear_5923_15876)"/>
<path fill-rule="evenodd" clip-rule="evenodd" d="M29.8417 4.11612C30.3299 3.62796 31.1213 3.62796 31.6095 4.11612L33.9443 6.45096C33.952 6.45824 33.9596 6.46563 33.9671 6.47314C33.9746 6.48065 33.982 6.48823 33.9892 6.49588L36.3235 8.83016C36.8117 9.31832 36.8117 10.1098 36.3235 10.5979C35.8354 11.0861 35.0439 11.0861 34.5558 10.5979L33.0829 9.12507L29.253 12.955C28.7649 13.4431 27.9734 13.4431 27.4853 12.955C26.9971 12.4668 26.9971 11.6753 27.4853 11.1872L31.3151 7.3573L29.8417 5.88388C29.3536 5.39573 29.3536 4.60427 29.8417 4.11612Z" fill="url(#paint1_linear_5923_15876)"/>
<path opacity="0.4" d="M22.475 10.8922L13.8326 19.5346C13.3226 20.0446 12.9918 20.7062 12.8898 21.4202L12.4969 24.1701C12.1827 26.37 14.0683 28.2556 16.2682 27.9413L19.018 27.5485C19.732 27.4465 20.3937 27.1157 20.9037 26.6057L29.5461 17.9632C30.8478 16.6615 30.8478 14.5509 29.5461 13.2492L27.1891 10.8922C25.8873 9.59043 23.7768 9.59043 22.475 10.8922Z" fill="url(#paint2_linear_5923_15876)"/>
<path d="M16.2685 27.942L19.0184 27.5491C19.7324 27.4471 20.394 27.1163 20.904 26.6063L27.1899 20.3209L15.4048 17.9639L13.8329 19.5353C13.3229 20.0453 12.9921 20.7069 12.8901 21.4209L12.4973 24.1707C12.183 26.3706 14.0686 28.2562 16.2685 27.942Z" fill="url(#paint3_linear_5923_15876)"/>
<defs>
<linearGradient id="paint0_linear_5923_15876" x1="6.99742" y1="34.7109" x2="5.15882" y2="32.2822" gradientUnits="userSpaceOnUse">
<stop stop-color="#6A50FF"/>
<stop offset="1" stop-color="#A897FF"/>
</linearGradient>
<linearGradient id="paint1_linear_5923_15876" x1="35.4906" y1="11.5983" x2="29.0035" y2="6.51449" gradientUnits="userSpaceOnUse">
<stop stop-color="#6A50FF"/>
<stop offset="1" stop-color="#A897FF"/>
</linearGradient>
<linearGradient id="paint2_linear_5923_15876" x1="18.7764" y1="26.9611" x2="14.5011" y2="17.6375" gradientUnits="userSpaceOnUse">
<stop stop-color="#6A50FF"/>
<stop offset="1" stop-color="#A897FF"/>
</linearGradient>
<linearGradient id="paint3_linear_5923_15876" x1="25.3448" y1="26.1741" x2="18.4258" y2="18.1984" gradientUnits="userSpaceOnUse">
<stop stop-color="#6A50FF"/>
<stop offset="1" stop-color="#A897FF"/>
</linearGradient>
</defs>
</svg>
