<svg width="40" height="40" viewBox="0 0 40 40" fill="none" xmlns="http://www.w3.org/2000/svg">
<path opacity="0.4" d="M36.6673 19.9997C36.6673 29.2044 29.2054 36.6663 20.0007 36.6663C10.7959 36.6663 3.33398 29.2044 3.33398 19.9997C3.33398 10.7949 10.7959 3.33301 20.0007 3.33301C29.2054 3.33301 36.6673 10.7949 36.6673 19.9997Z" fill="url(#paint0_linear_5923_17339)"/>
<path fill-rule="evenodd" clip-rule="evenodd" d="M21.2507 13.333C21.2507 12.6427 20.691 12.083 20.0007 12.083C19.3103 12.083 18.7507 12.6427 18.7507 13.333V18.7497H13.334C12.6436 18.7497 12.084 19.3093 12.084 19.9997C12.084 20.69 12.6436 21.2497 13.334 21.2497H18.7507V26.6663C18.7507 27.3567 19.3103 27.9163 20.0007 27.9163C20.691 27.9163 21.2507 27.3567 21.2507 26.6663V21.2497H26.6673C27.3577 21.2497 27.9173 20.69 27.9173 19.9997C27.9173 19.3093 27.3577 18.7497 26.6673 18.7497H21.2507V13.333Z" fill="url(#paint1_linear_5923_17339)"/>
<defs>
<linearGradient id="paint0_linear_5923_17339" x1="32.4911" y1="30.6663" x2="9.89791" y2="12.9596" gradientUnits="userSpaceOnUse">
<stop stop-color="#6A50FF"/>
<stop offset="1" stop-color="#A897FF"/>
</linearGradient>
<linearGradient id="paint1_linear_5923_17339" x1="25.9336" y1="25.0663" x2="15.2018" y2="16.6557" gradientUnits="userSpaceOnUse">
<stop stop-color="#6A50FF"/>
<stop offset="1" stop-color="#A897FF"/>
</linearGradient>
</defs>
</svg>
