<svg width="40" height="40" viewBox="0 0 40 40" fill="none" xmlns="http://www.w3.org/2000/svg">
<path opacity="0.4" fill-rule="evenodd" clip-rule="evenodd" d="M33.3333 11.25C32.1827 11.25 31.25 12.1827 31.25 13.3333V18.3333C31.25 19.0237 30.6904 19.5833 30 19.5833C29.3096 19.5833 28.75 19.0237 28.75 18.3333V13.3333C28.75 10.802 30.802 8.75 33.3333 8.75C35.8646 8.75 37.9167 10.802 37.9167 13.3333V20C37.9167 24.3723 34.3723 27.9167 30 27.9167V25.4167C32.9915 25.4167 35.4167 22.9915 35.4167 20V13.3333C35.4167 12.1827 34.4839 11.25 33.3333 11.25Z" fill="url(#paint0_linear_5845_9291)"/>
<path opacity="0.4" fill-rule="evenodd" clip-rule="evenodd" d="M6.66667 11.25C7.81726 11.25 8.75 12.1827 8.75 13.3333V18.3333C8.75 19.0237 9.30964 19.5833 10 19.5833C10.6904 19.5833 11.25 19.0237 11.25 18.3333V13.3333C11.25 10.802 9.19797 8.75 6.66667 8.75C4.13536 8.75 2.08333 10.802 2.08333 13.3333V20C2.08333 24.3723 5.62775 27.9167 10 27.9167V25.4167C7.00846 25.4167 4.58333 22.9915 4.58333 20V13.3333C4.58333 12.1827 5.51607 11.25 6.66667 11.25Z" fill="url(#paint1_linear_5845_9291)"/>
<path d="M16.4596 12.0389C18.6883 10.9245 21.3117 10.9245 23.5404 12.0389L30.559 15.5482C30.9825 15.7599 31.25 16.1928 31.25 16.6662V25.2104C31.25 27.5599 30.2064 29.788 28.4015 31.2922L27.2021 32.2916C23.0301 35.7683 16.9699 35.7683 12.7979 32.2916L11.5985 31.2921C9.7936 29.788 8.75 27.5599 8.75 25.2104V16.6662C8.75 16.1928 9.0175 15.7599 9.44098 15.5482L16.4596 12.0389Z" fill="url(#paint2_linear_5845_9291)"/>
<defs>
<linearGradient id="paint0_linear_5845_9291" x1="36.7682" y1="24.4667" x2="27.9743" y2="21.1705" gradientUnits="userSpaceOnUse">
<stop stop-color="#6A50FF"/>
<stop offset="1" stop-color="#A897FF"/>
</linearGradient>
<linearGradient id="paint1_linear_5845_9291" x1="3.2318" y1="24.4667" x2="12.0257" y2="21.1705" gradientUnits="userSpaceOnUse">
<stop stop-color="#6A50FF"/>
<stop offset="1" stop-color="#A897FF"/>
</linearGradient>
<linearGradient id="paint2_linear_5845_9291" x1="28.431" y1="30.6339" x2="12.5874" y2="18.8437" gradientUnits="userSpaceOnUse">
<stop stop-color="#6A50FF"/>
<stop offset="1" stop-color="#A897FF"/>
</linearGradient>
</defs>
</svg>
