<svg width="40" height="40" viewBox="0 0 40 40" fill="none" xmlns="http://www.w3.org/2000/svg">
<path opacity="0.4" d="M21.2757 7.83715L20.0006 9.20704L18.7256 7.83715C15.2045 4.05429 9.4958 4.05428 5.97476 7.83714C2.45373 11.62 2.45372 17.7532 5.97476 21.5361L17.4505 33.8651C18.8589 35.3783 21.1424 35.3783 22.5508 33.8651L34.0265 21.5361C37.5476 17.7532 37.5476 11.62 34.0265 7.83715C30.5055 4.05429 24.7968 4.05429 21.2757 7.83715Z" fill="url(#paint0_linear_5923_17327)"/>
<path fill-rule="evenodd" clip-rule="evenodd" d="M16.6667 13.75C17.0846 13.75 17.4749 13.9589 17.7067 14.3066L23.3333 22.7465L25.6266 19.3066C25.8584 18.9589 26.2487 18.75 26.6667 18.75H35C35.6904 18.75 36.25 19.3096 36.25 20C36.25 20.6904 35.6904 21.25 35 21.25H27.3356L24.3734 25.6934C24.1416 26.0411 23.7513 26.25 23.3333 26.25C22.9154 26.25 22.5251 26.0411 22.2933 25.6934L16.6667 17.2535L14.3734 20.6934C14.1416 21.0411 13.7513 21.25 13.3333 21.25H5C4.30964 21.25 3.75 20.6904 3.75 20C3.75 19.3096 4.30964 18.75 5 18.75H12.6644L15.6266 14.3066C15.8584 13.9589 16.2487 13.75 16.6667 13.75Z" fill="url(#paint1_linear_5923_17327)"/>
<defs>
<linearGradient id="paint0_linear_5923_17327" x1="32.4911" y1="29.6" x2="11.7492" y2="11.538" gradientUnits="userSpaceOnUse">
<stop stop-color="#6A50FF"/>
<stop offset="1" stop-color="#A897FF"/>
</linearGradient>
<linearGradient id="paint1_linear_5923_17327" x1="32.1781" y1="24" x2="25.2764" y2="9.93652" gradientUnits="userSpaceOnUse">
<stop stop-color="#6A50FF"/>
<stop offset="1" stop-color="#A897FF"/>
</linearGradient>
</defs>
</svg>
