<svg width="40" height="40" viewBox="0 0 40 40" fill="none" xmlns="http://www.w3.org/2000/svg">
<path d="M10.5684 3.33301C11.9411 7.21698 15.6453 9.99967 19.9994 9.99967H20.5685C24.9226 9.99967 28.6267 7.21698 29.9995 3.33301H10.5684Z" fill="url(#paint0_linear_5923_15848)"/>
<path d="M19.9994 29.9997C15.6453 29.9997 11.9411 32.7824 10.5684 36.6663H29.9995C28.6267 32.7824 24.9226 29.9997 20.5685 29.9997H19.9994Z" fill="url(#paint1_linear_5923_15848)"/>
<path opacity="0.4" fill-rule="evenodd" clip-rule="evenodd" d="M29.7788 22.0977C29.9232 21.4213 29.9992 20.7195 29.9992 19.9999C29.9992 19.2803 29.9232 18.5785 29.7788 17.902C29.7092 17.9115 29.6379 17.9165 29.5653 17.9165H10.9636C10.9041 17.9165 10.8454 17.9132 10.7878 17.9067C10.644 18.5817 10.5684 19.282 10.5684 19.9999C10.5684 20.7178 10.644 21.418 10.7878 22.093C10.8453 22.0865 10.904 22.0832 10.9636 22.0832H29.5653C29.6379 22.0832 29.7092 22.0881 29.7788 22.0977ZM28.8894 24.5832H11.6782C13.2993 27.7214 16.5334 29.8912 20.2838 29.996C24.0342 29.8912 27.2683 27.7214 28.8894 24.5832ZM20.2838 10.0039C24.0341 10.1087 27.2681 12.2784 28.8893 15.4165H11.6783C13.2994 12.2784 16.5334 10.1087 20.2838 10.0039Z" fill="url(#paint2_linear_5923_15848)"/>
<defs>
<linearGradient id="paint0_linear_5923_15848" x1="27.565" y1="30.6663" x2="9.97635" y2="22.6308" gradientUnits="userSpaceOnUse">
<stop stop-color="#6A50FF"/>
<stop offset="1" stop-color="#A897FF"/>
</linearGradient>
<linearGradient id="paint1_linear_5923_15848" x1="27.565" y1="30.6663" x2="9.97635" y2="22.6308" gradientUnits="userSpaceOnUse">
<stop stop-color="#6A50FF"/>
<stop offset="1" stop-color="#A897FF"/>
</linearGradient>
<linearGradient id="paint2_linear_5923_15848" x1="27.5648" y1="26.3974" x2="14.1113" y2="16.1496" gradientUnits="userSpaceOnUse">
<stop stop-color="#6A50FF"/>
<stop offset="1" stop-color="#A897FF"/>
</linearGradient>
</defs>
</svg>
