<svg width="40" height="40" viewBox="0 0 40 40" fill="none" xmlns="http://www.w3.org/2000/svg">
<path opacity="0.4" d="M13.0329 36.6663H26.9674C30.8153 36.6663 33.9347 33.6896 33.9347 30.0176V21.8881C33.9347 20.7077 34.426 19.5757 35.3007 18.741C37.3272 16.8072 37.0637 13.6031 34.746 11.9945L24.0981 4.60467C21.655 2.90912 18.3453 2.90912 15.9022 4.60467L5.25434 11.9945C2.93661 13.6031 2.67317 16.8072 4.69964 18.741C5.57429 19.5757 6.06566 20.7077 6.06566 21.8881V30.0176C6.06566 33.6896 9.185 36.6663 13.0329 36.6663Z" fill="url(#paint0_linear_5845_9274)"/>
<path fill-rule="evenodd" clip-rule="evenodd" d="M22.417 14.0001C22.9693 14.4143 23.0812 15.1978 22.667 15.7501L19.167 20.4167H23.3337C23.8071 20.4167 24.24 20.6842 24.4517 21.1077C24.6634 21.5312 24.6177 22.038 24.3337 22.4167L19.3337 29.0834C18.9195 29.6357 18.136 29.7476 17.5837 29.3334C17.0314 28.9192 16.9195 28.1357 17.3337 27.5834L20.8337 22.9167H16.667C16.1935 22.9167 15.7607 22.6492 15.549 22.2258C15.3372 21.8023 15.3829 21.2955 15.667 20.9167L20.667 14.2501C21.0812 13.6978 21.8647 13.5859 22.417 14.0001Z" fill="url(#paint1_linear_5845_9274)"/>
<defs>
<linearGradient id="paint0_linear_5845_9274" x1="32.4906" y1="30.6663" x2="9.89742" y2="12.9596" gradientUnits="userSpaceOnUse">
<stop stop-color="#6A50FF"/>
<stop offset="1" stop-color="#A897FF"/>
</linearGradient>
<linearGradient id="paint1_linear_5845_9274" x1="23.4352" y1="26.7335" x2="15.1181" y2="22.9597" gradientUnits="userSpaceOnUse">
<stop stop-color="#6A50FF"/>
<stop offset="1" stop-color="#A897FF"/>
</linearGradient>
</defs>
</svg>
