<svg width="40" height="40" viewBox="0 0 40 40" fill="none" xmlns="http://www.w3.org/2000/svg">
<path fill-rule="evenodd" clip-rule="evenodd" d="M22.9562 19.3026C22.889 19.298 22.8216 19.2943 22.7543 19.2882C22.3776 19.2528 22.0321 19.13 21.7254 18.9079C21.1962 18.5247 20.8578 18.0151 20.723 17.3739C20.6726 17.1329 20.6585 16.8897 20.6739 16.6443C20.6913 16.3562 20.7487 16.0769 20.8402 15.8037C20.9863 15.3677 21.2068 14.9721 21.4857 14.6073C21.6959 14.3325 21.934 14.0835 22.1962 13.8577C22.4417 13.6462 22.6645 13.4126 22.8732 13.1654C23.1359 12.8536 23.3735 12.5232 23.6082 12.1905C23.8157 11.8964 24.0196 11.6004 24.2398 11.3161C24.4054 11.1016 24.5801 10.8951 24.7748 10.7063C25.0183 10.4705 25.2871 10.2708 25.6038 10.1414C25.8415 10.0441 26.0884 9.99264 26.3453 9.98727C26.6357 9.9806 26.9226 10.0093 27.2051 10.0784C27.6374 10.1845 28.0119 10.3948 28.3344 10.7008C28.555 10.911 28.7417 11.1488 28.9153 11.3978C29.0994 11.6617 29.2685 11.9353 29.443 12.2057C29.6397 12.5102 29.8427 12.8099 30.0696 13.0933C30.2956 13.3758 30.5449 13.6364 30.8172 13.8748C31.1465 14.1632 31.4388 14.4842 31.6877 14.8446C31.9 15.1538 32.073 15.4825 32.1938 15.8378C32.2879 16.1145 32.347 16.3975 32.362 16.69C32.3851 17.1342 32.3084 17.5589 32.1069 17.9584C31.9204 18.3287 31.6503 18.626 31.3112 18.8622C31.0619 19.0357 30.7929 19.1676 30.4967 19.2409C30.3919 19.2672 30.2854 19.2861 30.1778 19.2965C30.1628 19.298 30.1483 19.3008 30.1339 19.303C30.1198 19.311 30.1043 19.305 30.0894 19.3069C30.0772 19.3086 30.0642 19.303 30.0526 19.3108C29.9607 19.3108 29.8685 19.3108 29.7766 19.3108C29.7657 19.3028 29.7533 19.3084 29.7416 19.3069C29.7308 19.3069 29.7207 19.3069 29.7101 19.3069C29.7014 19.3069 29.6919 19.3069 29.6834 19.3069C29.448 19.2993 29.2194 19.2502 28.9916 19.1974C28.6056 19.1074 28.2272 18.989 27.8432 18.8912C27.5322 18.8123 27.2186 18.7482 26.8995 18.7118C26.6783 18.6864 26.4566 18.6836 26.2355 18.6912C26.0586 18.6971 25.883 18.7244 25.709 18.7568C25.3656 18.8214 25.0291 18.9138 24.6923 19.0057C24.3361 19.1035 23.98 19.2008 23.6153 19.2604C23.4669 19.2843 23.3183 19.3048 23.1676 19.3034C23.1366 19.303 23.1059 19.3076 23.0746 19.3069C23.0348 19.3047 22.9955 19.3117 22.9562 19.3026Z" fill="url(#paint0_linear_5923_15864)"/>
<path fill-rule="evenodd" clip-rule="evenodd" d="M29.7612 4.03011C30.2576 4.08975 30.6368 4.34203 30.9265 4.73989C31.125 5.01273 31.2499 5.31872 31.3273 5.64583C31.3934 5.92755 31.4184 6.21354 31.409 6.50287C31.3916 7.03446 31.2667 7.53939 31.0359 8.01838C30.8761 8.3503 30.6697 8.64963 30.4067 8.90783C30.1724 9.13733 29.9074 9.3207 29.598 9.43498C29.3808 9.51519 29.1574 9.55482 28.9258 9.54112C28.525 9.51796 28.1848 9.35867 27.8988 9.08046C27.655 8.843 27.4889 8.5559 27.3738 8.23806C27.2935 8.01579 27.2433 7.78666 27.2171 7.55235C27.199 7.39176 27.1918 7.23099 27.197 7.07021C27.2088 6.69068 27.277 6.32116 27.4003 5.96238C27.5313 5.58044 27.7169 5.22833 27.9703 4.91345C28.1835 4.64857 28.4326 4.42464 28.7315 4.25923C28.9512 4.13754 29.1852 4.05882 29.4356 4.03048C29.4432 4.02622 29.4515 4.02807 29.4593 4.02751C29.4673 4.02751 29.4752 4.02751 29.483 4.02751C29.4945 4.02603 29.5067 4.03159 29.5169 4.02344C29.5715 4.02344 29.6253 4.02344 29.6795 4.02344C29.6901 4.03177 29.7019 4.02622 29.7134 4.02751C29.7216 4.02751 29.7292 4.02751 29.7373 4.02751C29.7449 4.0277 29.7534 4.02566 29.7612 4.03011Z" fill="url(#paint1_linear_5923_15864)"/>
<path fill-rule="evenodd" clip-rule="evenodd" d="M18.3431 9.89237C18.3509 9.74086 18.3781 9.59212 18.418 9.44579C18.495 9.16147 18.6212 8.90234 18.8177 8.68044C19.0374 8.4328 19.3089 8.27258 19.6341 8.20793C19.8983 8.1557 20.1589 8.17811 20.4151 8.25702C20.7096 8.34796 20.97 8.50263 21.2015 8.70397C21.5612 9.0157 21.8191 9.3993 21.9976 9.83829C22.091 10.0682 22.1556 10.3062 22.1914 10.5516C22.2088 10.6707 22.2171 10.7905 22.2195 10.9109C22.2238 11.1395 22.2008 11.3644 22.1441 11.5855C22.0686 11.8806 21.9413 12.1492 21.7385 12.379C21.5057 12.6428 21.2154 12.8069 20.8676 12.8634C20.6123 12.9049 20.3613 12.8769 20.1157 12.7976C19.7855 12.6904 19.5025 12.5063 19.2531 12.2679C19.0099 12.036 18.8167 11.7667 18.6662 11.4672C18.5185 11.1734 18.4167 10.8637 18.3676 10.5379C18.3591 10.4803 18.352 10.4227 18.3442 10.3653C18.3381 10.339 18.3405 10.3121 18.3342 10.286C18.3313 10.275 18.3329 10.2647 18.3324 10.2534C18.3303 10.2395 18.3366 10.2247 18.3281 10.2108C18.3281 10.1404 18.3281 10.0702 18.3281 9.99962C18.3413 9.98035 18.3348 9.95887 18.3363 9.93831C18.3374 9.92293 18.3335 9.90663 18.3431 9.89237Z" fill="url(#paint2_linear_5923_15864)"/>
<path fill-rule="evenodd" clip-rule="evenodd" d="M21.8288 6.50389C21.8305 6.08472 21.8902 5.70668 22.0304 5.3429C22.1361 5.06784 22.2813 4.8163 22.4836 4.59977C22.7014 4.36602 22.9602 4.19839 23.2723 4.11948C23.5844 4.04021 23.8911 4.0628 24.1927 4.1719C24.4583 4.26822 24.69 4.4201 24.8958 4.61181C25.2244 4.91743 25.4596 5.2864 25.6273 5.70001C25.7338 5.96303 25.8071 6.23494 25.849 6.51519C25.8727 6.67411 25.8864 6.83433 25.8897 6.99566C25.8932 7.19867 25.8805 7.40094 25.8469 7.60135C25.7773 8.02014 25.6352 8.41023 25.3818 8.75512C25.2242 8.96905 25.0329 9.14594 24.798 9.27338C24.5355 9.41563 24.2546 9.47509 23.9573 9.45212C23.6885 9.43156 23.4407 9.34377 23.2095 9.2067C22.908 9.02814 22.6638 8.78735 22.4606 8.50395C22.2197 8.1674 22.0541 7.79528 21.9492 7.39538C21.8918 7.17663 21.8551 6.95417 21.8385 6.72857C21.8318 6.64392 21.8261 6.55872 21.8288 6.50389Z" fill="url(#paint3_linear_5923_15864)"/>
<path fill-rule="evenodd" clip-rule="evenodd" d="M34.9971 10.1378C34.9971 10.1539 34.9971 10.1702 34.9971 10.1865C34.9786 10.5906 34.8704 10.9711 34.6958 11.334C34.5583 11.6183 34.3829 11.8774 34.1658 12.1071C33.8873 12.4023 33.564 12.6326 33.1797 12.7707C32.9495 12.8535 32.7124 12.8943 32.4673 12.8808C32.1056 12.8604 31.7898 12.7293 31.5242 12.4825C31.3049 12.2786 31.1602 12.0278 31.0691 11.7455C30.987 11.4925 30.9539 11.2317 30.9622 10.9661C30.9802 10.3821 31.1648 9.85122 31.4847 9.36538C31.5927 9.2009 31.7166 9.04901 31.8555 8.91009C32.1413 8.6254 32.4681 8.40647 32.855 8.28237C33.0751 8.21235 33.2999 8.18031 33.5303 8.19827C33.8823 8.2255 34.1892 8.35868 34.4466 8.60151C34.6789 8.82063 34.8254 9.09124 34.914 9.39501C34.9629 9.56283 34.9914 9.73453 34.9971 9.90957C34.9971 9.92587 34.9971 9.94236 34.9971 9.95866C34.9953 10.0183 34.9955 10.0779 34.9971 10.1378Z" fill="url(#paint4_linear_5923_15864)"/>
<path opacity="0.4" d="M6.66536 16.666H3.33203V31.666L10.5168 35.2584C12.3682 36.1841 14.4097 36.666 16.4796 36.666H29.9987C31.8396 36.666 33.332 35.1736 33.332 33.3327C33.332 31.4917 31.8396 29.9993 29.9987 29.9993H27.3594C25.8069 29.9993 24.2758 29.6379 22.8872 28.9436L18.3638 26.0761C18.5173 25.8735 18.6488 25.6492 18.7534 25.4051C19.4427 23.7968 18.7055 21.9336 17.1024 21.2322L6.66536 16.666Z" fill="url(#paint5_linear_5923_15864)"/>
<defs>
<linearGradient id="paint0_linear_5923_15864" x1="30.9003" y1="17.6324" x2="24.3926" y2="11.2339" gradientUnits="userSpaceOnUse">
<stop stop-color="#6A50FF"/>
<stop offset="1" stop-color="#A897FF"/>
</linearGradient>
<linearGradient id="paint1_linear_5923_15864" x1="30.8827" y1="8.55012" x2="27.4868" y2="6.51771" gradientUnits="userSpaceOnUse">
<stop stop-color="#6A50FF"/>
<stop offset="1" stop-color="#A897FF"/>
</linearGradient>
<linearGradient id="paint2_linear_5923_15864" x1="21.7324" y1="12.036" x2="18.7351" y2="10.092" gradientUnits="userSpaceOnUse">
<stop stop-color="#6A50FF"/>
<stop offset="1" stop-color="#A897FF"/>
</linearGradient>
<linearGradient id="paint3_linear_5923_15864" x1="25.3813" y1="8.48768" x2="22.0881" y2="6.5406" gradientUnits="userSpaceOnUse">
<stop stop-color="#6A50FF"/>
<stop offset="1" stop-color="#A897FF"/>
</linearGradient>
<linearGradient id="paint4_linear_5923_15864" x1="34.4915" y1="12.0391" x2="31.4562" y2="9.99193" gradientUnits="userSpaceOnUse">
<stop stop-color="#6A50FF"/>
<stop offset="1" stop-color="#A897FF"/>
</linearGradient>
<linearGradient id="paint5_linear_5923_15864" x1="29.5734" y1="33.066" x2="15.7936" y2="16.8668" gradientUnits="userSpaceOnUse">
<stop stop-color="#6A50FF"/>
<stop offset="1" stop-color="#A897FF"/>
</linearGradient>
</defs>
</svg>
