<svg width="40" height="40" viewBox="0 0 40 40" fill="none" xmlns="http://www.w3.org/2000/svg">
<path opacity="0.4" d="M33.7711 7.06538C29.7332 3.25422 25.5305 4.78906 22.3228 7.06183C20.934 8.04591 19.0599 8.04956 17.6665 7.07184C14.4459 4.81191 10.2272 3.28942 6.22657 7.06538C-2.09768 14.9221 9.74895 34.7699 14.0321 34.7699C18.2884 34.7699 15.1995 22.611 19.999 22.4583C24.7981 22.6115 21.7094 34.7699 25.9656 34.7699C30.2487 34.7699 42.0954 14.9221 33.7711 7.06538Z" fill="url(#paint0_linear_5923_15878)"/>
<path d="M6.22657 7.06498C10.2272 3.28903 14.4459 4.81152 17.6665 7.07144C18.364 7.56083 19.1818 7.80434 19.999 7.80211V22.4579C15.1995 22.6106 18.2884 34.7696 14.0321 34.7696C9.74895 34.7696 -2.09768 14.9217 6.22657 7.06498Z" fill="url(#paint1_linear_5923_15878)"/>
<defs>
<linearGradient id="paint0_linear_5923_15878" x1="32.4894" y1="29.3658" x2="11.7338" y2="11.3055" gradientUnits="userSpaceOnUse">
<stop stop-color="#6A50FF"/>
<stop offset="1" stop-color="#A897FF"/>
</linearGradient>
<linearGradient id="paint1_linear_5923_15878" x1="17.9108" y1="29.3695" x2="2.58151" y2="22.6951" gradientUnits="userSpaceOnUse">
<stop stop-color="#6A50FF"/>
<stop offset="1" stop-color="#A897FF"/>
</linearGradient>
</defs>
</svg>
