<svg width="40" height="40" viewBox="0 0 40 40" fill="none" xmlns="http://www.w3.org/2000/svg">
<path d="M23.3346 13.4259C23.3346 10.1206 26.1431 6.85421 28.1143 4.96867C29.1849 3.94464 30.8177 3.94464 31.8883 4.96868C33.8595 6.85421 36.668 10.1206 36.668 13.4259C36.668 16.6667 34.1434 20 30.0013 20C25.8592 20 23.3346 16.6667 23.3346 13.4259Z" fill="url(#paint0_linear_5923_15854)"/>
<path opacity="0.4" d="M6.66732 16.666H3.33398V31.666L10.5187 35.2584C12.3701 36.1841 14.4116 36.666 16.4816 36.666H30.0006C31.8416 36.666 33.334 35.1736 33.334 33.3327C33.334 31.4917 31.8416 29.9994 30.0006 29.9994H27.3613C25.8089 29.9994 24.2777 29.6379 22.8892 28.9436L18.3658 26.0761C18.5192 25.8735 18.6507 25.6492 18.7553 25.4051C19.4446 23.7968 18.7075 21.9336 17.1044 21.2322L6.66732 16.666Z" fill="url(#paint1_linear_5923_15854)"/>
<defs>
<linearGradient id="paint0_linear_5923_15854" x1="25.0051" y1="7.04453" x2="35.1538" y2="13.7568" gradientUnits="userSpaceOnUse">
<stop stop-color="#6A50FF"/>
<stop offset="1" stop-color="#A897FF"/>
</linearGradient>
<linearGradient id="paint1_linear_5923_15854" x1="29.5753" y1="33.066" x2="15.7956" y2="16.8668" gradientUnits="userSpaceOnUse">
<stop stop-color="#6A50FF"/>
<stop offset="1" stop-color="#A897FF"/>
</linearGradient>
</defs>
</svg>
