<svg width="40" height="40" viewBox="0 0 40 40" fill="none" xmlns="http://www.w3.org/2000/svg">
<path opacity="0.4" fill-rule="evenodd" clip-rule="evenodd" d="M10.0547 2.72256C5.77697 6.40875 3.33252 11.9765 3.33252 18.6594C3.33252 24.25 6.80375 30.0003 12.4992 30.0003C15.858 30.0003 18.4433 28.0004 19.9992 25.2128C21.5551 28.0004 24.1404 30.0003 27.4992 30.0003C33.1946 30.0003 36.6659 24.25 36.6659 18.6594C36.6659 11.9765 34.7599 6.59612 29.9436 2.72256C28.1103 1.24809 26.6083 1.38381 25.0547 2.72256C22.9136 4.56763 21.2317 6.88409 20.0858 9.57584C19.0064 6.93714 17.3332 4.6444 14.9436 2.72256C13.1103 1.24809 11.6083 1.38381 10.0547 2.72256Z" fill="url(#paint0_linear_5845_9295)"/>
<path fill-rule="evenodd" clip-rule="evenodd" d="M8.5766 13.5781C8.90203 13.2526 9.42967 13.2526 9.75511 13.5781L12.4992 16.3221L15.2433 13.5781C15.5687 13.2526 16.0963 13.2526 16.4218 13.5781C16.7472 13.9035 16.7472 14.4311 16.4218 14.7566L13.3322 17.8462V23.8222L16.9096 20.2448C17.235 19.9194 17.7627 19.9194 18.0881 20.2448C18.4136 20.5702 18.4136 21.0979 18.0881 21.4233L13.3322 26.1792V38.3341C13.3322 38.7944 12.9591 39.1675 12.4989 39.1675C12.0386 39.1675 11.6655 38.7944 11.6655 38.3341V26.1792L6.90961 21.4233C6.58417 21.0979 6.58417 20.5702 6.90961 20.2448C7.23504 19.9194 7.76268 19.9194 8.08812 20.2448L11.6655 23.8222V17.8455L8.5766 14.7566C8.25116 14.4311 8.25116 13.9035 8.5766 13.5781Z" fill="url(#paint1_linear_5845_9295)"/>
<path fill-rule="evenodd" clip-rule="evenodd" d="M23.5766 13.5781C23.902 13.2526 24.4297 13.2526 24.7551 13.5781L27.4992 16.3221L30.2433 13.5781C30.5687 13.2526 31.0963 13.2526 31.4218 13.5781C31.7472 13.9035 31.7472 14.4311 31.4218 14.7566L28.3322 17.8462V23.8222L31.9096 20.2448C32.235 19.9194 32.7627 19.9194 33.0881 20.2448C33.4136 20.5702 33.4136 21.0979 33.0881 21.4233L28.3322 26.1792V38.3341C28.3322 38.7944 27.9591 39.1675 27.4989 39.1675C27.0386 39.1675 26.6655 38.7944 26.6655 38.3341V26.1792L21.9096 21.4233C21.5842 21.0979 21.5842 20.5702 21.9096 20.2448C22.235 19.9194 22.7627 19.9194 23.0881 20.2448L26.6655 23.8222V17.8455L23.5766 14.7566C23.2512 14.4311 23.2512 13.9035 23.5766 13.5781Z" fill="url(#paint2_linear_5845_9295)"/>
<defs>
<linearGradient id="paint0_linear_5845_9295" x1="32.4896" y1="24.9003" x2="12.7773" y2="6.72513" gradientUnits="userSpaceOnUse">
<stop stop-color="#6A50FF"/>
<stop offset="1" stop-color="#A897FF"/>
</linearGradient>
<linearGradient id="paint1_linear_5845_9295" x1="16.8705" y1="34.5173" x2="5.52695" y2="30.5024" gradientUnits="userSpaceOnUse">
<stop stop-color="#6A50FF"/>
<stop offset="1" stop-color="#A897FF"/>
</linearGradient>
<linearGradient id="paint2_linear_5845_9295" x1="31.8705" y1="34.5173" x2="20.527" y2="30.5024" gradientUnits="userSpaceOnUse">
<stop stop-color="#6A50FF"/>
<stop offset="1" stop-color="#A897FF"/>
</linearGradient>
</defs>
</svg>
