<svg width="40" height="40" viewBox="0 0 40 40" fill="none" xmlns="http://www.w3.org/2000/svg">
<path opacity="0.4" d="M30.0023 8.33301C33.6842 8.33301 36.6689 11.3178 36.6689 14.9997L36.6689 18.333C36.6689 22.0149 33.6842 24.9997 30.0023 24.9997L10.0023 24.9997C6.32038 24.9997 3.33561 22.0149 3.33561 18.333L3.33561 14.9997C3.33561 11.3178 6.32038 8.33301 10.0023 8.33301L30.0023 8.33301Z" fill="url(#paint0_linear_5845_9322)"/>
<path d="M35.5055 22.0974C36.7544 20.2752 34.8784 18.333 32.6693 18.333H7.33594C5.1268 18.333 3.25076 20.2752 4.4997 22.0974C5.70088 23.85 7.71748 24.9997 10.0026 24.9997H30.0026C32.2877 24.9997 34.3043 23.85 35.5055 22.0974Z" fill="url(#paint1_linear_5845_9322)"/>
<path opacity="0.4" fill-rule="evenodd" clip-rule="evenodd" d="M26.6689 27.916C27.3593 27.916 27.9189 28.4757 27.9189 29.166V31.666C27.9189 32.3564 27.3593 32.916 26.6689 32.916C25.9786 32.916 25.4189 32.3564 25.4189 31.666V29.166C25.4189 28.4757 25.9786 27.916 26.6689 27.916Z" fill="url(#paint2_linear_5845_9322)"/>
<path opacity="0.4" fill-rule="evenodd" clip-rule="evenodd" d="M20.0029 27.916C20.6933 27.916 21.2529 28.4757 21.2529 29.166V31.666C21.2529 32.3564 20.6933 32.916 20.0029 32.916C19.3126 32.916 18.7529 32.3564 18.7529 31.666V29.166C18.7529 28.4757 19.3126 27.916 20.0029 27.916Z" fill="url(#paint3_linear_5845_9322)"/>
<path opacity="0.4" fill-rule="evenodd" clip-rule="evenodd" d="M13.3359 27.916C14.0263 27.916 14.5859 28.4757 14.5859 29.166V31.666C14.5859 32.3564 14.0263 32.916 13.3359 32.916C12.6456 32.916 12.0859 32.3564 12.0859 31.666V29.166C12.0859 28.4757 12.6456 27.916 13.3359 27.916Z" fill="url(#paint4_linear_5845_9322)"/>
<defs>
<linearGradient id="paint0_linear_5845_9322" x1="9.33562" y1="22.9115" x2="15.53" y2="7.10378" gradientUnits="userSpaceOnUse">
<stop stop-color="#6A50FF"/>
<stop offset="1" stop-color="#A897FF"/>
</linearGradient>
<linearGradient id="paint1_linear_5845_9322" x1="32.493" y1="23.7997" x2="30.2632" y2="15.0618" gradientUnits="userSpaceOnUse">
<stop stop-color="#6A50FF"/>
<stop offset="1" stop-color="#A897FF"/>
</linearGradient>
<linearGradient id="paint2_linear_5845_9322" x1="27.6057" y1="32.016" x2="25.2346" y2="31.0869" gradientUnits="userSpaceOnUse">
<stop stop-color="#6A50FF"/>
<stop offset="1" stop-color="#A897FF"/>
</linearGradient>
<linearGradient id="paint3_linear_5845_9322" x1="20.9397" y1="32.016" x2="18.5685" y2="31.0869" gradientUnits="userSpaceOnUse">
<stop stop-color="#6A50FF"/>
<stop offset="1" stop-color="#A897FF"/>
</linearGradient>
<linearGradient id="paint4_linear_5845_9322" x1="14.2727" y1="32.016" x2="11.9016" y2="31.0869" gradientUnits="userSpaceOnUse">
<stop stop-color="#6A50FF"/>
<stop offset="1" stop-color="#A897FF"/>
</linearGradient>
</defs>
</svg>
