<svg width="40" height="40" viewBox="0 0 40 40" fill="none" xmlns="http://www.w3.org/2000/svg">
<path d="M27.433 4.9092L26.668 5.67025L25.9029 4.9092C23.7903 2.80761 20.3651 2.80761 18.2524 4.9092C16.1398 7.01079 16.1398 10.4181 18.2524 12.5197L25.1379 19.3692C25.9829 20.2098 27.353 20.2098 28.1981 19.3692L35.0835 12.5197C37.1961 10.4181 37.1961 7.01079 35.0835 4.9092C32.9709 2.80761 29.5456 2.80761 27.433 4.9092Z" fill="url(#paint0_linear_5923_15850)"/>
<path opacity="0.4" d="M6.66732 16.666H3.33398V31.666L10.5187 35.2584C12.3701 36.1841 14.4116 36.666 16.4816 36.666H30.0006C31.8416 36.666 33.334 35.1736 33.334 33.3327C33.334 31.4917 31.8416 29.9994 30.0006 29.9994H27.3613C25.8089 29.9994 24.2777 29.6379 22.8892 28.9436L18.3658 26.0761C18.5192 25.8735 18.6507 25.6492 18.7553 25.4051C19.4446 23.7968 18.7075 21.9336 17.1044 21.2322L6.66732 16.666Z" fill="url(#paint1_linear_5923_15850)"/>
<defs>
<linearGradient id="paint0_linear_5923_15850" x1="34.1622" y1="16.9997" x2="22.5504" y2="6.07918" gradientUnits="userSpaceOnUse">
<stop stop-color="#6A50FF"/>
<stop offset="1" stop-color="#A897FF"/>
</linearGradient>
<linearGradient id="paint1_linear_5923_15850" x1="29.5753" y1="33.066" x2="15.7956" y2="16.8668" gradientUnits="userSpaceOnUse">
<stop stop-color="#6A50FF"/>
<stop offset="1" stop-color="#A897FF"/>
</linearGradient>
</defs>
</svg>
