<svg width="40" height="40" viewBox="0 0 40 40" fill="none" xmlns="http://www.w3.org/2000/svg">
<path opacity="0.4" d="M13.0329 36.6663H26.9674C30.8153 36.6663 33.9347 33.6896 33.9347 30.0176V21.8881C33.9347 20.7077 34.426 19.5757 35.3007 18.741C37.3272 16.8072 37.0637 13.6031 34.746 11.9945L24.0981 4.60467C21.655 2.90912 18.3453 2.90912 15.9022 4.60467L5.25434 11.9945C2.93661 13.6031 2.67317 16.8072 4.69964 18.741C5.57429 19.5757 6.06566 20.7077 6.06566 21.8881V30.0176C6.06566 33.6896 9.185 36.6663 13.0329 36.6663Z" fill="url(#paint0_linear_5845_9278)"/>
<path d="M25.8337 24C25.8337 19.8579 20.0003 15 20.0003 15C20.0003 15 14.167 19.8579 14.167 24C14.167 28.1421 17.2389 30 20.0003 30C22.7618 30 25.8337 28.1421 25.8337 24Z" fill="url(#paint1_linear_5845_9278)"/>
<defs>
<linearGradient id="paint0_linear_5845_9278" x1="32.4906" y1="30.6663" x2="9.89742" y2="12.9596" gradientUnits="userSpaceOnUse">
<stop stop-color="#6A50FF"/>
<stop offset="1" stop-color="#A897FF"/>
</linearGradient>
<linearGradient id="paint1_linear_5845_9278" x1="24.372" y1="17.7" x2="15.0654" y2="23.3729" gradientUnits="userSpaceOnUse">
<stop stop-color="#6A50FF"/>
<stop offset="1" stop-color="#A897FF"/>
</linearGradient>
</defs>
</svg>
