<svg width="40" height="40" viewBox="0 0 40 40" fill="none" xmlns="http://www.w3.org/2000/svg">
<path opacity="0.4" d="M21.6663 5H18.333C10.0487 5 3.33301 11.7157 3.33301 20V28.3333C3.33301 32.0152 6.31778 35 9.99967 35H21.6663C29.9506 35 36.6663 28.2843 36.6663 20C36.6663 11.7157 29.9506 5 21.6663 5Z" fill="url(#paint0_linear_6292_3489)"/>
<circle cx="19.9993" cy="16.6663" r="3.33333" fill="url(#paint1_linear_6292_3489)"/>
<path d="M19.9996 20C17.476 20 15.2798 21.4022 14.1478 23.4701C13.2639 25.0849 14.8253 26.6667 16.6663 26.6667H23.3329C25.1739 26.6667 26.7353 25.0849 25.8514 23.4701C24.7194 21.4022 22.5232 20 19.9996 20Z" fill="url(#paint2_linear_6292_3489)"/>
<defs>
<linearGradient id="paint0_linear_6292_3489" x1="32.4901" y1="29.6" x2="11.7482" y2="11.538" gradientUnits="userSpaceOnUse">
<stop stop-color="#6A50FF"/>
<stop offset="1" stop-color="#A897FF"/>
</linearGradient>
<linearGradient id="paint1_linear_6292_3489" x1="22.4974" y1="18.7997" x2="17.9788" y2="15.2583" gradientUnits="userSpaceOnUse">
<stop stop-color="#6A50FF"/>
<stop offset="1" stop-color="#A897FF"/>
</linearGradient>
<linearGradient id="paint2_linear_6292_3489" x1="24.5756" y1="25.4667" x2="20.2106" y2="19.2002" gradientUnits="userSpaceOnUse">
<stop stop-color="#6A50FF"/>
<stop offset="1" stop-color="#A897FF"/>
</linearGradient>
</defs>
</svg>
