<svg width="40" height="40" viewBox="0 0 40 40" fill="none" xmlns="http://www.w3.org/2000/svg">
<circle cx="9.99935" cy="6.66634" r="3.33333" fill="url(#paint0_linear_6292_3515)"/>
<ellipse opacity="0.4" cx="10" cy="13.3333" rx="5" ry="3.33333" fill="url(#paint1_linear_6292_3515)"/>
<circle cx="29.9993" cy="26.6663" r="3.33333" fill="url(#paint2_linear_6292_3515)"/>
<path fill-rule="evenodd" clip-rule="evenodd" d="M18.7497 3.33301C18.7497 2.64265 19.3093 2.08301 19.9997 2.08301C29.8948 2.08301 37.9163 10.1046 37.9163 19.9997C37.9163 20.69 37.3567 21.2497 36.6663 21.2497C35.976 21.2497 35.4163 20.69 35.4163 19.9997C35.4163 11.4853 28.5141 4.58301 19.9997 4.58301C19.3093 4.58301 18.7497 4.02336 18.7497 3.33301ZM3.33301 18.7497C4.02336 18.7497 4.58301 19.3093 4.58301 19.9997C4.58301 28.5141 11.4853 35.4163 19.9997 35.4163C20.69 35.4163 21.2497 35.976 21.2497 36.6663C21.2497 37.3567 20.69 37.9163 19.9997 37.9163C10.1046 37.9163 2.08301 29.8948 2.08301 19.9997C2.08301 19.3093 2.64265 18.7497 3.33301 18.7497Z" fill="url(#paint3_linear_6292_3515)"/>
<ellipse opacity="0.4" cx="30" cy="33.3333" rx="5" ry="3.33333" fill="url(#paint4_linear_6292_3515)"/>
<defs>
<linearGradient id="paint0_linear_6292_3515" x1="12.4974" y1="8.79967" x2="7.9788" y2="5.25834" gradientUnits="userSpaceOnUse">
<stop stop-color="#6A50FF"/>
<stop offset="1" stop-color="#A897FF"/>
</linearGradient>
<linearGradient id="paint1_linear_6292_3515" x1="13.7471" y1="15.4667" x2="9.15387" y2="10.0669" gradientUnits="userSpaceOnUse">
<stop stop-color="#6A50FF"/>
<stop offset="1" stop-color="#A897FF"/>
</linearGradient>
<linearGradient id="paint2_linear_6292_3515" x1="32.4974" y1="28.7997" x2="27.9788" y2="25.2583" gradientUnits="userSpaceOnUse">
<stop stop-color="#6A50FF"/>
<stop offset="1" stop-color="#A897FF"/>
</linearGradient>
<linearGradient id="paint3_linear_6292_3515" x1="33.4269" y1="31.4663" x2="9.13922" y2="12.4316" gradientUnits="userSpaceOnUse">
<stop stop-color="#6A50FF"/>
<stop offset="1" stop-color="#A897FF"/>
</linearGradient>
<linearGradient id="paint4_linear_6292_3515" x1="33.7471" y1="35.4667" x2="29.1539" y2="30.0669" gradientUnits="userSpaceOnUse">
<stop stop-color="#6A50FF"/>
<stop offset="1" stop-color="#A897FF"/>
</linearGradient>
</defs>
</svg>
