<svg width="40" height="40" viewBox="0 0 40 40" fill="none" xmlns="http://www.w3.org/2000/svg">
<path opacity="0.4" d="M3.33301 9.99967C3.33301 6.31778 6.31778 3.33301 9.99967 3.33301H29.9997C33.6816 3.33301 36.6663 6.31778 36.6663 9.99967V29.9997C36.6663 33.6816 33.6816 36.6663 29.9997 36.6663H9.99967C6.31778 36.6663 3.33301 33.6816 3.33301 29.9997V9.99967Z" fill="url(#paint0_linear_6292_3450)"/>
<path d="M10 21.0301C10 19.7912 11.3039 18.9853 12.412 19.5394L17.0186 21.8427C18.247 22.4569 18.247 24.2099 17.0186 24.8241L12.412 27.1274C11.3039 27.6815 10 26.8757 10 25.6367V21.0301Z" fill="url(#paint1_linear_6292_3450)"/>
<path d="M36.6663 11.6663H3.33301V7.33301C3.33301 5.12387 5.12387 3.33301 7.33301 3.33301H32.6663C34.8755 3.33301 36.6663 5.12387 36.6663 7.33301V11.6663Z" fill="url(#paint2_linear_6292_3450)"/>
<path fill-rule="evenodd" clip-rule="evenodd" d="M22.083 20C22.083 19.3096 22.6427 18.75 23.333 18.75L29.9997 18.75C30.69 18.75 31.2497 19.3096 31.2497 20C31.2497 20.6904 30.69 21.25 29.9997 21.25H23.333C22.6427 21.25 22.083 20.6904 22.083 20Z" fill="url(#paint3_linear_6292_3450)"/>
<path fill-rule="evenodd" clip-rule="evenodd" d="M22.083 26.666C22.083 25.9757 22.6427 25.416 23.333 25.416L29.9997 25.416C30.69 25.416 31.2497 25.9757 31.2497 26.666C31.2497 27.3564 30.69 27.916 29.9997 27.916H23.333C22.6427 27.916 22.083 27.3564 22.083 26.666Z" fill="url(#paint4_linear_6292_3450)"/>
<defs>
<linearGradient id="paint0_linear_6292_3450" x1="32.4901" y1="30.6663" x2="9.89693" y2="12.9596" gradientUnits="userSpaceOnUse">
<stop stop-color="#6A50FF"/>
<stop offset="1" stop-color="#A897FF"/>
</linearGradient>
<linearGradient id="paint1_linear_6292_3450" x1="16.9451" y1="25.8756" x2="11.5613" y2="21.6584" gradientUnits="userSpaceOnUse">
<stop stop-color="#6A50FF"/>
<stop offset="1" stop-color="#A897FF"/>
</linearGradient>
<linearGradient id="paint2_linear_6292_3450" x1="32.4901" y1="10.1663" x2="29.1218" y2="-0.392899" gradientUnits="userSpaceOnUse">
<stop stop-color="#6A50FF"/>
<stop offset="1" stop-color="#A897FF"/>
</linearGradient>
<linearGradient id="paint3_linear_6292_3450" x1="30.1012" y1="20.8" x2="29.0179" y2="17.6869" gradientUnits="userSpaceOnUse">
<stop stop-color="#6A50FF"/>
<stop offset="1" stop-color="#A897FF"/>
</linearGradient>
<linearGradient id="paint4_linear_6292_3450" x1="30.1012" y1="27.466" x2="29.0179" y2="24.3529" gradientUnits="userSpaceOnUse">
<stop stop-color="#6A50FF"/>
<stop offset="1" stop-color="#A897FF"/>
</linearGradient>
</defs>
</svg>
