<svg width="40" height="40" viewBox="0 0 40 40" fill="none" xmlns="http://www.w3.org/2000/svg">
<path opacity="0.4" d="M3.33398 29.9997V13.333H36.6673V29.9997C36.6673 33.6816 33.6825 36.6663 30.0007 36.6663H10.0007C6.31875 36.6663 3.33398 33.6816 3.33398 29.9997Z" fill="url(#paint0_linear_6292_3737)"/>
<path fill-rule="evenodd" clip-rule="evenodd" d="M27.3106 20.5943C27.9026 20.9495 28.0946 21.7173 27.7394 22.3093L25.9356 25.3156C24.4232 27.8362 20.8611 28.0758 19.0248 25.7804C18.2768 24.8454 16.8258 24.943 16.2098 25.9697L14.406 28.976C14.0509 29.568 13.283 29.7599 12.6911 29.4047C12.0991 29.0496 11.9071 28.2817 12.2623 27.6898L14.0661 24.6835C15.5784 22.1629 19.1406 21.9233 20.9769 24.2187C21.7249 25.1536 23.1759 25.056 23.7919 24.0293L25.5956 21.0231C25.9508 20.4311 26.7187 20.2392 27.3106 20.5943Z" fill="url(#paint1_linear_6292_3737)"/>
<path fill-rule="evenodd" clip-rule="evenodd" d="M10.0007 3.33301H30.0007C33.6825 3.33301 36.6673 6.31778 36.6673 9.99967V13.333H3.33398V9.99967C3.33398 6.31778 6.31875 3.33301 10.0007 3.33301ZM31.6673 8.33301C31.6673 9.25348 30.9211 9.99967 30.0007 9.99967C29.0802 9.99967 28.334 9.25348 28.334 8.33301C28.334 7.41253 29.0802 6.66634 30.0007 6.66634C30.9211 6.66634 31.6673 7.41253 31.6673 8.33301ZM23.334 9.99967C24.2545 9.99967 25.0007 9.25348 25.0007 8.33301C25.0007 7.41253 24.2545 6.66634 23.334 6.66634C22.4135 6.66634 21.6673 7.41253 21.6673 8.33301C21.6673 9.25348 22.4135 9.99967 23.334 9.99967Z" fill="url(#paint2_linear_6292_3737)"/>
<defs>
<linearGradient id="paint0_linear_6292_3737" x1="32.4911" y1="32.4663" x2="16.3073" y2="14.347" gradientUnits="userSpaceOnUse">
<stop stop-color="#6A50FF"/>
<stop offset="1" stop-color="#A897FF"/>
</linearGradient>
<linearGradient id="paint1_linear_6292_3737" x1="25.9339" y1="27.933" x2="19.8177" y2="19.6536" gradientUnits="userSpaceOnUse">
<stop stop-color="#6A50FF"/>
<stop offset="1" stop-color="#A897FF"/>
</linearGradient>
<linearGradient id="paint2_linear_6292_3737" x1="32.4911" y1="11.533" x2="27.8301" y2="-0.643267" gradientUnits="userSpaceOnUse">
<stop stop-color="#6A50FF"/>
<stop offset="1" stop-color="#A897FF"/>
</linearGradient>
</defs>
</svg>
