<svg width="40" height="40" viewBox="0 0 40 40" fill="none" xmlns="http://www.w3.org/2000/svg">
<path d="M15.5 11.667H9.5C8.39543 11.667 7.5 12.5624 7.5 13.667V19.667C7.5 20.7716 8.39543 21.667 9.5 21.667H12.5L10.6139 25.4392C9.94898 26.769 10.916 28.3337 12.4027 28.3337H12.9306C13.6881 28.3337 14.3807 27.9057 14.7195 27.2281L17.2889 22.0893C17.4277 21.8116 17.5 21.5053 17.5 21.1949V13.667C17.5 12.5624 16.6046 11.667 15.5 11.667Z" fill="url(#paint0_linear_6292_3424)"/>
<path opacity="0.4" d="M30.5 11.667H24.5C23.3954 11.667 22.5 12.5624 22.5 13.667V19.667C22.5 20.7716 23.3954 21.667 24.5 21.667H27.5L25.6139 25.4392C24.949 26.769 25.916 28.3337 27.4027 28.3337H27.9306C28.6881 28.3337 29.3807 27.9057 29.7195 27.2281L32.2889 22.0893C32.4277 21.8116 32.5 21.5053 32.5 21.1949V13.667C32.5 12.5624 31.6046 11.667 30.5 11.667Z" fill="url(#paint1_linear_6292_3424)"/>
<defs>
<linearGradient id="paint0_linear_6292_3424" x1="16.2471" y1="25.3337" x2="7.28724" y2="21.1204" gradientUnits="userSpaceOnUse">
<stop stop-color="#6A50FF"/>
<stop offset="1" stop-color="#A897FF"/>
</linearGradient>
<linearGradient id="paint1_linear_6292_3424" x1="31.2471" y1="25.3337" x2="22.2872" y2="21.1204" gradientUnits="userSpaceOnUse">
<stop stop-color="#6A50FF"/>
<stop offset="1" stop-color="#A897FF"/>
</linearGradient>
</defs>
</svg>
