<svg width="40" height="40" viewBox="0 0 40 40" fill="none" xmlns="http://www.w3.org/2000/svg">
<path opacity="0.4" fill-rule="evenodd" clip-rule="evenodd" d="M19.9997 5.89711C17.8202 5.89711 15.7595 6.39064 13.9202 7.27085C13.2815 7.5765 12.516 7.30651 12.2103 6.66782C11.9047 6.02913 12.1747 5.2636 12.8133 4.95795C14.9908 3.91591 17.429 3.33301 19.9997 3.33301C22.5704 3.33301 25.0085 3.91591 27.186 4.95795C27.8247 5.2636 28.0947 6.02913 27.789 6.66782C27.4834 7.30651 26.7178 7.5765 26.0792 7.27085C24.2399 6.39064 22.1792 5.89711 19.9997 5.89711ZM6.66782 12.2103C7.30651 12.516 7.5765 13.2815 7.27085 13.9202C6.39064 15.7595 5.89711 17.8202 5.89711 19.9997C5.89711 22.1792 6.39064 24.2399 7.27085 26.0792C7.5765 26.7178 7.30651 27.4834 6.66782 27.789C6.02913 28.0947 5.2636 27.8247 4.95795 27.186C3.91591 25.0085 3.33301 22.5704 3.33301 19.9997C3.33301 17.429 3.91591 14.9908 4.95795 12.8133C5.2636 12.1747 6.02913 11.9047 6.66782 12.2103ZM33.3315 12.2103C33.9702 11.9047 34.7358 12.1747 35.0414 12.8133C36.0834 14.9908 36.6663 17.429 36.6663 19.9997C36.6663 22.5704 36.0834 25.0085 35.0414 27.186C34.7358 27.8247 33.9702 28.0947 33.3315 27.789C32.6928 27.4834 32.4229 26.7178 32.7285 26.0792C33.6087 24.2399 34.1022 22.1792 34.1022 19.9997C34.1022 17.8202 33.6087 15.7595 32.7285 13.9202C32.4229 13.2815 32.6928 12.516 33.3315 12.2103ZM12.2103 33.3315C12.516 32.6928 13.2815 32.4229 13.9202 32.7285C15.7595 33.6087 17.8202 34.1022 19.9997 34.1022C22.1792 34.1022 24.2399 33.6087 26.0792 32.7285C26.7178 32.4229 27.4834 32.6928 27.789 33.3315C28.0947 33.9702 27.8247 34.7358 27.186 35.0414C25.0085 36.0834 22.5704 36.6663 19.9997 36.6663C17.429 36.6663 14.9908 36.0834 12.8133 35.0414C12.1747 34.7358 11.9047 33.9702 12.2103 33.3315Z" fill="url(#paint0_linear_6292_3464)"/>
<path d="M14.4441 8.88856C14.4441 11.9568 11.9568 14.4441 8.88856 14.4441C7.35296 14.4441 5.96288 13.8211 4.95729 12.814C3.95364 11.8089 3.33301 10.4212 3.33301 8.88856C3.33301 5.82031 5.82031 3.33301 8.88856 3.33301C10.4212 3.33301 11.8089 3.95364 12.814 4.95729C13.8211 5.96288 14.4441 7.35296 14.4441 8.88856Z" fill="url(#paint1_linear_6292_3464)"/>
<path d="M36.6663 8.88856C36.6663 10.4212 36.0457 11.8089 35.0421 12.814C34.0365 13.8211 32.6464 14.4441 31.1108 14.4441C28.0425 14.4441 25.5552 11.9568 25.5552 8.88856C25.5552 7.35296 26.1783 5.96288 27.1853 4.95729C28.1904 3.95364 29.5781 3.33301 31.1108 3.33301C34.179 3.33301 36.6663 5.82031 36.6663 8.88856Z" fill="url(#paint2_linear_6292_3464)"/>
<path d="M14.4441 31.1108C14.4441 32.6464 13.8211 34.0365 12.814 35.0421C11.8089 36.0457 10.4212 36.6663 8.88856 36.6663C5.82031 36.6663 3.33301 34.179 3.33301 31.1108C3.33301 29.5781 3.95364 28.1904 4.95729 27.1853C5.96288 26.1783 7.35296 25.5552 8.88856 25.5552C11.9568 25.5552 14.4441 28.0425 14.4441 31.1108Z" fill="url(#paint3_linear_6292_3464)"/>
<path d="M36.6663 31.1108C36.6663 34.179 34.179 36.6663 31.1108 36.6663C29.5781 36.6663 28.1904 36.0457 27.1853 35.0421C26.1783 34.0365 25.5552 32.6464 25.5552 31.1108C25.5552 28.0425 28.0425 25.5552 31.1108 25.5552C32.6464 25.5552 34.0365 26.1783 35.0421 27.1853C36.0457 28.1904 36.6663 29.5781 36.6663 31.1108Z" fill="url(#paint4_linear_6292_3464)"/>
<defs>
<linearGradient id="paint0_linear_6292_3464" x1="32.4901" y1="30.6663" x2="9.89693" y2="12.9596" gradientUnits="userSpaceOnUse">
<stop stop-color="#6A50FF"/>
<stop offset="1" stop-color="#A897FF"/>
</linearGradient>
<linearGradient id="paint1_linear_6292_3464" x1="32.4901" y1="30.6663" x2="9.89693" y2="12.9596" gradientUnits="userSpaceOnUse">
<stop stop-color="#6A50FF"/>
<stop offset="1" stop-color="#A897FF"/>
</linearGradient>
<linearGradient id="paint2_linear_6292_3464" x1="32.4901" y1="30.6663" x2="9.89693" y2="12.9596" gradientUnits="userSpaceOnUse">
<stop stop-color="#6A50FF"/>
<stop offset="1" stop-color="#A897FF"/>
</linearGradient>
<linearGradient id="paint3_linear_6292_3464" x1="32.4901" y1="30.6663" x2="9.89693" y2="12.9596" gradientUnits="userSpaceOnUse">
<stop stop-color="#6A50FF"/>
<stop offset="1" stop-color="#A897FF"/>
</linearGradient>
<linearGradient id="paint4_linear_6292_3464" x1="32.4901" y1="30.6663" x2="9.89693" y2="12.9596" gradientUnits="userSpaceOnUse">
<stop stop-color="#6A50FF"/>
<stop offset="1" stop-color="#A897FF"/>
</linearGradient>
</defs>
</svg>
