<svg width="40" height="40" viewBox="0 0 40 40" fill="none" xmlns="http://www.w3.org/2000/svg">
<path opacity="0.4" d="M3.33301 16.667C3.33301 13.9056 5.57158 11.667 8.33301 11.667H24.9997C27.7611 11.667 29.9997 13.9056 29.9997 16.667V30.0003C29.9997 32.7617 27.7611 35.0003 24.9997 35.0003H8.33301C5.57158 35.0003 3.33301 32.7618 3.33301 30.0003V16.667Z" fill="url(#paint0_linear_6292_3481)"/>
<path fill-rule="evenodd" clip-rule="evenodd" d="M29.9997 18.3333C33.6816 18.3333 36.6663 15.3486 36.6663 11.6667C36.6663 7.98477 33.6816 5 29.9997 5C26.3178 5 23.333 7.98477 23.333 11.6667C23.333 15.3486 26.3178 18.3333 29.9997 18.3333ZM31.2497 9.16667C31.2497 8.47631 30.69 7.91667 29.9997 7.91667C29.3093 7.91667 28.7497 8.47631 28.7497 9.16667V11.6667C28.7497 12.357 29.3093 12.9167 29.9997 12.9167H32.4997C33.19 12.9167 33.7497 12.357 33.7497 11.6667C33.7497 10.9763 33.19 10.4167 32.4997 10.4167H31.2497V9.16667Z" fill="url(#paint1_linear_6292_3481)"/>
<path fill-rule="evenodd" clip-rule="evenodd" d="M9.00007 19.2501C9.41429 18.6978 10.1978 18.5859 10.7501 19.0001L14.4167 21.7501C15.7501 22.7501 17.5834 22.7501 18.9167 21.7501L22.5834 19.0001C23.1357 18.5859 23.9192 18.6978 24.3334 19.2501C24.7476 19.8024 24.6357 20.5859 24.0834 21.0001L20.4167 23.7501C18.1945 25.4167 15.139 25.4167 12.9167 23.7501L9.25007 21.0001C8.69779 20.5859 8.58586 19.8024 9.00007 19.2501Z" fill="url(#paint2_linear_6292_3481)"/>
<defs>
<linearGradient id="paint0_linear_6292_3481" x1="26.6587" y1="30.8003" x2="10.4698" y2="16.3003" gradientUnits="userSpaceOnUse">
<stop stop-color="#6A50FF"/>
<stop offset="1" stop-color="#A897FF"/>
</linearGradient>
<linearGradient id="paint1_linear_6292_3481" x1="34.9958" y1="15.9333" x2="25.9586" y2="8.85066" gradientUnits="userSpaceOnUse">
<stop stop-color="#6A50FF"/>
<stop offset="1" stop-color="#A897FF"/>
</linearGradient>
<linearGradient id="paint2_linear_6292_3481" x1="22.5997" y1="23.8751" x2="19.0943" y2="16.9153" gradientUnits="userSpaceOnUse">
<stop stop-color="#6A50FF"/>
<stop offset="1" stop-color="#A897FF"/>
</linearGradient>
</defs>
</svg>
