<svg width="40" height="40" viewBox="0 0 40 40" fill="none" xmlns="http://www.w3.org/2000/svg">
<path d="M36.6667 11.6663C36.6667 15.6979 33.8037 19.0609 30 19.833C29.4615 19.9423 28.9041 19.9997 28.3333 19.9997C23.731 19.9997 20 16.2687 20 11.6663C20 11.0956 20.0574 10.5382 20.1667 9.99967C20.9388 6.19594 24.3017 3.33301 28.3333 3.33301C32.9357 3.33301 36.6667 7.06397 36.6667 11.6663Z" fill="url(#paint0_linear_6292_3523)"/>
<path opacity="0.4" d="M19.9997 11.6667C19.9997 16.269 23.7306 20 28.333 20C28.9038 20 29.4612 19.9426 29.9997 19.8333V30C29.9997 33.6819 27.0149 36.6667 23.333 36.6667H9.99967C6.31778 36.6667 3.33301 33.6819 3.33301 30V16.6667C3.33301 12.9848 6.31778 10 9.99967 10H20.1664C20.0571 10.5385 19.9997 11.0959 19.9997 11.6667Z" fill="url(#paint1_linear_6292_3523)"/>
<defs>
<linearGradient id="paint0_linear_6292_3523" x1="34.5785" y1="16.9997" x2="23.282" y2="8.14633" gradientUnits="userSpaceOnUse">
<stop stop-color="#6A50FF"/>
<stop offset="1" stop-color="#A897FF"/>
</linearGradient>
<linearGradient id="paint1_linear_6292_3523" x1="26.6587" y1="31.8667" x2="8.58414" y2="17.7013" gradientUnits="userSpaceOnUse">
<stop stop-color="#6A50FF"/>
<stop offset="1" stop-color="#A897FF"/>
</linearGradient>
</defs>
</svg>
