<svg width="40" height="40" viewBox="0 0 40 40" fill="none" xmlns="http://www.w3.org/2000/svg">
<path opacity="0.4" d="M3.3335 29.9997V13.333H36.6668V29.9997C36.6668 33.6816 33.6821 36.6663 30.0002 36.6663H10.0002C6.31826 36.6663 3.3335 33.6816 3.3335 29.9997Z" fill="url(#paint0_linear_6292_3339)"/>
<path fill-rule="evenodd" clip-rule="evenodd" d="M10.0002 3.33301H30.0002C33.6821 3.33301 36.6668 6.31778 36.6668 9.99967V13.333H3.3335V9.99967C3.3335 6.31778 6.31826 3.33301 10.0002 3.33301ZM31.6668 8.33301C31.6668 9.25348 30.9206 9.99967 30.0002 9.99967C29.0797 9.99967 28.3335 9.25348 28.3335 8.33301C28.3335 7.41253 29.0797 6.66634 30.0002 6.66634C30.9206 6.66634 31.6668 7.41253 31.6668 8.33301ZM23.3335 9.99967C24.254 9.99967 25.0002 9.25348 25.0002 8.33301C25.0002 7.41253 24.254 6.66634 23.3335 6.66634C22.413 6.66634 21.6668 7.41253 21.6668 8.33301C21.6668 9.25348 22.413 9.99967 23.3335 9.99967Z" fill="url(#paint1_linear_6292_3339)"/>
<defs>
<linearGradient id="paint0_linear_6292_3339" x1="32.4906" y1="32.4663" x2="16.3068" y2="14.347" gradientUnits="userSpaceOnUse">
<stop stop-color="#6A50FF"/>
<stop offset="1" stop-color="#A897FF"/>
</linearGradient>
<linearGradient id="paint1_linear_6292_3339" x1="32.4906" y1="11.533" x2="27.8296" y2="-0.643267" gradientUnits="userSpaceOnUse">
<stop stop-color="#6A50FF"/>
<stop offset="1" stop-color="#A897FF"/>
</linearGradient>
</defs>
</svg>
