<svg width="40" height="40" viewBox="0 0 40 40" fill="none" xmlns="http://www.w3.org/2000/svg">
<path d="M15 15.834C15 14.4533 16.1193 13.334 17.5 13.334H22.5C23.8807 13.334 25 14.4533 25 15.834V34.1673C25 35.548 23.8807 36.6673 22.5 36.6673H17.5C16.1193 36.6673 15 35.548 15 34.1673V15.834Z" fill="url(#paint0_linear_6292_3548)"/>
<path opacity="0.4" d="M25 25.834C25 24.4533 26.1193 23.334 27.5 23.334H32.5C33.8807 23.334 35 24.4533 35 25.834V34.1673C35 35.548 33.8807 36.6673 32.5 36.6673H27.5C26.1193 36.6673 25 35.548 25 34.1673V25.834Z" fill="url(#paint1_linear_6292_3548)"/>
<path opacity="0.4" d="M5 22.5C5 21.1193 6.11929 20 7.5 20H12.5C13.8807 20 15 21.1193 15 22.5V34.1667C15 35.5474 13.8807 36.6667 12.5 36.6667H7.5C6.11929 36.6667 5 35.5474 5 34.1667V22.5Z" fill="url(#paint2_linear_6292_3548)"/>
<path d="M19.2076 3.27308C19.4571 2.50533 20.5432 2.50533 20.7927 3.27308L21.0541 4.07772C21.1657 4.42107 21.4857 4.65354 21.8467 4.65354H22.6927C23.5 4.65354 23.8357 5.68655 23.1826 6.16105L22.4981 6.65834C22.206 6.87054 22.0838 7.24668 22.1954 7.59003L22.4568 8.39467C22.7063 9.16243 21.8275 9.80086 21.1744 9.32636L20.49 8.82907C20.1979 8.61687 19.8024 8.61687 19.5103 8.82907L18.8259 9.32636C18.1728 9.80086 17.2941 9.16243 17.5435 8.39467L17.805 7.59003C17.9165 7.24668 17.7943 6.87054 17.5022 6.65834L16.8178 6.16105C16.1647 5.68655 16.5003 4.65354 17.3076 4.65354H18.1536C18.5146 4.65354 18.8346 4.42107 18.9462 4.07772L19.2076 3.27308Z" fill="url(#paint3_linear_6292_3548)"/>
<defs>
<linearGradient id="paint0_linear_6292_3548" x1="23.7471" y1="32.4673" x2="13.9152" y2="29.165" gradientUnits="userSpaceOnUse">
<stop stop-color="#6A50FF"/>
<stop offset="1" stop-color="#A897FF"/>
</linearGradient>
<linearGradient id="paint1_linear_6292_3548" x1="33.7471" y1="34.2673" x2="25.6155" y2="29.4876" gradientUnits="userSpaceOnUse">
<stop stop-color="#6A50FF"/>
<stop offset="1" stop-color="#A897FF"/>
</linearGradient>
<linearGradient id="paint2_linear_6292_3548" x1="13.7471" y1="33.6667" x2="4.78724" y2="29.4534" gradientUnits="userSpaceOnUse">
<stop stop-color="#6A50FF"/>
<stop offset="1" stop-color="#A897FF"/>
</linearGradient>
<linearGradient id="paint3_linear_6292_3548" x1="22.6438" y1="8.26673" x2="18.0014" y2="4.48751" gradientUnits="userSpaceOnUse">
<stop stop-color="#6A50FF"/>
<stop offset="1" stop-color="#A897FF"/>
</linearGradient>
</defs>
</svg>
