<svg width="40" height="40" viewBox="0 0 40 40" fill="none" xmlns="http://www.w3.org/2000/svg">
<path opacity="0.4" d="M35 29.9771V16.5256C35 14.4614 34.0502 12.5128 32.4263 11.2455L24.0929 4.74208C21.6855 2.86332 18.3145 2.86332 15.9071 4.74208L7.57373 11.2455C5.94982 12.5128 5 14.4614 5 16.5256V29.9771C5 33.6715 7.98477 36.6663 11.6667 36.6663H28.3333C32.0152 36.6663 35 33.6715 35 29.9771Z" fill="url(#paint0_linear_6292_3580)"/>
<path fill-rule="evenodd" clip-rule="evenodd" d="M19.9993 36.666C23.3327 36.666 28.3327 29.6017 28.3327 24.9993C28.3327 20.397 24.6017 16.666 19.9993 16.666C15.397 16.666 11.666 20.397 11.666 24.9993C11.666 29.6017 16.666 36.666 19.9993 36.666ZM19.9993 28.3327C21.8403 28.3327 23.3327 26.8403 23.3327 24.9993C23.3327 23.1584 21.8403 21.666 19.9993 21.666C18.1584 21.666 16.666 23.1584 16.666 24.9993C16.666 26.8403 18.1584 28.3327 19.9993 28.3327Z" fill="url(#paint1_linear_6292_3580)"/>
<defs>
<linearGradient id="paint0_linear_6292_3580" x1="31.2414" y1="30.6663" x2="9.32292" y2="15.2062" gradientUnits="userSpaceOnUse">
<stop stop-color="#6A50FF"/>
<stop offset="1" stop-color="#A897FF"/>
</linearGradient>
<linearGradient id="paint1_linear_6292_3580" x1="26.2446" y1="33.066" x2="13.4618" y2="24.7176" gradientUnits="userSpaceOnUse">
<stop stop-color="#6A50FF"/>
<stop offset="1" stop-color="#A897FF"/>
</linearGradient>
</defs>
</svg>
