<svg width="40" height="40" viewBox="0 0 40 40" fill="none" xmlns="http://www.w3.org/2000/svg">
<path opacity="0.4" d="M6.66732 13.334H3.33398V28.334L10.5187 31.9263C12.3701 32.852 14.4116 33.334 16.4816 33.334H30.0006C31.8416 33.334 33.334 31.8416 33.334 30.0007C33.334 28.1597 31.8416 26.6673 30.0006 26.6673H27.3613C25.8089 26.6673 24.2777 26.3059 22.8892 25.6116L17.9873 23.1606C18.3078 22.8655 18.5726 22.4994 18.7553 22.073C19.4446 20.4647 18.7075 18.6015 17.1044 17.9002L6.66732 13.334Z" fill="url(#paint0_linear_6292_3555)"/>
<circle cx="30.0007" cy="13.3337" r="6.66667" fill="url(#paint1_linear_6292_3555)"/>
<defs>
<linearGradient id="paint0_linear_6292_3555" x1="29.5753" y1="29.734" x2="15.7956" y2="13.5348" gradientUnits="userSpaceOnUse">
<stop stop-color="#6A50FF"/>
<stop offset="1" stop-color="#A897FF"/>
</linearGradient>
<linearGradient id="paint1_linear_6292_3555" x1="34.9968" y1="17.6003" x2="25.9596" y2="10.5176" gradientUnits="userSpaceOnUse">
<stop stop-color="#6A50FF"/>
<stop offset="1" stop-color="#A897FF"/>
</linearGradient>
</defs>
</svg>
