<svg width="40" height="40" viewBox="0 0 40 40" fill="none" xmlns="http://www.w3.org/2000/svg">
<path opacity="0.4" d="M17.2934 4.5365L8.96365 8.23859C6.55428 9.30943 4.9643 11.7075 5.11761 14.3397C5.717 24.63 8.73041 29.1602 16.5606 34.4614C18.6349 35.8657 21.3692 35.8692 23.442 34.4626C31.2963 29.1326 34.2019 24.5383 34.8539 14.3753C35.0239 11.7257 33.4314 9.30221 31.0052 8.22391L22.7085 4.5365C20.9848 3.77038 19.0171 3.77038 17.2934 4.5365Z" fill="url(#paint0_linear_6292_3587)"/>
<path fill-rule="evenodd" clip-rule="evenodd" d="M25.8232 15.7253C26.3427 16.1799 26.3954 16.9696 25.9408 17.4892L21.1576 22.9557C20.1298 24.1303 18.3594 24.2876 17.1405 23.3125L14.2192 20.9755C13.6801 20.5442 13.5927 19.7576 14.024 19.2185C14.4552 18.6794 15.2418 18.592 15.7809 19.0233L18.7023 21.3604C18.8764 21.4997 19.1293 21.4772 19.2761 21.3094L24.0593 15.8429C24.5139 15.3234 25.3036 15.2707 25.8232 15.7253Z" fill="url(#paint1_linear_6292_3587)"/>
<defs>
<linearGradient id="paint0_linear_6292_3587" x1="31.1379" y1="29.8363" x2="10.0817" y2="14.2731" gradientUnits="userSpaceOnUse">
<stop stop-color="#6A50FF"/>
<stop offset="1" stop-color="#A897FF"/>
</linearGradient>
<linearGradient id="paint1_linear_6292_3587" x1="24.684" y1="22.4153" x2="18.7819" y2="15.6415" gradientUnits="userSpaceOnUse">
<stop stop-color="#6A50FF"/>
<stop offset="1" stop-color="#A897FF"/>
</linearGradient>
</defs>
</svg>
