<svg width="40" height="40" viewBox="0 0 40 40" fill="none" xmlns="http://www.w3.org/2000/svg">
<path opacity="0.4" fill-rule="evenodd" clip-rule="evenodd" d="M2.0835 9.99967C2.0835 5.62742 5.62791 2.08301 10.0002 2.08301H12.5928C13.2831 2.08301 13.8428 2.64265 13.8428 3.33301C13.8428 4.02336 13.2831 4.58301 12.5928 4.58301H10.0002C7.00862 4.58301 4.5835 7.00813 4.5835 9.99967V12.5923C4.5835 13.2826 4.02385 13.8423 3.3335 13.8423C2.64314 13.8423 2.0835 13.2826 2.0835 12.5923V9.99967ZM26.1576 3.33301C26.1576 2.64265 26.7172 2.08301 27.4076 2.08301H30.0002C34.3724 2.08301 37.9168 5.62742 37.9168 9.99967V12.5923C37.9168 13.2826 37.3572 13.8423 36.6668 13.8423C35.9765 13.8423 35.4168 13.2826 35.4168 12.5923V9.99967C35.4168 7.00813 32.9917 4.58301 30.0002 4.58301H27.4076C26.7172 4.58301 26.1576 4.02336 26.1576 3.33301ZM3.3335 26.1571C4.02385 26.1571 4.5835 26.7167 4.5835 27.4071V29.9997C4.5835 32.9912 7.00862 35.4163 10.0002 35.4163H12.5928C13.2831 35.4163 13.8428 35.976 13.8428 36.6663C13.8428 37.3567 13.2831 37.9163 12.5928 37.9163H10.0002C5.62791 37.9163 2.0835 34.3719 2.0835 29.9997V27.4071C2.0835 26.7167 2.64314 26.1571 3.3335 26.1571ZM36.6668 26.1571C37.3572 26.1571 37.9168 26.7167 37.9168 27.4071V29.9997C37.9168 34.3719 34.3724 37.9163 30.0002 37.9163H27.4076C26.7172 37.9163 26.1576 37.3567 26.1576 36.6663C26.1576 35.976 26.7172 35.4163 27.4076 35.4163H30.0002C32.9917 35.4163 35.4168 32.9912 35.4168 29.9997V27.4071C35.4168 26.7167 35.9765 26.1571 36.6668 26.1571Z" fill="url(#paint0_linear_6292_3374)"/>
<circle cx="20.0003" cy="19.9993" r="8.33333" fill="url(#paint1_linear_6292_3374)"/>
<defs>
<linearGradient id="paint0_linear_6292_3374" x1="33.4274" y1="31.4663" x2="9.13971" y2="12.4316" gradientUnits="userSpaceOnUse">
<stop stop-color="#6A50FF"/>
<stop offset="1" stop-color="#A897FF"/>
</linearGradient>
<linearGradient id="paint1_linear_6292_3374" x1="26.2455" y1="25.3327" x2="14.949" y2="16.4793" gradientUnits="userSpaceOnUse">
<stop stop-color="#6A50FF"/>
<stop offset="1" stop-color="#A897FF"/>
</linearGradient>
</defs>
</svg>
