<svg width="40" height="40" viewBox="0 0 40 40" fill="none" xmlns="http://www.w3.org/2000/svg">
<path opacity="0.4" d="M21.6673 5H18.334C10.0497 5 3.33398 11.7157 3.33398 20V28.3333C3.33398 32.0152 6.31875 35 10.0007 35H21.6673C29.9516 35 36.6673 28.2843 36.6673 20C36.6673 11.7157 29.9516 5 21.6673 5Z" fill="url(#paint0_linear_6292_3781)"/>
<circle cx="20.0013" cy="16.6663" r="3.33333" fill="url(#paint1_linear_6292_3781)"/>
<path d="M20.0006 20C17.4769 20 15.2808 21.4022 14.1488 23.4701C13.2648 25.0849 14.8263 26.6667 16.6672 26.6667H23.3339C25.1749 26.6667 26.7363 25.0849 25.8523 23.4701C24.7204 21.4022 22.5242 20 20.0006 20Z" fill="url(#paint2_linear_6292_3781)"/>
<defs>
<linearGradient id="paint0_linear_6292_3781" x1="32.4911" y1="29.6" x2="11.7492" y2="11.538" gradientUnits="userSpaceOnUse">
<stop stop-color="#6A50FF"/>
<stop offset="1" stop-color="#A897FF"/>
</linearGradient>
<linearGradient id="paint1_linear_6292_3781" x1="22.4994" y1="18.7997" x2="17.9808" y2="15.2583" gradientUnits="userSpaceOnUse">
<stop stop-color="#6A50FF"/>
<stop offset="1" stop-color="#A897FF"/>
</linearGradient>
<linearGradient id="paint2_linear_6292_3781" x1="24.5766" y1="25.4667" x2="20.2116" y2="19.2002" gradientUnits="userSpaceOnUse">
<stop stop-color="#6A50FF"/>
<stop offset="1" stop-color="#A897FF"/>
</linearGradient>
</defs>
</svg>
