<svg width="40" height="40" viewBox="0 0 40 40" fill="none" xmlns="http://www.w3.org/2000/svg">
<path opacity="0.4" d="M3.33398 9.99967C3.33398 6.31778 6.31875 3.33301 10.0007 3.33301H30.0007C33.6826 3.33301 36.6673 6.31778 36.6673 9.99967V29.9997C36.6673 33.6816 33.6826 36.6663 30.0007 36.6663H10.0007C6.31875 36.6663 3.33398 33.6816 3.33398 29.9997V9.99967Z" fill="url(#paint0_linear_6292_3807)"/>
<path d="M10 21.0301C10 19.7912 11.3039 18.9853 12.412 19.5394L17.0186 21.8427C18.247 22.4569 18.247 24.2099 17.0186 24.8241L12.412 27.1274C11.3039 27.6815 10 26.8757 10 25.6367V21.0301Z" fill="url(#paint1_linear_6292_3807)"/>
<path d="M36.6673 11.6663H3.33398V7.33301C3.33398 5.12387 5.12484 3.33301 7.33398 3.33301H32.6673C34.8765 3.33301 36.6673 5.12387 36.6673 7.33301V11.6663Z" fill="url(#paint2_linear_6292_3807)"/>
<path fill-rule="evenodd" clip-rule="evenodd" d="M22.084 20C22.084 19.3096 22.6436 18.75 23.334 18.75L30.0007 18.75C30.691 18.75 31.2507 19.3096 31.2507 20C31.2507 20.6904 30.691 21.25 30.0007 21.25H23.334C22.6436 21.25 22.084 20.6904 22.084 20Z" fill="url(#paint3_linear_6292_3807)"/>
<path fill-rule="evenodd" clip-rule="evenodd" d="M22.084 26.666C22.084 25.9757 22.6436 25.416 23.334 25.416L30.0007 25.416C30.691 25.416 31.2507 25.9757 31.2507 26.666C31.2507 27.3564 30.691 27.916 30.0007 27.916H23.334C22.6436 27.916 22.084 27.3564 22.084 26.666Z" fill="url(#paint4_linear_6292_3807)"/>
<defs>
<linearGradient id="paint0_linear_6292_3807" x1="32.4911" y1="30.6663" x2="9.89791" y2="12.9596" gradientUnits="userSpaceOnUse">
<stop stop-color="#6A50FF"/>
<stop offset="1" stop-color="#A897FF"/>
</linearGradient>
<linearGradient id="paint1_linear_6292_3807" x1="16.9451" y1="25.8756" x2="11.5613" y2="21.6584" gradientUnits="userSpaceOnUse">
<stop stop-color="#6A50FF"/>
<stop offset="1" stop-color="#A897FF"/>
</linearGradient>
<linearGradient id="paint2_linear_6292_3807" x1="32.4911" y1="10.1663" x2="29.1228" y2="-0.392899" gradientUnits="userSpaceOnUse">
<stop stop-color="#6A50FF"/>
<stop offset="1" stop-color="#A897FF"/>
</linearGradient>
<linearGradient id="paint3_linear_6292_3807" x1="30.1022" y1="20.8" x2="29.0188" y2="17.6869" gradientUnits="userSpaceOnUse">
<stop stop-color="#6A50FF"/>
<stop offset="1" stop-color="#A897FF"/>
</linearGradient>
<linearGradient id="paint4_linear_6292_3807" x1="30.1022" y1="27.466" x2="29.0188" y2="24.3529" gradientUnits="userSpaceOnUse">
<stop stop-color="#6A50FF"/>
<stop offset="1" stop-color="#A897FF"/>
</linearGradient>
</defs>
</svg>
