<svg width="40" height="40" viewBox="0 0 40 40" fill="none" xmlns="http://www.w3.org/2000/svg">
<circle cx="32.5007" cy="7.49967" r="4.16667" fill="url(#paint0_linear_6292_3773)"/>
<path opacity="0.4" fill-rule="evenodd" clip-rule="evenodd" d="M27.2962 3.33301H7.33398C5.12485 3.33301 3.33398 5.12387 3.33398 7.33301V32.6663C3.33398 34.8755 5.12484 36.6663 7.33398 36.6663H32.6673C34.8765 36.6663 36.6673 34.8755 36.6673 32.6663V12.7042C35.526 13.6191 34.0772 14.1663 32.5007 14.1663C28.8188 14.1663 25.834 11.1816 25.834 7.49967C25.834 5.9231 26.3813 4.47434 27.2962 3.33301Z" fill="url(#paint1_linear_6292_3773)"/>
<path fill-rule="evenodd" clip-rule="evenodd" d="M16.6673 12.916C15.5167 12.916 14.584 13.8488 14.584 14.9993V16.666C14.584 19.1973 12.532 21.2493 10.0007 21.2493H8.33398C7.64363 21.2493 7.08398 20.6897 7.08398 19.9993C7.08398 19.309 7.64363 18.7493 8.33398 18.7493H10.0007C11.1512 18.7493 12.084 17.8166 12.084 16.666V14.9993C12.084 12.468 14.136 10.416 16.6673 10.416C19.1986 10.416 21.2507 12.468 21.2507 14.9993V24.9993C21.2507 26.1499 22.1834 27.0827 23.334 27.0827C24.4846 27.0827 25.4173 26.1499 25.4173 24.9993V23.3327C25.4173 20.8014 27.4693 18.7493 30.0007 18.7493H31.6673C32.3577 18.7493 32.9173 19.309 32.9173 19.9993C32.9173 20.6897 32.3577 21.2493 31.6673 21.2493H30.0007C28.8501 21.2493 27.9173 22.1821 27.9173 23.3327V24.9993C27.9173 27.5307 25.8653 29.5827 23.334 29.5827C20.8027 29.5827 18.7507 27.5307 18.7507 24.9993V14.9993C18.7507 13.8488 17.8179 12.916 16.6673 12.916Z" fill="url(#paint2_linear_6292_3773)"/>
<defs>
<linearGradient id="paint0_linear_6292_3773" x1="35.6233" y1="10.1663" x2="29.975" y2="5.73967" gradientUnits="userSpaceOnUse">
<stop stop-color="#6A50FF"/>
<stop offset="1" stop-color="#A897FF"/>
</linearGradient>
<linearGradient id="paint1_linear_6292_3773" x1="32.4911" y1="30.6663" x2="9.89791" y2="12.9596" gradientUnits="userSpaceOnUse">
<stop stop-color="#6A50FF"/>
<stop offset="1" stop-color="#A897FF"/>
</linearGradient>
<linearGradient id="paint2_linear_6292_3773" x1="29.6807" y1="26.1327" x2="16.322" y2="12.0217" gradientUnits="userSpaceOnUse">
<stop stop-color="#6A50FF"/>
<stop offset="1" stop-color="#A897FF"/>
</linearGradient>
</defs>
</svg>
