<svg width="40" height="40" viewBox="0 0 40 40" fill="none" xmlns="http://www.w3.org/2000/svg">
<path opacity="0.4" d="M13.333 9.99967C13.333 6.31778 16.3178 3.33301 19.9997 3.33301H29.9997C33.6816 3.33301 36.6664 6.31778 36.6664 9.99967V19.9997C36.6664 23.6816 33.6816 26.6663 29.9997 26.6663H21.6795V19.9997H13.333V9.99967Z" fill="url(#paint0_linear_6292_3379)"/>
<path fill-rule="evenodd" clip-rule="evenodd" d="M9.99967 13.333C6.31778 13.333 3.33301 16.3178 3.33301 19.9997V29.9997C3.33301 33.6816 6.31778 36.6663 9.99968 36.6663H19.9997C23.6816 36.6663 26.6664 33.6816 26.6664 29.9997V19.9997C26.6664 16.3178 23.6816 13.333 19.9997 13.333H9.99967ZM20.9404 22.8052C21.395 22.2857 21.3424 21.496 20.8229 21.0414C20.3033 20.5868 19.5136 20.6394 19.059 21.159L14.2758 26.6255C14.129 26.7933 13.8761 26.8157 13.702 26.6765L10.7806 24.3394C10.2415 23.9081 9.4549 23.9955 9.02363 24.5346C8.59237 25.0737 8.67977 25.8603 9.21885 26.2915L12.1402 28.6286C13.359 29.6037 15.1294 29.4464 16.1573 28.2717L20.9404 22.8052Z" fill="url(#paint1_linear_6292_3379)"/>
<defs>
<linearGradient id="paint0_linear_6292_3379" x1="33.743" y1="22.4663" x2="17.9278" y2="10.0716" gradientUnits="userSpaceOnUse">
<stop stop-color="#6A50FF"/>
<stop offset="1" stop-color="#A897FF"/>
</linearGradient>
<linearGradient id="paint1_linear_6292_3379" x1="23.743" y1="32.4663" x2="7.92779" y2="20.0716" gradientUnits="userSpaceOnUse">
<stop stop-color="#6A50FF"/>
<stop offset="1" stop-color="#A897FF"/>
</linearGradient>
</defs>
</svg>
