<svg width="40" height="40" viewBox="0 0 40 40" fill="none" xmlns="http://www.w3.org/2000/svg">
<circle cx="32.5002" cy="7.49967" r="4.16667" fill="url(#paint0_linear_6292_3347)"/>
<path opacity="0.4" fill-rule="evenodd" clip-rule="evenodd" d="M27.2957 3.33301H7.3335C5.12436 3.33301 3.3335 5.12387 3.3335 7.33301V32.6663C3.3335 34.8755 5.12436 36.6663 7.33349 36.6663H32.6668C34.876 36.6663 36.6668 34.8755 36.6668 32.6663V12.7042C35.5255 13.6191 34.0767 14.1663 32.5002 14.1663C28.8183 14.1663 25.8335 11.1816 25.8335 7.49967C25.8335 5.9231 26.3808 4.47434 27.2957 3.33301Z" fill="url(#paint1_linear_6292_3347)"/>
<path fill-rule="evenodd" clip-rule="evenodd" d="M16.6668 12.916C15.5162 12.916 14.5835 13.8488 14.5835 14.9993V16.666C14.5835 19.1973 12.5315 21.2493 10.0002 21.2493H8.3335C7.64314 21.2493 7.0835 20.6897 7.0835 19.9993C7.0835 19.309 7.64314 18.7493 8.3335 18.7493H10.0002C11.1508 18.7493 12.0835 17.8166 12.0835 16.666V14.9993C12.0835 12.468 14.1355 10.416 16.6668 10.416C19.1981 10.416 21.2502 12.468 21.2502 14.9993V24.9993C21.2502 26.1499 22.1829 27.0827 23.3335 27.0827C24.4841 27.0827 25.4168 26.1499 25.4168 24.9993V23.3327C25.4168 20.8014 27.4689 18.7493 30.0002 18.7493H31.6668C32.3572 18.7493 32.9168 19.309 32.9168 19.9993C32.9168 20.6897 32.3572 21.2493 31.6668 21.2493H30.0002C28.8496 21.2493 27.9168 22.1821 27.9168 23.3327V24.9993C27.9168 27.5307 25.8648 29.5827 23.3335 29.5827C20.8022 29.5827 18.7502 27.5307 18.7502 24.9993V14.9993C18.7502 13.8488 17.8174 12.916 16.6668 12.916Z" fill="url(#paint2_linear_6292_3347)"/>
<defs>
<linearGradient id="paint0_linear_6292_3347" x1="35.6228" y1="10.1663" x2="29.9745" y2="5.73967" gradientUnits="userSpaceOnUse">
<stop stop-color="#6A50FF"/>
<stop offset="1" stop-color="#A897FF"/>
</linearGradient>
<linearGradient id="paint1_linear_6292_3347" x1="32.4906" y1="30.6663" x2="9.89742" y2="12.9596" gradientUnits="userSpaceOnUse">
<stop stop-color="#6A50FF"/>
<stop offset="1" stop-color="#A897FF"/>
</linearGradient>
<linearGradient id="paint2_linear_6292_3347" x1="29.6802" y1="26.1327" x2="16.3215" y2="12.0217" gradientUnits="userSpaceOnUse">
<stop stop-color="#6A50FF"/>
<stop offset="1" stop-color="#A897FF"/>
</linearGradient>
</defs>
</svg>
