<svg width="40" height="40" viewBox="0 0 40 40" fill="none" xmlns="http://www.w3.org/2000/svg">
<path opacity="0.4" d="M21.6668 5H18.3335C10.0492 5 3.3335 11.7157 3.3335 20V28.3333C3.3335 32.0152 6.31826 35 10.0002 35H21.6668C29.9511 35 36.6668 28.2843 36.6668 20C36.6668 11.7157 29.9511 5 21.6668 5Z" fill="url(#paint0_linear_6292_3334)"/>
<path d="M20.4422 16.5286L20.0003 16.9705L19.5583 16.5286C18.3379 15.3082 16.3593 15.3082 15.1389 16.5286C13.9185 17.749 13.9185 19.7276 15.1389 20.948L18.5861 24.3951C19.3671 25.1762 20.6334 25.1762 21.4145 24.3951L24.8616 20.948C26.082 19.7276 26.082 17.749 24.8616 16.5286C23.6412 15.3082 21.6626 15.3082 20.4422 16.5286Z" fill="url(#paint1_linear_6292_3334)"/>
<defs>
<linearGradient id="paint0_linear_6292_3334" x1="32.4906" y1="29.6" x2="11.7487" y2="11.538" gradientUnits="userSpaceOnUse">
<stop stop-color="#6A50FF"/>
<stop offset="1" stop-color="#A897FF"/>
</linearGradient>
<linearGradient id="paint1_linear_6292_3334" x1="24.9126" y1="18.3514" x2="16.3637" y2="19.388" gradientUnits="userSpaceOnUse">
<stop stop-color="#6A50FF"/>
<stop offset="1" stop-color="#A897FF"/>
</linearGradient>
</defs>
</svg>
