<svg width="40" height="40" viewBox="0 0 40 40" fill="none" xmlns="http://www.w3.org/2000/svg">
<path d="M24.4499 35.4358L20.0955 22.3726C19.6264 20.9653 20.9653 19.6264 22.3726 20.0955L35.4358 24.4499C37.077 24.997 37.077 27.3184 35.4358 27.8655L30.612 29.4734C30.0744 29.6526 29.6526 30.0744 29.4734 30.612L27.8655 35.4358C27.3184 37.077 24.997 37.077 24.4499 35.4358Z" fill="url(#paint0_linear_6292_3592)"/>
<path opacity="0.4" fill-rule="evenodd" clip-rule="evenodd" d="M20.0013 12.916C16.0893 12.916 12.918 16.0873 12.918 19.9993C12.918 22.9718 14.7493 25.5196 17.35 26.5702C17.9901 26.8287 18.2994 27.5572 18.0408 28.1973C17.7822 28.8375 17.0537 29.1467 16.4136 28.8882C12.9005 27.469 10.418 24.0256 10.418 19.9993C10.418 14.7066 14.7086 10.416 20.0013 10.416C24.0275 10.416 27.471 12.8985 28.8901 16.4117C29.1487 17.0518 28.8394 17.7803 28.1993 18.0389C27.5592 18.2974 26.8307 17.9881 26.5721 17.348C25.5216 14.7474 22.9738 12.916 20.0013 12.916Z" fill="url(#paint1_linear_6292_3592)"/>
<path opacity="0.4" fill-rule="evenodd" clip-rule="evenodd" d="M20.0007 4.58301C11.4863 4.58301 4.58398 11.4853 4.58398 19.9997C4.58398 28.4706 11.416 35.3459 19.8703 35.4158C20.5606 35.4215 21.1156 35.9858 21.1099 36.6761C21.1042 37.3664 20.5399 37.9214 19.8496 37.9157C10.0239 37.8344 2.08398 29.8444 2.08398 19.9997C2.08398 10.1046 10.1055 2.08301 20.0007 2.08301C29.8453 2.08301 37.8354 10.0229 37.9167 19.8486C37.9224 20.5389 37.3674 21.1032 36.6771 21.1089C35.9867 21.1146 35.4225 20.5596 35.4168 19.8693C35.3469 11.4151 28.4715 4.58301 20.0007 4.58301Z" fill="url(#paint2_linear_6292_3592)"/>
<defs>
<linearGradient id="paint0_linear_6292_3592" x1="34.5785" y1="33.6667" x2="23.282" y2="24.8133" gradientUnits="userSpaceOnUse">
<stop stop-color="#6A50FF"/>
<stop offset="1" stop-color="#A897FF"/>
</linearGradient>
<linearGradient id="paint1_linear_6292_3592" x1="26.6557" y1="25.6381" x2="14.0734" y2="15.7771" gradientUnits="userSpaceOnUse">
<stop stop-color="#6A50FF"/>
<stop offset="1" stop-color="#A897FF"/>
</linearGradient>
<linearGradient id="paint2_linear_6292_3592" x1="33.4273" y1="31.4659" x2="9.14009" y2="12.4315" gradientUnits="userSpaceOnUse">
<stop stop-color="#6A50FF"/>
<stop offset="1" stop-color="#A897FF"/>
</linearGradient>
</defs>
</svg>
