<svg width="40" height="40" viewBox="0 0 40 40" fill="none" xmlns="http://www.w3.org/2000/svg">
<path opacity="0.4" fill-rule="evenodd" clip-rule="evenodd" d="M2.08398 9.99967C2.08398 5.62742 5.6284 2.08301 10.0006 2.08301H12.5932C13.2836 2.08301 13.8432 2.64265 13.8432 3.33301C13.8432 4.02336 13.2836 4.58301 12.5932 4.58301H10.0006C7.00911 4.58301 4.58398 7.00813 4.58398 9.99967V12.5923C4.58398 13.2826 4.02434 13.8423 3.33398 13.8423C2.64363 13.8423 2.08398 13.2826 2.08398 12.5923V9.99967ZM26.1581 3.33301C26.1581 2.64265 26.7177 2.08301 27.4081 2.08301H30.0007C34.3729 2.08301 37.9173 5.62742 37.9173 9.99967V12.5923C37.9173 13.2826 37.3577 13.8423 36.6673 13.8423C35.977 13.8423 35.4173 13.2826 35.4173 12.5923V9.99967C35.4173 7.00813 32.9922 4.58301 30.0007 4.58301H27.4081C26.7177 4.58301 26.1581 4.02336 26.1581 3.33301ZM3.33398 26.1571C4.02434 26.1571 4.58398 26.7167 4.58398 27.4071V29.9997C4.58398 32.9912 7.00911 35.4163 10.0006 35.4163H12.5932C13.2836 35.4163 13.8432 35.976 13.8432 36.6663C13.8432 37.3567 13.2836 37.9163 12.5932 37.9163H10.0006C5.6284 37.9163 2.08398 34.3719 2.08398 29.9997V27.4071C2.08398 26.7167 2.64363 26.1571 3.33398 26.1571ZM36.6673 26.1571C37.3577 26.1571 37.9173 26.7167 37.9173 27.4071V29.9997C37.9173 34.3719 34.3729 37.9163 30.0007 37.9163H27.4081C26.7177 37.9163 26.1581 37.3567 26.1581 36.6663C26.1581 35.976 26.7177 35.4163 27.4081 35.4163H30.0007C32.9922 35.4163 35.4173 32.9912 35.4173 29.9997V27.4071C35.4173 26.7167 35.977 26.1571 36.6673 26.1571Z" fill="url(#paint0_linear_6292_3675)"/>
<circle cx="20.0013" cy="19.9993" r="8.33333" fill="url(#paint1_linear_6292_3675)"/>
<defs>
<linearGradient id="paint0_linear_6292_3675" x1="33.4278" y1="31.4663" x2="9.1402" y2="12.4316" gradientUnits="userSpaceOnUse">
<stop stop-color="#6A50FF"/>
<stop offset="1" stop-color="#A897FF"/>
</linearGradient>
<linearGradient id="paint1_linear_6292_3675" x1="26.2465" y1="25.3327" x2="14.9499" y2="16.4793" gradientUnits="userSpaceOnUse">
<stop stop-color="#6A50FF"/>
<stop offset="1" stop-color="#A897FF"/>
</linearGradient>
</defs>
</svg>
