<svg width="40" height="40" viewBox="0 0 40 40" fill="none" xmlns="http://www.w3.org/2000/svg">
<path opacity="0.4" d="M34.796 20.5349C37.2911 22.9233 37.2911 27.076 34.796 29.4645C31.3563 32.7572 26.0077 36.6663 20.0007 36.6663C13.9936 36.6663 8.64501 32.7572 5.20533 29.4645C2.7102 27.076 2.7102 22.9233 5.20533 20.5349C8.64501 17.2422 13.9936 13.333 20.0007 13.333C26.0077 13.333 31.3563 17.2422 34.796 20.5349Z" fill="url(#paint0_linear_6292_3680)"/>
<circle cx="20" cy="25" r="5" fill="url(#paint1_linear_6292_3680)"/>
<path fill-rule="evenodd" clip-rule="evenodd" d="M20 2.08301C20.6904 2.08301 21.25 2.64265 21.25 3.33301V6.66634C21.25 7.3567 20.6904 7.91634 20 7.91634C19.3096 7.91634 18.75 7.3567 18.75 6.66634V3.33301C18.75 2.64265 19.3096 2.08301 20 2.08301Z" fill="url(#paint2_linear_6292_3680)"/>
<path fill-rule="evenodd" clip-rule="evenodd" d="M4.11612 7.44912C4.60427 6.96097 5.39573 6.96097 5.88388 7.44912L8.38388 9.94912C8.87204 10.4373 8.87204 11.2287 8.38388 11.7169C7.89573 12.205 7.10427 12.205 6.61612 11.7169L4.11612 9.21689C3.62796 8.72874 3.62796 7.93728 4.11612 7.44912ZM35.8839 7.44912C36.372 7.93728 36.372 8.72874 35.8839 9.21689L33.3839 11.7169C32.8957 12.205 32.1043 12.205 31.6161 11.7169C31.128 11.2287 31.128 10.4373 31.6161 9.94912L34.1161 7.44912C34.6043 6.96097 35.3957 6.96097 35.8839 7.44912Z" fill="url(#paint3_linear_6292_3680)"/>
<defs>
<linearGradient id="paint0_linear_6292_3680" x1="32.4911" y1="32.4663" x2="16.3073" y2="14.347" gradientUnits="userSpaceOnUse">
<stop stop-color="#6A50FF"/>
<stop offset="1" stop-color="#A897FF"/>
</linearGradient>
<linearGradient id="paint1_linear_6292_3680" x1="23.7471" y1="28.2" x2="16.9692" y2="22.888" gradientUnits="userSpaceOnUse">
<stop stop-color="#6A50FF"/>
<stop offset="1" stop-color="#A897FF"/>
</linearGradient>
<linearGradient id="paint2_linear_6292_3680" x1="20.9368" y1="6.86634" x2="18.4788" y2="6.04076" gradientUnits="userSpaceOnUse">
<stop stop-color="#6A50FF"/>
<stop offset="1" stop-color="#A897FF"/>
</linearGradient>
<linearGradient id="paint3_linear_6292_3680" x1="32.1781" y1="11.183" x2="30.8588" y2="4.46179" gradientUnits="userSpaceOnUse">
<stop stop-color="#6A50FF"/>
<stop offset="1" stop-color="#A897FF"/>
</linearGradient>
</defs>
</svg>
