<svg width="40" height="40" viewBox="0 0 40 40" fill="none" xmlns="http://www.w3.org/2000/svg">
<circle cx="10.0013" cy="6.66634" r="3.33333" fill="url(#paint0_linear_6292_3787)"/>
<ellipse opacity="0.4" cx="10" cy="13.3333" rx="5" ry="3.33333" fill="url(#paint1_linear_6292_3787)"/>
<circle cx="30.0013" cy="26.6663" r="3.33333" fill="url(#paint2_linear_6292_3787)"/>
<path fill-rule="evenodd" clip-rule="evenodd" d="M18.7507 3.33301C18.7507 2.64265 19.3103 2.08301 20.0007 2.08301C29.8958 2.08301 37.9173 10.1046 37.9173 19.9997C37.9173 20.69 37.3577 21.2497 36.6673 21.2497C35.977 21.2497 35.4173 20.69 35.4173 19.9997C35.4173 11.4853 28.515 4.58301 20.0007 4.58301C19.3103 4.58301 18.7507 4.02336 18.7507 3.33301ZM3.33398 18.7497C4.02434 18.7497 4.58398 19.3093 4.58398 19.9997C4.58398 28.5141 11.4863 35.4163 20.0007 35.4163C20.691 35.4163 21.2507 35.976 21.2507 36.6663C21.2507 37.3567 20.691 37.9163 20.0007 37.9163C10.1055 37.9163 2.08398 29.8948 2.08398 19.9997C2.08398 19.3093 2.64363 18.7497 3.33398 18.7497Z" fill="url(#paint3_linear_6292_3787)"/>
<ellipse opacity="0.4" cx="30" cy="33.3333" rx="5" ry="3.33333" fill="url(#paint4_linear_6292_3787)"/>
<defs>
<linearGradient id="paint0_linear_6292_3787" x1="12.4994" y1="8.79967" x2="7.98075" y2="5.25834" gradientUnits="userSpaceOnUse">
<stop stop-color="#6A50FF"/>
<stop offset="1" stop-color="#A897FF"/>
</linearGradient>
<linearGradient id="paint1_linear_6292_3787" x1="13.7471" y1="15.4667" x2="9.15387" y2="10.0669" gradientUnits="userSpaceOnUse">
<stop stop-color="#6A50FF"/>
<stop offset="1" stop-color="#A897FF"/>
</linearGradient>
<linearGradient id="paint2_linear_6292_3787" x1="32.4994" y1="28.7997" x2="27.9808" y2="25.2583" gradientUnits="userSpaceOnUse">
<stop stop-color="#6A50FF"/>
<stop offset="1" stop-color="#A897FF"/>
</linearGradient>
<linearGradient id="paint3_linear_6292_3787" x1="33.4278" y1="31.4663" x2="9.1402" y2="12.4316" gradientUnits="userSpaceOnUse">
<stop stop-color="#6A50FF"/>
<stop offset="1" stop-color="#A897FF"/>
</linearGradient>
<linearGradient id="paint4_linear_6292_3787" x1="33.7471" y1="35.4667" x2="29.1539" y2="30.0669" gradientUnits="userSpaceOnUse">
<stop stop-color="#6A50FF"/>
<stop offset="1" stop-color="#A897FF"/>
</linearGradient>
</defs>
</svg>
