<svg width="537" height="537" viewBox="0 0 537 537" fill="none" xmlns="http://www.w3.org/2000/svg">
<circle cx="269" cy="281" r="3" fill="#ABABCD"/>
<circle cx="269" cy="281" r="3" fill="url(#paint0_linear_5711_59215)"/>
<circle cx="269" cy="265" r="3" fill="url(#paint1_linear_5711_59215)"/>
<circle cx="269" cy="249" r="3" fill="url(#paint2_linear_5711_59215)"/>
<circle cx="269" cy="233" r="3" fill="url(#paint3_linear_5711_59215)"/>
<circle cx="269" cy="217" r="3" fill="url(#paint4_linear_5711_59215)"/>
<circle cx="269" cy="201" r="3" fill="url(#paint5_linear_5711_59215)"/>
<circle cx="269" cy="185" r="3" fill="url(#paint6_linear_5711_59215)"/>
<circle cx="269" cy="297" r="3" fill="url(#paint7_linear_5711_59215)"/>
<circle cx="269" cy="313" r="3" fill="#32323C"/>
<circle cx="269" cy="329" r="3" fill="#32323C"/>
<circle cx="279" cy="340" r="3" fill="#32323C"/>
<circle cx="293" cy="345" r="3" fill="#32323C"/>
<circle cx="309" cy="345" r="3" fill="#32323C"/>
<circle cx="325" cy="345" r="3" fill="#32323C"/>
<circle cx="341" cy="345" r="3" fill="#32323C"/>
<circle cx="357" cy="345" r="3" fill="#32323C"/>
<circle cx="373" cy="345" r="3" fill="#32323C"/>
<circle cx="389" cy="345" r="3" fill="#32323C"/>
<circle cx="405" cy="345" r="3" fill="#32323C"/>
<circle cx="421" cy="345" r="3" fill="#32323C"/>
<circle cx="437" cy="349" r="3" fill="#32323C"/>
<circle cx="446" cy="361" r="3" fill="#32323C"/>
<circle cx="446" cy="377" r="3" fill="#32323C"/>
<circle cx="325" cy="361" r="3" fill="#32323C"/>
<circle cx="207" cy="361" r="3" fill="#32323C"/>
<circle cx="325" cy="377" r="3" fill="#32323C"/>
<circle cx="207" cy="377" r="3" fill="#32323C"/>
<circle cx="259" cy="340" r="3" fill="#32323C"/>
<circle cx="245" cy="345" r="3" fill="#32323C"/>
<circle cx="229" cy="345" r="3" fill="#32323C"/>
<circle cx="213" cy="345" r="3" fill="#32323C"/>
<circle cx="197" cy="345" r="3" fill="#32323C"/>
<circle cx="181" cy="345" r="3" fill="#32323C"/>
<circle cx="165" cy="345" r="3" fill="#32323C"/>
<circle cx="149" cy="345" r="3" fill="#32323C"/>
<circle cx="133" cy="345" r="3" fill="#32323C"/>
<circle cx="117" cy="345" r="3" fill="#32323C"/>
<circle cx="92" cy="361" r="3" fill="#32323C"/>
<circle cx="92" cy="377" r="3" fill="#32323C"/>
<circle cx="101" cy="349" r="3" fill="#32323C"/>
<rect x="413" y="390" width="72" height="72" rx="12" fill="url(#paint8_linear_5711_59215)" fill-opacity="0.08"/>
<path opacity="0.4" d="M436.164 413.167C436.164 410.129 438.626 407.667 441.664 407.667H456.331C459.368 407.667 461.831 410.129 461.831 413.167V438.833C461.831 441.871 459.368 444.333 456.331 444.333H441.664C438.626 444.333 436.164 441.871 436.164 438.833V413.167Z" fill="#575263"/>
<path fill-rule="evenodd" clip-rule="evenodd" d="M445.789 438.833C445.789 438.074 446.405 437.458 447.164 437.458H450.831C451.59 437.458 452.206 438.074 452.206 438.833C452.206 439.593 451.59 440.208 450.831 440.208H447.164C446.405 440.208 445.789 439.593 445.789 438.833Z" fill="#575263"/>
<rect x="293" y="390" width="72" height="72" rx="12" fill="url(#paint9_linear_5711_59215)" fill-opacity="0.08"/>
<path opacity="0.4" d="M326.96 409.5H324.923C317.048 409.5 310.664 415.964 310.664 423.938V430.125C310.664 432.403 312.488 434.25 314.738 434.25H326.96C333.711 434.25 339.183 428.71 339.183 421.875C339.183 420.879 339.066 419.911 338.847 418.983C337.561 413.544 332.727 409.5 326.96 409.5Z" fill="#575263"/>
<path d="M326.96 434.25C333.711 434.25 339.183 428.71 339.183 421.875C339.183 420.88 339.067 419.911 338.847 418.984C343.845 421.228 347.331 426.296 347.331 432.188V438.375C347.331 440.653 345.507 442.5 343.257 442.5H331.035C325.713 442.5 321.186 439.057 319.508 434.25H326.96Z" fill="#575263"/>
<rect x="53" y="390" width="72" height="72" rx="12" fill="url(#paint10_linear_5711_59215)" fill-opacity="0.08"/>
<path opacity="0.4" d="M72.3359 416C72.3359 412.318 75.3207 409.333 79.0026 409.333H99.0026C102.685 409.333 105.669 412.318 105.669 416V436C105.669 439.682 102.685 442.667 99.0026 442.667H79.0026C75.3207 442.667 72.3359 439.682 72.3359 436V416Z" fill="#575263"/>
<path d="M83.1719 434.333C83.1719 435.714 82.0526 436.833 80.6719 436.833C79.2912 436.833 78.1719 435.714 78.1719 434.333C78.1719 432.953 79.2912 431.833 80.6719 431.833C82.0526 431.833 83.1719 432.953 83.1719 434.333Z" fill="#575263"/>
<path fill-rule="evenodd" clip-rule="evenodd" d="M77.7597 424.179C77.8452 423.494 78.4698 423.008 79.1548 423.093C85.8075 423.923 91.0776 429.193 91.9072 435.845C91.9926 436.53 91.5065 437.155 90.8215 437.24C90.1364 437.326 89.5118 436.84 89.4264 436.155C88.7384 430.637 84.3627 426.262 78.8455 425.574C78.1604 425.488 77.6743 424.864 77.7597 424.179Z" fill="#575263"/>
<path fill-rule="evenodd" clip-rule="evenodd" d="M77.75 416C77.75 415.31 78.3096 414.75 79 414.75C90.7361 414.75 100.25 424.264 100.25 436C100.25 436.69 99.6904 437.25 99 437.25C98.3096 437.25 97.75 436.69 97.75 436C97.75 425.645 89.3553 417.25 79 417.25C78.3096 417.25 77.75 416.69 77.75 416Z" fill="#575263"/>
<rect x="173" y="390" width="72" height="72" rx="12" fill="url(#paint11_linear_5711_59215)" fill-opacity="0.08"/>
<path fill-rule="evenodd" clip-rule="evenodd" d="M230.647 407.525C232.014 408.892 232.014 411.108 230.647 412.475L228.061 415.061C227.475 415.646 226.525 415.646 225.94 415.061C225.354 414.475 225.354 413.525 225.94 412.939L227.379 411.5L219 411.5C218.172 411.5 217.5 410.828 217.5 410C217.5 409.172 218.172 408.5 219 408.5L227.379 408.5L225.94 407.061C225.354 406.475 225.354 405.525 225.94 404.939C226.525 404.354 227.475 404.354 228.061 404.939L230.647 407.525Z" fill="#575263"/>
<path opacity="0.4" d="M191 420C191 416.686 193.686 414 197 414H217C220.314 414 223 416.686 223 420V436C223 439.314 220.314 442 217 442H197C193.686 442 191 439.314 191 436V420Z" fill="#575263"/>
<path fill-rule="evenodd" clip-rule="evenodd" d="M197.8 423.1C198.297 422.437 199.237 422.303 199.9 422.8L204.3 426.1C205.9 427.3 208.1 427.3 209.7 426.1L214.1 422.8C214.763 422.303 215.703 422.437 216.2 423.1C216.697 423.763 216.563 424.703 215.9 425.2L211.5 428.5C208.833 430.5 205.167 430.5 202.5 428.5L198.1 425.2C197.437 424.703 197.303 423.763 197.8 423.1Z" fill="#575263"/>
<rect x="245" y="257" width="48" height="48" rx="24" fill="#111112"/>
<rect x="245" y="257" width="48" height="48" rx="24" fill="url(#paint12_linear_5711_59215)" fill-opacity="0.2"/>
<rect x="245.5" y="257.5" width="47" height="47" rx="23.5" stroke="#7A57F1" stroke-opacity="0.2"/>
<path opacity="0.4" d="M275 272H263C260.791 272 259 273.791 259 276V286C259 288.209 260.791 290 263 290H275C277.209 290 279 288.209 279 286V276C279 273.791 277.209 272 275 272Z" fill="url(#paint13_linear_5711_59215)"/>
<path fill-rule="evenodd" clip-rule="evenodd" d="M262.376 276.584C262.606 276.239 263.071 276.146 263.416 276.376L267.197 278.897C268.289 279.625 269.711 279.625 270.803 278.897L274.584 276.376C274.929 276.146 275.394 276.239 275.624 276.584C275.854 276.929 275.761 277.394 275.416 277.624L271.635 280.145C270.039 281.209 267.961 281.209 266.365 280.145L262.584 277.624C262.239 277.394 262.146 276.929 262.376 276.584Z" fill="url(#paint14_linear_5711_59215)"/>
<path fill-rule="evenodd" clip-rule="evenodd" d="M258.25 284C258.25 283.586 258.586 283.25 259 283.25H265C265.414 283.25 265.75 283.586 265.75 284C265.75 284.414 265.414 284.75 265 284.75H259C258.586 284.75 258.25 284.414 258.25 284Z" fill="url(#paint15_linear_5711_59215)"/>
<path fill-rule="evenodd" clip-rule="evenodd" d="M258.25 287C258.25 286.586 258.586 286.25 259 286.25H265C265.414 286.25 265.75 286.586 265.75 287C265.75 287.414 265.414 287.75 265 287.75H259C258.586 287.75 258.25 287.414 258.25 287Z" fill="url(#paint16_linear_5711_59215)"/>
<rect x="91" y="76" width="355" height="96" rx="12" fill="#111112"/>
<rect x="91" y="76" width="355" height="96" rx="12" fill="url(#paint17_linear_5711_59215)" fill-opacity="0.2"/>
<rect x="91.5" y="76.5" width="354" height="95" rx="11.5" stroke="#7A57F1" stroke-opacity="0.2"/>
<rect x="187" y="123" width="217" height="10" rx="5" fill="url(#paint18_linear_5711_59215)" fill-opacity="0.12"/>
<rect x="187" y="139" width="129" height="10" rx="5" fill="url(#paint19_linear_5711_59215)" fill-opacity="0.12"/>
<path d="M190.612 104.8L187.14 99.074H189.128L191.508 103.232L193.902 99.074H195.792L192.292 104.8V109H190.612V104.8ZM198.141 104.03C198.141 106.424 199.793 107.614 201.459 107.614C203.139 107.614 204.791 106.424 204.791 104.03C204.791 101.636 203.139 100.446 201.459 100.446C199.793 100.446 198.141 101.636 198.141 104.03ZM196.419 104.03C196.419 100.782 198.855 98.864 201.459 98.864C204.063 98.864 206.513 100.782 206.513 104.03C206.513 107.292 204.063 109.21 201.459 109.21C198.855 109.21 196.419 107.292 196.419 104.03ZM212.431 109.21C210.359 109.21 208.735 107.936 208.735 105.542V99.074H210.401V105.444C210.401 106.844 211.171 107.614 212.431 107.614C213.705 107.614 214.461 106.844 214.461 105.444V99.074H216.141V105.542C216.141 107.936 214.517 109.21 212.431 109.21ZM223.976 109L221.89 105.08H220.658V109H218.964V99.074H222.772C224.69 99.074 225.88 100.404 225.88 102.084C225.88 103.498 225.026 104.576 223.64 104.912L225.88 109H223.976ZM220.658 103.596H222.464C223.5 103.596 224.172 102.994 224.172 102.084C224.172 101.16 223.5 100.558 222.464 100.558H220.658V103.596ZM232.265 99.074H235.681C237.585 99.074 238.705 100.194 238.705 101.748C238.705 102.798 238.089 103.582 237.235 103.89C238.285 104.17 239.013 105.08 239.013 106.256C239.013 107.852 237.781 109 235.933 109H232.265V99.074ZM233.931 103.274H235.457C236.437 103.274 237.025 102.714 237.025 101.888C237.025 101.048 236.437 100.502 235.415 100.502H233.931V103.274ZM233.931 107.572H235.639C236.647 107.572 237.305 107.026 237.305 106.144C237.305 105.29 236.731 104.688 235.695 104.688H233.931V107.572ZM246.341 109L244.255 105.08H243.023V109H241.329V99.074H245.137C247.055 99.074 248.245 100.404 248.245 102.084C248.245 103.498 247.391 104.576 246.005 104.912L248.245 109H246.341ZM243.023 103.596H244.829C245.865 103.596 246.537 102.994 246.537 102.084C246.537 101.16 245.865 100.558 244.829 100.558H243.023V103.596ZM257.347 109L256.409 106.508H252.209L251.285 109H249.507L253.371 99.074H255.317L259.181 109H257.347ZM254.309 100.894L252.797 104.954H255.821L254.309 100.894ZM269.4 109H267.65L262.75 101.482V109H261.07V99.074H263.212L267.72 106.116V99.074H269.4V109ZM274.015 107.46H275.779C277.501 107.46 278.929 106.354 278.929 104.058C278.929 101.734 277.515 100.614 275.793 100.614H274.015V107.46ZM275.835 109H272.335V99.074H275.849C278.551 99.074 280.679 100.866 280.679 104.058C280.679 107.236 278.523 109 275.835 109ZM297.952 109H296.286V101.692L293.192 109H291.736L288.67 101.72V109H287.032V99.074H289.272L292.492 106.648L295.67 99.074H297.952V109ZM307.026 109H300.894V99.074H307.026V100.642H302.574V103.274H306.606V104.8H302.574V107.432H307.026V109ZM316.127 101.398L314.615 101.874C314.517 101.258 313.999 100.348 312.669 100.348C311.661 100.348 310.961 101.02 310.961 101.776C310.961 102.406 311.353 102.882 312.123 103.05L313.551 103.344C315.301 103.694 316.239 104.8 316.239 106.2C316.239 107.74 314.993 109.21 312.725 109.21C310.205 109.21 309.043 107.586 308.889 106.158L310.457 105.71C310.555 106.746 311.297 107.698 312.725 107.698C313.915 107.698 314.531 107.096 314.531 106.326C314.531 105.682 314.055 105.164 313.201 104.982L311.801 104.688C310.289 104.38 309.281 103.386 309.281 101.902C309.281 100.236 310.807 98.864 312.655 98.864C314.993 98.864 315.903 100.292 316.127 101.398ZM325.068 101.398L323.556 101.874C323.458 101.258 322.94 100.348 321.61 100.348C320.602 100.348 319.902 101.02 319.902 101.776C319.902 102.406 320.294 102.882 321.064 103.05L322.492 103.344C324.242 103.694 325.18 104.8 325.18 106.2C325.18 107.74 323.934 109.21 321.666 109.21C319.146 109.21 317.984 107.586 317.83 106.158L319.398 105.71C319.496 106.746 320.238 107.698 321.666 107.698C322.856 107.698 323.472 107.096 323.472 106.326C323.472 105.682 322.996 105.164 322.142 104.982L320.742 104.688C319.23 104.38 318.222 103.386 318.222 101.902C318.222 100.236 319.748 98.864 321.596 98.864C323.934 98.864 324.844 100.292 325.068 101.398ZM334.138 109L333.2 106.508H329L328.076 109H326.298L330.162 99.074H332.108L335.972 109H334.138ZM331.1 100.894L329.588 104.954H332.612L331.1 100.894ZM346.243 109H344.885L344.759 107.74C344.325 108.468 343.303 109.21 341.721 109.21C339.131 109.21 336.835 107.306 336.835 104.03C336.835 100.768 339.257 98.864 341.833 98.864C344.241 98.864 345.781 100.25 346.313 101.888L344.731 102.49C344.395 101.37 343.415 100.418 341.833 100.418C340.223 100.418 338.543 101.566 338.543 104.03C338.543 106.452 340.111 107.67 341.819 107.67C343.821 107.67 344.577 106.298 344.661 105.444H341.385V103.974H346.243V109ZM354.971 109H348.839V99.074H354.971V100.642H350.519V103.274H354.551V104.8H350.519V107.432H354.971V109Z" fill="url(#paint20_linear_5711_59215)"/>
<rect x="111" y="96" width="56" height="56" rx="4" fill="url(#paint21_linear_5711_59215)" fill-opacity="0.12"/>
<path opacity="0.4" d="M152.334 132.333V117.333L144 110.667H134L125.667 117.333V132.333C125.667 135.095 127.906 137.333 130.667 137.333H147.334C150.095 137.333 152.334 135.095 152.334 132.333Z" fill="url(#paint22_linear_5711_59215)"/>
<path d="M139 110.667H151.105C151.677 110.667 152.207 110.974 152.501 111.476L155.432 116.476C156.083 117.587 155.302 119 154.036 119H145.729C144.585 119 143.525 118.386 142.936 117.382L139 110.667Z" fill="url(#paint23_linear_5711_59215)"/>
<path d="M139 110.667H126.895C126.323 110.667 125.793 110.974 125.499 111.476L122.568 116.476C121.917 117.587 122.699 119 123.964 119H132.271C133.415 119 134.475 118.386 135.064 117.382L139 110.667Z" fill="url(#paint24_linear_5711_59215)"/>
<defs>
<linearGradient id="paint0_linear_5711_59215" x1="271.248" y1="282.92" x2="267.182" y2="279.733" gradientUnits="userSpaceOnUse">
<stop stop-color="#6A50FF"/>
<stop offset="1" stop-color="#A897FF"/>
</linearGradient>
<linearGradient id="paint1_linear_5711_59215" x1="271.248" y1="266.92" x2="267.182" y2="263.733" gradientUnits="userSpaceOnUse">
<stop stop-color="#6A50FF"/>
<stop offset="1" stop-color="#A897FF"/>
</linearGradient>
<linearGradient id="paint2_linear_5711_59215" x1="271.248" y1="250.92" x2="267.182" y2="247.733" gradientUnits="userSpaceOnUse">
<stop stop-color="#6A50FF"/>
<stop offset="1" stop-color="#A897FF"/>
</linearGradient>
<linearGradient id="paint3_linear_5711_59215" x1="271.248" y1="234.92" x2="267.182" y2="231.733" gradientUnits="userSpaceOnUse">
<stop stop-color="#6A50FF"/>
<stop offset="1" stop-color="#A897FF"/>
</linearGradient>
<linearGradient id="paint4_linear_5711_59215" x1="271.248" y1="218.92" x2="267.182" y2="215.733" gradientUnits="userSpaceOnUse">
<stop stop-color="#6A50FF"/>
<stop offset="1" stop-color="#A897FF"/>
</linearGradient>
<linearGradient id="paint5_linear_5711_59215" x1="271.248" y1="202.92" x2="267.182" y2="199.733" gradientUnits="userSpaceOnUse">
<stop stop-color="#6A50FF"/>
<stop offset="1" stop-color="#A897FF"/>
</linearGradient>
<linearGradient id="paint6_linear_5711_59215" x1="271.248" y1="186.92" x2="267.182" y2="183.733" gradientUnits="userSpaceOnUse">
<stop stop-color="#6A50FF"/>
<stop offset="1" stop-color="#A897FF"/>
</linearGradient>
<linearGradient id="paint7_linear_5711_59215" x1="271.248" y1="298.92" x2="267.182" y2="295.733" gradientUnits="userSpaceOnUse">
<stop stop-color="#6A50FF"/>
<stop offset="1" stop-color="#A897FF"/>
</linearGradient>
<linearGradient id="paint8_linear_5711_59215" x1="422" y1="440.625" x2="507.241" y2="440.219" gradientUnits="userSpaceOnUse">
<stop stop-color="#E4D4F5"/>
<stop offset="1" stop-color="white" stop-opacity="0"/>
</linearGradient>
<linearGradient id="paint9_linear_5711_59215" x1="302" y1="440.625" x2="387.241" y2="440.219" gradientUnits="userSpaceOnUse">
<stop stop-color="#E4D4F5"/>
<stop offset="1" stop-color="white" stop-opacity="0"/>
</linearGradient>
<linearGradient id="paint10_linear_5711_59215" x1="62" y1="440.625" x2="147.241" y2="440.219" gradientUnits="userSpaceOnUse">
<stop stop-color="#E4D4F5"/>
<stop offset="1" stop-color="white" stop-opacity="0"/>
</linearGradient>
<linearGradient id="paint11_linear_5711_59215" x1="182" y1="440.625" x2="267.241" y2="440.219" gradientUnits="userSpaceOnUse">
<stop stop-color="#E4D4F5"/>
<stop offset="1" stop-color="white" stop-opacity="0"/>
</linearGradient>
<linearGradient id="paint12_linear_5711_59215" x1="249.706" y1="300.5" x2="302.251" y2="274.962" gradientUnits="userSpaceOnUse">
<stop stop-color="#7A57F1" stop-opacity="0.61"/>
<stop offset="1" stop-color="#7A57F1" stop-opacity="0"/>
</linearGradient>
<linearGradient id="paint13_linear_5711_59215" x1="276.494" y1="286.76" x2="264.049" y2="275.923" gradientUnits="userSpaceOnUse">
<stop stop-color="#6A50FF"/>
<stop offset="1" stop-color="#A897FF"/>
</linearGradient>
<linearGradient id="paint14_linear_5711_59215" x1="274.059" y1="280.098" x2="271.631" y2="274.624" gradientUnits="userSpaceOnUse">
<stop stop-color="#6A50FF"/>
<stop offset="1" stop-color="#A897FF"/>
</linearGradient>
<linearGradient id="paint15_linear_5711_59215" x1="264.81" y1="284.48" x2="264.309" y2="282.514" gradientUnits="userSpaceOnUse">
<stop stop-color="#6A50FF"/>
<stop offset="1" stop-color="#A897FF"/>
</linearGradient>
<linearGradient id="paint16_linear_5711_59215" x1="264.81" y1="287.48" x2="264.309" y2="285.514" gradientUnits="userSpaceOnUse">
<stop stop-color="#6A50FF"/>
<stop offset="1" stop-color="#A897FF"/>
</linearGradient>
<linearGradient id="paint17_linear_5711_59215" x1="125.804" y1="163" x2="239.373" y2="-41.1116" gradientUnits="userSpaceOnUse">
<stop stop-color="#7A57F1" stop-opacity="0.61"/>
<stop offset="1" stop-color="#7A57F1" stop-opacity="0"/>
</linearGradient>
<linearGradient id="paint18_linear_5711_59215" x1="214.125" y1="130.031" x2="468.323" y2="103.764" gradientUnits="userSpaceOnUse">
<stop stop-color="#C18CF6"/>
<stop offset="1" stop-color="#E0C2FF" stop-opacity="0"/>
</linearGradient>
<linearGradient id="paint19_linear_5711_59215" x1="203.125" y1="146.031" x2="355.278" y2="136.685" gradientUnits="userSpaceOnUse">
<stop stop-color="#C18CF6"/>
<stop offset="1" stop-color="#E0C2FF" stop-opacity="0"/>
</linearGradient>
<linearGradient id="paint20_linear_5711_59215" x1="334.826" y1="111.68" x2="328.948" y2="79.2401" gradientUnits="userSpaceOnUse">
<stop stop-color="#6A50FF"/>
<stop offset="1" stop-color="#A897FF"/>
</linearGradient>
<linearGradient id="paint21_linear_5711_59215" x1="118" y1="135.375" x2="184.298" y2="135.059" gradientUnits="userSpaceOnUse">
<stop stop-color="#C18CF6"/>
<stop offset="1" stop-color="#E0C2FF" stop-opacity="0"/>
</linearGradient>
<linearGradient id="paint22_linear_5711_59215" x1="148.993" y1="132.533" x2="130.918" y2="118.368" gradientUnits="userSpaceOnUse">
<stop stop-color="#6A50FF"/>
<stop offset="1" stop-color="#A897FF"/>
</linearGradient>
<linearGradient id="paint23_linear_5711_59215" x1="153.579" y1="117.5" x2="148.303" y2="109.232" gradientUnits="userSpaceOnUse">
<stop stop-color="#6A50FF"/>
<stop offset="1" stop-color="#A897FF"/>
</linearGradient>
<linearGradient id="paint24_linear_5711_59215" x1="136.912" y1="117.5" x2="131.637" y2="109.232" gradientUnits="userSpaceOnUse">
<stop stop-color="#6A50FF"/>
<stop offset="1" stop-color="#A897FF"/>
</linearGradient>
</defs>
</svg>
