<svg width="573" height="537" viewBox="0 0 573 537" fill="none" xmlns="http://www.w3.org/2000/svg">
<g clip-path="url(#clip0_5711_59691)">
<rect x="29.5" y="126.5" width="514" height="47" rx="23.5" fill="#1B1A1E" stroke="#222126"/>
<g opacity="0.5">
<path fill-rule="evenodd" clip-rule="evenodd" d="M63.25 148.5C63.25 152.78 59.7802 156.25 55.5 156.25C51.2198 156.25 47.75 152.78 47.75 148.5C47.75 144.22 51.2198 140.75 55.5 140.75C59.7802 140.75 63.25 144.22 63.25 148.5ZM55.5 157.75C60.6086 157.75 64.75 153.609 64.75 148.5C64.75 143.391 60.6086 139.25 55.5 139.25C50.3914 139.25 46.25 143.391 46.25 148.5C46.25 153.609 50.3914 157.75 55.5 157.75ZM66.4232 159.422C65.6521 160.193 64.4018 160.193 63.6307 159.422L61.7578 157.549C62.848 156.794 63.7951 155.847 64.5502 154.756L66.4232 156.629C67.1943 157.4 67.1943 158.651 66.4232 159.422Z" fill="#BCB8D4"/>
</g>
<path d="M88.612 151.8L85.14 146.074H87.128L89.508 150.232L91.902 146.074H93.792L90.292 151.8V156H88.612V151.8ZM96.1415 151.03C96.1415 153.424 97.7935 154.614 99.4595 154.614C101.139 154.614 102.791 153.424 102.791 151.03C102.791 148.636 101.139 147.446 99.4595 147.446C97.7935 147.446 96.1415 148.636 96.1415 151.03ZM94.4195 151.03C94.4195 147.782 96.8555 145.864 99.4595 145.864C102.063 145.864 104.513 147.782 104.513 151.03C104.513 154.292 102.063 156.21 99.4595 156.21C96.8555 156.21 94.4195 154.292 94.4195 151.03ZM110.431 156.21C108.359 156.21 106.735 154.936 106.735 152.542V146.074H108.401V152.444C108.401 153.844 109.171 154.614 110.431 154.614C111.705 154.614 112.461 153.844 112.461 152.444V146.074H114.141V152.542C114.141 154.936 112.517 156.21 110.431 156.21ZM121.976 156L119.89 152.08H118.658V156H116.964V146.074H120.772C122.69 146.074 123.88 147.404 123.88 149.084C123.88 150.498 123.026 151.576 121.64 151.912L123.88 156H121.976ZM118.658 150.596H120.464C121.5 150.596 122.172 149.994 122.172 149.084C122.172 148.16 121.5 147.558 120.464 147.558H118.658V150.596ZM130.265 146.074H133.681C135.585 146.074 136.705 147.194 136.705 148.748C136.705 149.798 136.089 150.582 135.235 150.89C136.285 151.17 137.013 152.08 137.013 153.256C137.013 154.852 135.781 156 133.933 156H130.265V146.074ZM131.931 150.274H133.457C134.437 150.274 135.025 149.714 135.025 148.888C135.025 148.048 134.437 147.502 133.415 147.502H131.931V150.274ZM131.931 154.572H133.639C134.647 154.572 135.305 154.026 135.305 153.144C135.305 152.29 134.731 151.688 133.695 151.688H131.931V154.572ZM144.341 156L142.255 152.08H141.023V156H139.329V146.074H143.137C145.055 146.074 146.245 147.404 146.245 149.084C146.245 150.498 145.391 151.576 144.005 151.912L146.245 156H144.341ZM141.023 150.596H142.829C143.865 150.596 144.537 149.994 144.537 149.084C144.537 148.16 143.865 147.558 142.829 147.558H141.023V150.596ZM155.347 156L154.409 153.508H150.209L149.285 156H147.507L151.371 146.074H153.317L157.181 156H155.347ZM152.309 147.894L150.797 151.954H153.821L152.309 147.894ZM167.4 156H165.65L160.75 148.482V156H159.07V146.074H161.212L165.72 153.116V146.074H167.4V156ZM172.015 154.46H173.779C175.501 154.46 176.929 153.354 176.929 151.058C176.929 148.734 175.515 147.614 173.793 147.614H172.015V154.46ZM173.835 156H170.335V146.074H173.849C176.551 146.074 178.679 147.866 178.679 151.058C178.679 154.236 176.523 156 173.835 156ZM191.556 148.398L190.044 148.874C189.946 148.258 189.428 147.348 188.098 147.348C187.09 147.348 186.39 148.02 186.39 148.776C186.39 149.406 186.782 149.882 187.552 150.05L188.98 150.344C190.73 150.694 191.668 151.8 191.668 153.2C191.668 154.74 190.422 156.21 188.154 156.21C185.634 156.21 184.472 154.586 184.318 153.158L185.886 152.71C185.984 153.746 186.726 154.698 188.154 154.698C189.344 154.698 189.96 154.096 189.96 153.326C189.96 152.682 189.484 152.164 188.63 151.982L187.23 151.688C185.718 151.38 184.71 150.386 184.71 148.902C184.71 147.236 186.236 145.864 188.084 145.864C190.422 145.864 191.332 147.292 191.556 148.398ZM200.105 156H193.973V146.074H200.105V147.642H195.653V150.274H199.685V151.8H195.653V154.432H200.105V156ZM207.693 156L205.607 152.08H204.375V156H202.681V146.074H206.489C208.407 146.074 209.597 147.404 209.597 149.084C209.597 150.498 208.743 151.576 207.357 151.912L209.597 156H207.693ZM204.375 150.596H206.181C207.217 150.596 207.889 149.994 207.889 149.084C207.889 148.16 207.217 147.558 206.181 147.558H204.375V150.596ZM215.424 153.802L218.21 146.074H219.988L216.236 156H214.528L210.832 146.074H212.652L215.424 153.802ZM223.583 156H221.875V146.074H223.583V156ZM230.933 156.21C228.259 156.21 225.921 154.278 225.921 151.044C225.921 147.81 228.343 145.864 230.919 145.864C233.439 145.864 234.937 147.348 235.385 149.084L233.803 149.616C233.509 148.412 232.585 147.446 230.919 147.446C229.281 147.446 227.643 148.636 227.643 151.044C227.643 153.368 229.239 154.6 230.933 154.6C232.599 154.6 233.551 153.536 233.887 152.416L235.427 152.92C234.979 154.6 233.467 156.21 230.933 156.21ZM243.824 156H237.692V146.074H243.824V147.642H239.372V150.274H243.404V151.8H239.372V154.432H243.824V156Z" fill="#A39FB2"/>
<g opacity="0.8">
<rect x="29.45" y="386.45" width="514.8" height="139.5" rx="13.95" fill="#1B1A1E" stroke="#222126" stroke-width="0.9"/>
<rect x="369.5" y="406.5" width="154" height="35" rx="17.5" fill="#19181B"/>
<rect x="369.5" y="406.5" width="154" height="35" rx="17.5" stroke="#36333D"/>
<path d="M390.6 429.21C387.926 429.21 385.588 427.278 385.588 424.044C385.588 420.81 388.01 418.864 390.586 418.864C393.106 418.864 394.604 420.348 395.052 422.084L393.47 422.616C393.176 421.412 392.252 420.446 390.586 420.446C388.948 420.446 387.31 421.636 387.31 424.044C387.31 426.368 388.906 427.6 390.6 427.6C392.266 427.6 393.218 426.536 393.554 425.416L395.094 425.92C394.646 427.6 393.134 429.21 390.6 429.21ZM398.37 424.03C398.37 426.424 400.022 427.614 401.688 427.614C403.368 427.614 405.02 426.424 405.02 424.03C405.02 421.636 403.368 420.446 401.688 420.446C400.022 420.446 398.37 421.636 398.37 424.03ZM396.648 424.03C396.648 420.782 399.084 418.864 401.688 418.864C404.292 418.864 406.742 420.782 406.742 424.03C406.742 427.292 404.292 429.21 401.688 429.21C399.084 429.21 396.648 427.292 396.648 424.03ZM419.996 429H418.33V421.692L415.236 429H413.78L410.714 421.72V429H409.076V419.074H411.316L414.536 426.648L417.714 419.074H419.996V429ZM424.618 423.638H426.368C427.432 423.638 428.076 423.05 428.076 422.112C428.076 421.16 427.432 420.558 426.368 420.558H424.618V423.638ZM426.62 425.122H424.618V429H422.938V419.074H426.62C428.524 419.074 429.784 420.362 429.784 422.098C429.784 423.848 428.524 425.122 426.62 425.122ZM438.025 429H431.893V419.074H438.025V420.642H433.573V423.274H437.605V424.8H433.573V427.432H438.025V429ZM447.823 420.656H444.589V429H442.909V420.656H439.689V419.074H447.823V420.656ZM451.469 429H449.761V419.074H451.469V429ZM461.535 420.656H458.301V429H456.621V420.656H453.401V419.074H461.535V420.656ZM464.278 424.03C464.278 426.424 465.93 427.614 467.596 427.614C469.276 427.614 470.928 426.424 470.928 424.03C470.928 421.636 469.276 420.446 467.596 420.446C465.93 420.446 464.278 421.636 464.278 424.03ZM462.556 424.03C462.556 420.782 464.992 418.864 467.596 418.864C470.2 418.864 472.65 420.782 472.65 424.03C472.65 427.292 470.2 429.21 467.596 429.21C464.992 429.21 462.556 427.292 462.556 424.03ZM479.996 429L477.91 425.08H476.678V429H474.984V419.074H478.792C480.71 419.074 481.9 420.404 481.9 422.084C481.9 423.498 481.046 424.576 479.66 424.912L481.9 429H479.996ZM476.678 423.596H478.484C479.52 423.596 480.192 422.994 480.192 422.084C480.192 421.16 479.52 420.558 478.484 420.558H476.678V423.596ZM495.076 429L494.138 426.508H489.938L489.014 429H487.236L491.1 419.074H493.046L496.91 429H495.076ZM492.038 420.894L490.526 424.954H493.55L492.038 420.894ZM500.479 427.46H502.243C503.965 427.46 505.393 426.354 505.393 424.058C505.393 421.734 503.979 420.614 502.257 420.614H500.479V427.46ZM502.299 429H498.799V419.074H502.313C505.015 419.074 507.143 420.866 507.143 424.058C507.143 427.236 504.987 429 502.299 429Z" fill="#575263"/>
<circle cx="68.6016" cy="418.4" r="18" fill="url(#paint0_linear_5711_59691)" fill-opacity="0.08"/>
<rect x="50.6016" y="450.8" width="276.3" height="14.4" rx="7.2" fill="url(#paint1_linear_5711_59691)" fill-opacity="0.08"/>
<rect x="50.6016" y="476" width="472.5" height="10.8" rx="5.4" fill="url(#paint2_linear_5711_59691)" fill-opacity="0.08"/>
<rect x="50.6016" y="494" width="261.9" height="10.8" rx="5.4" fill="url(#paint3_linear_5711_59691)" fill-opacity="0.08"/>
<rect x="97" y="422" width="230" height="9" rx="4.5" fill="url(#paint4_linear_5711_59691)" fill-opacity="0.08"/>
<rect x="97.3984" y="405.8" width="74.7" height="9" rx="4.5" fill="url(#paint5_linear_5711_59691)" fill-opacity="0.08"/>
</g>
<rect y="206" width="573" height="156" rx="12" fill="#111112"/>
<rect y="206" width="573" height="156" rx="12" fill="url(#paint6_linear_5711_59691)" fill-opacity="0.2"/>
<rect x="0.5" y="206.5" width="572" height="155" rx="11.5" stroke="#7A57F1" stroke-opacity="0.2"/>
<g filter="url(#filter0_b_5711_59691)">
<rect x="396" y="226" width="157" height="36" rx="18" fill="#635D79" fill-opacity="0.12"/>
<rect x="396.5" y="226.5" width="156" height="35" rx="17.5" stroke="url(#paint7_linear_5711_59691)" stroke-opacity="0.4"/>
<path fill-rule="evenodd" clip-rule="evenodd" d="M422.161 242.415V237.667C422.161 236.562 421.266 235.667 420.161 235.667H415.828C414.724 235.667 413.828 236.562 413.828 237.667V242.42C414.887 241.338 416.364 240.667 417.997 240.667C419.628 240.667 421.103 241.336 422.161 242.415Z" fill="url(#paint8_linear_5711_59691)"/>
<circle opacity="0.4" cx="417.997" cy="246.5" r="5.83333" fill="url(#paint9_linear_5711_59691)"/>
<path fill-rule="evenodd" clip-rule="evenodd" d="M426.775 241.892C427.019 242.136 427.019 242.532 426.775 242.776L425.942 243.609C425.698 243.853 425.302 243.853 425.058 243.609C424.814 243.365 424.814 242.969 425.058 242.725L425.891 241.892C426.135 241.648 426.531 241.648 426.775 241.892Z" fill="url(#paint10_linear_5711_59691)"/>
<path fill-rule="evenodd" clip-rule="evenodd" d="M425.058 249.392C425.302 249.148 425.698 249.148 425.942 249.392L426.775 250.225C427.019 250.469 427.019 250.865 426.775 251.109C426.531 251.353 426.135 251.353 425.891 251.109L425.058 250.276C424.814 250.032 424.814 249.636 425.058 249.392Z" fill="url(#paint11_linear_5711_59691)"/>
<path fill-rule="evenodd" clip-rule="evenodd" d="M409.225 241.892C408.981 242.136 408.981 242.532 409.225 242.776L410.058 243.609C410.302 243.853 410.698 243.853 410.942 243.609C411.186 243.365 411.186 242.969 410.942 242.725L410.109 241.892C409.865 241.648 409.469 241.648 409.225 241.892Z" fill="url(#paint12_linear_5711_59691)"/>
<path fill-rule="evenodd" clip-rule="evenodd" d="M410.942 249.392C410.698 249.148 410.302 249.148 410.058 249.392L409.225 250.225C408.981 250.469 408.981 250.865 409.225 251.109C409.469 251.353 409.865 251.353 410.109 251.109L410.942 250.276C411.186 250.032 411.186 249.636 410.942 249.392Z" fill="url(#paint13_linear_5711_59691)"/>
<path fill-rule="evenodd" clip-rule="evenodd" d="M418.326 243.468C418.51 243.582 418.623 243.783 418.623 244V248.375H418.831C419.176 248.375 419.456 248.655 419.456 249C419.456 249.345 419.176 249.625 418.831 249.625H417.164C416.819 249.625 416.539 249.345 416.539 249C416.539 248.655 416.819 248.375 417.164 248.375H417.373V245.006C417.079 245.11 416.748 244.982 416.605 244.696C416.451 244.387 416.576 244.012 416.885 243.858L417.718 243.441C417.912 243.344 418.142 243.354 418.326 243.468Z" fill="url(#paint14_linear_5711_59691)"/>
<path d="M439.612 244.8L436.14 239.074H438.128L440.508 243.232L442.902 239.074H444.792L441.292 244.8V249H439.612V244.8ZM447.141 244.03C447.141 246.424 448.793 247.614 450.459 247.614C452.139 247.614 453.791 246.424 453.791 244.03C453.791 241.636 452.139 240.446 450.459 240.446C448.793 240.446 447.141 241.636 447.141 244.03ZM445.419 244.03C445.419 240.782 447.855 238.864 450.459 238.864C453.063 238.864 455.513 240.782 455.513 244.03C455.513 247.292 453.063 249.21 450.459 249.21C447.855 249.21 445.419 247.292 445.419 244.03ZM461.431 249.21C459.359 249.21 457.735 247.936 457.735 245.542V239.074H459.401V245.444C459.401 246.844 460.171 247.614 461.431 247.614C462.705 247.614 463.461 246.844 463.461 245.444V239.074H465.141V245.542C465.141 247.936 463.517 249.21 461.431 249.21ZM472.976 249L470.89 245.08H469.658V249H467.964V239.074H471.772C473.69 239.074 474.88 240.404 474.88 242.084C474.88 243.498 474.026 244.576 472.64 244.912L474.88 249H472.976ZM469.658 243.596H471.464C472.5 243.596 473.172 242.994 473.172 242.084C473.172 241.16 472.5 240.558 471.464 240.558H469.658V243.596ZM487.789 241.398L486.277 241.874C486.179 241.258 485.661 240.348 484.331 240.348C483.323 240.348 482.623 241.02 482.623 241.776C482.623 242.406 483.015 242.882 483.785 243.05L485.213 243.344C486.963 243.694 487.901 244.8 487.901 246.2C487.901 247.74 486.655 249.21 484.387 249.21C481.867 249.21 480.705 247.586 480.551 246.158L482.119 245.71C482.217 246.746 482.959 247.698 484.387 247.698C485.577 247.698 486.193 247.096 486.193 246.326C486.193 245.682 485.717 245.164 484.863 244.982L483.463 244.688C481.951 244.38 480.943 243.386 480.943 241.902C480.943 240.236 482.469 238.864 484.317 238.864C486.655 238.864 487.565 240.292 487.789 241.398ZM491.914 249H490.206V239.074H491.914V249ZM501.98 240.656H498.746V249H497.066V240.656H493.846V239.074H501.98V240.656ZM510.05 249H503.918V239.074H510.05V240.642H505.598V243.274H509.63V244.8H505.598V247.432H510.05V249ZM523.449 249L522.511 246.508H518.311L517.387 249H515.609L519.473 239.074H521.419L525.283 249H523.449ZM520.411 240.894L518.899 244.954H521.923L520.411 240.894ZM528.852 247.46H530.616C532.338 247.46 533.766 246.354 533.766 244.058C533.766 241.734 532.352 240.614 530.63 240.614H528.852V247.46ZM530.672 249H527.172V239.074H530.686C533.388 239.074 535.516 240.866 535.516 244.058C535.516 247.236 533.36 249 530.672 249Z" fill="url(#paint15_linear_5711_59691)"/>
</g>
<circle cx="44" cy="242" r="20" fill="url(#paint16_linear_5711_59691)" fill-opacity="0.12"/>
<rect x="24" y="278" width="307" height="16" rx="8" fill="url(#paint17_linear_5711_59691)" fill-opacity="0.12"/>
<rect x="24" y="306" width="525" height="12" rx="6" fill="url(#paint18_linear_5711_59691)" fill-opacity="0.12"/>
<rect x="24" y="326" width="291" height="12" rx="6" fill="url(#paint19_linear_5711_59691)" fill-opacity="0.12"/>
<rect x="76" y="246" width="291" height="10" rx="5" fill="url(#paint20_linear_5711_59691)" fill-opacity="0.12"/>
<rect x="76" y="228" width="83" height="10" rx="5" fill="url(#paint21_linear_5711_59691)" fill-opacity="0.12"/>
<circle cx="217.5" cy="144.5" r="104.5" fill="#121212"/>
<circle cx="217.5" cy="144.5" r="104" stroke="#7A57F1" stroke-opacity="0.2"/>
<mask id="mask0_5711_59691" style="mask-type:alpha" maskUnits="userSpaceOnUse" x="113" y="40" width="209" height="209">
<circle cx="217.5" cy="144.5" r="104.5" fill="#D9D9D9"/>
</mask>
<g mask="url(#mask0_5711_59691)">
<rect x="26.9151" y="101.915" width="940.711" height="86.0184" rx="43.0092" fill="#1B1A1E" stroke="#222126" stroke-width="1.83018"/>
<path d="M135.103 148.105L128.748 137.626H132.387L136.743 145.236L141.124 137.626H144.583L138.177 148.105V155.792H135.103V148.105ZM148.883 146.696C148.883 151.077 151.907 153.255 154.956 153.255C158.03 153.255 161.054 151.077 161.054 146.696C161.054 142.315 158.03 140.137 154.956 140.137C151.907 140.137 148.883 142.315 148.883 146.696ZM145.732 146.696C145.732 140.752 150.19 137.241 154.956 137.241C159.721 137.241 164.205 140.752 164.205 146.696C164.205 152.666 159.721 156.176 154.956 156.176C150.19 156.176 145.732 152.666 145.732 146.696ZM175.036 156.176C171.244 156.176 168.271 153.845 168.271 149.463V137.626H171.32V149.284C171.32 151.846 172.73 153.255 175.036 153.255C177.367 153.255 178.751 151.846 178.751 149.284V137.626H181.826V149.463C181.826 153.845 178.853 156.176 175.036 156.176ZM196.164 155.792L192.347 148.618H190.092V155.792H186.992V137.626H193.961C197.471 137.626 199.649 140.06 199.649 143.134C199.649 145.722 198.086 147.695 195.549 148.31L199.649 155.792H196.164ZM190.092 145.902H193.397C195.293 145.902 196.523 144.8 196.523 143.134C196.523 141.443 195.293 140.342 193.397 140.342H190.092V145.902ZM211.336 137.626H217.588C221.072 137.626 223.122 139.675 223.122 142.52C223.122 144.441 221.995 145.876 220.432 146.44C222.354 146.952 223.686 148.618 223.686 150.77C223.686 153.691 221.431 155.792 218.049 155.792H211.336V137.626ZM214.385 145.312H217.178C218.971 145.312 220.048 144.287 220.048 142.776C220.048 141.238 218.971 140.239 217.101 140.239H214.385V145.312ZM214.385 153.178H217.511C219.356 153.178 220.56 152.179 220.56 150.565C220.56 149.002 219.509 147.9 217.613 147.9H214.385V153.178ZM237.097 155.792L233.28 148.618H231.025V155.792H227.924V137.626H234.894C238.404 137.626 240.582 140.06 240.582 143.134C240.582 145.722 239.019 147.695 236.482 148.31L240.582 155.792H237.097ZM231.025 145.902H234.33C236.226 145.902 237.456 144.8 237.456 143.134C237.456 141.443 236.226 140.342 234.33 140.342H231.025V145.902ZM257.24 155.792L255.523 151.231H247.837L246.146 155.792H242.892L249.963 137.626H253.525L260.597 155.792H257.24ZM251.68 140.957L248.913 148.387H254.447L251.68 140.957ZM279.3 155.792H276.097L267.129 142.033V155.792H264.054V137.626H267.974L276.225 150.514V137.626H279.3V155.792ZM287.746 152.974H290.974C294.126 152.974 296.739 150.949 296.739 146.747C296.739 142.494 294.152 140.444 291 140.444H287.746V152.974ZM291.077 155.792H284.671V137.626H291.103C296.048 137.626 299.942 140.905 299.942 146.747C299.942 152.564 295.996 155.792 291.077 155.792ZM323.508 141.879L320.741 142.75C320.561 141.623 319.613 139.957 317.179 139.957C315.334 139.957 314.053 141.187 314.053 142.571C314.053 143.724 314.771 144.595 316.18 144.902L318.793 145.441C321.996 146.081 323.713 148.105 323.713 150.667C323.713 153.486 321.433 156.176 317.282 156.176C312.67 156.176 310.543 153.204 310.261 150.591L313.131 149.771C313.31 151.667 314.668 153.409 317.282 153.409C319.46 153.409 320.587 152.307 320.587 150.898C320.587 149.719 319.716 148.771 318.153 148.438L315.591 147.9C312.823 147.337 310.979 145.517 310.979 142.801C310.979 139.752 313.771 137.241 317.154 137.241C321.433 137.241 323.098 139.855 323.508 141.879ZM339.154 155.792H327.931V137.626H339.154V140.495H331.006V145.312H338.385V148.105H331.006V152.922H339.154V155.792ZM353.042 155.792L349.224 148.618H346.97V155.792H343.869V137.626H350.839C354.349 137.626 356.527 140.06 356.527 143.134C356.527 145.722 354.964 147.695 352.427 148.31L356.527 155.792H353.042ZM346.97 145.902H350.275C352.171 145.902 353.401 144.8 353.401 143.134C353.401 141.443 352.171 140.342 350.275 140.342H346.97V145.902ZM367.191 151.769L372.289 137.626H375.543L368.677 155.792H365.551L358.786 137.626H362.117L367.191 151.769ZM382.124 155.792H378.998V137.626H382.124V155.792ZM395.576 156.176C390.682 156.176 386.403 152.64 386.403 146.722C386.403 140.803 390.835 137.241 395.55 137.241C400.162 137.241 402.904 139.957 403.724 143.134L400.828 144.108C400.29 141.905 398.599 140.137 395.55 140.137C392.552 140.137 389.554 142.315 389.554 146.722C389.554 150.975 392.475 153.23 395.576 153.23C398.625 153.23 400.367 151.282 400.982 149.233L403.8 150.155C402.981 153.23 400.213 156.176 395.576 156.176ZM419.169 155.792H407.946V137.626H419.169V140.495H411.021V145.312H418.4V148.105H411.021V152.922H419.169V155.792Z" fill="#A39FB2"/>
</g>
<circle cx="217.5" cy="144.5" r="104.5" fill="url(#paint22_linear_5711_59691)" fill-opacity="0.2"/>
<circle cx="217.5" cy="144.5" r="104" stroke="#7A57F1" stroke-opacity="0.2"/>
</g>
<defs>
<filter id="filter0_b_5711_59691" x="364" y="194" width="221" height="100" filterUnits="userSpaceOnUse" color-interpolation-filters="sRGB">
<feFlood flood-opacity="0" result="BackgroundImageFix"/>
<feGaussianBlur in="BackgroundImageFix" stdDeviation="16"/>
<feComposite in2="SourceAlpha" operator="in" result="effect1_backgroundBlur_5711_59691"/>
<feBlend mode="normal" in="SourceGraphic" in2="effect1_backgroundBlur_5711_59691" result="shape"/>
</filter>
<linearGradient id="paint0_linear_5711_59691" x1="55.1016" y1="425.712" x2="97.722" y2="425.509" gradientUnits="userSpaceOnUse">
<stop stop-color="#E4D4F5"/>
<stop offset="1" stop-color="white" stop-opacity="0"/>
</linearGradient>
<linearGradient id="paint1_linear_5711_59691" x1="85.1391" y1="460.925" x2="409.55" y2="431.284" gradientUnits="userSpaceOnUse">
<stop stop-color="#E4D4F5"/>
<stop offset="1" stop-color="white" stop-opacity="0"/>
</linearGradient>
<linearGradient id="paint2_linear_5711_59691" x1="109.664" y1="483.594" x2="645.801" y2="371.899" gradientUnits="userSpaceOnUse">
<stop stop-color="#E4D4F5"/>
<stop offset="1" stop-color="white" stop-opacity="0"/>
</linearGradient>
<linearGradient id="paint3_linear_5711_59691" x1="83.3391" y1="501.594" x2="389.33" y2="466.259" gradientUnits="userSpaceOnUse">
<stop stop-color="#E4D4F5"/>
<stop offset="1" stop-color="white" stop-opacity="0"/>
</linearGradient>
<linearGradient id="paint4_linear_5711_59691" x1="125.75" y1="428.328" x2="394.08" y2="395.674" gradientUnits="userSpaceOnUse">
<stop stop-color="#E4D4F5"/>
<stop offset="1" stop-color="white" stop-opacity="0"/>
</linearGradient>
<linearGradient id="paint5_linear_5711_59691" x1="106.736" y1="412.128" x2="195.037" y2="408.638" gradientUnits="userSpaceOnUse">
<stop stop-color="#E4D4F5"/>
<stop offset="1" stop-color="white" stop-opacity="0"/>
</linearGradient>
<linearGradient id="paint6_linear_5711_59691" x1="56.1765" y1="347.375" x2="241.38" y2="16.7544" gradientUnits="userSpaceOnUse">
<stop stop-color="#7A57F1" stop-opacity="0.61"/>
<stop offset="1" stop-color="#7A57F1" stop-opacity="0"/>
</linearGradient>
<linearGradient id="paint7_linear_5711_59691" x1="533.33" y1="255.52" x2="519.785" y2="209.225" gradientUnits="userSpaceOnUse">
<stop stop-color="#6A50FF"/>
<stop offset="1" stop-color="#A897FF"/>
</linearGradient>
<linearGradient id="paint8_linear_5711_59691" x1="421.117" y1="241.205" x2="416.406" y2="236.649" gradientUnits="userSpaceOnUse">
<stop stop-color="#6A50FF"/>
<stop offset="1" stop-color="#A897FF"/>
</linearGradient>
<linearGradient id="paint9_linear_5711_59691" x1="422.369" y1="250.234" x2="414.461" y2="244.036" gradientUnits="userSpaceOnUse">
<stop stop-color="#6A50FF"/>
<stop offset="1" stop-color="#A897FF"/>
</linearGradient>
<linearGradient id="paint10_linear_5711_59691" x1="426.697" y1="243.417" x2="425.285" y2="242.311" gradientUnits="userSpaceOnUse">
<stop stop-color="#6A50FF"/>
<stop offset="1" stop-color="#A897FF"/>
</linearGradient>
<linearGradient id="paint11_linear_5711_59691" x1="426.697" y1="250.917" x2="425.285" y2="249.811" gradientUnits="userSpaceOnUse">
<stop stop-color="#6A50FF"/>
<stop offset="1" stop-color="#A897FF"/>
</linearGradient>
<linearGradient id="paint12_linear_5711_59691" x1="409.303" y1="243.417" x2="410.715" y2="242.311" gradientUnits="userSpaceOnUse">
<stop stop-color="#6A50FF"/>
<stop offset="1" stop-color="#A897FF"/>
</linearGradient>
<linearGradient id="paint13_linear_5711_59691" x1="409.303" y1="250.917" x2="410.715" y2="249.811" gradientUnits="userSpaceOnUse">
<stop stop-color="#6A50FF"/>
<stop offset="1" stop-color="#A897FF"/>
</linearGradient>
<linearGradient id="paint14_linear_5711_59691" x1="419.09" y1="248.5" x2="416.276" y2="247.47" gradientUnits="userSpaceOnUse">
<stop stop-color="#6A50FF"/>
<stop offset="1" stop-color="#A897FF"/>
</linearGradient>
<linearGradient id="paint15_linear_5711_59691" x1="524.346" y1="251.68" x2="515.042" y2="220.996" gradientUnits="userSpaceOnUse">
<stop stop-color="#6A50FF"/>
<stop offset="1" stop-color="#A897FF"/>
</linearGradient>
<linearGradient id="paint16_linear_5711_59691" x1="29" y1="250.125" x2="76.3561" y2="249.9" gradientUnits="userSpaceOnUse">
<stop stop-color="#C18CF6"/>
<stop offset="1" stop-color="#E0C2FF" stop-opacity="0"/>
</linearGradient>
<linearGradient id="paint17_linear_5711_59691" x1="62.375" y1="289.25" x2="422.832" y2="256.315" gradientUnits="userSpaceOnUse">
<stop stop-color="#C18CF6"/>
<stop offset="1" stop-color="#E0C2FF" stop-opacity="0"/>
</linearGradient>
<linearGradient id="paint18_linear_5711_59691" x1="89.625" y1="314.438" x2="685.332" y2="190.332" gradientUnits="userSpaceOnUse">
<stop stop-color="#C18CF6"/>
<stop offset="1" stop-color="#E0C2FF" stop-opacity="0"/>
</linearGradient>
<linearGradient id="paint19_linear_5711_59691" x1="60.375" y1="334.438" x2="400.365" y2="295.177" gradientUnits="userSpaceOnUse">
<stop stop-color="#C18CF6"/>
<stop offset="1" stop-color="#E0C2FF" stop-opacity="0"/>
</linearGradient>
<linearGradient id="paint20_linear_5711_59691" x1="112.375" y1="253.031" x2="450.407" y2="206.19" gradientUnits="userSpaceOnUse">
<stop stop-color="#C18CF6"/>
<stop offset="1" stop-color="#E0C2FF" stop-opacity="0"/>
</linearGradient>
<linearGradient id="paint21_linear_5711_59691" x1="86.375" y1="235.031" x2="184.488" y2="231.153" gradientUnits="userSpaceOnUse">
<stop stop-color="#C18CF6"/>
<stop offset="1" stop-color="#E0C2FF" stop-opacity="0"/>
</linearGradient>
<linearGradient id="paint22_linear_5711_59691" x1="133.49" y1="229.406" x2="362.279" y2="118.211" gradientUnits="userSpaceOnUse">
<stop stop-color="#7A57F1" stop-opacity="0.61"/>
<stop offset="1" stop-color="#7A57F1" stop-opacity="0"/>
</linearGradient>
<clipPath id="clip0_5711_59691">
<rect width="573" height="537" fill="white"/>
</clipPath>
</defs>
</svg>
