<svg width="653" height="537" viewBox="0 0 653 537" fill="none" xmlns="http://www.w3.org/2000/svg">
<g clip-path="url(#clip0_5711_58545)">
<rect x="69.5" y="48.5" width="514" height="47" rx="23.5" fill="#1B1A1E" stroke="#222126"/>
<g opacity="0.5">
<path fill-rule="evenodd" clip-rule="evenodd" d="M103.25 70.5C103.25 74.7802 99.7802 78.25 95.5 78.25C91.2198 78.25 87.75 74.7802 87.75 70.5C87.75 66.2198 91.2198 62.75 95.5 62.75C99.7802 62.75 103.25 66.2198 103.25 70.5ZM95.5 79.75C100.609 79.75 104.75 75.6086 104.75 70.5C104.75 65.3914 100.609 61.25 95.5 61.25C90.3914 61.25 86.25 65.3914 86.25 70.5C86.25 75.6086 90.3914 79.75 95.5 79.75ZM106.422 81.4217C105.651 82.1928 104.4 82.1928 103.629 81.4217L101.756 79.5488C102.847 78.7936 103.794 77.8465 104.549 76.7563L106.422 78.6292C107.193 79.4003 107.193 80.6506 106.422 81.4217Z" fill="#BCB8D4"/>
</g>
<path d="M132.714 70.398L131.202 70.874C131.104 70.258 130.586 69.348 129.256 69.348C128.248 69.348 127.548 70.02 127.548 70.776C127.548 71.406 127.94 71.882 128.71 72.05L130.138 72.344C131.888 72.694 132.826 73.8 132.826 75.2C132.826 76.74 131.58 78.21 129.312 78.21C126.792 78.21 125.63 76.586 125.476 75.158L127.044 74.71C127.142 75.746 127.884 76.698 129.312 76.698C130.502 76.698 131.118 76.096 131.118 75.326C131.118 74.682 130.642 74.164 129.788 73.982L128.388 73.688C126.876 73.38 125.868 72.386 125.868 70.902C125.868 69.236 127.394 67.864 129.242 67.864C131.58 67.864 132.49 69.292 132.714 70.398ZM141.263 78H135.131V68.074H141.263V69.642H136.811V72.274H140.843V73.8H136.811V76.432H141.263V78ZM148.851 78L146.765 74.08H145.533V78H143.839V68.074H147.647C149.565 68.074 150.755 69.404 150.755 71.084C150.755 72.498 149.901 73.576 148.515 73.912L150.755 78H148.851ZM145.533 72.596H147.339C148.375 72.596 149.047 71.994 149.047 71.084C149.047 70.16 148.375 69.558 147.339 69.558H145.533V72.596ZM156.582 75.802L159.368 68.074H161.146L157.394 78H155.686L151.99 68.074H153.81L156.582 75.802ZM164.742 78H163.034V68.074H164.742V78ZM172.091 78.21C169.417 78.21 167.079 76.278 167.079 73.044C167.079 69.81 169.501 67.864 172.077 67.864C174.597 67.864 176.095 69.348 176.543 71.084L174.961 71.616C174.667 70.412 173.743 69.446 172.077 69.446C170.439 69.446 168.801 70.636 168.801 73.044C168.801 75.368 170.397 76.6 172.091 76.6C173.757 76.6 174.709 75.536 175.045 74.416L176.585 74.92C176.137 76.6 174.625 78.21 172.091 78.21ZM184.983 78H178.851V68.074H184.983V69.642H180.531V72.274H184.563V73.8H180.531V76.432H184.983V78ZM194.083 70.398L192.571 70.874C192.473 70.258 191.955 69.348 190.625 69.348C189.617 69.348 188.917 70.02 188.917 70.776C188.917 71.406 189.309 71.882 190.079 72.05L191.507 72.344C193.257 72.694 194.195 73.8 194.195 75.2C194.195 76.74 192.949 78.21 190.681 78.21C188.161 78.21 186.999 76.586 186.845 75.158L188.413 74.71C188.511 75.746 189.253 76.698 190.681 76.698C191.871 76.698 192.487 76.096 192.487 75.326C192.487 74.682 192.011 74.164 191.157 73.982L189.757 73.688C188.245 73.38 187.237 72.386 187.237 70.902C187.237 69.236 188.763 67.864 190.611 67.864C192.949 67.864 193.859 69.292 194.083 70.398ZM208.863 78H207.113L202.213 70.482V78H200.533V68.074H202.675L207.183 75.116V68.074H208.863V78ZM217.93 78H211.798V68.074H217.93V69.642H213.478V72.274H217.51V73.8H213.478V76.432H217.93V78ZM227.296 78L226.358 75.508H222.158L221.234 78H219.456L223.32 68.074H225.266L229.13 78H227.296ZM224.258 69.894L222.746 73.954H225.77L224.258 69.894ZM236.031 78L233.945 74.08H232.713V78H231.019V68.074H234.827C236.745 68.074 237.935 69.404 237.935 71.084C237.935 72.498 237.081 73.576 235.695 73.912L237.935 78H236.031ZM232.713 72.596H234.519C235.555 72.596 236.227 71.994 236.227 71.084C236.227 70.16 235.555 69.558 234.519 69.558H232.713V72.596ZM255.241 78H253.575V70.692L250.481 78H249.025L245.959 70.72V78H244.321V68.074H246.561L249.781 75.648L252.959 68.074H255.241V78ZM264.316 78H258.184V68.074H264.316V69.642H259.864V72.274H263.896V73.8H259.864V76.432H264.316V78Z" fill="#A39FB2"/>
<rect x="266" y="60" width="1" height="24" fill="#7A57F1"/>
<g opacity="0.6">
<rect x="69.45" y="470.45" width="514.8" height="139.5" rx="13.95" fill="#1B1A1E" stroke="#222126" stroke-width="0.9"/>
<circle cx="108.6" cy="502.4" r="18" fill="url(#paint0_linear_5711_58545)" fill-opacity="0.08"/>
<rect x="90.6001" y="534.8" width="276.3" height="14.4" rx="7.2" fill="url(#paint1_linear_5711_58545)" fill-opacity="0.08"/>
<rect x="137.4" y="506" width="261.9" height="9" rx="4.5" fill="url(#paint2_linear_5711_58545)" fill-opacity="0.08"/>
<rect x="137.4" y="489.8" width="74.7" height="9" rx="4.5" fill="url(#paint3_linear_5711_58545)" fill-opacity="0.08"/>
</g>
<g opacity="0.8">
<rect x="69.45" y="308.45" width="514.8" height="139.5" rx="13.95" fill="#1B1A1E" stroke="#222126" stroke-width="0.9"/>
<circle cx="108.6" cy="340.4" r="18" fill="url(#paint4_linear_5711_58545)" fill-opacity="0.08"/>
<rect x="90.6001" y="372.8" width="276.3" height="14.4" rx="7.2" fill="url(#paint5_linear_5711_58545)" fill-opacity="0.08"/>
<rect x="90.6001" y="398" width="472.5" height="10.8" rx="5.4" fill="url(#paint6_linear_5711_58545)" fill-opacity="0.08"/>
<rect x="90.6001" y="416" width="261.9" height="10.8" rx="5.4" fill="url(#paint7_linear_5711_58545)" fill-opacity="0.08"/>
<rect x="137.4" y="344" width="261.9" height="9" rx="4.5" fill="url(#paint8_linear_5711_58545)" fill-opacity="0.08"/>
<rect x="137.4" y="327.8" width="74.7" height="9" rx="4.5" fill="url(#paint9_linear_5711_58545)" fill-opacity="0.08"/>
</g>
<rect x="40" y="128" width="573" height="156" rx="12" fill="#111112"/>
<rect x="40" y="128" width="573" height="156" rx="12" fill="url(#paint10_linear_5711_58545)" fill-opacity="0.2"/>
<rect x="40.5" y="128.5" width="572" height="155" rx="11.5" stroke="#7A57F1" stroke-opacity="0.2"/>
<g filter="url(#filter0_b_5711_58545)">
<rect x="462" y="148" width="131" height="36" rx="18" fill="#635D79" fill-opacity="0.12"/>
<rect x="462.5" y="148.5" width="130" height="35" rx="17.5" stroke="url(#paint11_linear_5711_58545)" stroke-opacity="0.4"/>
<path fill-rule="evenodd" clip-rule="evenodd" d="M488.166 164.417V159.667C488.166 158.562 487.271 157.667 486.166 157.667H481.833C480.728 157.667 479.833 158.562 479.833 159.667V164.417C480.892 163.337 482.367 162.667 484 162.667C485.632 162.667 487.108 163.337 488.166 164.417Z" fill="url(#paint12_linear_5711_58545)"/>
<circle opacity="0.4" cx="484" cy="168.5" r="5.83333" fill="url(#paint13_linear_5711_58545)"/>
<path fill-rule="evenodd" clip-rule="evenodd" d="M492.775 163.891C493.019 164.135 493.019 164.531 492.775 164.775L491.942 165.609C491.698 165.853 491.302 165.853 491.058 165.609C490.814 165.364 490.814 164.969 491.058 164.725L491.891 163.891C492.135 163.647 492.531 163.647 492.775 163.891Z" fill="url(#paint14_linear_5711_58545)"/>
<path fill-rule="evenodd" clip-rule="evenodd" d="M491.058 171.391C491.302 171.147 491.698 171.147 491.942 171.391L492.775 172.225C493.019 172.469 493.019 172.864 492.775 173.109C492.531 173.353 492.135 173.353 491.891 173.109L491.058 172.275C490.814 172.031 490.814 171.635 491.058 171.391Z" fill="url(#paint15_linear_5711_58545)"/>
<path fill-rule="evenodd" clip-rule="evenodd" d="M475.225 163.891C474.981 164.135 474.981 164.531 475.225 164.775L476.058 165.609C476.302 165.853 476.698 165.853 476.942 165.609C477.186 165.364 477.186 164.969 476.942 164.725L476.109 163.891C475.865 163.647 475.469 163.647 475.225 163.891Z" fill="url(#paint16_linear_5711_58545)"/>
<path fill-rule="evenodd" clip-rule="evenodd" d="M476.942 171.391C476.698 171.147 476.302 171.147 476.058 171.391L475.225 172.225C474.981 172.469 474.981 172.864 475.225 173.109C475.469 173.353 475.865 173.353 476.109 173.109L476.942 172.275C477.186 172.031 477.186 171.635 476.942 171.391Z" fill="url(#paint17_linear_5711_58545)"/>
<path fill-rule="evenodd" clip-rule="evenodd" d="M484.329 165.468C484.513 165.582 484.625 165.783 484.625 166V170.375H484.833C485.178 170.375 485.458 170.655 485.458 171C485.458 171.345 485.178 171.625 484.833 171.625H483.167C482.821 171.625 482.542 171.345 482.542 171C482.542 170.655 482.821 170.375 483.167 170.375H483.375V167.006C483.082 167.11 482.75 166.982 482.608 166.696C482.453 166.387 482.578 166.012 482.887 165.858L483.72 165.441C483.914 165.344 484.144 165.354 484.329 165.468Z" fill="url(#paint18_linear_5711_58545)"/>
<path d="M505.612 166.8L502.14 161.074H504.128L506.508 165.232L508.902 161.074H510.792L507.292 166.8V171H505.612V166.8ZM513.141 166.03C513.141 168.424 514.793 169.614 516.459 169.614C518.139 169.614 519.791 168.424 519.791 166.03C519.791 163.636 518.139 162.446 516.459 162.446C514.793 162.446 513.141 163.636 513.141 166.03ZM511.419 166.03C511.419 162.782 513.855 160.864 516.459 160.864C519.063 160.864 521.513 162.782 521.513 166.03C521.513 169.292 519.063 171.21 516.459 171.21C513.855 171.21 511.419 169.292 511.419 166.03ZM527.431 171.21C525.359 171.21 523.735 169.936 523.735 167.542V161.074H525.401V167.444C525.401 168.844 526.171 169.614 527.431 169.614C528.705 169.614 529.461 168.844 529.461 167.444V161.074H531.141V167.542C531.141 169.936 529.517 171.21 527.431 171.21ZM538.976 171L536.89 167.08H535.658V171H533.964V161.074H537.772C539.69 161.074 540.88 162.404 540.88 164.084C540.88 165.498 540.026 166.576 538.64 166.912L540.88 171H538.976ZM535.658 165.596H537.464C538.5 165.596 539.172 164.994 539.172 164.084C539.172 163.16 538.5 162.558 537.464 162.558H535.658V165.596ZM553.789 163.398L552.277 163.874C552.179 163.258 551.661 162.348 550.331 162.348C549.323 162.348 548.623 163.02 548.623 163.776C548.623 164.406 549.015 164.882 549.785 165.05L551.213 165.344C552.963 165.694 553.901 166.8 553.901 168.2C553.901 169.74 552.655 171.21 550.387 171.21C547.867 171.21 546.705 169.586 546.551 168.158L548.119 167.71C548.217 168.746 548.959 169.698 550.387 169.698C551.577 169.698 552.193 169.096 552.193 168.326C552.193 167.682 551.717 167.164 550.863 166.982L549.463 166.688C547.951 166.38 546.943 165.386 546.943 163.902C546.943 162.236 548.469 160.864 550.317 160.864C552.655 160.864 553.565 162.292 553.789 163.398ZM557.914 171H556.206V161.074H557.914V171ZM567.98 162.656H564.746V171H563.066V162.656H559.846V161.074H567.98V162.656ZM576.05 171H569.918V161.074H576.05V162.642H571.598V165.274H575.63V166.8H571.598V169.432H576.05V171Z" fill="url(#paint19_linear_5711_58545)"/>
</g>
<circle cx="84" cy="164" r="20" fill="url(#paint20_linear_5711_58545)" fill-opacity="0.12"/>
<rect x="64" y="200" width="307" height="16" rx="8" fill="url(#paint21_linear_5711_58545)" fill-opacity="0.12"/>
<rect x="64" y="228" width="525" height="12" rx="6" fill="url(#paint22_linear_5711_58545)" fill-opacity="0.12"/>
<rect x="64" y="248" width="291" height="12" rx="6" fill="url(#paint23_linear_5711_58545)" fill-opacity="0.12"/>
<rect x="116" y="168" width="291" height="10" rx="5" fill="url(#paint24_linear_5711_58545)" fill-opacity="0.12"/>
<rect x="116" y="150" width="83" height="10" rx="5" fill="url(#paint25_linear_5711_58545)" fill-opacity="0.12"/>
</g>
<defs>
<filter id="filter0_b_5711_58545" x="430" y="116" width="195" height="100" filterUnits="userSpaceOnUse" color-interpolation-filters="sRGB">
<feFlood flood-opacity="0" result="BackgroundImageFix"/>
<feGaussianBlur in="BackgroundImageFix" stdDeviation="16"/>
<feComposite in2="SourceAlpha" operator="in" result="effect1_backgroundBlur_5711_58545"/>
<feBlend mode="normal" in="SourceGraphic" in2="effect1_backgroundBlur_5711_58545" result="shape"/>
</filter>
<linearGradient id="paint0_linear_5711_58545" x1="95.1001" y1="509.713" x2="137.721" y2="509.51" gradientUnits="userSpaceOnUse">
<stop stop-color="#E4D4F5"/>
<stop offset="1" stop-color="white" stop-opacity="0"/>
</linearGradient>
<linearGradient id="paint1_linear_5711_58545" x1="125.138" y1="544.925" x2="449.549" y2="515.284" gradientUnits="userSpaceOnUse">
<stop stop-color="#E4D4F5"/>
<stop offset="1" stop-color="white" stop-opacity="0"/>
</linearGradient>
<linearGradient id="paint2_linear_5711_58545" x1="170.137" y1="512.328" x2="474.366" y2="470.171" gradientUnits="userSpaceOnUse">
<stop stop-color="#E4D4F5"/>
<stop offset="1" stop-color="white" stop-opacity="0"/>
</linearGradient>
<linearGradient id="paint3_linear_5711_58545" x1="146.737" y1="496.128" x2="235.039" y2="492.638" gradientUnits="userSpaceOnUse">
<stop stop-color="#E4D4F5"/>
<stop offset="1" stop-color="white" stop-opacity="0"/>
</linearGradient>
<linearGradient id="paint4_linear_5711_58545" x1="95.1001" y1="347.713" x2="137.721" y2="347.51" gradientUnits="userSpaceOnUse">
<stop stop-color="#E4D4F5"/>
<stop offset="1" stop-color="white" stop-opacity="0"/>
</linearGradient>
<linearGradient id="paint5_linear_5711_58545" x1="125.138" y1="382.925" x2="449.549" y2="353.284" gradientUnits="userSpaceOnUse">
<stop stop-color="#E4D4F5"/>
<stop offset="1" stop-color="white" stop-opacity="0"/>
</linearGradient>
<linearGradient id="paint6_linear_5711_58545" x1="149.663" y1="405.594" x2="685.799" y2="293.899" gradientUnits="userSpaceOnUse">
<stop stop-color="#E4D4F5"/>
<stop offset="1" stop-color="white" stop-opacity="0"/>
</linearGradient>
<linearGradient id="paint7_linear_5711_58545" x1="123.338" y1="423.594" x2="429.328" y2="388.259" gradientUnits="userSpaceOnUse">
<stop stop-color="#E4D4F5"/>
<stop offset="1" stop-color="white" stop-opacity="0"/>
</linearGradient>
<linearGradient id="paint8_linear_5711_58545" x1="170.137" y1="350.328" x2="474.366" y2="308.171" gradientUnits="userSpaceOnUse">
<stop stop-color="#E4D4F5"/>
<stop offset="1" stop-color="white" stop-opacity="0"/>
</linearGradient>
<linearGradient id="paint9_linear_5711_58545" x1="146.737" y1="334.128" x2="235.039" y2="330.638" gradientUnits="userSpaceOnUse">
<stop stop-color="#E4D4F5"/>
<stop offset="1" stop-color="white" stop-opacity="0"/>
</linearGradient>
<linearGradient id="paint10_linear_5711_58545" x1="96.1765" y1="269.375" x2="281.38" y2="-61.2456" gradientUnits="userSpaceOnUse">
<stop stop-color="#7A57F1" stop-opacity="0.61"/>
<stop offset="1" stop-color="#7A57F1" stop-opacity="0"/>
</linearGradient>
<linearGradient id="paint11_linear_5711_58545" x1="576.587" y1="177.52" x2="560.894" y2="132.765" gradientUnits="userSpaceOnUse">
<stop stop-color="#6A50FF"/>
<stop offset="1" stop-color="#A897FF"/>
</linearGradient>
<linearGradient id="paint12_linear_5711_58545" x1="487.122" y1="163.202" x2="482.413" y2="158.646" gradientUnits="userSpaceOnUse">
<stop stop-color="#6A50FF"/>
<stop offset="1" stop-color="#A897FF"/>
</linearGradient>
<linearGradient id="paint13_linear_5711_58545" x1="488.371" y1="172.233" x2="480.464" y2="166.036" gradientUnits="userSpaceOnUse">
<stop stop-color="#6A50FF"/>
<stop offset="1" stop-color="#A897FF"/>
</linearGradient>
<linearGradient id="paint14_linear_5711_58545" x1="492.697" y1="165.417" x2="491.285" y2="164.31" gradientUnits="userSpaceOnUse">
<stop stop-color="#6A50FF"/>
<stop offset="1" stop-color="#A897FF"/>
</linearGradient>
<linearGradient id="paint15_linear_5711_58545" x1="492.697" y1="172.917" x2="491.285" y2="171.81" gradientUnits="userSpaceOnUse">
<stop stop-color="#6A50FF"/>
<stop offset="1" stop-color="#A897FF"/>
</linearGradient>
<linearGradient id="paint16_linear_5711_58545" x1="475.303" y1="165.417" x2="476.715" y2="164.31" gradientUnits="userSpaceOnUse">
<stop stop-color="#6A50FF"/>
<stop offset="1" stop-color="#A897FF"/>
</linearGradient>
<linearGradient id="paint17_linear_5711_58545" x1="475.303" y1="172.917" x2="476.715" y2="171.81" gradientUnits="userSpaceOnUse">
<stop stop-color="#6A50FF"/>
<stop offset="1" stop-color="#A897FF"/>
</linearGradient>
<linearGradient id="paint18_linear_5711_58545" x1="485.093" y1="170.5" x2="482.278" y2="169.47" gradientUnits="userSpaceOnUse">
<stop stop-color="#6A50FF"/>
<stop offset="1" stop-color="#A897FF"/>
</linearGradient>
<linearGradient id="paint19_linear_5711_58545" x1="567.603" y1="173.68" x2="555.878" y2="144.963" gradientUnits="userSpaceOnUse">
<stop stop-color="#6A50FF"/>
<stop offset="1" stop-color="#A897FF"/>
</linearGradient>
<linearGradient id="paint20_linear_5711_58545" x1="69" y1="172.125" x2="116.356" y2="171.9" gradientUnits="userSpaceOnUse">
<stop stop-color="#C18CF6"/>
<stop offset="1" stop-color="#E0C2FF" stop-opacity="0"/>
</linearGradient>
<linearGradient id="paint21_linear_5711_58545" x1="102.375" y1="211.25" x2="462.832" y2="178.315" gradientUnits="userSpaceOnUse">
<stop stop-color="#C18CF6"/>
<stop offset="1" stop-color="#E0C2FF" stop-opacity="0"/>
</linearGradient>
<linearGradient id="paint22_linear_5711_58545" x1="129.625" y1="236.438" x2="725.332" y2="112.332" gradientUnits="userSpaceOnUse">
<stop stop-color="#C18CF6"/>
<stop offset="1" stop-color="#E0C2FF" stop-opacity="0"/>
</linearGradient>
<linearGradient id="paint23_linear_5711_58545" x1="100.375" y1="256.438" x2="440.365" y2="217.177" gradientUnits="userSpaceOnUse">
<stop stop-color="#C18CF6"/>
<stop offset="1" stop-color="#E0C2FF" stop-opacity="0"/>
</linearGradient>
<linearGradient id="paint24_linear_5711_58545" x1="152.375" y1="175.031" x2="490.407" y2="128.19" gradientUnits="userSpaceOnUse">
<stop stop-color="#C18CF6"/>
<stop offset="1" stop-color="#E0C2FF" stop-opacity="0"/>
</linearGradient>
<linearGradient id="paint25_linear_5711_58545" x1="126.375" y1="157.031" x2="224.488" y2="153.153" gradientUnits="userSpaceOnUse">
<stop stop-color="#C18CF6"/>
<stop offset="1" stop-color="#E0C2FF" stop-opacity="0"/>
</linearGradient>
<clipPath id="clip0_5711_58545">
<rect width="653" height="537" fill="white"/>
</clipPath>
</defs>
</svg>
