<svg width="537" height="537" viewBox="0 0 537 537" fill="none" xmlns="http://www.w3.org/2000/svg">
<rect x="34.5" y="85.5" width="240" height="365" rx="11.5" fill="#19181B" stroke="#222024"/>
<rect x="67" y="299" width="48" height="48" rx="4" fill="url(#paint0_linear_5711_58836)" fill-opacity="0.08"/>
<rect x="111" y="109" width="88" height="88" rx="4" fill="url(#paint1_linear_5711_58836)" fill-opacity="0.08"/>
<path opacity="0.4" d="M134.077 136.23C134.077 134.021 135.868 132.23 138.077 132.23H147.923C150.132 132.23 151.923 134.021 151.923 136.23V146.077C151.923 148.286 150.132 150.077 147.923 150.077H138.077C135.868 150.077 134.077 148.286 134.077 146.077V136.23Z" fill="#575263"/>
<path opacity="0.4" d="M157.923 160.077C157.923 157.868 159.714 156.077 161.923 156.077H171.77C173.979 156.077 175.77 157.868 175.77 160.077V169.923C175.77 172.132 173.979 173.923 171.77 173.923H161.923C159.714 173.923 157.923 172.132 157.923 169.923V160.077Z" fill="#575263"/>
<circle cx="166.847" cy="141.153" r="8.92333" fill="#575263"/>
<circle cx="143" cy="165" r="8.92333" fill="#575263"/>
<rect x="131" y="299" width="48" height="48" rx="4" fill="url(#paint2_linear_5711_58836)" fill-opacity="0.08"/>
<rect x="195" y="299" width="48" height="48" rx="4" fill="url(#paint3_linear_5711_58836)" fill-opacity="0.08"/>
<rect x="115" y="279" width="80" height="8" rx="4" fill="url(#paint4_linear_5711_58836)" fill-opacity="0.08"/>
<rect x="62" y="217" width="186" height="8" rx="4" fill="url(#paint5_linear_5711_58836)" fill-opacity="0.08"/>
<rect x="71" y="233" width="168" height="8" rx="4" fill="url(#paint6_linear_5711_58836)" fill-opacity="0.08"/>
<rect x="96.5" y="376.5" width="117" height="47" rx="23.5" fill="#19181B"/>
<rect x="96.5" y="376.5" width="117" height="47" rx="23.5" stroke="#36333D"/>
<path d="M114.31 400.03C114.31 402.424 115.962 403.614 117.628 403.614C119.308 403.614 120.96 402.424 120.96 400.03C120.96 397.636 119.308 396.446 117.628 396.446C115.962 396.446 114.31 397.636 114.31 400.03ZM112.588 400.03C112.588 396.782 115.024 394.864 117.628 394.864C120.232 394.864 122.682 396.782 122.682 400.03C122.682 403.292 120.232 405.21 117.628 405.21C115.024 405.21 112.588 403.292 112.588 400.03ZM131.246 405H125.016V395.074H126.696V403.404H131.246V405ZM135.021 403.46H136.785C138.507 403.46 139.935 402.354 139.935 400.058C139.935 397.734 138.521 396.614 136.799 396.614H135.021V403.46ZM136.841 405H133.341V395.074H136.855C139.557 395.074 141.685 396.866 141.685 400.058C141.685 403.236 139.529 405 136.841 405ZM148.037 395.074H151.453C153.357 395.074 154.477 396.194 154.477 397.748C154.477 398.798 153.861 399.582 153.007 399.89C154.057 400.17 154.785 401.08 154.785 402.256C154.785 403.852 153.553 405 151.705 405H148.037V395.074ZM149.703 399.274H151.229C152.209 399.274 152.797 398.714 152.797 397.888C152.797 397.048 152.209 396.502 151.187 396.502H149.703V399.274ZM149.703 403.572H151.411C152.419 403.572 153.077 403.026 153.077 402.144C153.077 401.29 152.503 400.688 151.467 400.688H149.703V403.572ZM162.113 405L160.027 401.08H158.795V405H157.101V395.074H160.909C162.827 395.074 164.017 396.404 164.017 398.084C164.017 399.498 163.163 400.576 161.777 400.912L164.017 405H162.113ZM158.795 399.596H160.601C161.637 399.596 162.309 398.994 162.309 398.084C162.309 397.16 161.637 396.558 160.601 396.558H158.795V399.596ZM173.119 405L172.181 402.508H167.981L167.057 405H165.279L169.143 395.074H171.089L174.953 405H173.119ZM170.081 396.894L168.569 400.954H171.593L170.081 396.894ZM185.172 405H183.422L178.522 397.482V405H176.842V395.074H178.984L183.492 402.116V395.074H185.172V405ZM189.788 403.46H191.552C193.274 403.46 194.702 402.354 194.702 400.058C194.702 397.734 193.288 396.614 191.566 396.614H189.788V403.46ZM191.608 405H188.108V395.074H191.622C194.324 395.074 196.452 396.866 196.452 400.058C196.452 403.236 194.296 405 191.608 405Z" fill="#575263"/>
<rect x="230" y="73" width="273" height="390" rx="12" fill="#111112"/>
<rect x="230" y="73" width="273" height="390" rx="12" fill="url(#paint7_linear_5711_58836)" fill-opacity="0.2"/>
<rect x="230.5" y="73.5" width="272" height="389" rx="11.5" stroke="#7A57F1" stroke-opacity="0.2"/>
<rect x="279" y="303" width="48" height="48" rx="4" fill="url(#paint8_linear_5711_58836)" fill-opacity="0.12"/>
<rect x="323" y="113" width="88" height="88" rx="4" fill="url(#paint9_linear_5711_58836)" fill-opacity="0.12"/>
<path opacity="0.4" d="M383 167V149L373 141H361L351 149V167C351 170.314 353.686 173 357 173H377C380.314 173 383 170.314 383 167Z" fill="url(#paint10_linear_5711_58836)"/>
<path d="M367 141H381.526C382.212 141 382.848 141.369 383.201 141.971L386.719 147.971C387.5 149.304 386.562 151 385.043 151H375.075C373.702 151 372.43 150.263 371.724 149.058L367 141Z" fill="url(#paint11_linear_5711_58836)"/>
<path d="M367 141H352.474C351.788 141 351.152 141.369 350.799 141.971L347.281 147.971C346.5 149.304 347.438 151 348.957 151H358.925C360.298 151 361.57 150.263 362.276 149.058L367 141Z" fill="url(#paint12_linear_5711_58836)"/>
<rect x="343" y="303" width="48" height="48" rx="4" fill="url(#paint13_linear_5711_58836)" fill-opacity="0.12"/>
<rect x="407" y="303" width="48" height="48" rx="4" fill="url(#paint14_linear_5711_58836)" fill-opacity="0.12"/>
<rect x="327" y="283" width="80" height="8" rx="4" fill="url(#paint15_linear_5711_58836)" fill-opacity="0.12"/>
<rect x="274" y="221" width="186" height="8" rx="4" fill="url(#paint16_linear_5711_58836)" fill-opacity="0.12"/>
<rect x="283" y="237" width="168" height="8" rx="4" fill="url(#paint17_linear_5711_58836)" fill-opacity="0.12"/>
<rect x="292" y="383" width="149" height="48" rx="24" fill="#111112"/>
<rect x="292" y="383" width="149" height="48" rx="24" fill="url(#paint18_linear_5711_58836)" fill-opacity="0.2"/>
<rect x="292.5" y="383.5" width="148" height="47" rx="23.5" stroke="#7A57F1" stroke-opacity="0.2"/>
<path opacity="0.4" d="M322.541 398.723L325.463 402.051C326.141 402.824 326.181 403.975 325.559 404.795L317.685 415.16C316.834 416.28 315.166 416.28 314.315 415.16L306.441 404.795C305.819 403.975 305.859 402.824 306.537 402.051L309.459 398.723C309.863 398.263 310.441 398 311.048 398H314.11H318.126H320.952C321.559 398 322.137 398.263 322.541 398.723Z" fill="url(#paint19_linear_5711_58836)"/>
<path d="M325.25 402.633C325.664 402.633 326 402.969 326 403.383C326 403.797 325.664 404.133 325.25 404.133L306.75 404.133C306.336 404.133 306 403.797 306 403.383C306 402.969 306.336 402.633 306.75 402.633L325.25 402.633Z" fill="url(#paint20_linear_5711_58836)"/>
<path d="M345.52 412H343.77L338.87 404.482V412H337.19V402.074H339.332L343.84 409.116V402.074H345.52V412ZM354.587 412H348.455V402.074H354.587V403.642H350.135V406.274H354.167V407.8H350.135V410.432H354.587V412ZM366.375 409.382L368.321 402.074H370.057L367.271 412H365.535L363.127 404.496L360.719 412H358.997L356.183 402.074H357.947L359.935 409.326L362.259 402.074H364.009L366.375 409.382ZM376.016 402.074H379.432C381.336 402.074 382.456 403.194 382.456 404.748C382.456 405.798 381.84 406.582 380.986 406.89C382.036 407.17 382.764 408.08 382.764 409.256C382.764 410.852 381.532 412 379.684 412H376.016V402.074ZM377.682 406.274H379.208C380.188 406.274 380.776 405.714 380.776 404.888C380.776 404.048 380.188 403.502 379.166 403.502H377.682V406.274ZM377.682 410.572H379.39C380.398 410.572 381.056 410.026 381.056 409.144C381.056 408.29 380.482 407.688 379.446 407.688H377.682V410.572ZM390.092 412L388.006 408.08H386.774V412H385.08V402.074H388.888C390.806 402.074 391.996 403.404 391.996 405.084C391.996 406.498 391.142 407.576 389.756 407.912L391.996 412H390.092ZM386.774 406.596H388.58C389.616 406.596 390.288 405.994 390.288 405.084C390.288 404.16 389.616 403.558 388.58 403.558H386.774V406.596ZM401.098 412L400.16 409.508H395.96L395.036 412H393.258L397.122 402.074H399.068L402.932 412H401.098ZM398.06 403.894L396.548 407.954H399.572L398.06 403.894ZM413.151 412H411.401L406.501 404.482V412H404.821V402.074H406.963L411.471 409.116V402.074H413.151V412ZM417.766 410.46H419.53C421.252 410.46 422.68 409.354 422.68 407.058C422.68 404.734 421.266 403.614 419.544 403.614H417.766V410.46ZM419.586 412H416.086V402.074H419.6C422.302 402.074 424.43 403.866 424.43 407.058C424.43 410.236 422.274 412 419.586 412Z" fill="url(#paint21_linear_5711_58836)"/>
<defs>
<linearGradient id="paint0_linear_5711_58836" x1="73" y1="332.75" x2="129.827" y2="332.479" gradientUnits="userSpaceOnUse">
<stop stop-color="#E4D4F5"/>
<stop offset="1" stop-color="white" stop-opacity="0"/>
</linearGradient>
<linearGradient id="paint1_linear_5711_58836" x1="122" y1="170.875" x2="226.183" y2="170.379" gradientUnits="userSpaceOnUse">
<stop stop-color="#E4D4F5"/>
<stop offset="1" stop-color="white" stop-opacity="0"/>
</linearGradient>
<linearGradient id="paint2_linear_5711_58836" x1="137" y1="332.75" x2="193.827" y2="332.479" gradientUnits="userSpaceOnUse">
<stop stop-color="#E4D4F5"/>
<stop offset="1" stop-color="white" stop-opacity="0"/>
</linearGradient>
<linearGradient id="paint3_linear_5711_58836" x1="201" y1="332.75" x2="257.827" y2="332.479" gradientUnits="userSpaceOnUse">
<stop stop-color="#E4D4F5"/>
<stop offset="1" stop-color="white" stop-opacity="0"/>
</linearGradient>
<linearGradient id="paint4_linear_5711_58836" x1="125" y1="284.625" x2="219.5" y2="280.125" gradientUnits="userSpaceOnUse">
<stop stop-color="#E4D4F5"/>
<stop offset="1" stop-color="white" stop-opacity="0"/>
</linearGradient>
<linearGradient id="paint5_linear_5711_58836" x1="85.25" y1="222.625" x2="302.794" y2="198.54" gradientUnits="userSpaceOnUse">
<stop stop-color="#E4D4F5"/>
<stop offset="1" stop-color="white" stop-opacity="0"/>
</linearGradient>
<linearGradient id="paint6_linear_5711_58836" x1="92" y1="238.625" x2="288.931" y2="218.932" gradientUnits="userSpaceOnUse">
<stop stop-color="#E4D4F5"/>
<stop offset="1" stop-color="white" stop-opacity="0"/>
</linearGradient>
<linearGradient id="paint7_linear_5711_58836" x1="256.765" y1="426.437" x2="587.88" y2="313.788" gradientUnits="userSpaceOnUse">
<stop stop-color="#7A57F1" stop-opacity="0.61"/>
<stop offset="1" stop-color="#7A57F1" stop-opacity="0"/>
</linearGradient>
<linearGradient id="paint8_linear_5711_58836" x1="285" y1="336.75" x2="341.827" y2="336.479" gradientUnits="userSpaceOnUse">
<stop stop-color="#C18CF6"/>
<stop offset="1" stop-color="#E0C2FF" stop-opacity="0"/>
</linearGradient>
<linearGradient id="paint9_linear_5711_58836" x1="334" y1="174.875" x2="438.183" y2="174.379" gradientUnits="userSpaceOnUse">
<stop stop-color="#C18CF6"/>
<stop offset="1" stop-color="#E0C2FF" stop-opacity="0"/>
</linearGradient>
<linearGradient id="paint10_linear_5711_58836" x1="378.991" y1="167.24" x2="357.301" y2="150.242" gradientUnits="userSpaceOnUse">
<stop stop-color="#6A50FF"/>
<stop offset="1" stop-color="#A897FF"/>
</linearGradient>
<linearGradient id="paint11_linear_5711_58836" x1="384.494" y1="149.2" x2="378.164" y2="139.278" gradientUnits="userSpaceOnUse">
<stop stop-color="#6A50FF"/>
<stop offset="1" stop-color="#A897FF"/>
</linearGradient>
<linearGradient id="paint12_linear_5711_58836" x1="364.494" y1="149.2" x2="358.164" y2="139.278" gradientUnits="userSpaceOnUse">
<stop stop-color="#6A50FF"/>
<stop offset="1" stop-color="#A897FF"/>
</linearGradient>
<linearGradient id="paint13_linear_5711_58836" x1="349" y1="336.75" x2="405.827" y2="336.479" gradientUnits="userSpaceOnUse">
<stop stop-color="#C18CF6"/>
<stop offset="1" stop-color="#E0C2FF" stop-opacity="0"/>
</linearGradient>
<linearGradient id="paint14_linear_5711_58836" x1="413" y1="336.75" x2="469.827" y2="336.479" gradientUnits="userSpaceOnUse">
<stop stop-color="#C18CF6"/>
<stop offset="1" stop-color="#E0C2FF" stop-opacity="0"/>
</linearGradient>
<linearGradient id="paint15_linear_5711_58836" x1="337" y1="288.625" x2="431.5" y2="284.125" gradientUnits="userSpaceOnUse">
<stop stop-color="#C18CF6"/>
<stop offset="1" stop-color="#E0C2FF" stop-opacity="0"/>
</linearGradient>
<linearGradient id="paint16_linear_5711_58836" x1="297.25" y1="226.625" x2="514.794" y2="202.54" gradientUnits="userSpaceOnUse">
<stop stop-color="#C18CF6"/>
<stop offset="1" stop-color="#E0C2FF" stop-opacity="0"/>
</linearGradient>
<linearGradient id="paint17_linear_5711_58836" x1="304" y1="242.625" x2="500.931" y2="222.932" gradientUnits="userSpaceOnUse">
<stop stop-color="#C18CF6"/>
<stop offset="1" stop-color="#E0C2FF" stop-opacity="0"/>
</linearGradient>
<linearGradient id="paint18_linear_5711_58836" x1="306.608" y1="426.5" x2="368.156" y2="333.645" gradientUnits="userSpaceOnUse">
<stop stop-color="#7A57F1" stop-opacity="0.61"/>
<stop offset="1" stop-color="#7A57F1" stop-opacity="0"/>
</linearGradient>
<linearGradient id="paint19_linear_5711_58836" x1="323.494" y1="412.76" x2="311.049" y2="401.923" gradientUnits="userSpaceOnUse">
<stop stop-color="#6A50FF"/>
<stop offset="1" stop-color="#A897FF"/>
</linearGradient>
<linearGradient id="paint20_linear_5711_58836" x1="323.494" y1="403.863" x2="323.296" y2="401.788" gradientUnits="userSpaceOnUse">
<stop stop-color="#6A50FF"/>
<stop offset="1" stop-color="#A897FF"/>
</linearGradient>
<linearGradient id="paint21_linear_5711_58836" x1="413.849" y1="414.68" x2="403.541" y2="384.722" gradientUnits="userSpaceOnUse">
<stop stop-color="#6A50FF"/>
<stop offset="1" stop-color="#A897FF"/>
</linearGradient>
</defs>
</svg>
