<svg width="589" height="537" viewBox="0 0 589 537" fill="none" xmlns="http://www.w3.org/2000/svg">
<g clip-path="url(#clip0_5711_58997)">
<rect x="1.5" y="238.5" width="179" height="239" rx="11.5" fill="#19181B" stroke="#222024"/>
<rect x="17" y="425" width="148" height="8" rx="4" fill="url(#paint0_linear_5711_58997)" fill-opacity="0.08"/>
<rect x="17" y="409" width="148" height="8" rx="4" fill="url(#paint1_linear_5711_58997)" fill-opacity="0.08"/>
<rect x="17" y="377" width="115" height="14" rx="7" fill="url(#paint2_linear_5711_58997)" fill-opacity="0.08"/>
<rect x="17" y="441" width="133" height="8" rx="4" fill="url(#paint3_linear_5711_58997)" fill-opacity="0.08"/>
<path d="M2 250C2 243.925 6.92487 239 13 239H169C175.075 239 180 243.925 180 250V359H2V250Z" fill="url(#paint4_linear_5711_58997)" fill-opacity="0.05"/>
<path opacity="0.4" d="M76 289C76 285.318 78.9848 282.333 82.6667 282.333H94.3333L106 294V309C106 312.682 103.015 315.667 99.3333 315.667H82.6667C78.9848 315.667 76 312.682 76 309V289Z" fill="#575263"/>
<path d="M106 294L94.3335 282.333V287.333C94.3335 291.015 97.3183 294 101 294H106Z" fill="#575263"/>
<path fill-rule="evenodd" clip-rule="evenodd" d="M83.0835 297.333C83.0835 296.643 83.6431 296.083 84.3335 296.083H91.0002C91.6905 296.083 92.2502 296.643 92.2502 297.333C92.2502 298.024 91.6905 298.583 91.0002 298.583H84.3335C83.6431 298.583 83.0835 298.024 83.0835 297.333Z" fill="#575263"/>
<path fill-rule="evenodd" clip-rule="evenodd" d="M83.0835 305.667C83.0835 304.976 83.6431 304.417 84.3335 304.417H97.6668C98.3572 304.417 98.9168 304.976 98.9168 305.667C98.9168 306.357 98.3572 306.917 97.6668 306.917H84.3335C83.6431 306.917 83.0835 306.357 83.0835 305.667Z" fill="#575263"/>
<rect x="205.5" y="238.5" width="179" height="239" rx="11.5" fill="#19181B" stroke="#222024"/>
<rect x="221" y="425" width="148" height="8" rx="4" fill="url(#paint5_linear_5711_58997)" fill-opacity="0.08"/>
<rect x="221" y="409" width="148" height="8" rx="4" fill="url(#paint6_linear_5711_58997)" fill-opacity="0.08"/>
<rect x="221" y="377" width="115" height="14" rx="7" fill="url(#paint7_linear_5711_58997)" fill-opacity="0.08"/>
<rect x="221" y="441" width="133" height="8" rx="4" fill="url(#paint8_linear_5711_58997)" fill-opacity="0.08"/>
<path d="M206 250C206 243.925 210.925 239 217 239H373C379.075 239 384 243.925 384 250V359H206V250Z" fill="url(#paint9_linear_5711_58997)" fill-opacity="0.05"/>
<path opacity="0.4" d="M278.333 289C278.333 285.318 281.318 282.333 285 282.333H305C308.682 282.333 311.667 285.318 311.667 289V309C311.667 312.682 308.682 315.667 305 315.667H285C281.318 315.667 278.333 312.682 278.333 309V289Z" fill="#575263"/>
<path d="M291.667 307.552V300.447C291.667 299.116 293.151 298.322 294.258 299.061L299.587 302.613C300.576 303.273 300.576 304.727 299.587 305.387L294.258 308.939C293.151 309.677 291.667 308.883 291.667 307.552Z" fill="#575263"/>
<path fill-rule="evenodd" clip-rule="evenodd" d="M289.438 282.333L284.438 292.332H287.229L292.229 282.333H302.771L297.772 292.332H300.562L305.551 282.356C308.975 282.636 311.667 285.503 311.667 289V292.333H278.333V289C278.333 285.318 281.318 282.333 285 282.333H289.438Z" fill="#575263"/>
<rect x="409.5" y="238.5" width="179" height="239" rx="11.5" fill="#19181B" stroke="#222024"/>
<rect x="425" y="425" width="148" height="8" rx="4" fill="url(#paint10_linear_5711_58997)" fill-opacity="0.08"/>
<rect x="425" y="409" width="148" height="8" rx="4" fill="url(#paint11_linear_5711_58997)" fill-opacity="0.08"/>
<rect x="425" y="377" width="115" height="14" rx="7" fill="url(#paint12_linear_5711_58997)" fill-opacity="0.08"/>
<rect x="425" y="441" width="133" height="8" rx="4" fill="url(#paint13_linear_5711_58997)" fill-opacity="0.08"/>
<path d="M409 250C409 243.925 413.925 239 420 239H576C582.075 239 587 243.925 587 250V359H409V250Z" fill="url(#paint14_linear_5711_58997)" fill-opacity="0.05"/>
<path opacity="0.4" d="M481.333 289C481.333 285.318 484.318 282.333 488 282.333H501.333C505.015 282.333 508 285.318 508 289V302.333C508 306.015 505.015 309 501.333 309H488C484.318 309 481.333 306.015 481.333 302.333V289Z" fill="#575263"/>
<path fill-rule="evenodd" clip-rule="evenodd" d="M488 309C488 312.682 490.985 315.667 494.667 315.667H508C511.682 315.667 514.667 312.682 514.667 309V295.667C514.667 291.985 511.682 289 508 289V302.333C508 306.015 505.015 309 501.333 309H488Z" fill="#575263"/>
<path fill-rule="evenodd" clip-rule="evenodd" d="M493.417 289C493.417 288.31 493.976 287.75 494.667 287.75C499.039 287.75 502.583 291.294 502.583 295.667C502.583 296.357 502.024 296.917 501.333 296.917C500.643 296.917 500.083 296.357 500.083 295.667C500.083 293.105 498.306 290.959 495.917 290.395V299C495.917 301.531 493.865 303.583 491.333 303.583C488.802 303.583 486.75 301.531 486.75 299C486.75 296.469 488.802 294.417 491.333 294.417C492.084 294.417 492.792 294.597 493.417 294.916V289Z" fill="#575263"/>
<g filter="url(#filter0_d_5711_58997)">
<rect x="195" y="60" width="199" height="56" rx="28" fill="#111112"/>
<rect x="195" y="60" width="199" height="56" rx="28" fill="url(#paint15_linear_5711_58997)" fill-opacity="0.2"/>
<rect x="195.5" y="60.5" width="198" height="55" rx="27.5" stroke="#7A57F1" stroke-opacity="0.2"/>
<path d="M227.539 96.5L227.616 95.9103C228.086 92.2796 231.113 89.3944 235 88.8729V87.1125C231.113 86.5909 228.085 83.7059 227.614 80.0751L227.539 79.5H222.461L222.386 80.0751C221.915 83.7059 218.887 86.5909 215 87.1125V88.8729C218.887 89.3944 221.914 92.2796 222.384 95.9103L222.461 96.5H227.539ZM223.409 83.1901L223.459 83.2929C224.475 85.3097 226.199 86.9526 228.341 87.9439L228.448 87.9927L228.341 88.0415C226.199 89.0329 224.475 90.6759 223.46 92.6929L223.409 92.7976L223.357 92.6929C222.342 90.6759 220.618 89.0329 218.476 88.0415L218.369 87.9927L218.476 87.9439C220.618 86.9526 222.342 85.3097 223.358 83.2929L223.409 83.1901Z" fill="url(#paint16_linear_5711_58997)"/>
<path d="M254.98 93L254.042 90.508H249.842L248.918 93H247.14L251.004 83.074H252.95L256.814 93H254.98ZM251.942 84.894L250.43 88.954H253.454L251.942 84.894ZM264.913 84.656H261.679V93H259.999V84.656H256.779V83.074H264.913V84.656ZM273.081 93H266.851V83.074H268.531V91.404H273.081V93ZM282.144 93L281.206 90.508H277.006L276.082 93H274.304L278.168 83.074H280.114L283.978 93H282.144ZM279.106 84.894L277.594 88.954H280.618L279.106 84.894ZM292.296 85.398L290.784 85.874C290.686 85.258 290.168 84.348 288.838 84.348C287.83 84.348 287.13 85.02 287.13 85.776C287.13 86.406 287.522 86.882 288.292 87.05L289.72 87.344C291.47 87.694 292.408 88.8 292.408 90.2C292.408 91.74 291.162 93.21 288.894 93.21C286.374 93.21 285.212 91.586 285.058 90.158L286.626 89.71C286.724 90.746 287.466 91.698 288.894 91.698C290.084 91.698 290.7 91.096 290.7 90.326C290.7 89.682 290.224 89.164 289.37 88.982L287.97 88.688C286.458 88.38 285.45 87.386 285.45 85.902C285.45 84.236 286.976 82.864 288.824 82.864C291.162 82.864 292.072 84.292 292.296 85.398ZM303.155 93.21C300.481 93.21 298.143 91.278 298.143 88.044C298.143 84.81 300.565 82.864 303.141 82.864C305.661 82.864 307.159 84.348 307.607 86.084L306.025 86.616C305.731 85.412 304.807 84.446 303.141 84.446C301.503 84.446 299.865 85.636 299.865 88.044C299.865 90.368 301.461 91.6 303.155 91.6C304.821 91.6 305.773 90.536 306.109 89.416L307.649 89.92C307.201 91.6 305.689 93.21 303.155 93.21ZM310.925 88.03C310.925 90.424 312.577 91.614 314.243 91.614C315.923 91.614 317.575 90.424 317.575 88.03C317.575 85.636 315.923 84.446 314.243 84.446C312.577 84.446 310.925 85.636 310.925 88.03ZM309.203 88.03C309.203 84.782 311.639 82.864 314.243 82.864C316.847 82.864 319.297 84.782 319.297 88.03C319.297 91.292 316.847 93.21 314.243 93.21C311.639 93.21 309.203 91.292 309.203 88.03ZM329.961 93H328.211L323.311 85.482V93H321.631V83.074H323.773L328.281 90.116V83.074H329.961V93ZM340.022 84.656H336.788V93H335.108V84.656H331.888V83.074H340.022V84.656ZM348.092 93H341.96V83.074H348.092V84.642H343.64V87.274H347.672V88.8H343.64V91.432H348.092V93ZM358.998 93H357.248L352.348 85.482V93H350.668V83.074H352.81L357.318 90.116V83.074H358.998V93ZM369.059 84.656H365.825V93H364.145V84.656H360.925V83.074H369.059V84.656Z" fill="url(#paint17_linear_5711_58997)"/>
</g>
<circle cx="295" cy="161" r="3" fill="#32323C"/>
<circle cx="295" cy="145" r="3" fill="#32323C"/>
<circle cx="295" cy="129" r="3" fill="#32323C"/>
<circle cx="295" cy="177" r="3" fill="#32323C"/>
<circle cx="305" cy="188" r="3" fill="#32323C"/>
<circle cx="319" cy="193" r="3" fill="#32323C"/>
<circle cx="335" cy="193" r="3" fill="#32323C"/>
<circle cx="351" cy="193" r="3" fill="#32323C"/>
<circle cx="367" cy="193" r="3" fill="#32323C"/>
<circle cx="383" cy="193" r="3" fill="#32323C"/>
<circle cx="399" cy="193" r="3" fill="#32323C"/>
<circle cx="415" cy="193" r="3" fill="#32323C"/>
<circle cx="431" cy="193" r="3" fill="#32323C"/>
<circle cx="447" cy="193" r="3" fill="#32323C"/>
<circle cx="463" cy="193" r="3" fill="#32323C"/>
<circle cx="479" cy="193" r="3" fill="#32323C"/>
<circle cx="495" cy="197" r="3" fill="#32323C"/>
<circle cx="504" cy="209" r="3" fill="#32323C"/>
<circle cx="504" cy="225" r="3" fill="#32323C"/>
<circle cx="295" cy="209" r="3" fill="#32323C"/>
<circle cx="295" cy="196" r="3" fill="#32323C"/>
<circle cx="295" cy="225" r="3" fill="#32323C"/>
<circle cx="285" cy="188" r="3" fill="#32323C"/>
<circle cx="271" cy="193" r="3" fill="#32323C"/>
<circle cx="255" cy="193" r="3" fill="#32323C"/>
<circle cx="239" cy="193" r="3" fill="#32323C"/>
<circle cx="223" cy="193" r="3" fill="#32323C"/>
<circle cx="207" cy="193" r="3" fill="#32323C"/>
<circle cx="191" cy="193" r="3" fill="#32323C"/>
<circle cx="175" cy="193" r="3" fill="#32323C"/>
<circle cx="159" cy="193" r="3" fill="#32323C"/>
<circle cx="143" cy="193" r="3" fill="#32323C"/>
<circle cx="127" cy="193" r="3" fill="#32323C"/>
<circle cx="111" cy="193" r="3" fill="#32323C"/>
<circle cx="86" cy="209" r="3" fill="#32323C"/>
<circle cx="86" cy="225" r="3" fill="#32323C"/>
<circle cx="95" cy="197" r="3" fill="#32323C"/>
</g>
<defs>
<filter id="filter0_d_5711_58997" x="125.667" y="-8" width="337.667" height="194.667" filterUnits="userSpaceOnUse" color-interpolation-filters="sRGB">
<feFlood flood-opacity="0" result="BackgroundImageFix"/>
<feColorMatrix in="SourceAlpha" type="matrix" values="0 0 0 0 0 0 0 0 0 0 0 0 0 0 0 0 0 0 127 0" result="hardAlpha"/>
<feMorphology radius="5.33333" operator="dilate" in="SourceAlpha" result="effect1_dropShadow_5711_58997"/>
<feOffset dy="1.33333"/>
<feGaussianBlur stdDeviation="32"/>
<feComposite in2="hardAlpha" operator="out"/>
<feColorMatrix type="matrix" values="0 0 0 0 0.572549 0 0 0 0 0.505882 0 0 0 0 0.937255 0 0 0 0.08 0"/>
<feBlend mode="normal" in2="BackgroundImageFix" result="effect1_dropShadow_5711_58997"/>
<feBlend mode="normal" in="SourceGraphic" in2="effect1_dropShadow_5711_58997" result="shape"/>
</filter>
<linearGradient id="paint0_linear_5711_58997" x1="35.5" y1="430.625" x2="209.372" y2="415.308" gradientUnits="userSpaceOnUse">
<stop stop-color="#E4D4F5"/>
<stop offset="1" stop-color="white" stop-opacity="0"/>
</linearGradient>
<linearGradient id="paint1_linear_5711_58997" x1="35.5" y1="414.625" x2="209.372" y2="399.308" gradientUnits="userSpaceOnUse">
<stop stop-color="#E4D4F5"/>
<stop offset="1" stop-color="white" stop-opacity="0"/>
</linearGradient>
<linearGradient id="paint2_linear_5711_58997" x1="31.375" y1="386.844" x2="167.319" y2="381.526" gradientUnits="userSpaceOnUse">
<stop stop-color="#E4D4F5"/>
<stop offset="1" stop-color="white" stop-opacity="0"/>
</linearGradient>
<linearGradient id="paint3_linear_5711_58997" x1="33.625" y1="446.625" x2="190.107" y2="434.237" gradientUnits="userSpaceOnUse">
<stop stop-color="#E4D4F5"/>
<stop offset="1" stop-color="white" stop-opacity="0"/>
</linearGradient>
<linearGradient id="paint4_linear_5711_58997" x1="24.25" y1="323.375" x2="234.979" y2="321.887" gradientUnits="userSpaceOnUse">
<stop stop-color="#E4D4F5"/>
<stop offset="1" stop-color="white" stop-opacity="0"/>
</linearGradient>
<linearGradient id="paint5_linear_5711_58997" x1="239.5" y1="430.625" x2="413.372" y2="415.308" gradientUnits="userSpaceOnUse">
<stop stop-color="#E4D4F5"/>
<stop offset="1" stop-color="white" stop-opacity="0"/>
</linearGradient>
<linearGradient id="paint6_linear_5711_58997" x1="239.5" y1="414.625" x2="413.372" y2="399.308" gradientUnits="userSpaceOnUse">
<stop stop-color="#E4D4F5"/>
<stop offset="1" stop-color="white" stop-opacity="0"/>
</linearGradient>
<linearGradient id="paint7_linear_5711_58997" x1="235.375" y1="386.844" x2="371.319" y2="381.526" gradientUnits="userSpaceOnUse">
<stop stop-color="#E4D4F5"/>
<stop offset="1" stop-color="white" stop-opacity="0"/>
</linearGradient>
<linearGradient id="paint8_linear_5711_58997" x1="237.625" y1="446.625" x2="394.107" y2="434.237" gradientUnits="userSpaceOnUse">
<stop stop-color="#E4D4F5"/>
<stop offset="1" stop-color="white" stop-opacity="0"/>
</linearGradient>
<linearGradient id="paint9_linear_5711_58997" x1="228.25" y1="323.375" x2="438.979" y2="321.887" gradientUnits="userSpaceOnUse">
<stop stop-color="#E4D4F5"/>
<stop offset="1" stop-color="white" stop-opacity="0"/>
</linearGradient>
<linearGradient id="paint10_linear_5711_58997" x1="443.5" y1="430.625" x2="617.372" y2="415.308" gradientUnits="userSpaceOnUse">
<stop stop-color="#E4D4F5"/>
<stop offset="1" stop-color="white" stop-opacity="0"/>
</linearGradient>
<linearGradient id="paint11_linear_5711_58997" x1="443.5" y1="414.625" x2="617.372" y2="399.308" gradientUnits="userSpaceOnUse">
<stop stop-color="#E4D4F5"/>
<stop offset="1" stop-color="white" stop-opacity="0"/>
</linearGradient>
<linearGradient id="paint12_linear_5711_58997" x1="439.375" y1="386.844" x2="575.319" y2="381.526" gradientUnits="userSpaceOnUse">
<stop stop-color="#E4D4F5"/>
<stop offset="1" stop-color="white" stop-opacity="0"/>
</linearGradient>
<linearGradient id="paint13_linear_5711_58997" x1="441.625" y1="446.625" x2="598.107" y2="434.237" gradientUnits="userSpaceOnUse">
<stop stop-color="#E4D4F5"/>
<stop offset="1" stop-color="white" stop-opacity="0"/>
</linearGradient>
<linearGradient id="paint14_linear_5711_58997" x1="431.25" y1="323.375" x2="641.979" y2="321.887" gradientUnits="userSpaceOnUse">
<stop stop-color="#E4D4F5"/>
<stop offset="1" stop-color="white" stop-opacity="0"/>
</linearGradient>
<linearGradient id="paint15_linear_5711_58997" x1="214.51" y1="110.75" x2="282.125" y2="-6.02682" gradientUnits="userSpaceOnUse">
<stop stop-color="#7A57F1" stop-opacity="0.61"/>
<stop offset="1" stop-color="#7A57F1" stop-opacity="0"/>
</linearGradient>
<linearGradient id="paint16_linear_5711_58997" x1="217.506" y1="93.44" x2="229.333" y2="82.5349" gradientUnits="userSpaceOnUse">
<stop stop-color="#6A50FF"/>
<stop offset="1" stop-color="#A897FF"/>
</linearGradient>
<linearGradient id="paint17_linear_5711_58997" x1="354.59" y1="95.68" x2="346.735" y2="64.1305" gradientUnits="userSpaceOnUse">
<stop stop-color="#6A50FF"/>
<stop offset="1" stop-color="#A897FF"/>
</linearGradient>
<clipPath id="clip0_5711_58997">
<rect width="589" height="537" fill="white"/>
</clipPath>
</defs>
</svg>
