<svg width="691" height="537" viewBox="0 0 691 537" fill="none" xmlns="http://www.w3.org/2000/svg">
<rect x="48.5" y="48.5" width="378" height="293" rx="11.5" fill="#19181B" stroke="#222024"/>
<g filter="url(#filter0_b_5711_58342)">
<path d="M72 278C72 275.791 73.7909 274 76 274H142C144.209 274 146 275.791 146 278V294C146 296.209 144.209 298 142 298H76C73.7909 298 72 296.209 72 294V278Z" fill="#635D79" fill-opacity="0.12"/>
</g>
<rect x="84" y="282" width="50.0033" height="8" rx="4" fill="url(#paint0_linear_5711_58342)"/>
<rect x="72" y="116" width="241" height="10" rx="5" fill="url(#paint1_linear_5711_58342)" fill-opacity="0.08"/>
<rect x="72" y="194" width="104" height="10" rx="5" fill="url(#paint2_linear_5711_58342)" fill-opacity="0.08"/>
<rect x="208" y="194" width="104" height="10" rx="5" fill="url(#paint3_linear_5711_58342)" fill-opacity="0.08"/>
<rect x="72" y="212" width="104" height="10" rx="5" fill="url(#paint4_linear_5711_58342)" fill-opacity="0.08"/>
<rect x="72" y="134" width="241" height="10" rx="5" fill="url(#paint5_linear_5711_58342)" fill-opacity="0.08"/>
<rect x="72" y="230" width="69" height="10" rx="5" fill="url(#paint6_linear_5711_58342)" fill-opacity="0.08"/>
<rect x="208" y="212" width="104" height="10" rx="5" fill="url(#paint7_linear_5711_58342)" fill-opacity="0.08"/>
<rect x="72" y="152" width="160" height="10" rx="5" fill="url(#paint8_linear_5711_58342)" fill-opacity="0.08"/>
<rect x="208" y="230" width="69" height="10" rx="5" fill="url(#paint9_linear_5711_58342)" fill-opacity="0.08"/>
<circle cx="66" cy="66" r="6" fill="url(#paint10_linear_5711_58342)"/>
<circle cx="82" cy="66" r="6" fill="url(#paint11_linear_5711_58342)"/>
<circle cx="98" cy="66" r="6" fill="url(#paint12_linear_5711_58342)"/>
<rect x="139" y="131" width="504" height="358" rx="12" fill="#111112"/>
<rect x="139" y="131" width="504" height="358" rx="12" fill="url(#paint13_linear_5711_58342)" fill-opacity="0.2"/>
<rect x="139.5" y="131.5" width="503" height="357" rx="11.5" stroke="#7A57F1" stroke-opacity="0.2"/>
<rect x="171" y="286" width="209" height="171" rx="12" fill="#655C86" fill-opacity="0.12"/>
<rect opacity="0.6" x="187" y="349" width="177" height="1" stroke="url(#paint14_linear_5711_58342)" stroke-dasharray="4 6"/>
<rect opacity="0.6" x="187" y="378" width="177" height="1" stroke="url(#paint15_linear_5711_58342)" stroke-dasharray="4 6"/>
<rect opacity="0.6" x="187" y="407" width="177" height="1" stroke="url(#paint16_linear_5711_58342)" stroke-dasharray="4 6"/>
<rect opacity="0.6" x="187" y="436" width="177" height="1" stroke="url(#paint17_linear_5711_58342)" stroke-dasharray="4 6"/>
<path d="M223.5 408C210.7 410 193.833 427.5 187 436H357.5V349C350.5 362 332 367.5 322.5 373C313 378.5 300 404 286.5 401C273 398 272 387 258 391C244 395 239.5 405.5 223.5 408Z" fill="url(#paint18_linear_5711_58342)"/>
<path d="M187 436C193.833 427.5 210.7 410 223.5 408C239.5 405.5 244 395 258 391C272 387 273 398 286.5 401C300 404 313 378.5 322.5 373C332 367.5 350.5 362 357.5 349" stroke="url(#paint19_linear_5711_58342)" stroke-width="2" stroke-linecap="round"/>
<rect x="187" y="317" width="85" height="8" rx="4" fill="url(#paint20_linear_5711_58342)" fill-opacity="0.22"/>
<rect x="187" y="302" width="46" height="8" rx="4" fill="url(#paint21_linear_5711_58342)" fill-opacity="0.12"/>
<rect x="171" y="208" width="281" height="14" rx="7" fill="url(#paint22_linear_5711_58342)" fill-opacity="0.12"/>
<rect x="171" y="232" width="222" height="14" rx="7" fill="url(#paint23_linear_5711_58342)" fill-opacity="0.12"/>
<ellipse cx="159.942" cy="151.939" rx="6.98153" ry="6.97959" fill="url(#paint24_linear_5711_58342)"/>
<ellipse cx="178.56" cy="151.939" rx="6.98153" ry="6.97959" fill="url(#paint25_linear_5711_58342)"/>
<ellipse cx="197.177" cy="151.939" rx="6.98153" ry="6.97959" fill="url(#paint26_linear_5711_58342)"/>
<rect x="396" y="286" width="215" height="171" rx="12" fill="#655C86" fill-opacity="0.12"/>
<rect x="412" y="317" width="85" height="8" rx="4" fill="url(#paint27_linear_5711_58342)" fill-opacity="0.22"/>
<rect x="412" y="302" width="46" height="8" rx="4" fill="url(#paint28_linear_5711_58342)" fill-opacity="0.12"/>
<rect opacity="0.6" x="416" y="349" width="176" height="1" stroke="url(#paint29_linear_5711_58342)" stroke-dasharray="4 6"/>
<rect opacity="0.6" x="416" y="378" width="176" height="1" stroke="url(#paint30_linear_5711_58342)" stroke-dasharray="4 6"/>
<rect opacity="0.6" x="416" y="407" width="176" height="1" stroke="url(#paint31_linear_5711_58342)" stroke-dasharray="4 6"/>
<rect opacity="0.6" x="416" y="436" width="176" height="1" stroke="url(#paint32_linear_5711_58342)" stroke-dasharray="4 6"/>
<rect x="423" y="405.896" width="6" height="30.7704" rx="3" fill="url(#paint33_linear_5711_58342)"/>
<rect x="416" y="414.604" width="6" height="22.0618" rx="3" fill="#53478E"/>
<rect x="504" y="366.417" width="6" height="70.2494" rx="3" fill="url(#paint34_linear_5711_58342)"/>
<rect x="497" y="386.156" width="6" height="50.5099" rx="3" fill="#53478E"/>
<rect x="450" y="379.189" width="6" height="57.4768" rx="3" fill="url(#paint35_linear_5711_58342)"/>
<rect x="443" y="395.445" width="6" height="41.2207" rx="3" fill="#53478E"/>
<rect x="531" y="414.604" width="6" height="22.0618" rx="3" fill="url(#paint36_linear_5711_58342)"/>
<rect x="524" y="420.7" width="6" height="15.9658" rx="3" fill="#53478E"/>
<rect x="477" y="349" width="6" height="87.6667" rx="3" fill="url(#paint37_linear_5711_58342)"/>
<rect x="470" y="373.673" width="6" height="62.9923" rx="3" fill="#53478E"/>
<rect x="558" y="351.321" width="6" height="85.3444" rx="3" fill="url(#paint38_linear_5711_58342)"/>
<rect x="551" y="375.415" width="6" height="61.2506" rx="3" fill="#53478E"/>
<rect x="585" y="376.576" width="6" height="60.0894" rx="3" fill="url(#paint39_linear_5711_58342)"/>
<rect x="578" y="393.413" width="6" height="43.2528" rx="3" fill="#53478E"/>
<g filter="url(#filter1_b_5711_58342)">
<rect x="497" y="151" width="126" height="36" rx="18" fill="#635D79" fill-opacity="0.12"/>
<rect x="497.5" y="151.5" width="125" height="35" rx="17.5" stroke="url(#paint40_linear_5711_58342)" stroke-opacity="0.4"/>
<path opacity="0.4" d="M524.451 162.102L526.886 164.876C527.451 165.52 527.484 166.48 526.966 167.162L520.404 175.8C519.695 176.733 518.305 176.733 517.595 175.8L511.034 167.162C510.515 166.48 510.549 165.52 511.114 164.876L513.549 162.102C513.885 161.719 514.367 161.5 514.874 161.5H517.425H520.772H523.126C523.632 161.5 524.114 161.719 524.451 162.102Z" fill="url(#paint41_linear_5711_58342)"/>
<path d="M526.708 165.361C527.053 165.361 527.333 165.641 527.333 165.986C527.333 166.331 527.053 166.611 526.708 166.611L511.292 166.611C510.946 166.611 510.667 166.331 510.667 165.986C510.667 165.64 510.946 165.361 511.292 165.361L526.708 165.361Z" fill="url(#paint42_linear_5711_58342)"/>
<path d="M546.52 174H544.77L539.87 166.482V174H538.19V164.074H540.332L544.84 171.116V164.074H546.52V174ZM555.587 174H549.455V164.074H555.587V165.642H551.135V168.274H555.167V169.8H551.135V172.432H555.587V174ZM567.375 171.382L569.321 164.074H571.057L568.271 174H566.535L564.127 166.496L561.719 174H559.997L557.183 164.074H558.947L560.935 171.326L563.259 164.074H565.009L567.375 171.382ZM583.54 166.398L582.028 166.874C581.93 166.258 581.412 165.348 580.082 165.348C579.074 165.348 578.374 166.02 578.374 166.776C578.374 167.406 578.766 167.882 579.536 168.05L580.964 168.344C582.714 168.694 583.652 169.8 583.652 171.2C583.652 172.74 582.406 174.21 580.138 174.21C577.618 174.21 576.456 172.586 576.302 171.158L577.87 170.71C577.968 171.746 578.71 172.698 580.138 172.698C581.328 172.698 581.944 172.096 581.944 171.326C581.944 170.682 581.468 170.164 580.614 169.982L579.214 169.688C577.702 169.38 576.694 168.386 576.694 166.902C576.694 165.236 578.22 163.864 580.068 163.864C582.406 163.864 583.316 165.292 583.54 166.398ZM587.665 174H585.957V164.074H587.665V174ZM597.731 165.656H594.497V174H592.817V165.656H589.597V164.074H597.731V165.656ZM605.801 174H599.669V164.074H605.801V165.642H601.349V168.274H605.381V169.8H601.349V172.432H605.801V174Z" fill="url(#paint43_linear_5711_58342)"/>
</g>
<rect x="321.5" y="64.5" width="89" height="35" rx="17.5" fill="#635D79" fill-opacity="0.12"/>
<rect x="321.5" y="64.5" width="89" height="35" rx="17.5" stroke="#36333D"/>
<path d="M335.31 82.03C335.31 84.424 336.962 85.614 338.628 85.614C340.308 85.614 341.96 84.424 341.96 82.03C341.96 79.636 340.308 78.446 338.628 78.446C336.962 78.446 335.31 79.636 335.31 82.03ZM333.588 82.03C333.588 78.782 336.024 76.864 338.628 76.864C341.232 76.864 343.682 78.782 343.682 82.03C343.682 85.292 341.232 87.21 338.628 87.21C336.024 87.21 333.588 85.292 333.588 82.03ZM352.246 87H346.016V77.074H347.696V85.404H352.246V87ZM356.021 85.46H357.785C359.507 85.46 360.935 84.354 360.935 82.058C360.935 79.734 359.521 78.614 357.799 78.614H356.021V85.46ZM357.841 87H354.341V77.074H357.855C360.557 77.074 362.685 78.866 362.685 82.058C362.685 85.236 360.529 87 357.841 87ZM375.561 79.398L374.049 79.874C373.951 79.258 373.433 78.348 372.103 78.348C371.095 78.348 370.395 79.02 370.395 79.776C370.395 80.406 370.787 80.882 371.557 81.05L372.985 81.344C374.735 81.694 375.673 82.8 375.673 84.2C375.673 85.74 374.427 87.21 372.159 87.21C369.639 87.21 368.477 85.586 368.323 84.158L369.891 83.71C369.989 84.746 370.731 85.698 372.159 85.698C373.349 85.698 373.965 85.096 373.965 84.326C373.965 83.682 373.489 83.164 372.635 82.982L371.235 82.688C369.723 82.38 368.715 81.386 368.715 79.902C368.715 78.236 370.241 76.864 372.089 76.864C374.427 76.864 375.337 78.292 375.561 79.398ZM379.686 87H377.978V77.074H379.686V87ZM389.752 78.656H386.518V87H384.838V78.656H381.618V77.074H389.752V78.656ZM397.822 87H391.69V77.074H397.822V78.642H393.37V81.274H397.402V82.8H393.37V85.432H397.822V87Z" fill="#575263"/>
<defs>
<filter id="filter0_b_5711_58342" x="40" y="242" width="138" height="88" filterUnits="userSpaceOnUse" color-interpolation-filters="sRGB">
<feFlood flood-opacity="0" result="BackgroundImageFix"/>
<feGaussianBlur in="BackgroundImageFix" stdDeviation="16"/>
<feComposite in2="SourceAlpha" operator="in" result="effect1_backgroundBlur_5711_58342"/>
<feBlend mode="normal" in="SourceGraphic" in2="effect1_backgroundBlur_5711_58342" result="shape"/>
</filter>
<filter id="filter1_b_5711_58342" x="465" y="119" width="190" height="100" filterUnits="userSpaceOnUse" color-interpolation-filters="sRGB">
<feFlood flood-opacity="0" result="BackgroundImageFix"/>
<feGaussianBlur in="BackgroundImageFix" stdDeviation="16"/>
<feComposite in2="SourceAlpha" operator="in" result="effect1_backgroundBlur_5711_58342"/>
<feBlend mode="normal" in="SourceGraphic" in2="effect1_backgroundBlur_5711_58342" result="shape"/>
</filter>
<linearGradient id="paint0_linear_5711_58342" x1="84" y1="293.2" x2="89.3195" y2="266.348" gradientUnits="userSpaceOnUse">
<stop stop-color="#838486" stop-opacity="0.1"/>
<stop offset="1" stop-color="#838486" stop-opacity="0.06"/>
</linearGradient>
<linearGradient id="paint1_linear_5711_58342" x1="102.125" y1="123.031" x2="383.743" y2="90.7123" gradientUnits="userSpaceOnUse">
<stop stop-color="#E4D4F5"/>
<stop offset="1" stop-color="white" stop-opacity="0"/>
</linearGradient>
<linearGradient id="paint2_linear_5711_58342" x1="85" y1="201.031" x2="207.827" y2="194.948" gradientUnits="userSpaceOnUse">
<stop stop-color="#E4D4F5"/>
<stop offset="1" stop-color="white" stop-opacity="0"/>
</linearGradient>
<linearGradient id="paint3_linear_5711_58342" x1="221" y1="201.031" x2="343.827" y2="194.948" gradientUnits="userSpaceOnUse">
<stop stop-color="#E4D4F5"/>
<stop offset="1" stop-color="white" stop-opacity="0"/>
</linearGradient>
<linearGradient id="paint4_linear_5711_58342" x1="85" y1="219.031" x2="207.827" y2="212.948" gradientUnits="userSpaceOnUse">
<stop stop-color="#E4D4F5"/>
<stop offset="1" stop-color="white" stop-opacity="0"/>
</linearGradient>
<linearGradient id="paint5_linear_5711_58342" x1="102.125" y1="141.031" x2="383.743" y2="108.712" gradientUnits="userSpaceOnUse">
<stop stop-color="#E4D4F5"/>
<stop offset="1" stop-color="white" stop-opacity="0"/>
</linearGradient>
<linearGradient id="paint6_linear_5711_58342" x1="80.625" y1="237.031" x2="162.228" y2="234.35" gradientUnits="userSpaceOnUse">
<stop stop-color="#E4D4F5"/>
<stop offset="1" stop-color="white" stop-opacity="0"/>
</linearGradient>
<linearGradient id="paint7_linear_5711_58342" x1="221" y1="219.031" x2="343.827" y2="212.948" gradientUnits="userSpaceOnUse">
<stop stop-color="#E4D4F5"/>
<stop offset="1" stop-color="white" stop-opacity="0"/>
</linearGradient>
<linearGradient id="paint8_linear_5711_58342" x1="92" y1="159.031" x2="280.335" y2="144.682" gradientUnits="userSpaceOnUse">
<stop stop-color="#E4D4F5"/>
<stop offset="1" stop-color="white" stop-opacity="0"/>
</linearGradient>
<linearGradient id="paint9_linear_5711_58342" x1="216.625" y1="237.031" x2="298.228" y2="234.35" gradientUnits="userSpaceOnUse">
<stop stop-color="#E4D4F5"/>
<stop offset="1" stop-color="white" stop-opacity="0"/>
</linearGradient>
<linearGradient id="paint10_linear_5711_58342" x1="60" y1="76.8" x2="80.4605" y2="60.2761" gradientUnits="userSpaceOnUse">
<stop stop-color="#838486" stop-opacity="0.1"/>
<stop offset="1" stop-color="#838486" stop-opacity="0.06"/>
</linearGradient>
<linearGradient id="paint11_linear_5711_58342" x1="76" y1="76.8" x2="96.4605" y2="60.2761" gradientUnits="userSpaceOnUse">
<stop stop-color="#838486" stop-opacity="0.1"/>
<stop offset="1" stop-color="#838486" stop-opacity="0.06"/>
</linearGradient>
<linearGradient id="paint12_linear_5711_58342" x1="92" y1="76.8" x2="112.461" y2="60.2761" gradientUnits="userSpaceOnUse">
<stop stop-color="#838486" stop-opacity="0.1"/>
<stop offset="1" stop-color="#838486" stop-opacity="0.06"/>
</linearGradient>
<linearGradient id="paint13_linear_5711_58342" x1="188.412" y1="455.437" x2="652.968" y2="137.577" gradientUnits="userSpaceOnUse">
<stop stop-color="#7A57F1" stop-opacity="0.61"/>
<stop offset="1" stop-color="#7A57F1" stop-opacity="0"/>
</linearGradient>
<linearGradient id="paint14_linear_5711_58342" x1="364" y1="348.951" x2="187" y2="348.951" gradientUnits="userSpaceOnUse">
<stop stop-color="#7A57F1" stop-opacity="0"/>
<stop offset="0.197401" stop-color="#372C5B"/>
<stop offset="0.8" stop-color="#372C5B"/>
<stop offset="1" stop-color="#7A57F1" stop-opacity="0"/>
</linearGradient>
<linearGradient id="paint15_linear_5711_58342" x1="364" y1="377.951" x2="187" y2="377.951" gradientUnits="userSpaceOnUse">
<stop stop-color="#7A57F1" stop-opacity="0"/>
<stop offset="0.197401" stop-color="#372C5B"/>
<stop offset="0.8" stop-color="#372C5B"/>
<stop offset="1" stop-color="#7A57F1" stop-opacity="0"/>
</linearGradient>
<linearGradient id="paint16_linear_5711_58342" x1="364" y1="406.951" x2="187" y2="406.951" gradientUnits="userSpaceOnUse">
<stop stop-color="#7A57F1" stop-opacity="0"/>
<stop offset="0.197401" stop-color="#372C5B"/>
<stop offset="0.8" stop-color="#372C5B"/>
<stop offset="1" stop-color="#7A57F1" stop-opacity="0"/>
</linearGradient>
<linearGradient id="paint17_linear_5711_58342" x1="364" y1="435.951" x2="187" y2="435.951" gradientUnits="userSpaceOnUse">
<stop stop-color="#7A57F1" stop-opacity="0"/>
<stop offset="0.197401" stop-color="#372C5B"/>
<stop offset="0.8" stop-color="#372C5B"/>
<stop offset="1" stop-color="#7A57F1" stop-opacity="0"/>
</linearGradient>
<linearGradient id="paint18_linear_5711_58342" x1="262.241" y1="352.45" x2="277.182" y2="435.108" gradientUnits="userSpaceOnUse">
<stop stop-color="#7A57F1" stop-opacity="0.37"/>
<stop offset="1" stop-color="#7A57F1" stop-opacity="0"/>
</linearGradient>
<linearGradient id="paint19_linear_5711_58342" x1="255" y1="364" x2="271.321" y2="375.947" gradientUnits="userSpaceOnUse">
<stop stop-color="#6A50FF"/>
<stop offset="1" stop-color="#A897FF"/>
</linearGradient>
<linearGradient id="paint20_linear_5711_58342" x1="197.625" y1="322.625" x2="298.002" y2="317.546" gradientUnits="userSpaceOnUse">
<stop stop-color="#C18CF6"/>
<stop offset="1" stop-color="#E0C2FF" stop-opacity="0"/>
</linearGradient>
<linearGradient id="paint21_linear_5711_58342" x1="192.75" y1="307.625" x2="247.17" y2="306.135" gradientUnits="userSpaceOnUse">
<stop stop-color="#C18CF6"/>
<stop offset="1" stop-color="#E0C2FF" stop-opacity="0"/>
</linearGradient>
<linearGradient id="paint22_linear_5711_58342" x1="206.125" y1="217.844" x2="535.797" y2="186.334" gradientUnits="userSpaceOnUse">
<stop stop-color="#C18CF6"/>
<stop offset="1" stop-color="#E0C2FF" stop-opacity="0"/>
</linearGradient>
<linearGradient id="paint23_linear_5711_58342" x1="198.75" y1="241.844" x2="460.092" y2="222.11" gradientUnits="userSpaceOnUse">
<stop stop-color="#C18CF6"/>
<stop offset="1" stop-color="#E0C2FF" stop-opacity="0"/>
</linearGradient>
<linearGradient id="paint24_linear_5711_58342" x1="152.961" y1="164.502" x2="176.763" y2="145.274" gradientUnits="userSpaceOnUse">
<stop stop-color="#838486" stop-opacity="0.1"/>
<stop offset="1" stop-color="#838486" stop-opacity="0.06"/>
</linearGradient>
<linearGradient id="paint25_linear_5711_58342" x1="171.578" y1="164.502" x2="195.381" y2="145.274" gradientUnits="userSpaceOnUse">
<stop stop-color="#838486" stop-opacity="0.1"/>
<stop offset="1" stop-color="#838486" stop-opacity="0.06"/>
</linearGradient>
<linearGradient id="paint26_linear_5711_58342" x1="190.195" y1="164.502" x2="213.998" y2="145.274" gradientUnits="userSpaceOnUse">
<stop stop-color="#838486" stop-opacity="0.1"/>
<stop offset="1" stop-color="#838486" stop-opacity="0.06"/>
</linearGradient>
<linearGradient id="paint27_linear_5711_58342" x1="422.625" y1="322.625" x2="523.002" y2="317.546" gradientUnits="userSpaceOnUse">
<stop stop-color="#C18CF6"/>
<stop offset="1" stop-color="#E0C2FF" stop-opacity="0"/>
</linearGradient>
<linearGradient id="paint28_linear_5711_58342" x1="417.75" y1="307.625" x2="472.17" y2="306.135" gradientUnits="userSpaceOnUse">
<stop stop-color="#C18CF6"/>
<stop offset="1" stop-color="#E0C2FF" stop-opacity="0"/>
</linearGradient>
<linearGradient id="paint29_linear_5711_58342" x1="592" y1="348.951" x2="416" y2="348.951" gradientUnits="userSpaceOnUse">
<stop stop-color="#7A57F1" stop-opacity="0"/>
<stop offset="0.197401" stop-color="#372C5B"/>
<stop offset="0.8" stop-color="#372C5B"/>
<stop offset="1" stop-color="#7A57F1" stop-opacity="0"/>
</linearGradient>
<linearGradient id="paint30_linear_5711_58342" x1="592" y1="377.951" x2="416" y2="377.951" gradientUnits="userSpaceOnUse">
<stop stop-color="#7A57F1" stop-opacity="0"/>
<stop offset="0.197401" stop-color="#372C5B"/>
<stop offset="0.8" stop-color="#372C5B"/>
<stop offset="1" stop-color="#7A57F1" stop-opacity="0"/>
</linearGradient>
<linearGradient id="paint31_linear_5711_58342" x1="592" y1="406.951" x2="416" y2="406.951" gradientUnits="userSpaceOnUse">
<stop stop-color="#7A57F1" stop-opacity="0"/>
<stop offset="0.197401" stop-color="#372C5B"/>
<stop offset="0.8" stop-color="#372C5B"/>
<stop offset="1" stop-color="#7A57F1" stop-opacity="0"/>
</linearGradient>
<linearGradient id="paint32_linear_5711_58342" x1="592" y1="435.951" x2="416" y2="435.951" gradientUnits="userSpaceOnUse">
<stop stop-color="#7A57F1" stop-opacity="0"/>
<stop offset="0.197401" stop-color="#372C5B"/>
<stop offset="0.8" stop-color="#372C5B"/>
<stop offset="1" stop-color="#7A57F1" stop-opacity="0"/>
</linearGradient>
<linearGradient id="paint33_linear_5711_58342" x1="448.5" y1="396.594" x2="445.634" y2="438.024" gradientUnits="userSpaceOnUse">
<stop stop-color="#6A50FF"/>
<stop offset="1" stop-color="#A897FF"/>
</linearGradient>
<linearGradient id="paint34_linear_5711_58342" x1="529.5" y1="345.181" x2="514.856" y2="437.907" gradientUnits="userSpaceOnUse">
<stop stop-color="#6A50FF"/>
<stop offset="1" stop-color="#A897FF"/>
</linearGradient>
<linearGradient id="paint35_linear_5711_58342" x1="475.5" y1="361.815" x2="465.618" y2="438.296" gradientUnits="userSpaceOnUse">
<stop stop-color="#6A50FF"/>
<stop offset="1" stop-color="#A897FF"/>
</linearGradient>
<linearGradient id="paint36_linear_5711_58342" x1="556.5" y1="407.935" x2="555.023" y2="437.708" gradientUnits="userSpaceOnUse">
<stop stop-color="#6A50FF"/>
<stop offset="1" stop-color="#A897FF"/>
</linearGradient>
<linearGradient id="paint37_linear_5711_58342" x1="502.5" y1="322.5" x2="480" y2="436.667" gradientUnits="userSpaceOnUse">
<stop stop-color="#6A50FF"/>
<stop offset="1" stop-color="#A897FF"/>
</linearGradient>
<linearGradient id="paint38_linear_5711_58342" x1="583.5" y1="325.523" x2="562.135" y2="436.883" gradientUnits="userSpaceOnUse">
<stop stop-color="#6A50FF"/>
<stop offset="1" stop-color="#A897FF"/>
</linearGradient>
<linearGradient id="paint39_linear_5711_58342" x1="610.5" y1="358.412" x2="599.715" y2="438.248" gradientUnits="userSpaceOnUse">
<stop stop-color="#6A50FF"/>
<stop offset="1" stop-color="#A897FF"/>
</linearGradient>
<linearGradient id="paint40_linear_5711_58342" x1="607.214" y1="180.52" x2="591.041" y2="136.158" gradientUnits="userSpaceOnUse">
<stop stop-color="#6A50FF"/>
<stop offset="1" stop-color="#A897FF"/>
</linearGradient>
<linearGradient id="paint41_linear_5711_58342" x1="525.245" y1="173.8" x2="514.874" y2="164.769" gradientUnits="userSpaceOnUse">
<stop stop-color="#6A50FF"/>
<stop offset="1" stop-color="#A897FF"/>
</linearGradient>
<linearGradient id="paint42_linear_5711_58342" x1="525.245" y1="166.386" x2="525.08" y2="164.656" gradientUnits="userSpaceOnUse">
<stop stop-color="#6A50FF"/>
<stop offset="1" stop-color="#A897FF"/>
</linearGradient>
<linearGradient id="paint43_linear_5711_58342" x1="598.23" y1="176.68" x2="585.927" y2="148.557" gradientUnits="userSpaceOnUse">
<stop stop-color="#6A50FF"/>
<stop offset="1" stop-color="#A897FF"/>
</linearGradient>
</defs>
</svg>
