<?xml version="1.0" standalone="no"?>
<!DOCTYPE svg PUBLIC "-//W3C//DTD SVG 20010904//EN"
 "http://www.w3.org/TR/2001/REC-SVG-20010904/DTD/svg10.dtd">
<svg version="1.0" xmlns="http://www.w3.org/2000/svg"
 width="2561.000000pt" height="576.000000pt" viewBox="0 0 2561.000000 576.000000"
 preserveAspectRatio="xMidYMid meet">

<g transform="translate(0.000000,576.000000) scale(0.100000,-0.100000)"
fill="#000000" stroke="none">
<path d="M12918 4531 l-33 -29 -3 -1121 -2 -1121 -236 0 c-256 0 -285 -5 -304
-56 -6 -16 -10 -413 -10 -1025 0 -1092 -3 -1043 57 -1068 21 -8 161 -11 515
-9 l486 3 26 24 26 24 0 244 0 243 1021 0 1021 0 -7 -172 c-9 -246 -36 -366
-88 -403 -11 -8 -54 -21 -96 -31 -42 -9 -85 -20 -96 -24 -11 -5 383 -9 875 -9
551 0 889 3 879 9 -8 5 -46 14 -83 20 -124 20 -156 49 -186 166 -11 43 -30
287 -30 386 l0 58 578 -3 577 -2 3 -253 2 -252 -204 0 c-199 0 -204 -1 -209
-21 -9 -32 11 -64 53 -88 l38 -21 1973 0 1974 0 40 23 c36 20 40 27 43 65 l3
42 -205 0 -206 0 0 1049 0 1049 -28 24 -28 23 -902 -1 -902 -1 0 1104 c0 1200
3 1145 -55 1171 -20 9 -746 12 -3135 12 l-3110 0 -32 -29z m4642 -126 c5 -3
10 0 10 7 0 10 2 10 9 -1 6 -9 11 -10 15 -2 8 12 26 6 26 -10 0 -5 -53 -9
-125 -9 -95 0 -123 3 -120 13 5 13 164 15 185 2z m468 -2 c2 -9 -7 -13 -27
-13 -21 0 -31 5 -31 16 0 19 51 16 58 -3z m-288 -3 c0 -5 -7 -7 -15 -4 -8 4
-15 8 -15 10 0 2 7 4 15 4 8 0 15 -4 15 -10z m-3490 -120 c-5 -17 -6 -30 -3
-30 3 0 -2 -9 -12 -20 -35 -39 -88 -15 -91 43 -2 29 2 36 29 49 26 12 35 13
58 1 24 -12 26 -17 19 -43z m788 32 c2 -13 14 -27 28 -32 28 -11 32 -41 8 -64
-24 -24 -42 -18 -63 22 -6 12 -21 22 -31 22 -16 0 -20 7 -20 33 0 42 7 49 45
45 23 -2 31 -9 33 -26z m-1818 7 c0 -5 4 -8 9 -4 16 9 25 -63 10 -81 -23 -28
-45 -34 -46 -13 -1 10 3 18 9 16 6 -1 14 10 18 25 7 22 4 27 -14 32 -32 9 -44
6 -21 -5 17 -8 16 -9 -7 -6 -23 4 -28 1 -28 -18 0 -13 7 -25 15 -29 22 -8 18
-25 -4 -19 -11 3 -24 18 -30 35 -15 43 10 78 55 78 19 0 34 -5 34 -11z m260
-14 c0 -20 -5 -25 -25 -25 -20 0 -25 5 -25 25 0 20 5 25 25 25 20 0 25 -5 25
-25z m70 0 c0 -21 -5 -25 -29 -25 -25 0 -28 3 -23 25 3 18 11 25 28 25 19 0
24 -5 24 -25z m418 -37 l3 -58 -46 0 c-40 0 -82 19 -70 32 2 2 5 22 6 44 l3
41 50 -1 51 -1 3 -57z m450 35 c3 -20 -1 -23 -27 -23 -23 0 -31 5 -31 18 0 25
10 33 35 30 12 -2 21 -12 23 -25z m752 12 c0 -8 -7 -15 -15 -15 -8 0 -15 7
-15 15 0 8 7 15 15 15 8 0 15 -7 15 -15z m538 -1 c41 -28 18 -104 -31 -104
-53 0 -77 75 -35 104 12 9 27 16 33 16 6 0 21 -7 33 -16z m-1994 -24 c3 0 6 7
6 15 0 8 5 15 10 15 6 0 10 -7 10 -15 0 -8 5 -15 10 -15 6 0 10 -18 10 -40 0
-29 -4 -40 -15 -40 -9 0 -15 9 -15 25 0 33 -37 35 -42 3 -2 -13 -11 -24 -22
-26 -16 -4 -18 0 -11 34 4 21 11 47 17 58 10 18 12 18 23 3 7 -9 15 -17 19
-17z m896 4 c0 -8 -5 -12 -10 -9 -6 4 -8 11 -5 16 9 14 15 11 15 -7z m590 -10
c0 -8 -7 -14 -15 -14 -15 0 -21 21 -9 33 10 9 24 -2 24 -19z m96 9 c-10 -11
-37 -12 -30 -2 3 5 12 9 21 9 9 0 13 -3 9 -7z m74 -2 c0 -5 -9 -7 -20 -4 -11
3 -20 7 -20 9 0 2 9 4 20 4 11 0 20 -4 20 -9z m30 -1 c0 -5 -4 -10 -10 -10 -5
0 -10 5 -10 10 0 6 5 10 10 10 6 0 10 -4 10 -10z m67 4 c-3 -3 -12 -4 -19 -1
-8 3 -5 6 6 6 11 1 17 -2 13 -5z m-2257 -40 c0 -2 -11 -4 -25 -4 -14 0 -25 4
-25 9 0 4 11 6 25 3 14 -2 25 -6 25 -8z m2620 -8 c0 -14 -7 -25 -17 -28 -29
-8 -43 2 -43 28 0 20 5 24 30 24 25 0 30 -4 30 -24z m-2350 -11 c0 -20 -5 -25
-25 -25 -20 0 -25 5 -25 25 0 20 5 25 25 25 20 0 25 -5 25 -25z m70 0 c0 -47
-46 -44 -55 3 -3 19 1 22 26 22 24 0 29 -4 29 -25z m861 -29 c5 3 9 -2 9 -10
0 -15 -29 -36 -49 -36 -6 0 -11 5 -11 12 0 15 34 48 38 36 2 -4 8 -6 13 -2z
m774 -6 c0 -22 -29 -18 -33 3 -3 14 1 18 15 15 10 -2 18 -10 18 -18z m-665
-10 c0 -5 -5 -10 -11 -10 -5 0 -7 5 -4 10 3 6 8 10 11 10 2 0 4 -4 4 -10z
m175 0 c3 -5 -1 -10 -10 -10 -9 0 -13 5 -10 10 3 6 8 10 10 10 2 0 7 -4 10
-10z m65 0 c0 -5 -5 -10 -11 -10 -5 0 -7 5 -4 10 3 6 8 10 11 10 2 0 4 -4 4
-10z m585 0 c3 -5 1 -10 -4 -10 -6 0 -11 5 -11 10 0 6 2 10 4 10 3 0 8 -4 11
-10z m135 0 c0 -5 -4 -10 -9 -10 -6 0 -13 5 -16 10 -3 6 1 10 9 10 9 0 16 -4
16 -10z m-1949 -35 c50 -9 50 -17 0 -13 -27 2 -46 9 -49 17 -3 8 0 11 5 8 5
-3 25 -9 44 -12z m1559 11 c0 -3 -4 -8 -10 -11 -5 -3 -10 -1 -10 4 0 6 5 11
10 11 6 0 10 -2 10 -4z m734 -19 c8 -14 8 -20 -4 -27 -22 -14 -40 -12 -46 5
-16 41 27 60 50 22z m-2074 3 c0 -5 -4 -10 -10 -10 -5 0 -10 5 -10 10 0 6 5
10 10 10 6 0 10 -4 10 -10z m500 0 c0 -5 -2 -10 -4 -10 -3 0 -8 5 -11 10 -3 6
-1 10 4 10 6 0 11 -4 11 -10z m760 0 c-20 -13 -43 -13 -35 0 3 6 16 10 28 10
18 0 19 -2 7 -10z m670 0 c0 -5 -4 -10 -10 -10 -5 0 -10 5 -10 10 0 6 5 10 10
10 6 0 10 -4 10 -10z m27 -12 c-3 -8 -6 -5 -6 6 -1 11 2 17 5 13 3 -3 4 -12 1
-19z m-1760 6 c-3 -3 -12 -4 -19 -1 -8 3 -5 6 6 6 11 1 17 -2 13 -5z m473 -50
c8 -22 -5 -34 -37 -34 -23 0 -28 14 -17 44 8 21 46 14 54 -10z m750 6 c0 -10
8 -24 18 -29 12 -7 13 -10 3 -11 -16 0 -40 28 -41 48 0 6 5 12 10 12 6 0 10
-9 10 -20z m-700 -4 c0 -3 -4 -8 -10 -11 -5 -3 -10 -1 -10 4 0 6 5 11 10 11 6
0 10 -2 10 -4z m66 -9 c4 -4 -7 -7 -25 -7 -18 0 -30 4 -27 8 6 10 42 9 52 -1z
m64 -8 c0 -6 -4 -7 -10 -4 -5 3 -10 11 -10 16 0 6 5 7 10 4 6 -3 10 -11 10
-16z m40 13 c0 -13 -12 -22 -22 -16 -10 6 -1 24 13 24 5 0 9 -4 9 -8z m30 -7
c0 -8 -4 -15 -10 -15 -5 0 -7 7 -4 15 4 8 8 15 10 15 2 0 4 -7 4 -15z m27 -7
c-3 -8 -6 -5 -6 6 -1 11 2 17 5 13 3 -3 4 -12 1 -19z m333 12 c0 -5 -17 -9
-37 -9 l-38 2 35 7 c19 4 36 8 38 9 1 0 2 -3 2 -9z m60 -6 c0 -8 -5 -12 -10
-9 -6 4 -8 11 -5 16 9 14 15 11 15 -7z m184 10 c24 -9 19 -22 -8 -20 -14 0
-22 6 -19 14 6 14 6 14 27 6z m166 -5 c0 -5 5 -7 12 -3 7 4 8 3 4 -4 -4 -6
-13 -9 -21 -5 -17 6 -20 23 -5 23 6 0 10 -5 10 -11z m-2220 -9 c0 -5 -4 -10
-10 -10 -5 0 -10 5 -10 10 0 6 5 10 10 10 6 0 10 -4 10 -10z m1608 4 c-10 -9
-78 -13 -72 -3 3 5 21 9 41 9 20 0 34 -3 31 -6z m505 -1 c-7 -2 -19 -2 -25 0
-7 3 -2 5 12 5 14 0 19 -2 13 -5z m-1843 -93 c0 -5 -2 -10 -4 -10 -3 0 -8 5
-11 10 -3 6 -1 10 4 10 6 0 11 -4 11 -10z m65 0 c3 -5 -1 -10 -10 -10 -9 0
-13 5 -10 10 3 6 8 10 10 10 2 0 7 -4 10 -10z m945 -2 c0 -4 -4 -8 -9 -8 -6 0
-12 4 -15 8 -3 5 1 9 9 9 8 0 15 -4 15 -9z m30 2 c0 -5 -5 -10 -11 -10 -5 0
-7 5 -4 10 3 6 8 10 11 10 2 0 4 -4 4 -10z m35 0 c3 -5 -1 -10 -9 -10 -9 0
-16 5 -16 10 0 6 4 10 9 10 6 0 13 -4 16 -10z m705 0 c0 -5 -4 -10 -10 -10 -5
0 -10 5 -10 10 0 6 5 10 10 10 6 0 10 -4 10 -10z m370 0 c0 -5 -4 -10 -10 -10
-5 0 -10 5 -10 10 0 6 5 10 10 10 6 0 10 -4 10 -10z m30 0 c0 -5 -4 -10 -10
-10 -5 0 -10 5 -10 10 0 6 5 10 10 10 6 0 10 -4 10 -10z m17 -12 c-3 -8 -6 -5
-6 6 -1 11 2 17 5 13 3 -3 4 -12 1 -19z m130 6 c-3 -3 -12 -4 -19 -1 -8 3 -5
6 6 6 11 1 17 -2 13 -5z m-2014 -87 c4 14 5 14 6 -4 1 -25 -22 -31 -49 -13
-13 9 -13 11 0 20 11 7 18 5 27 -6 10 -14 12 -13 16 3z m214 -9 c-3 -8 -6 -5
-6 6 -1 11 2 17 5 13 3 -3 4 -12 1 -19z m-427 -3 c0 -7 -8 -12 -17 -11 -10 2
-30 0 -45 -5 -16 -4 -28 -4 -28 1 0 4 -13 6 -30 4 -26 -5 -39 4 -25 17 2 3 36
5 75 6 50 0 70 -3 70 -12z m143 0 c1 -6 -25 -11 -60 -12 -49 -1 -63 1 -63 12
0 11 14 14 60 12 33 -1 61 -6 63 -12z m1060 -100 c4 0 7 -4 8 -10 0 -15 -33
-19 -42 -4 -10 17 -1 31 14 22 7 -4 15 -8 20 -8z m-70 -2 c-7 -2 -13 -9 -13
-14 0 -6 5 -7 12 -3 7 4 8 3 4 -4 -9 -14 -124 -14 -133 1 -3 6 -1 7 5 3 7 -4
12 -3 12 3 0 5 12 12 28 14 40 6 99 6 85 0z m142 -2 c3 -5 1 -12 -5 -16 -5 -3
-10 1 -10 9 0 18 6 21 15 7z m3994 -32 c-16 -9 -29 -3 -29 16 0 18 34 24 38 6
2 -7 -2 -17 -9 -22z m-4019 21 c0 -5 -4 -10 -10 -10 -5 0 -10 5 -10 10 0 6 5
10 10 10 6 0 10 -4 10 -10z m125 0 c-3 -5 -11 -10 -16 -10 -6 0 -7 5 -4 10 3
6 11 10 16 10 6 0 7 -4 4 -10z m3972 -12 c-3 -8 -6 -5 -6 6 -1 11 2 17 5 13 3
-3 4 -12 1 -19z m123 -8 c-13 -23 -26 -26 -33 -6 -7 18 1 26 25 26 16 0 17 -3
8 -20z m-267 3 c-7 -2 -21 -2 -30 0 -10 3 -4 5 12 5 17 0 24 -2 18 -5z m-4293
-23 c0 -5 -4 -10 -10 -10 -5 0 -10 5 -10 10 0 6 5 10 10 10 6 0 10 -4 10 -10z
m40 -10 c0 -5 -4 -10 -10 -10 -5 0 -10 5 -10 10 0 6 5 10 10 10 6 0 10 -4 10
-10z m-1330 -55 c0 -25 -4 -45 -10 -45 -5 0 -10 -5 -10 -10 0 -7 188 -10 568
-9 312 0 577 0 589 0 l22 -1 1 -605 0 -605 -630 0 -630 0 0 604 1 605 27 4
c26 4 26 4 5 12 -19 6 -23 15 -23 51 l0 44 45 0 45 0 0 -45z m1324 16 c-4 -4
-54 -9 -54 -5 0 1 3 9 6 17 4 12 10 12 29 3 13 -6 22 -13 19 -15z m-424 -5 c0
-8 10 -17 23 -20 21 -6 21 -7 4 -17 -28 -16 -57 18 -48 57 2 10 21 -7 21 -20z
m230 9 c17 -21 3 -57 -22 -53 -30 4 -45 32 -29 52 17 20 35 20 51 1z m-92 -17
c-2 -17 -11 -24 -30 -26 -24 -3 -28 0 -28 22 0 22 4 26 31 26 26 0 30 -3 27
-22z m4806 -7 c3 -5 -1 -14 -8 -20 -16 -13 -32 2 -21 19 8 12 22 13 29 1z
m-373 -20 c6 10 9 5 9 -18 0 -35 -16 -44 -27 -16 -6 15 -7 15 -14 -3 -6 -15
-8 -11 -8 15 -1 29 1 32 15 20 13 -10 17 -10 25 2z m-5601 -53 c0 -5 -4 -8
-10 -8 -5 0 -10 10 -10 23 0 18 2 19 10 7 5 -8 10 -18 10 -22z m1340 -8 c0 -5
-5 -10 -11 -10 -5 0 -7 5 -4 10 3 6 8 10 11 10 2 0 4 -4 4 -10z m-1340 -14 c0
-3 -4 -8 -10 -11 -5 -3 -10 -1 -10 4 0 6 5 11 10 11 6 0 10 -2 10 -4z m5981
-9 c-1 -12 -15 -9 -19 4 -3 6 1 10 8 8 6 -3 11 -8 11 -12z m-5991 -53 c0 -8
-5 -12 -10 -9 -6 4 -8 11 -5 16 9 14 15 11 15 -7z m3210 -24 c0 -5 -4 -10 -10
-10 -5 0 -10 5 -10 10 0 6 5 10 10 10 6 0 10 -4 10 -10z m2492 -72 c-4 -138 3
-129 -110 -126 l-97 3 -3 103 -3 102 108 0 108 0 -3 -82z m-5705 66 c-3 -3
-12 -4 -19 -1 -8 3 -5 6 6 6 11 1 17 -2 13 -5z m5993 2 c0 -3 -4 -8 -10 -11
-5 -3 -10 -1 -10 4 0 6 5 11 10 11 6 0 10 -2 10 -4z m-5993 -32 c-3 -3 -12 -4
-19 -1 -8 3 -5 6 6 6 11 1 17 -2 13 -5z m2256 -30 c11 -14 17 -28 14 -30 -3
-3 -15 9 -27 25 -12 17 -18 31 -13 31 4 0 16 -12 26 -26z m3127 -4 c0 -5 7 -7
16 -3 13 5 15 2 9 -18 -10 -31 -17 -37 -22 -21 -4 10 -8 10 -19 1 -17 -14 -19
-12 -28 19 -8 23 8 32 17 10 3 -8 6 -6 6 5 1 17 21 25 21 7z m453 -7 c-4 -10
-11 -21 -17 -25 -7 -5 -7 -8 2 -8 6 0 12 -4 12 -10 0 -19 -21 -10 -29 13 -11
29 -3 47 20 47 13 0 17 -5 12 -17z m165 -36 c3 -22 -1 -27 -18 -27 -23 0 -35
22 -26 46 10 25 41 12 44 -19z m-3679 -39 c34 -41 35 -41 9 -35 -26 7 -44 -11
-39 -40 1 -7 -3 -13 -8 -13 -5 0 -12 -8 -16 -19 -4 -13 -12 -17 -31 -13 -20 3
-23 7 -12 14 9 6 3 7 -17 3 -38 -8 -43 -14 -25 -26 13 -8 13 -10 0 -19 -13 -9
-13 -11 0 -19 8 -6 12 -13 9 -16 -9 -8 -69 28 -69 42 0 6 -6 13 -12 16 -7 2
-2 2 12 0 l25 -3 -24 20 c-15 13 -18 20 -9 20 8 0 19 -5 26 -12 9 -9 18 -8 39
2 27 13 35 15 60 18 21 3 45 62 39 93 -8 39 3 36 43 -13z m266 -18 c3 -6 -4
-10 -17 -10 -18 0 -20 2 -8 10 19 12 18 12 25 0z m-45 -22 c0 -16 -3 -19 -11
-11 -6 6 -8 16 -5 22 11 17 16 13 16 -11z m3460 8 c0 -20 -11 -46 -19 -46 -3
0 -12 4 -20 9 -10 7 -11 13 -2 30 13 24 41 29 41 7z m-3615 -24 c-3 -3 -11 0
-18 7 -9 10 -8 11 6 5 10 -3 15 -9 12 -12z m-2380 -2 c3 -5 -1 -10 -10 -10 -9
0 -13 5 -10 10 3 6 8 10 10 10 2 0 7 -4 10 -10z m2325 6 c0 -2 -9 -6 -20 -9
-11 -3 -18 -1 -14 4 5 9 34 13 34 5z m55 -26 c3 -5 11 -10 16 -10 6 0 7 5 4
10 -3 6 -2 10 4 10 5 0 13 -4 16 -10 3 -5 2 -10 -4 -10 -6 0 -8 -8 -4 -17 6
-17 5 -17 -14 0 -11 9 -25 17 -31 17 -7 0 -12 5 -12 10 0 6 4 10 9 10 6 0 13
-4 16 -10z m228 -26 c17 -16 34 -31 37 -34 27 -27 90 -69 90 -60 0 15 17 12
23 -4 3 -8 -1 -13 -11 -12 -9 0 -17 -6 -17 -14 0 -8 -4 -18 -10 -22 -5 -4 -7
-8 -5 -10 3 -2 26 -20 52 -41 49 -39 71 -47 62 -22 -4 8 -1 15 5 15 6 0 11 7
11 15 0 8 7 15 15 15 9 0 15 10 15 26 0 19 4 25 15 20 10 -3 15 1 15 11 0 24
6 13 13 -24 5 -25 3 -31 -8 -27 -17 7 -49 -21 -41 -35 4 -5 -2 -12 -11 -14
-11 -3 -8 -5 10 -6 15 0 36 -10 47 -21 11 -11 24 -20 28 -20 4 0 25 -16 46
-35 21 -19 43 -32 50 -28 7 4 6 1 -1 -9 -7 -8 -10 -18 -6 -22 4 -4 0 -4 -9 -1
-9 4 -19 12 -21 20 -7 18 -122 105 -140 105 -7 0 -20 -12 -28 -26 -13 -25 -12
-28 21 -57 19 -17 34 -35 33 -39 -2 -4 4 -8 12 -8 24 0 66 -31 59 -44 -3 -6 5
2 19 17 21 25 25 26 31 12 3 -9 3 -22 -1 -28 -13 -21 -12 -37 3 -37 8 0 14 -6
14 -14 0 -8 14 -20 30 -28 17 -7 30 -19 30 -26 0 -7 7 -26 15 -42 13 -25 13
-30 1 -30 -7 0 -17 12 -21 27 -6 27 -48 73 -65 73 -5 0 -15 8 -22 19 -7 10
-26 25 -43 34 -42 23 -86 64 -83 78 2 6 -3 14 -9 16 -7 3 -13 -1 -13 -7 0 -6
-13 -2 -30 10 -17 12 -28 26 -25 31 6 8 -8 13 -27 10 -21 -3 -4 17 17 21 21 4
25 1 25 -18 0 -13 9 -28 20 -34 14 -8 20 -8 20 0 0 6 -7 13 -15 16 -8 4 -15
14 -15 25 0 21 -74 96 -104 105 -30 10 -35 23 -21 51 12 23 11 27 -18 52 -59
51 -104 81 -119 81 -18 0 -43 -53 -35 -74 4 -10 1 -13 -9 -9 -8 3 -14 15 -12
26 2 11 -3 22 -10 24 -7 3 -10 -1 -6 -10 10 -27 -13 -27 -37 1 -13 15 -17 21
-9 15 23 -21 35 -15 15 7 -10 11 -13 20 -7 20 6 0 14 -4 17 -10 11 -18 45 -11
45 8 0 25 5 29 40 27 18 -1 44 -14 63 -31z m244 10 c-3 -3 -12 -4 -19 -1 -8 3
-5 6 6 6 11 1 17 -2 13 -5z m19 -52 c-4 -3 -14 2 -24 12 -16 18 -16 18 6 6 13
-6 21 -14 18 -18z m3134 -2 c0 -22 -5 -30 -18 -30 -10 0 -23 5 -30 12 -16 16
3 48 28 48 16 0 20 -7 20 -30z m-3208 9 c-13 -5 -20 -13 -17 -19 3 -5 1 -10
-4 -10 -6 0 -14 0 -18 0 -5 0 -8 3 -8 8 0 4 -4 13 -8 20 -6 9 3 12 35 11 37 0
40 -2 20 -10z m138 1 c0 -5 -7 -10 -16 -10 -8 0 -12 5 -9 10 3 6 10 10 16 10
5 0 9 -4 9 -10z m2670 -26 c6 -14 8 -30 4 -35 -7 -12 -31 -12 -39 1 -4 6 1 7
12 3 17 -6 17 -5 0 15 -11 11 -16 26 -12 31 11 18 25 12 35 -15z m-2611 -14
c6 0 11 -5 11 -11 0 -5 -5 -7 -10 -4 -13 8 -42 -21 -38 -39 2 -8 35 -38 73
-68 39 -30 70 -58 70 -63 2 -31 21 -57 62 -84 l45 -30 26 29 c32 36 43 37 85
8 18 -13 33 -23 35 -24 1 -1 -2 -12 -7 -25 -7 -17 -10 -19 -10 -6 -1 9 -5 17
-10 17 -5 0 -7 -10 -4 -22 3 -15 2 -19 -4 -11 -5 7 -20 14 -33 15 -19 2 -26
-2 -28 -19 -2 -16 2 -23 12 -23 9 0 16 -4 16 -10 0 -5 7 -10 15 -10 9 0 18 -6
21 -14 3 -8 24 -27 47 -43 22 -15 50 -36 61 -46 12 -10 64 -50 116 -88 94 -68
130 -83 130 -54 0 8 -4 15 -10 15 -14 0 -12 28 3 33 8 3 3 11 -13 25 -29 24
-46 28 -53 10 -2 -7 -8 -10 -12 -6 -4 4 -3 14 4 22 9 11 7 15 -9 19 -18 5 -20
2 -14 -16 6 -19 5 -20 -8 -9 -46 38 -15 75 38 47 16 -8 35 -15 42 -15 7 0 11
-4 8 -8 -3 -5 7 -17 21 -28 14 -10 37 -36 50 -57 20 -32 27 -36 39 -26 11 9
12 15 3 26 -9 10 -9 17 -1 25 9 9 12 8 12 -4 0 -31 19 -28 77 12 32 22 64 40
70 40 7 0 20 -11 29 -25 l17 -25 31 23 c17 12 63 42 102 64 39 23 76 49 83 57
7 8 36 27 64 42 52 26 52 26 32 3 -29 -34 -57 -59 -67 -59 -4 0 -8 -7 -8 -16
0 -14 1 -14 16 0 8 9 20 14 25 11 5 -4 9 1 9 9 0 9 8 16 18 16 9 0 28 12 41
26 26 28 68 54 57 35 -5 -7 -1 -9 8 -5 9 3 14 10 11 14 -6 9 18 31 37 34 26 3
36 16 30 38 -5 22 -1 22 53 3 14 -5 16 -4 6 3 -10 7 1 19 45 48 33 21 60 41
62 45 1 3 13 4 26 2 16 -3 34 6 61 31 21 20 46 36 56 36 9 0 19 8 21 18 3 15
4 15 10 1 5 -13 -18 -32 -94 -83 -99 -64 -125 -75 -97 -39 12 16 11 16 -8 0
-13 -12 -19 -25 -16 -35 5 -12 2 -14 -11 -9 -10 4 -15 3 -11 -3 3 -5 -4 -14
-16 -20 -17 -10 -20 -17 -14 -47 6 -32 -8 -88 -24 -103 -3 -3 -15 -21 -25 -40
-11 -19 -26 -39 -33 -43 -10 -6 -11 -12 -3 -22 8 -9 7 -14 -4 -18 -23 -9 -28
22 -8 51 10 15 25 43 32 62 7 19 17 39 22 44 4 6 8 18 8 29 0 12 4 16 13 11 9
-6 9 -4 -1 8 -10 13 -10 17 0 22 7 3 0 4 -17 3 -16 -1 -41 -12 -55 -25 -14
-13 -37 -26 -52 -29 -15 -3 -29 -12 -32 -20 -4 -8 -13 -13 -21 -10 -9 4 -12 1
-9 -7 3 -8 -8 -18 -26 -26 -18 -7 -37 -18 -43 -24 -7 -6 -50 -36 -97 -67 -47
-30 -112 -73 -144 -94 -142 -95 -172 -115 -196 -125 -13 -6 -27 -15 -30 -19
-3 -5 -29 -23 -57 -41 -35 -21 -53 -38 -53 -52 0 -19 21 -48 37 -50 4 0 19 -9
33 -20 20 -16 22 -21 10 -28 -8 -6 -19 -8 -25 -5 -5 3 -18 8 -27 11 -10 4 -18
10 -18 14 0 4 -13 21 -28 38 -20 21 -33 28 -42 22 -9 -5 -20 -4 -30 3 -13 10
-13 10 -3 -4 11 -13 8 -19 -18 -38 -24 -18 -33 -20 -39 -11 -6 10 -11 7 -21
-9 -15 -22 -31 -29 -26 -10 5 24 46 60 64 57 14 -2 18 3 16 26 -2 22 1 26 9
18 16 -16 46 -15 64 2 10 11 11 15 1 19 -6 2 -9 7 -6 11 3 3 13 4 22 0 13 -5
14 -10 6 -26 -8 -14 -8 -23 0 -31 8 -8 11 -5 11 12 0 32 18 61 38 61 9 0 38
16 65 36 41 30 46 37 37 54 -7 14 -7 20 0 20 5 0 10 -4 10 -10 0 -34 128 38
208 117 18 18 38 33 45 33 7 0 6 -4 -3 -10 -17 -11 -10 -13 13 -4 8 3 13 13
10 23 -4 14 2 18 27 18 17 0 36 5 43 12 10 11 7 12 -13 7 -18 -5 -15 -1 13 15
20 13 37 29 37 36 0 17 -19 7 -74 -36 -21 -17 -44 -31 -50 -31 -6 0 -26 -14
-45 -30 -40 -35 -64 -38 -84 -9 l-15 21 -43 -28 c-24 -15 -45 -31 -47 -35 -2
-5 -9 -9 -15 -9 -7 0 -32 -19 -57 -43 -24 -23 -56 -50 -70 -59 -46 -32 -126
-20 -176 27 -6 5 -52 41 -102 79 -51 39 -92 73 -92 78 0 16 30 8 42 -12 7 -11
17 -20 22 -20 5 0 20 -10 33 -22 16 -15 26 -19 34 -11 7 7 3 16 -15 31 -14 11
-26 23 -26 26 0 3 -10 16 -21 27 -17 17 -23 19 -30 8 -7 -12 -9 -12 -9 0 0 11
-5 10 -20 -4 -23 -21 -36 -15 -114 59 -48 45 -49 47 -43 94 5 46 4 48 -35 76
-22 16 -46 44 -54 62 -11 26 -75 85 -145 134 -17 12 -18 75 -1 93 15 16 17 17
28 3 6 -9 16 -16 23 -16z m-779 5 c0 -8 -2 -15 -4 -15 -2 0 -6 7 -10 15 -3 8
-1 15 4 15 6 0 10 -7 10 -15z m424 -90 c-3 -7 2 -15 10 -18 10 -4 13 -1 9 9
-3 7 -1 14 5 14 12 0 22 -24 22 -53 0 -20 0 -20 -22 -1 -13 11 -40 31 -60 44
-25 17 -33 27 -25 32 13 9 -8 28 -30 28 -7 0 -13 6 -13 14 0 10 17 3 54 -21
32 -20 53 -40 50 -48z m-136 66 c11 -6 10 -10 -3 -15 -12 -4 -14 -10 -7 -19 7
-8 6 -24 -3 -49 -7 -21 -10 -40 -7 -42 3 -3 -1 -13 -8 -22 -12 -13 -11 -17 1
-25 12 -7 11 -9 -3 -9 -9 0 -18 -6 -21 -12 -3 -10 -10 -8 -23 5 -18 16 -18 17
1 17 19 1 19 1 3 14 -10 7 -18 19 -18 27 0 11 2 11 10 -1 7 -12 12 -11 30 5
20 18 20 20 3 26 -13 6 -14 8 -3 8 13 1 13 2 0 11 -13 9 -13 12 3 21 10 6 17
22 17 39 0 31 6 35 28 21z m-2508 -23 c0 -19 -2 -20 -10 -8 -13 19 -13 30 0
30 6 0 10 -10 10 -22z m2275 12 c3 -5 2 -10 -4 -10 -5 0 -13 5 -16 10 -3 6 -2
10 4 10 5 0 13 -4 16 -10z m575 -32 c0 -15 -17 -8 -41 19 l-24 26 33 -19 c17
-10 32 -22 32 -26z m200 26 c0 -2 -7 -4 -15 -4 -8 0 -15 4 -15 10 0 5 7 7 15
4 8 -4 15 -8 15 -10z m-795 -15 c11 -17 -1 -21 -15 -4 -8 9 -8 15 -2 15 6 0
14 -5 17 -11z m3735 -9 c0 -5 -4 -10 -10 -10 -5 0 -10 5 -10 10 0 6 5 10 10
10 6 0 10 -4 10 -10z m-3185 -30 c10 -11 14 -20 8 -20 -5 0 -18 9 -28 20 -10
11 -14 20 -8 20 5 0 18 -9 28 -20z m2103 1 c32 -4 47 -11 47 -21 0 -8 5 -22
10 -30 7 -12 6 -13 -6 -3 -8 6 -16 11 -19 11 -3 -1 -14 2 -25 5 -11 3 -31 8
-45 11 -14 3 -31 15 -38 27 -12 19 -12 20 8 14 12 -4 43 -10 68 -14z m126 -65
c9 3 16 1 16 -5 0 -6 -4 -11 -8 -11 -5 0 -17 -7 -28 -16 -18 -14 -18 -15 4 -4
30 15 38 7 17 -14 -18 -18 -45 -22 -45 -6 0 5 -8 6 -17 3 -16 -6 -16 -5 -4 10
9 11 12 30 8 55 l-6 37 24 -27 c15 -17 30 -26 39 -22z m-2664 20 c0 -3 -4 -8
-10 -11 -5 -3 -10 -1 -10 4 0 6 5 11 10 11 6 0 10 -2 10 -4z m355 -17 c-4 -5
-3 -14 1 -20 5 -8 9 -8 14 1 6 9 14 8 36 -4 l29 -16 -35 3 c-48 4 -72 19 -64
40 3 9 10 14 15 11 5 -3 7 -10 4 -15z m2950 11 c3 -6 3 -19 0 -30 -6 -18 -15
-20 -85 -20 -43 0 -81 4 -84 8 -3 5 -2 18 1 30 5 20 12 22 84 22 43 0 81 -5
84 -10z m310 1 c3 -5 1 -12 -5 -16 -5 -3 -10 1 -10 9 0 18 6 21 15 7z m-2510
-71 c3 -5 1 -10 -5 -10 -19 0 -29 -43 -13 -58 12 -12 16 -12 28 4 8 11 14 24
14 29 0 6 -3 4 -6 -2 -2 -7 -12 -13 -20 -13 -14 0 -14 3 2 20 18 20 18 19 56
-13 21 -17 51 -42 66 -54 l28 -22 -22 -16 c-13 -9 -23 -23 -23 -31 0 -8 -2
-14 -5 -14 -6 0 -57 31 -65 40 -5 5 -76 59 -92 71 -10 7 29 79 42 79 5 0 12
-4 15 -10z m-941 -26 c3 -8 2 -12 -4 -9 -6 3 -10 10 -10 16 0 14 7 11 14 -7z
m2456 6 c0 -5 -4 -10 -10 -10 -5 0 -10 5 -10 10 0 6 5 10 10 10 6 0 10 -4 10
-10z m1010 -15 c7 -9 10 -18 7 -22 -8 -7 -37 15 -37 28 0 14 16 11 30 -6z
m-2230 -25 c0 -5 -5 -10 -11 -10 -5 0 -7 5 -4 10 3 6 8 10 11 10 2 0 4 -4 4
-10z m-1189 -27 c-12 -20 -14 -14 -5 12 4 9 9 14 11 11 3 -2 0 -13 -6 -23z
m1811 -13 c-12 -11 -26 -20 -32 -20 -6 0 2 11 17 24 33 29 46 25 15 -4z m1588
-20 c0 -5 -4 -10 -10 -10 -5 0 -10 5 -10 10 0 6 5 10 10 10 6 0 10 -4 10 -10z
m-3274 -47 c-7 -7 -26 7 -26 19 0 6 6 6 15 -2 9 -7 13 -15 11 -17z m431 5 c-3
-8 -6 -5 -6 6 -1 11 2 17 5 13 3 -3 4 -12 1 -19z m26 -41 c3 -22 2 -35 -4 -32
-5 4 -9 22 -9 42 0 45 5 40 13 -10z m1559 35 c20 -8 13 -21 -19 -39 -19 -11
-21 -10 -17 2 4 10 0 15 -12 15 -18 1 -18 1 0 15 22 16 23 17 48 7z m-1982
-16 c0 -3 -4 -8 -10 -11 -5 -3 -10 -1 -10 4 0 6 5 11 10 11 6 0 10 -2 10 -4z
m393 -25 c5 -19 -15 -36 -27 -24 -10 10 -7 25 4 18 6 -3 7 1 4 9 -3 9 -2 16 4
16 5 0 12 -9 15 -19z m2867 -11 c0 -5 -4 -10 -9 -10 -6 0 -13 5 -16 10 -3 6 1
10 9 10 9 0 16 -4 16 -10z m-2760 -70 c0 -5 -10 -10 -22 -9 -22 0 -22 1 -3 9
11 5 21 9 23 9 1 1 2 -3 2 -9z m1280 -15 c7 -9 8 -15 2 -15 -5 0 -12 7 -16 15
-3 8 -4 15 -2 15 2 0 9 -7 16 -15z m-1321 -55 c0 -24 -1 -24 -9 -4 -17 44 -36
34 -46 -25 -4 -23 -41 -55 -48 -42 -4 6 -1 11 6 12 7 0 5 4 -5 8 -17 6 -17 8
3 34 14 18 19 34 15 48 -5 15 -4 19 5 14 6 -4 10 -18 7 -32 -4 -22 -3 -23 10
-10 12 11 13 19 4 36 -12 21 -12 21 23 3 27 -13 35 -23 35 -42z m-3199 30 c0
-5 -2 -10 -4 -10 -3 0 -8 5 -11 10 -3 6 -1 10 4 10 6 0 11 -4 11 -10z m3645
-30 c-3 -5 -10 -10 -16 -10 -5 0 -9 5 -9 10 0 6 7 10 16 10 8 0 12 -4 9 -10z
m750 -10 c-10 -11 -21 -18 -23 -15 -3 3 3 12 14 20 27 20 30 18 9 -5z m75 11
c0 -5 -7 -12 -16 -15 -24 -9 -28 -7 -14 9 14 17 30 20 30 6z m-1146 -88 c56
-42 104 -82 109 -87 4 -7 11 -6 18 4 10 13 10 13 6 0 -3 -11 12 -28 42 -50 37
-27 48 -41 48 -62 l0 -28 -18 29 c-9 16 -35 42 -56 57 -21 16 -73 56 -115 89
-42 33 -93 71 -112 85 -33 23 -45 40 -29 40 4 0 52 -35 107 -77z m2513 -130
c-2 -38 -3 -7 -3 67 0 74 1 105 3 68 2 -38 2 -98 0 -135z m167 145 c17 -24 13
-39 -5 -21 -6 6 -18 9 -25 6 -14 -5 -20 18 -7 30 11 12 21 8 37 -15z m-2924
-3 c0 -11 -31 -11 -39 -1 -9 10 -6 12 14 8 14 -2 25 -6 25 -7z m364 -11 c8
-21 -12 -17 -24 6 -8 16 -8 18 4 14 8 -3 17 -12 20 -20z m901 16 c3 -5 1 -10
-4 -10 -6 0 -11 5 -11 10 0 6 2 10 4 10 3 0 8 -4 11 -10z m-4345 -56 c0 -8 -8
-14 -17 -14 -14 0 -15 2 -4 9 8 5 10 14 6 21 -5 9 -4 11 3 6 7 -4 12 -14 12
-22z m0 -64 c0 -5 -2 -10 -4 -10 -3 0 -8 5 -11 10 -3 6 -1 10 4 10 6 0 11 -4
11 -10z m0 -30 c0 -5 -4 -10 -10 -10 -5 0 -10 5 -10 10 0 6 5 10 10 10 6 0 10
-4 10 -10z m5980 -45 c0 -8 -7 -15 -15 -15 -16 0 -20 12 -8 23 11 12 23 8 23
-8z m-5983 -17 c-3 -8 -6 -5 -6 6 -1 11 2 17 5 13 3 -3 4 -12 1 -19z m393 7
c0 -8 -4 -15 -10 -15 -5 0 -7 7 -4 15 4 8 8 15 10 15 2 0 4 -7 4 -15z m3489
-72 c-11 -13 -11 -17 -1 -20 13 -5 7 -23 -9 -23 -6 0 -8 4 -4 9 3 5 0 13 -6
17 -9 5 -7 11 6 21 25 18 30 16 14 -4z m-409 -42 c0 -6 -4 -13 -10 -16 -5 -3
-10 1 -10 9 0 9 5 16 10 16 6 0 10 -4 10 -9z m356 -26 c-11 -8 -25 -15 -30
-15 -6 1 0 7 14 15 32 19 40 18 16 0z m1818 -40 c46 -30 87 -55 90 -55 6 0 34
-22 75 -59 26 -23 26 -23 1 -7 -14 8 -41 23 -60 33 -19 10 -41 24 -50 33 -8 8
-45 33 -82 55 -37 22 -68 43 -68 48 0 12 7 9 94 -48z m-1865 42 c-2 -2 -17
-11 -34 -21 l-30 -17 24 20 c13 12 28 21 34 21 6 0 8 -1 6 -3z m-3467 -24 c17
-15 18 -58 18 -960 0 -930 0 -943 -20 -963 -19 -19 -33 -20 -488 -20 -407 0
-470 2 -490 16 l-22 15 0 946 c0 867 1 948 17 965 15 17 44 18 491 18 428 0
477 -2 494 -17z m65 -5 c-3 -8 -6 -5 -6 6 -1 11 2 17 5 13 3 -3 4 -12 1 -19z
m43 1 c0 -5 -4 -9 -10 -9 -5 0 -10 7 -10 16 0 8 5 12 10 9 6 -3 10 -10 10 -16z
m86 10 c40 0 53 -4 46 -11 -9 -9 -52 -12 -107 -6 -8 1 -15 8 -15 15 0 8 5 11
10 8 6 -4 36 -6 66 -6z m84 -9 c0 -5 -4 -10 -10 -10 -5 0 -10 5 -10 10 0 6 5
10 10 10 6 0 10 -4 10 -10z m132 1 c-7 -4 -36 -8 -65 -9 -38 -1 -46 2 -32 8
26 11 115 13 97 1z m3213 -71 c72 -56 91 -77 80 -83 -17 -9 -38 0 -31 12 7 11
-43 53 -57 48 -6 -2 -31 11 -55 30 -23 18 -50 37 -59 41 -18 11 -8 35 13 30 8
-2 57 -37 109 -78z m-1227 63 c-10 -2 -18 -9 -18 -15 0 -6 -3 -9 -6 -5 -10 10
6 27 24 26 15 -1 15 -2 0 -6z m670 -18 c3 -11 0 -15 -7 -10 -7 4 -18 1 -26 -5
-11 -9 -15 -9 -15 -1 0 6 5 11 10 11 6 0 10 7 10 16 0 21 24 12 28 -11z m397
15 c-3 -5 -11 -10 -16 -10 -6 0 -7 5 -4 10 3 6 11 10 16 10 6 0 7 -4 4 -10z
m1184 -41 c28 -18 51 -34 51 -35 0 -2 -28 -4 -62 -4 -38 0 -58 4 -50 9 7 4 25
6 39 3 19 -4 24 -1 21 9 -3 8 -12 13 -20 13 -8 -1 -20 7 -27 17 -15 25 -11 24
48 -12z m-2234 3 c-3 -3 -11 0 -18 7 -9 10 -8 11 6 5 10 -3 15 -9 12 -12z
m927 -4 c-7 -7 -12 -20 -12 -29 0 -22 -18 -35 -31 -22 -9 9 34 63 49 63 3 0 1
-5 -6 -12z m548 -38 c0 -27 -4 -50 -10 -50 -5 0 -10 23 -10 50 0 28 5 50 10
50 6 0 10 -22 10 -50z m1030 4 c0 -8 -19 -13 -24 -6 -3 5 1 9 9 9 8 0 15 -2
15 -3z m-4814 -17 c8 3 14 0 14 -6 0 -6 -13 -11 -30 -11 -29 0 -38 9 -23 24 4
3 11 2 16 -3 5 -5 16 -7 23 -4z m165 2 c36 -1 58 -4 52 -10 -10 -10 -32 -13
-90 -11 -32 2 -43 6 -43 18 0 8 4 12 10 9 5 -3 37 -6 71 -6z m-101 -11 c0 -4
-9 -8 -20 -8 -11 0 -20 4 -20 9 0 6 9 9 20 8 11 -1 20 -5 20 -9z m190 2 c0 -5
-4 -10 -10 -10 -5 0 -10 5 -10 10 0 6 5 10 10 10 6 0 10 -4 10 -10z m3038 -49
c-7 -9 -13 -17 -13 -18 -1 -2 -12 9 -26 24 -22 25 -22 26 -1 9 17 -15 22 -16
22 -5 0 8 -6 21 -12 28 -7 8 -1 6 15 -4 23 -15 25 -20 15 -34z m1197 39 c3 -5
-3 -10 -14 -10 -12 0 -21 5 -21 10 0 6 6 10 14 10 8 0 18 -4 21 -10z m-1370
-20 c-3 -5 0 -10 7 -10 7 -1 0 -12 -17 -25 -16 -14 -34 -25 -40 -25 -5 1 1 10
15 22 l25 21 -27 -7 c-34 -8 -37 7 -5 22 28 14 50 15 42 2z m1397 -12 c-7 -7
-12 -8 -12 -2 0 14 12 26 19 19 2 -3 -1 -11 -7 -17z m153 1 c0 -7 -8 -15 -17
-17 -18 -3 -25 18 -11 32 10 10 28 1 28 -15z m225 17 c0 -3 -4 -8 -10 -11 -5
-3 -10 -1 -10 4 0 6 5 11 10 11 6 0 10 -2 10 -4z m-2103 -28 c-3 -8 -6 -5 -6
6 -1 11 2 17 5 13 3 -3 4 -12 1 -19z m2738 -32 c33 -21 81 -58 106 -80 25 -23
59 -47 75 -55 64 -30 91 -46 130 -78 22 -18 44 -30 47 -26 6 6 104 -55 134
-83 6 -6 25 -16 41 -23 18 -8 29 -18 26 -26 -3 -7 7 -17 23 -24 15 -6 55 -31
88 -55 33 -25 65 -45 70 -45 6 -1 21 -10 35 -21 14 -11 32 -20 40 -20 8 0 31
-10 50 -22 19 -12 39 -22 43 -23 5 0 15 -8 22 -19 8 -10 19 -15 26 -10 7 4 10
3 6 -3 -6 -9 16 -24 53 -36 11 -4 10 -6 -4 -6 -15 -1 -16 -4 -6 -16 9 -11 9
-15 1 -15 -6 0 -14 6 -17 14 -9 23 -157 122 -162 108 -2 -8 -8 -8 -18 3 -9 8
-27 12 -47 10 -29 -3 -30 -3 -14 10 18 13 17 14 -12 29 -16 9 -50 29 -74 46
-46 31 -67 37 -67 20 0 -5 -5 -10 -11 -10 -5 0 -7 5 -3 11 3 6 -6 24 -22 40
-15 16 -24 29 -19 29 5 0 -14 14 -41 32 -27 18 -51 35 -54 39 -8 10 -68 39
-80 39 -7 0 -38 18 -70 41 -32 23 -63 38 -69 34 -6 -3 -11 1 -11 9 0 9 -6 16
-14 16 -8 0 -16 3 -18 8 -1 4 -23 20 -46 37 -24 16 -62 46 -84 66 -22 20 -67
49 -98 65 -32 16 -56 32 -54 36 7 10 30 0 99 -46z m-1833 -13 c161 -122 198
-156 186 -171 -10 -11 -26 -13 -73 -8 -83 10 -114 14 -155 21 -76 13 -90 17
-85 26 4 5 -8 6 -27 3 -27 -6 -31 -4 -21 6 10 11 27 11 85 3 40 -6 90 -9 111
-7 33 3 37 1 27 -11 -11 -13 -8 -15 19 -15 38 0 41 0 67 -11 12 -4 25 -5 28
-2 10 11 -45 62 -60 56 -9 -3 -14 1 -14 12 0 11 -6 15 -18 11 -12 -4 -27 3
-43 21 -13 14 -19 23 -12 19 6 -3 14 -2 17 3 8 12 -22 23 -37 14 -7 -3 -9 -3
-5 2 10 11 -17 35 -41 35 -14 0 -19 5 -15 15 5 11 2 13 -10 9 -9 -3 -16 -1
-16 5 0 22 30 10 92 -36z m1272 18 c-2 -3 -12 3 -22 13 -16 17 -16 18 5 5 12
-7 20 -15 17 -18z m-469 9 c3 -5 1 -10 -4 -10 -6 0 -11 5 -11 10 0 6 2 10 4
10 3 0 8 -4 11 -10z m-1718 -45 c-1 -25 -5 -45 -9 -45 -5 0 -8 -14 -8 -30 0
-26 -2 -29 -14 -18 -8 8 -10 15 -4 19 6 4 7 16 3 28 -3 12 -2 21 4 21 5 0 13
16 17 35 9 48 13 44 11 -10z m1653 41 c0 -3 -4 -8 -10 -11 -5 -3 -10 -1 -10 4
0 6 5 11 10 11 6 0 10 -2 10 -4z m-1429 -24 c-11 -4 -11 -6 0 -13 7 -4 10 -11
6 -15 -3 -4 -14 -1 -23 7 -14 12 -14 14 2 26 10 7 20 10 23 7 3 -4 0 -9 -8
-12z m2208 -9 c-15 -19 -32 -23 -45 -10 -4 4 3 7 15 7 12 0 24 7 28 15 3 9 8
14 10 11 3 -3 -1 -13 -8 -23z m-1824 -1 c-3 -3 -11 0 -18 7 -9 10 -8 11 6 5
10 -3 15 -9 12 -12z m1388 1 c-7 -2 -19 -2 -25 0 -7 3 -2 5 12 5 14 0 19 -2
13 -5z m1262 -13 c-3 -5 -12 -7 -20 -3 -21 7 -19 13 6 13 11 0 18 -4 14 -10z
m-5946 -30 c4 0 11 3 15 7 13 13 106 13 106 0 0 -9 -22 -14 -70 -15 -67 -3
-70 -2 -69 20 1 17 3 18 6 6 2 -10 8 -18 12 -18z m-105 14 c23 -9 20 -24 -4
-24 -11 0 -20 7 -20 15 0 17 2 18 24 9z m33 -16 c-3 -8 -6 -5 -6 6 -1 11 2 17
5 13 3 -3 4 -12 1 -19z m33 7 c0 -8 -4 -15 -10 -15 -5 0 -10 7 -10 15 0 8 5
15 10 15 6 0 10 -7 10 -15z m4540 -8 c0 -2 -11 -4 -25 -5 -24 -2 -32 7 -19 21
6 5 44 -9 44 -16z m290 -3 c0 -2 -19 -4 -42 -3 -35 1 -38 2 -18 8 23 7 60 4
60 -5z m1633 9 c-7 -2 -19 -2 -25 0 -7 3 -2 5 12 5 14 0 19 -2 13 -5z m-1073
-10 c0 -14 -19 -38 -25 -32 -8 8 5 39 16 39 5 0 9 -3 9 -7z m-2565 -22 c-3 -6
-14 -11 -23 -11 -13 0 -13 2 4 14 21 15 30 14 19 -3z m2022 -3 c-3 -8 -6 -5
-6 6 -1 11 2 17 5 13 3 -3 4 -12 1 -19z m-1407 -3 c11 -13 10 -14 -4 -9 -19 7
-21 -6 -3 -26 6 -7 0 -5 -15 6 -18 13 -22 20 -12 22 8 2 14 8 14 13 0 13 6 11
20 -6z m1677 0 c0 -10 -6 -14 -14 -10 -8 3 -18 5 -21 6 -4 0 2 4 13 9 11 5 20
9 21 9 0 1 1 -6 1 -14z m826 8 c-7 -2 -19 -2 -25 0 -7 3 -2 5 12 5 14 0 19 -2
13 -5z m-1153 -13 c0 -5 -17 -9 -37 -9 l-38 2 35 7 c19 4 36 8 38 9 1 0 2 -3
2 -9z m-783 -22 c-3 -8 -6 -5 -6 6 -1 11 2 17 5 13 3 -3 4 -12 1 -19z m1336
-18 c-5 -19 -23 -29 -23 -12 0 7 20 32 26 32 1 0 0 -9 -3 -20z m-2598 -17 c-2
-32 -49 -63 -67 -45 -17 17 -1 42 34 57 18 8 33 14 33 15 1 0 0 -12 0 -27z
m2186 10 c13 -15 12 -15 -11 -3 -34 17 -36 20 -18 20 9 0 22 -7 29 -17z m1223
-10 c9 -23 -17 -48 -38 -36 -14 8 -14 11 0 31 18 26 30 28 38 5z m-6074 -11
c0 -8 -6 -12 -12 -9 -7 2 -21 0 -31 -5 -12 -6 -23 -6 -31 1 -7 6 -15 8 -19 5
-7 -7 -47 5 -47 14 0 4 32 7 70 7 52 0 70 -3 70 -13z m3500 -34 c0 -12 -14
-10 -28 4 -19 19 -14 29 8 16 11 -7 20 -16 20 -20z m270 7 c0 -8 -4 -15 -10
-15 -5 0 -10 7 -10 15 0 8 5 15 10 15 6 0 10 -7 10 -15z m570 -5 c0 -5 -4 -10
-10 -10 -5 0 -10 5 -10 10 0 6 5 10 10 10 6 0 10 -4 10 -10z m620 -5 c10 -12
10 -15 -4 -15 -9 0 -16 7 -16 15 0 8 2 15 4 15 2 0 9 -7 16 -15z m-1475 -25
c8 -13 -1 -13 -26 0 -10 6 -19 15 -19 21 0 11 35 -5 45 -21z m2092 -20 c-17
-28 -46 -72 -63 -99 l-30 -49 -30 17 -29 16 37 3 c30 3 39 9 52 36 8 17 24 40
35 50 10 9 25 31 31 47 7 16 16 29 21 29 5 0 -6 -23 -24 -50z m-1767 24 c0 -8
-4 -12 -10 -9 -5 3 -10 10 -10 16 0 5 5 9 10 9 6 0 10 -7 10 -16z m1140 -14
c-8 -5 -22 -10 -30 -10 -13 0 -13 1 0 10 8 5 22 10 30 10 13 0 13 -1 0 -10z
m57 4 c-3 -3 -12 -4 -19 -1 -8 3 -5 6 6 6 11 1 17 -2 13 -5z m-1197 -20 c0 -2
-7 -4 -15 -4 -8 0 -15 4 -15 10 0 5 7 7 15 4 8 -4 15 -8 15 -10z m520 12 c0
-9 -30 -14 -35 -6 -4 6 3 10 14 10 12 0 21 -2 21 -4z m730 -21 c6 3 10 0 10
-8 0 -12 19 -26 60 -41 8 -3 -3 -3 -25 0 -22 3 -41 10 -43 15 -2 5 -11 9 -19
9 -9 0 -13 3 -10 7 4 3 -1 12 -11 20 -15 13 -15 13 6 3 12 -6 27 -8 32 -5z
m1020 -5 c0 -5 -2 -10 -4 -10 -3 0 -8 5 -11 10 -3 6 -1 10 4 10 6 0 11 -4 11
-10z m-2270 -23 c0 -13 5 -28 11 -34 8 -8 5 -14 -10 -22 -12 -7 -21 -10 -22
-9 -1 2 -2 22 -3 46 -1 29 2 42 11 42 7 0 13 -10 13 -23z m658 16 c-10 -2 -28
-2 -40 0 -13 2 -5 4 17 4 22 1 32 -1 23 -4z m110 -10 c-10 -2 -26 -2 -35 0
-10 3 -2 5 17 5 19 0 27 -2 18 -5z m762 -3 c0 -5 -4 -10 -10 -10 -5 0 -10 5
-10 10 0 6 5 10 10 10 6 0 10 -4 10 -10z m-5513 -22 c-3 -8 -6 -5 -6 6 -1 11
2 17 5 13 3 -3 4 -12 1 -19z m37 7 c3 -8 1 -15 -4 -15 -6 0 -10 7 -10 15 0 8
2 15 4 15 2 0 6 -7 10 -15z m164 5 c17 0 32 -4 32 -10 0 -7 -30 -10 -85 -9
-55 1 -85 6 -85 13 0 7 19 10 52 8 29 -2 68 -3 86 -2z m162 -8 c0 -11 -43 -18
-82 -14 -47 5 -31 17 27 20 30 2 55 -1 55 -6z m30 -2 c0 -5 -4 -10 -10 -10 -5
0 -10 5 -10 10 0 6 5 10 10 10 6 0 10 -4 10 -10z m4826 -15 c-4 -10 1 -15 17
-16 17 -1 15 -3 -8 -8 -16 -4 -31 -7 -32 -6 -7 3 11 45 19 45 6 0 8 -7 4 -15z
m-499 -1 c-3 -3 -12 -4 -19 -1 -8 3 -5 6 6 6 11 1 17 -2 13 -5z m870 0 c-3 -3
-12 -4 -19 -1 -8 3 -5 6 6 6 11 1 17 -2 13 -5z m-1737 -25 c0 -6 -4 -7 -10 -4
-5 3 -10 11 -10 16 0 6 5 7 10 4 6 -3 10 -11 10 -16z m1012 -11 c-5 -5 -18 -8
-28 -5 -15 4 -13 5 5 6 24 1 24 1 5 17 -18 14 -18 15 5 4 15 -8 20 -15 13 -22z
m503 11 c20 -12 34 -24 31 -27 -3 -3 -13 1 -22 9 -9 7 -30 13 -47 12 -24 0
-26 1 -8 4 19 4 21 7 10 14 -29 18 1 8 36 -12z m-635 -9 c-14 -4 -36 -8 -50
-8 -22 0 -22 1 5 8 17 4 39 8 50 8 16 0 15 -2 -5 -8z m313 3 c-7 -2 -19 -2
-25 0 -7 3 -2 5 12 5 14 0 19 -2 13 -5z m535 -2 c10 -6 8 -10 -9 -14 -28 -7
-46 2 -28 14 17 11 21 11 37 0z m265 2 c-7 -2 -19 -2 -25 0 -7 3 -2 5 12 5 14
0 19 -2 13 -5z m-1858 -34 c-15 -28 -15 -33 1 -57 9 -15 11 -21 3 -14 -7 6
-20 12 -28 12 -13 -1 -13 -2 2 -11 9 -5 17 -14 17 -20 0 -11 -55 15 -65 31 -9
15 14 50 29 44 9 -3 22 5 31 20 24 36 29 33 10 -5z m722 5 c-3 -3 -12 -4 -19
-1 -8 3 -5 6 6 6 11 1 17 -2 13 -5z m40 0 c-3 -3 -12 -4 -19 -1 -8 3 -5 6 6 6
11 1 17 -2 13 -5z m-2987 -14 c13 -8 12 -10 -2 -10 -10 0 -21 0 -25 -1 -4 0
-9 4 -11 10 -5 14 18 14 38 1z m3095 0 c3 -5 -1 -10 -9 -10 -9 0 -16 5 -16 10
0 6 4 10 9 10 6 0 13 -4 16 -10z m-4800 -10 c3 5 12 7 20 3 29 -10 14 -19 -35
-22 -38 -1 -50 1 -50 13 0 11 6 13 30 6 17 -5 32 -5 35 0z m1802 4 c-3 -3 -12
-4 -19 -1 -8 3 -5 6 6 6 11 1 17 -2 13 -5z m2950 0 c-3 -3 -12 -4 -19 -1 -8 3
-5 6 6 6 11 1 17 -2 13 -5z m763 -79 c28 -23 79 -45 105 -45 27 0 32 -9 14
-27 -14 -14 -47 -5 -59 17 -6 12 -17 16 -35 13 -18 -4 -25 -1 -25 11 0 9 -8
16 -20 16 -11 0 -23 7 -26 15 -4 8 -15 15 -26 15 -11 0 -22 8 -25 20 -3 12
-13 19 -26 17 -14 -1 -23 5 -25 17 -3 16 6 13 64 -19 38 -21 76 -43 84 -50z
m1115 75 c3 -5 -3 -10 -15 -10 -12 0 -18 5 -15 10 3 6 10 10 15 10 5 0 12 -4
15 -10z m-6505 -11 c0 -6 -7 -8 -17 -5 -9 4 -19 2 -23 -4 -4 -6 -14 -8 -23 -4
-29 11 -19 20 23 22 25 2 40 -2 40 -9z m5517 5 c-3 -3 -12 -4 -19 -1 -8 3 -5
6 6 6 11 1 17 -2 13 -5z m-702 -22 c-3 -3 -11 0 -18 7 -9 10 -8 11 6 5 10 -3
15 -9 12 -12z m788 -17 c8 -18 -11 -31 -25 -17 -11 11 -3 32 12 32 4 0 10 -7
13 -15z m-363 -4 c0 -12 -28 -22 -34 -12 -3 5 -3 11 1 15 9 9 33 7 33 -3z
m1215 -11 c3 -5 2 -10 -4 -10 -5 0 -13 5 -16 10 -3 6 -2 10 4 10 5 0 13 -4 16
-10z m-789 -22 c4 -13 14 -29 23 -36 14 -12 14 -13 -2 -8 -10 3 -23 6 -28 6
-5 0 -9 11 -9 24 0 13 -6 27 -12 29 -8 3 -7 6 4 6 9 1 20 -9 24 -21z m-5724
-27 c-10 -2 -23 -8 -30 -14 -10 -8 -16 -7 -21 2 -4 6 -12 11 -17 9 -5 -2 -11
2 -14 7 -3 6 9 10 27 11 18 0 35 3 39 6 3 4 12 1 19 -5 11 -10 10 -13 -3 -16z
m5998 20 c0 -5 -6 -14 -14 -21 -12 -9 -15 -8 -13 9 1 20 27 31 27 12z m-6100
-17 c0 -8 -4 -12 -10 -9 -5 3 -10 10 -10 16 0 5 5 9 10 9 6 0 10 -7 10 -16z
m165 1 c0 -5 -8 -10 -17 -10 -10 -1 -18 4 -18 10 0 6 8 11 18 10 9 0 17 -5 17
-10z m6660 5 c3 -5 1 -10 -4 -10 -6 0 -11 5 -11 10 0 6 2 10 4 10 3 0 8 -4 11
-10z m-1751 -19 c3 -5 -1 -11 -9 -14 -9 -4 -12 -1 -8 9 6 16 10 17 17 5z
m1084 -3 c-5 -15 -48 -24 -48 -10 0 14 12 22 33 22 10 0 17 -5 15 -12z m619
-44 c85 -56 115 -85 43 -39 -22 14 -42 25 -44 25 -7 0 -106 62 -106 66 0 14
36 -4 107 -52z m146 49 c-7 -2 -19 -2 -25 0 -7 3 -2 5 12 5 14 0 19 -2 13 -5z
m-1966 -9 c-3 -3 -12 -4 -19 -1 -8 3 -5 6 6 6 11 1 17 -2 13 -5z m1043 -4 c0
-5 -4 -10 -9 -10 -6 0 -13 5 -16 10 -3 6 1 10 9 10 9 0 16 -4 16 -10z m-1481
-36 c-13 -16 -39 -19 -39 -4 0 6 -11 10 -25 10 -14 0 -25 3 -25 8 0 4 23 5 50
4 42 -3 49 -6 39 -18z m1045 1 c-4 -8 -10 -15 -15 -15 -5 0 -9 7 -9 15 0 8 7
15 15 15 9 0 12 -6 9 -15z m123 0 c0 -8 -4 -12 -9 -9 -5 3 -6 10 -3 15 9 13
12 11 12 -6z m223 5 c0 -5 -7 -10 -16 -10 -8 0 -12 5 -9 10 3 6 10 10 16 10 5
0 9 -4 9 -10z m-1180 -10 c0 -5 -2 -10 -4 -10 -3 0 -8 5 -11 10 -3 6 -1 10 4
10 6 0 11 -4 11 -10z m315 0 c3 -5 -1 -10 -10 -10 -9 0 -13 5 -10 10 3 6 8 10
10 10 2 0 7 -4 10 -10z m158 3 c-7 -2 -19 -2 -25 0 -7 3 -2 5 12 5 14 0 19 -2
13 -5z m-5203 -29 c0 -8 -4 -14 -10 -14 -5 0 -10 9 -10 21 0 11 5 17 10 14 6
-3 10 -13 10 -21z m101 -4 c5 0 9 4 9 9 0 5 11 9 25 9 15 0 25 -6 25 -15 0 -9
-6 -12 -18 -9 -9 3 -33 2 -51 -4 -28 -8 -36 -6 -47 8 -8 10 -13 12 -14 5 0
-18 -20 -16 -20 1 0 19 74 27 78 9 2 -7 8 -13 13 -13z m6159 22 c0 -5 -10 -18
-22 -30 l-23 -21 -1 30 c-1 24 3 29 22 29 13 0 24 -4 24 -8z m-500 -22 c-9
-16 -15 -18 -31 -10 -25 14 -16 30 17 30 22 0 23 -2 14 -20z m340 11 c0 -6 -4
-13 -10 -16 -5 -3 -10 1 -10 9 0 9 5 16 10 16 6 0 10 -4 10 -9z m-1500 -19
c-8 -3 -18 -10 -22 -15 -4 -7 -12 -6 -22 2 -9 7 -22 11 -30 8 -9 -4 -13 -1
-10 6 3 8 21 11 52 8 26 -2 40 -6 32 -9z m1020 8 c0 -5 -7 -10 -15 -10 -8 0
-15 5 -15 10 0 6 7 10 15 10 8 0 15 -4 15 -10z m1290 -11 c0 -14 -17 -10 -23
5 -4 10 -1 13 9 9 7 -3 14 -9 14 -14z m-2425 1 c3 -5 -3 -10 -14 -10 -12 0
-21 5 -21 10 0 6 6 10 14 10 8 0 18 -4 21 -10z m1395 -11 c0 -5 -10 -9 -21 -9
-18 0 -19 2 -9 15 12 15 30 12 30 -6z m-207 4 c-7 -2 -21 -2 -30 0 -10 3 -4 5
12 5 17 0 24 -2 18 -5z m967 -9 c0 -2 -7 -4 -15 -4 -8 0 -15 4 -15 10 0 5 7 7
15 4 8 -4 15 -8 15 -10z m-2020 -30 c0 -2 -9 -4 -21 -4 -11 0 -18 4 -14 10 5
8 35 3 35 -6z m360 6 c0 -5 -2 -10 -4 -10 -3 0 -8 5 -11 10 -3 6 -1 10 4 10 6
0 11 -4 11 -10z m1233 -11 c8 -29 -3 -56 -14 -37 -7 10 -9 10 -9 1 0 -7 -5
-13 -11 -13 -6 0 -9 9 -6 20 3 11 1 23 -4 26 -14 8 0 24 20 24 11 0 21 -9 24
-21z m-1663 1 c0 -5 -7 -10 -15 -10 -8 0 -15 5 -15 10 0 6 7 10 15 10 8 0 15
-4 15 -10z m129 -17 c-8 -9 -16 -10 -22 -4 -13 13 0 31 19 24 11 -4 12 -8 3
-20z m1031 17 c0 -5 -7 -10 -16 -10 -8 0 -12 5 -9 10 3 6 10 10 16 10 5 0 9
-4 9 -10z m907 -6 c-3 -3 -12 -4 -19 -1 -8 3 -5 6 6 6 11 1 17 -2 13 -5z
m-1033 -13 c3 -5 0 -11 -8 -14 -15 -6 -26 1 -26 15 0 11 27 10 34 -1z m-5525
-18 c0 -10 -3 -13 -5 -7 -3 6 -20 10 -39 7 -18 -2 -36 1 -40 7 -4 6 11 10 39
10 37 0 46 -3 45 -17z m5787 4 c4 -4 -5 -7 -20 -7 -15 0 -25 4 -22 9 7 10 31
9 42 -2z m-900 -9 c4 -6 3 -8 -4 -4 -5 3 -13 0 -15 -6 -3 -8 -6 -6 -6 5 -1 19
14 23 25 5z m1664 2 c0 -5 -2 -10 -4 -10 -3 0 -8 5 -11 10 -3 6 -1 10 4 10 6
0 11 -4 11 -10z m-1955 -20 c4 -6 -5 -10 -20 -10 -15 0 -24 4 -20 10 3 6 12
10 20 10 8 0 17 -4 20 -10z m1505 -16 c0 -17 -10 -17 -33 0 -13 10 -15 15 -5
19 19 6 38 -3 38 -19z m-1415 6 c3 -5 17 -10 31 -10 15 0 24 -6 24 -15 0 -22
-24 -18 -54 10 -15 14 -23 25 -17 25 5 0 13 -4 16 -10z m1499 -5 c-4 -8 -8
-15 -10 -15 -2 0 -4 7 -4 15 0 8 4 15 10 15 5 0 7 -7 4 -15z m439 -7 c38 -27
85 -55 110 -64 15 -6 25 -24 12 -24 -5 0 -104 60 -120 73 -5 4 -19 14 -30 22
-11 8 -16 15 -12 15 5 0 23 -10 40 -22z m-173 -4 c0 -9 -5 -14 -12 -12 -18 6
-21 28 -4 28 9 0 16 -7 16 -16z m240 2 c0 -3 -4 -8 -10 -11 -5 -3 -10 -1 -10
4 0 6 5 11 10 11 6 0 10 -2 10 -4z m30 -31 c14 -19 14 -19 -2 -6 -10 7 -18 18
-18 24 0 6 1 8 3 6 1 -2 9 -13 17 -24z m-1393 9 c-3 -3 -12 -4 -19 -1 -8 3 -5
6 6 6 11 1 17 -2 13 -5z m-4310 -36 c-3 -8 -6 -5 -6 6 -1 11 2 17 5 13 3 -3 4
-12 1 -19z m3793 7 c0 -8 -6 -15 -14 -15 -17 0 -28 14 -19 24 12 12 33 6 33
-9z m1000 11 c0 -9 -30 -14 -35 -6 -4 6 3 10 14 10 12 0 21 -2 21 -4z m107
-22 c-3 -3 -12 -4 -19 -1 -8 3 -5 6 6 6 11 1 17 -2 13 -5z m463 -9 c0 -8 -4
-15 -9 -15 -13 0 -22 16 -14 24 11 11 23 6 23 -9z m405 5 c3 -6 -1 -7 -9 -4
-18 7 -21 14 -7 14 6 0 13 -4 16 -10z m-2104 -33 c-13 -13 -26 -3 -16 12 3 6
11 8 17 5 6 -4 6 -10 -1 -17z m209 13 c10 -6 11 -10 3 -10 -7 0 -13 -8 -13
-17 0 -11 -3 -14 -8 -7 -4 6 -16 14 -27 18 -16 6 -17 9 -5 16 19 12 31 12 50
0z m1695 0 c-3 -5 -1 -10 4 -10 6 0 11 -4 11 -10 0 -16 -15 -12 -40 10 l-23
20 27 0 c16 0 25 -4 21 -10z m209 -9 c4 -5 -3 -7 -14 -4 -23 6 -26 13 -6 13 8
0 17 -4 20 -9z m482 -41 c20 -14 20 -18 7 -36 -15 -18 -15 -18 -8 3 5 19 0 27
-29 44 -20 12 -36 23 -36 25 0 6 41 -16 66 -36z m-414 16 c7 4 8 3 4 -4 -8
-13 39 -46 53 -37 6 3 8 0 5 -8 -3 -9 10 -28 33 -47 32 -28 33 -30 8 -16 -16
10 -39 28 -50 41 -11 12 -39 35 -62 50 -45 29 -58 44 -23 25 11 -6 26 -8 32
-4z m-2455 -18 c21 -12 42 -28 46 -35 13 -20 67 -45 88 -40 11 3 16 1 13 -4
-3 -5 2 -12 10 -15 9 -3 16 -12 16 -19 0 -15 28 -29 49 -26 7 1 25 -10 40 -26
25 -28 130 -100 137 -95 2 1 13 -7 23 -17 10 -10 34 -22 52 -26 18 -4 40 -16
48 -27 9 -10 24 -20 33 -22 10 -1 30 -14 45 -27 16 -14 46 -36 68 -49 22 -13
73 -46 113 -72 47 -30 84 -48 103 -48 25 0 29 -3 24 -19 -4 -14 3 -25 24 -40
18 -13 32 -17 36 -11 4 7 13 6 27 -1 15 -8 17 -13 8 -19 -18 -11 87 -80 122
-80 16 0 28 5 28 10 0 6 -4 10 -10 10 -5 0 -10 6 -10 14 0 15 29 30 39 20 3
-4 0 -9 -7 -11 -10 -4 -9 -9 4 -24 24 -27 40 -24 53 11 10 30 25 38 36 20 3
-6 -1 -13 -10 -16 -13 -6 -14 -8 -3 -15 10 -7 10 -9 1 -9 -7 0 -13 -7 -13 -16
0 -8 -4 -13 -8 -10 -5 3 -16 -4 -25 -14 -15 -18 -13 -20 35 -51 28 -18 46 -35
39 -37 -6 -2 -19 2 -27 9 -13 10 -17 10 -24 0 -11 -18 -102 35 -98 56 4 19
-185 150 -190 134 -6 -17 -19 -13 -78 24 -30 19 -59 35 -65 35 -7 0 -9 10 -5
24 5 20 0 28 -30 45 -19 12 -41 21 -49 21 -14 0 -65 -77 -65 -97 0 -5 16 -18
35 -28 19 -11 32 -21 30 -23 -6 -7 -115 41 -115 50 0 16 -184 129 -202 125
-13 -4 -18 1 -18 14 0 10 -4 19 -10 19 -5 0 -10 7 -10 15 0 8 4 15 9 15 5 0
11 -7 15 -15 3 -8 10 -15 15 -15 8 0 61 81 61 94 0 5 -88 66 -96 66 -2 0 -27
16 -54 35 -27 19 -52 35 -55 35 -12 0 -93 57 -139 97 -67 60 -98 59 -129 -3
l-22 -46 24 -19 c13 -10 29 -19 37 -19 8 0 14 -4 14 -8 0 -5 10 -14 23 -20 14
-7 17 -11 7 -11 -9 -1 -21 4 -26 9 -6 6 -26 19 -45 29 -42 23 -48 52 -20 102
20 36 21 38 4 49 -17 11 -17 11 0 6 24 -7 22 11 -3 24 -11 6 -20 15 -20 20 0
14 4 13 47 -12z m2050 16 c-3 -3 -12 -4 -19 -1 -8 3 -5 6 6 6 11 1 17 -2 13
-5z m-1692 -14 c3 -6 -5 -10 -19 -10 -14 0 -28 5 -31 10 -3 6 5 10 19 10 14 0
28 -4 31 -10z m189 1 c10 -16 -21 -20 -41 -6 -17 13 -16 14 9 15 15 0 29 -4
32 -9z m-344 -5 c0 -2 -8 -10 -17 -17 -16 -13 -17 -12 -4 4 13 16 21 21 21 13z
m1461 -3 c-13 -3 -25 -13 -28 -23 -4 -17 -33 -37 -33 -24 0 20 38 53 60 52 25
-1 25 -1 1 -5z m269 -18 c0 -8 -4 -15 -10 -15 -5 0 -10 7 -10 15 0 8 5 15 10
15 6 0 10 -7 10 -15z m-1512 -18 c7 -8 6 -18 -5 -32 -11 -15 -14 -15 -10 -3 3
9 0 19 -9 22 -9 3 -12 10 -9 16 8 14 20 13 33 -3z m185 7 c12 -12 -18 -30 -42
-26 -23 5 -23 6 -6 18 20 15 38 18 48 8z m2317 2 c0 -3 -4 -8 -10 -11 -5 -3
-10 -1 -10 4 0 6 5 11 10 11 6 0 10 -2 10 -4z m-580 -22 c0 -11 -5 -14 -16
-10 -9 3 -18 6 -20 6 -3 0 -2 5 1 10 10 16 35 12 35 -6z m-1667 -40 c-3 -8 -9
-14 -13 -14 -13 0 -22 19 -15 30 9 14 34 0 28 -16z m197 17 c0 -17 -15 -19
-28 -5 -11 12 -9 14 8 14 11 0 20 -4 20 -9z m-390 -11 c0 -5 -4 -10 -9 -10 -6
0 -13 5 -16 10 -3 6 1 10 9 10 9 0 16 -4 16 -10z m1593 -16 c3 -3 3 -13 0 -21
-5 -12 -7 -12 -14 -1 -15 23 -4 40 14 22z m-507 -29 c-9 -9 -16 -13 -16 -8 0
12 22 34 28 28 2 -2 -3 -11 -12 -20z m1061 -1 c-7 -7 -37 7 -37 17 0 6 9 5 21
-1 11 -7 19 -14 16 -16z m-2072 6 c4 -6 -5 -10 -20 -10 -15 0 -24 4 -20 10 3
6 12 10 20 10 8 0 17 -4 20 -10z m178 -20 c3 -11 1 -20 -4 -20 -5 0 -9 9 -9
20 0 11 2 20 4 20 2 0 6 -9 9 -20z m1987 -42 c0 -5 -7 -8 -16 -8 -8 0 -13 4
-10 9 3 5 -8 14 -24 21 -17 7 -30 16 -30 20 0 5 18 -1 40 -13 22 -12 40 -25
40 -29z m-555 14 c-3 -3 -11 0 -18 7 -9 10 -8 11 6 5 10 -3 15 -9 12 -12z
m649 -6 c-3 -9 -10 -16 -15 -16 -5 0 -4 9 3 20 14 22 21 20 12 -4z m-2354 -6
c-6 -11 -13 -20 -16 -20 -2 0 0 9 6 20 6 11 13 20 16 20 2 0 0 -9 -6 -20z
m152 8 c-9 -9 -15 -9 -24 0 -9 9 -7 12 12 12 19 0 21 -3 12 -12z m208 -2 c0
-8 -4 -18 -10 -21 -5 -3 -10 -1 -10 4 0 6 -7 11 -15 11 -8 0 -15 5 -15 10 0 6
11 10 25 10 15 0 25 -6 25 -14z m390 -1 c-7 -9 -15 -13 -17 -11 -7 7 7 26 19
26 6 0 6 -6 -2 -15z m1561 -2 c13 -17 13 -17 -6 -3 -11 8 -22 16 -24 17 -2 2
0 3 6 3 6 0 17 -8 24 -17z m-2364 1 c-3 -3 -12 -4 -19 -1 -8 3 -5 6 6 6 11 1
17 -2 13 -5z m643 -3 c0 -6 -9 -9 -20 -8 -11 1 -20 5 -20 9 0 4 9 8 20 8 11 0
20 -4 20 -9z m828 2 c-10 -2 -26 -2 -35 0 -10 3 -2 5 17 5 19 0 27 -2 18 -5z
m1032 -23 c-6 -11 -13 -20 -16 -20 -2 0 0 9 6 20 6 11 13 20 16 20 2 0 0 -9
-6 -20z m-2214 -17 c-9 -16 -25 -39 -37 -53 l-21 -25 16 28 c14 22 15 31 6 43
-10 11 -9 15 1 18 8 2 21 7 29 9 8 3 16 6 18 6 1 1 -4 -11 -12 -26z m824 17
c0 -5 -5 -10 -11 -10 -5 0 -7 5 -4 10 3 6 8 10 11 10 2 0 4 -4 4 -10z m1370
-81 l25 -21 -35 21 c-19 11 -53 29 -75 40 -22 10 -49 26 -60 35 -11 9 12 0 50
-19 39 -19 81 -44 95 -56z m-658 69 c-8 -8 -17 -8 -34 0 -22 10 -21 11 12 11
26 1 31 -2 22 -11z m-1372 -8 c-13 -9 -13 -11 0 -20 9 -6 11 -10 3 -10 -7 0
-17 9 -23 20 -9 17 -8 20 12 20 19 0 20 -2 8 -10z m-588 -20 c12 -11 19 -22
16 -25 -2 -3 -15 6 -28 20 -28 30 -18 34 12 5z m509 5 c-1 -15 -24 -12 -29 3
-3 9 2 13 12 10 10 -1 17 -7 17 -13z m711 -2 c-6 -3 -10 -9 -6 -14 3 -5 0 -9
-5 -9 -6 0 -11 4 -11 8 0 12 23 32 29 25 3 -3 0 -8 -7 -10z m-1377 -3 c3 -5
-1 -10 -9 -10 -9 0 -16 5 -16 10 0 6 4 10 9 10 6 0 13 -4 16 -10z m2778 -4 c4
-10 1 -13 -8 -9 -8 3 -12 9 -9 14 7 12 11 11 17 -5z m-2700 -16 c-3 -11 -10
-20 -17 -20 -6 0 -3 -5 7 -11 9 -5 22 -7 27 -4 6 3 10 -1 10 -11 0 -11 6 -15
20 -11 12 3 20 0 20 -8 0 -16 47 -48 60 -40 6 3 10 1 10 -4 0 -22 -40 -7 -127
48 -34 20 -41 30 -37 46 5 16 21 34 31 35 0 0 -1 -9 -4 -20z m742 2 c-3 -3
-11 0 -18 7 -9 10 -8 11 6 5 10 -3 15 -9 12 -12z m339 9 c3 -5 0 -11 -8 -14
-15 -6 -26 1 -26 15 0 11 27 10 34 -1z m1111 -21 c3 -5 -1 -10 -10 -10 -9 0
-13 5 -10 10 3 6 8 10 10 10 2 0 7 -4 10 -10z m125 6 c0 -3 -4 -8 -10 -11 -5
-3 -10 -1 -10 4 0 6 5 11 10 11 6 0 10 -2 10 -4z m421 -13 c13 -16 12 -17 -3
-4 -10 7 -18 15 -18 17 0 8 8 3 21 -13z m-2688 0 c-7 -2 -19 -2 -25 0 -7 3 -2
5 12 5 14 0 19 -2 13 -5z m740 0 c-7 -2 -9 -12 -5 -21 6 -16 4 -16 -19 -1 -14
9 -34 19 -44 21 -11 3 3 5 30 5 28 0 45 -1 38 -4z m477 -1 c0 -5 -7 -17 -15
-28 -14 -18 -14 -17 -4 9 12 27 19 34 19 19z m-590 -10 c0 -12 -39 -42 -55
-42 -7 0 -17 5 -20 10 -4 6 5 10 20 10 14 0 28 7 31 15 6 16 24 21 24 7z
m1223 1 c-7 -2 -21 -2 -30 0 -10 3 -4 5 12 5 17 0 24 -2 18 -5z m601 -8 c-6
-16 -34 -21 -34 -7 0 13 11 22 26 22 8 0 11 -6 8 -15z m-836 -2 c-10 -2 -26
-2 -35 0 -10 3 -2 5 17 5 19 0 27 -2 18 -5z m-493 -13 c3 -5 -1 -10 -9 -10 -9
0 -16 5 -16 10 0 6 4 10 9 10 6 0 13 -4 16 -10z m-610 -10 c-3 -5 -15 -10 -26
-10 -10 0 -19 5 -19 10 0 6 12 10 26 10 14 0 23 -4 19 -10z m255 0 c0 -5 -2
-10 -4 -10 -3 0 -8 5 -11 10 -3 6 -1 10 4 10 6 0 11 -4 11 -10z m2050 -77 c46
-27 36 -37 -11 -11 -40 22 -109 81 -109 92 0 3 20 -10 45 -29 25 -19 59 -42
75 -52z m-952 70 c-10 -2 -28 -2 -40 0 -13 2 -5 4 17 4 22 1 32 -1 23 -4z
m929 -13 c-1 -22 -17 -28 -17 -7 0 12 9 27 16 27 2 0 2 -9 1 -20z m-2337 -30
c0 -5 -6 -10 -14 -10 -8 0 -18 5 -21 10 -3 6 3 10 14 10 12 0 21 -4 21 -10z
m755 0 c3 -5 -3 -10 -14 -10 -12 0 -21 5 -21 10 0 6 6 10 14 10 8 0 18 -4 21
-10z m-436 -31 c-9 -5 -15 -4 -18 2 -2 6 3 15 10 20 9 5 15 4 18 -2 2 -6 -3
-15 -10 -20z m141 25 l25 -7 -27 -7 c-28 -8 -68 -3 -68 9 0 9 40 12 70 5z
m-315 -14 c4 -6 -7 -10 -25 -10 -18 0 -29 4 -25 10 3 6 15 10 25 10 10 0 22
-4 25 -10z m73 -2 c-6 -18 -28 -21 -28 -4 0 9 7 16 16 16 9 0 14 -5 12 -12z
m1962 -7 c0 -13 -27 -21 -46 -14 -13 5 -13 7 -2 14 17 11 48 11 48 0z m-1335
-20 c3 -5 1 -13 -5 -16 -15 -9 -43 3 -35 15 8 13 32 13 40 1z m-731 -22 c-7
-11 -54 -12 -54 -1 0 15 10 19 35 14 14 -2 22 -8 19 -13z m1791 11 c3 -6 -1
-13 -10 -16 -19 -8 -30 0 -20 15 8 14 22 14 30 1z m-1580 -9 c10 -18 -17 -23
-33 -7 -15 15 -15 16 5 16 12 0 24 -4 28 -9z m93 -3 c-7 -20 -48 -23 -48 -4 0
11 9 16 26 16 16 0 24 -5 22 -12z m1197 2 c-3 -5 -14 -10 -23 -10 -15 0 -15 2
-2 10 20 13 33 13 25 0z m-925 -20 c0 -16 -15 -18 -33 -5 -13 10 -15 14 -5 18
16 5 38 -2 38 -13z m-433 -7 c3 -6 -4 -10 -14 -8 -10 2 -21 4 -25 4 -5 1 -8 6
-8 12 0 14 42 7 47 -8z m896 10 c-7 -2 -19 -2 -25 0 -7 3 -2 5 12 5 14 0 19
-2 13 -5z m1112 -2 l30 -7 -37 -5 c-21 -3 -38 -2 -38 2 0 4 -10 10 -22 12 -17
3 -15 4 7 4 17 1 44 -2 60 -6z m-1665 -11 c11 -7 5 -10 -22 -10 -21 0 -38 5
-38 10 0 13 40 13 60 0z m1514 -11 c-6 -11 -24 -2 -24 11 0 5 7 7 15 4 8 -4
12 -10 9 -15z m266 -37 c-8 -3 -7 -8 2 -19 11 -14 10 -15 -8 -9 -15 4 -24 2
-28 -9 -5 -13 5 -19 26 -17 3 1 9 -5 12 -14 5 -12 -1 -14 -32 -9 -34 6 -35 5
-14 -7 27 -17 56 -57 47 -66 -3 -3 -9 -2 -13 4 -4 6 -22 19 -39 29 -18 11 -33
24 -33 29 0 11 57 114 73 131 10 10 13 7 15 -13 2 -15 -1 -28 -8 -30z m-1460
38 c0 -5 -4 -10 -9 -10 -6 0 -13 5 -16 10 -3 6 1 10 9 10 9 0 16 -4 16 -10z
m523 3 c-13 -2 -35 -2 -50 0 -16 2 -5 4 22 4 28 0 40 -2 28 -4z m-185 -10
c-16 -2 -40 -2 -55 0 -16 2 -3 4 27 4 30 0 43 -2 28 -4z m-1028 -24 c0 -12
-37 -12 -44 0 -7 11 14 20 32 13 6 -2 12 -8 12 -13z m349 -1 c11 -10 14 -10
18 0 6 14 49 16 58 2 6 -10 -6 -14 -39 -10 -13 1 -16 -2 -10 -12 5 -8 -2 -6
-19 5 -15 9 -27 13 -27 8 0 -6 8 -15 18 -20 16 -10 15 -10 -3 -11 -15 0 -21 7
-23 25 -2 28 7 32 27 13z m196 6 c12 -5 14 -9 4 -14 -15 -10 -41 -1 -33 11 6
11 8 11 29 3z m978 -1 c-7 -2 -21 -2 -30 0 -10 3 -4 5 12 5 17 0 24 -2 18 -5z
m438 -26 c-11 -19 -18 -36 -15 -39 2 -3 -2 -8 -10 -11 -10 -4 -13 -1 -10 8 3
7 0 15 -8 18 -7 2 -5 3 4 2 15 -3 29 14 27 31 -1 6 21 23 29 24 2 0 -6 -15
-17 -33z m-1831 13 c0 -5 -9 -10 -20 -10 -11 0 -20 5 -20 10 0 6 9 10 20 10
11 0 20 -4 20 -10z m102 -2 c-8 -8 -17 -8 -34 0 -22 10 -21 11 12 11 26 1 31
-2 22 -11z m666 5 c-10 -2 -26 -2 -35 0 -10 3 -2 5 17 5 19 0 27 -2 18 -5z
m-114 -12 c3 -5 -1 -11 -9 -15 -18 -6 -45 2 -45 15 0 12 47 12 54 0z m239 2
c-13 -2 -33 -2 -45 0 -13 2 -3 4 22 4 25 0 35 -2 23 -4z m-1463 -29 c0 -2 -9
0 -20 6 -11 6 -20 13 -20 16 0 2 9 0 20 -6 11 -6 20 -13 20 -16z m2287 10 c-3
-3 -12 -4 -19 -1 -8 3 -5 6 6 6 11 1 17 -2 13 -5z m-1537 -13 c0 -11 -30 -19
-47 -14 -24 8 -13 23 17 23 17 0 30 -4 30 -9z m74 -6 c-4 -8 -8 -15 -10 -15
-2 0 -4 7 -4 15 0 8 4 15 10 15 5 0 7 -7 4 -15z m111 5 c3 -5 -3 -10 -14 -10
-11 0 -23 5 -26 10 -3 6 3 10 14 10 11 0 23 -4 26 -10z m-407 -14 c-2 -5 -13
-10 -25 -11 -17 0 -19 2 -11 13 12 14 41 13 36 -2z m552 4 c0 -5 -9 -10 -19
-10 -11 0 -23 5 -26 10 -4 6 5 10 19 10 14 0 26 -4 26 -10z m210 -11 c0 -11
-27 -12 -34 0 -3 4 -3 11 0 14 8 8 34 -3 34 -14z m113 14 c-7 -2 -19 -2 -25 0
-7 3 -2 5 12 5 14 0 19 -2 13 -5z m-1887 -40 c17 -13 36 -23 42 -23 7 0 12 -5
12 -11 0 -13 -2 -12 -62 26 -27 16 -48 34 -48 38 0 9 13 3 56 -30z m1293 8
c11 -7 10 -11 -4 -19 -19 -10 -55 -5 -55 8 0 7 13 13 40 19 3 0 11 -3 19 -8z
m191 5 c0 -2 -3 -11 -6 -20 -5 -12 -9 -13 -19 -3 -7 7 -11 15 -8 20 4 7 33 10
33 3z m153 -11 c1 -5 -6 -11 -15 -13 -11 -2 -18 3 -18 13 0 17 30 18 33 0z
m870 8 c-7 -2 -19 -2 -25 0 -7 3 -2 5 12 5 14 0 19 -2 13 -5z m329 -25 c-6 -6
-15 -8 -19 -4 -4 4 -1 11 7 16 19 12 27 3 12 -12z m-988 3 c7 -10 -23 -20 -41
-14 -7 3 -13 9 -13 14 0 12 47 12 54 0z m-293 -34 c-12 -12 -45 -1 -37 12 3 5
15 7 27 4 13 -4 17 -9 10 -16z m-806 -3 c14 -9 25 -13 25 -9 0 3 7 -1 16 -10
9 -9 13 -19 10 -23 -4 -3 -11 0 -15 7 -6 9 -11 10 -15 2 -10 -16 -26 -13 -20
3 3 9 -5 20 -23 30 -15 8 -22 15 -15 16 7 0 24 -7 37 -16z m605 6 c0 -5 -7
-10 -15 -10 -8 0 -15 5 -15 10 0 6 7 10 15 10 8 0 15 -4 15 -10z m1465 0 c-3
-5 -11 -10 -16 -10 -6 0 -7 5 -4 10 3 6 11 10 16 10 6 0 7 -4 4 -10z m-2245
-10 c0 -5 -2 -10 -4 -10 -3 0 -8 5 -11 10 -3 6 -1 10 4 10 6 0 11 -4 11 -10z
m1339 1 c10 -6 10 -10 1 -16 -15 -10 -62 3 -55 15 8 12 35 13 54 1z m-1814
-11 c3 -5 -3 -10 -15 -10 -12 0 -18 5 -15 10 3 6 10 10 15 10 5 0 12 -4 15
-10z m2015 0 c0 -5 -5 -10 -11 -10 -5 0 -7 5 -4 10 3 6 8 10 11 10 2 0 4 -4 4
-10z m40 0 c0 -5 -2 -10 -4 -10 -3 0 -8 5 -11 10 -3 6 -1 10 4 10 6 0 11 -4
11 -10z m-725 -20 c11 -18 -26 -23 -43 -6 -15 15 -14 16 10 16 15 0 30 -5 33
-10z m-595 -7 c0 -5 -7 -17 -15 -27 -15 -20 -15 -20 -15 0 0 12 3 24 7 27 9 9
23 9 23 0z m26 -20 c-10 -10 -19 5 -10 18 6 11 8 11 12 0 2 -7 1 -15 -2 -18z
m414 18 c0 -6 -4 -13 -10 -16 -5 -3 -10 1 -10 9 0 9 5 16 10 16 6 0 10 -4 10
-9z m-1070 -26 c0 3 9 -3 19 -12 37 -34 52 -45 94 -69 23 -13 37 -24 30 -24
-25 0 -64 21 -95 51 -18 17 -50 40 -70 50 -21 11 -38 22 -38 24 0 3 14 -1 30
-10 17 -9 30 -13 30 -10z m1578 13 c-3 -7 -11 -13 -18 -13 -7 0 -15 6 -17 13
-3 7 4 12 17 12 13 0 20 -5 18 -12z m202 2 c0 -5 -9 -10 -19 -10 -11 0 -23 5
-26 10 -4 6 5 10 19 10 14 0 26 -4 26 -10z m-1330 -4 c0 -2 -7 -6 -15 -10 -8
-3 -15 -1 -15 4 0 6 7 10 15 10 8 0 15 -2 15 -4z m25 -16 c3 -5 1 -10 -4 -10
-6 0 -11 5 -11 10 0 6 2 10 4 10 3 0 8 -4 11 -10z m91 -7 c0 -9 9 -22 22 -29
l23 -11 -24 -5 c-18 -4 -24 -1 -20 9 6 16 -9 17 -26 1 -8 -8 -7 -1 3 20 18 36
24 40 22 15z m724 -4 c0 -5 -9 -9 -20 -9 -19 0 -26 11 -14 23 8 8 34 -3 34
-14z m-776 -24 c-30 -40 -40 -45 -23 -12 11 19 10 20 -3 9 -13 -10 -18 -9 -28
3 -10 13 -9 15 11 16 13 1 30 1 37 0 6 -1 12 3 12 9 0 5 5 10 11 10 5 0 -2
-16 -17 -35z m140 20 c-10 -7 -22 -11 -27 -8 -12 7 0 19 23 20 21 2 21 1 4
-12z m50 -3 c-6 -4 -23 -25 -38 -47 -16 -22 -26 -32 -23 -23 4 12 -1 18 -16
21 -19 4 -19 4 4 6 16 1 30 10 39 26 7 14 20 25 29 25 10 0 12 -3 5 -8z m371
-6 c7 3 15 -1 18 -9 8 -20 -28 -10 -45 12 -10 13 -10 14 1 4 7 -6 19 -9 26 -7z
m570 5 c8 -14 -13 -24 -33 -16 -14 5 -14 7 -2 15 19 12 27 12 35 1z m199 0
c10 -16 -21 -20 -41 -6 -17 13 -16 14 9 15 15 0 29 -4 32 -9z m-1829 -50 c17
-12 27 -21 23 -21 -8 0 -108 62 -108 67 0 5 48 -21 85 -46z m739 34 c18 -13
18 -15 3 -15 -10 0 -23 -11 -29 -25 -6 -14 -15 -25 -20 -25 -5 0 -1 14 7 30 9
17 13 35 10 40 -9 15 7 12 29 -5z m610 -14 c19 -7 19 -8 -3 -14 -27 -7 -53 1
-45 14 6 11 21 11 48 0z m191 -1 c-3 -5 -12 -10 -20 -10 -8 0 -17 5 -20 10 -4
6 5 10 20 10 15 0 24 -4 20 -10z m-107 -11 c-18 -7 -33 -7 -45 0 -14 8 -9 10
27 10 42 -1 43 -1 18 -10z m457 0 c11 -16 0 -21 -31 -13 -25 6 -26 8 -9 15 28
11 33 10 40 -2z m-1387 -19 c-7 -10 -14 -17 -17 -15 -4 4 18 35 25 35 2 0 -1
-9 -8 -20z m293 3 c13 -17 13 -17 -6 -3 -11 8 -22 16 -24 17 -2 2 0 3 6 3 6 0
17 -8 24 -17z m901 5 c-8 -8 -17 -8 -34 0 -22 10 -21 11 12 11 26 1 31 -2 22
-11z m-1159 -13 c-3 -9 -8 -14 -10 -11 -3 3 -2 9 2 15 9 16 15 13 8 -4z m684
9 c-3 -3 -12 -4 -19 -1 -8 3 -5 6 6 6 11 1 17 -2 13 -5z m820 0 c-3 -3 -12 -4
-19 -1 -8 3 -5 6 6 6 11 1 17 -2 13 -5z m-437 -14 c12 -8 9 -10 -12 -10 -16 0
-28 5 -28 10 0 13 20 13 40 0z m-113 -6 c-3 -3 -12 -4 -19 -1 -8 3 -5 6 6 6
11 1 17 -2 13 -5z"/>
<path d="M15683 4299 c3 -9 0 -22 -6 -28 -6 -6 -8 -13 -5 -17 4 -3 12 4 18 16
9 17 9 25 -1 34 -9 8 -11 7 -6 -5z"/>
<path d="M13624 3468 c-4 -7 -3 -8 4 -4 7 4 12 2 12 -3 0 -16 17 -13 24 4 7
18 -29 21 -40 3z"/>
<path d="M13310 3460 c0 -13 20 -13 40 0 12 8 9 10 -12 10 -16 0 -28 -4 -28
-10z"/>
<path d="M13370 3462 c0 -4 9 -8 20 -9 11 -1 20 2 20 8 0 5 -9 9 -20 9 -11 0
-20 -4 -20 -8z"/>
<path d="M13490 3461 c0 -5 11 -8 25 -7 38 4 43 16 7 16 -18 0 -32 -4 -32 -9z"/>
<path d="M13580 3460 c0 -5 5 -10 10 -10 6 0 10 5 10 10 0 6 -4 10 -10 10 -5
0 -10 -4 -10 -10z"/>
<path d="M18680 3400 c-20 -12 -5 -24 16 -12 9 5 12 12 7 15 -5 3 -15 2 -23
-3z"/>
<path d="M15990 2841 c0 -6 4 -13 10 -16 6 -3 7 1 4 9 -7 18 -14 21 -14 7z"/>
<path d="M16020 3140 c0 -5 5 -10 10 -10 6 0 10 5 10 10 0 6 -4 10 -10 10 -5
0 -10 -4 -10 -10z"/>
<path d="M16315 2850 c-9 -17 -20 -28 -24 -25 -5 2 -11 -4 -14 -14 -3 -14 0
-17 14 -14 11 3 19 12 19 19 0 8 5 14 10 14 6 0 10 7 10 15 0 8 9 15 20 15 11
0 20 5 20 10 0 23 -40 8 -55 -20z"/>
<path d="M16270 2763 c1 -22 114 -112 126 -100 11 11 -7 45 -27 50 -13 4 -18
10 -13 18 5 9 1 11 -15 6 -15 -3 -24 1 -31 14 -10 18 -40 27 -40 12z"/>
<path d="M16370 2730 c0 -5 5 -10 10 -10 6 0 10 5 10 10 0 6 -4 10 -10 10 -5
0 -10 -4 -10 -10z"/>
<path d="M16470 2650 c0 -6 7 -10 15 -10 8 0 15 2 15 4 0 2 -7 6 -15 10 -8 3
-15 1 -15 -4z"/>
<path d="M16520 2611 c0 -5 7 -12 16 -15 24 -9 27 -7 10 9 -17 17 -26 19 -26
6z"/>
<path d="M17115 2570 c-3 -5 -1 -10 4 -10 6 0 11 5 11 10 0 6 -2 10 -4 10 -3
0 -8 -4 -11 -10z"/>
<path d="M16590 2560 c0 -5 7 -13 16 -18 9 -5 12 -12 7 -15 -6 -4 -19 2 -30
13 -12 10 -24 16 -27 13 -15 -16 -1 -35 58 -77 64 -45 106 -53 106 -19 0 10
-7 14 -19 10 -10 -2 -25 -1 -32 4 -11 7 -10 9 4 9 32 0 20 23 -34 63 -38 29
-49 33 -49 17z m60 -56 c0 -8 -4 -12 -10 -9 -5 3 -10 10 -10 16 0 5 5 9 10 9
6 0 10 -7 10 -16z"/>
<path d="M16750 2556 c0 -9 7 -16 16 -16 9 0 14 5 12 12 -6 18 -28 21 -28 4z"/>
<path d="M16769 2508 c-1 -7 -1 -16 -1 -19 1 -3 -11 -4 -26 -1 -24 5 -25 4
-11 -11 27 -26 84 -3 72 30 -6 17 -33 17 -34 1z"/>
<path d="M17958 3043 c7 -3 16 -2 19 1 4 3 -2 6 -13 5 -11 0 -14 -3 -6 -6z"/>
<path d="M16560 2865 c0 -8 7 -15 15 -15 9 0 12 6 9 15 -4 8 -10 15 -15 15 -5
0 -9 -7 -9 -15z"/>
<path d="M16615 2808 c1 -13 8 -23 16 -23 8 0 13 8 11 19 -2 10 1 15 7 12 5
-4 12 -2 16 4 4 6 -6 10 -23 10 -24 0 -28 -4 -27 -22z"/>
<path d="M17760 2760 c0 -5 5 -10 10 -10 6 0 10 5 10 10 0 6 -4 10 -10 10 -5
0 -10 -4 -10 -10z"/>
<path d="M12482 2108 c3 -21 8 -23 73 -23 65 0 70 2 73 23 3 21 1 22 -73 22
-74 0 -76 -1 -73 -22z m58 2 c0 -5 -4 -10 -10 -10 -5 0 -10 5 -10 10 0 6 5 10
10 10 6 0 10 -4 10 -10z m50 0 c0 -5 -9 -10 -20 -10 -11 0 -20 5 -20 10 0 6 9
10 20 10 11 0 20 -4 20 -10z"/>
<path d="M13195 2111 c-7 -12 12 -24 25 -16 11 7 4 25 -10 25 -5 0 -11 -4 -15
-9z"/>
<path d="M13130 2100 c-12 -8 -10 -10 8 -10 13 0 20 4 17 10 -7 12 -6 12 -25
0z"/>
<path d="M13250 2100 c0 -5 5 -10 10 -10 6 0 10 5 10 10 0 6 -4 10 -10 10 -5
0 -10 -4 -10 -10z"/>
<path d="M12864 1999 c-13 -5 -7 -8 24 -8 23 -1 42 1 42 3 0 8 -48 12 -66 5z"/>
<path d="M12546 1843 c-6 -14 -5 -15 5 -6 7 7 10 15 7 18 -3 3 -9 -2 -12 -12z"/>
<path d="M12780 1850 c-13 -8 -12 -10 3 -10 9 0 17 5 17 10 0 12 -1 12 -20 0z"/>
<path d="M12940 1849 c0 -5 5 -7 10 -4 6 3 10 8 10 11 0 2 -4 4 -10 4 -5 0
-10 -5 -10 -11z"/>
<path d="M13085 1850 c-3 -5 1 -10 10 -10 9 0 13 5 10 10 -3 6 -8 10 -10 10
-2 0 -7 -4 -10 -10z"/>
<path d="M12451 1843 c-1 -7 -8 -13 -17 -13 -8 0 -12 -5 -9 -10 4 -6 10 -8 15
-5 5 3 11 -3 13 -12 4 -17 5 -17 6 0 0 10 5 16 10 12 5 -3 12 -1 16 5 3 5 0
10 -9 10 -8 0 -17 6 -19 13 -4 10 -6 10 -6 0z"/>
<path d="M12580 1840 c-8 -5 -10 -10 -5 -10 6 0 17 5 25 10 8 5 11 10 5 10 -5
0 -17 -5 -25 -10z"/>
<path d="M12625 1840 c3 -5 11 -10 16 -10 6 0 7 5 4 10 -3 6 -11 10 -16 10 -6
0 -7 -4 -4 -10z"/>
<path d="M12668 1838 c9 -9 15 -9 24 0 9 9 7 12 -12 12 -19 0 -21 -3 -12 -12z"/>
<path d="M12830 1839 c0 -5 5 -7 10 -4 6 3 10 8 10 11 0 2 -4 4 -10 4 -5 0
-10 -5 -10 -11z"/>
<path d="M12900 1839 c0 -5 5 -7 10 -4 6 3 10 8 10 11 0 2 -4 4 -10 4 -5 0
-10 -5 -10 -11z"/>
<path d="M13130 1840 c19 -13 30 -13 30 0 0 6 -10 10 -22 10 -19 0 -20 -2 -8
-10z"/>
<path d="M12633 1703 c-25 -9 -13 -30 17 -31 32 -1 42 21 14 32 -9 3 -16 6
-17 5 -1 0 -8 -3 -14 -6z m32 -12 c3 -6 -3 -9 -14 -8 -11 0 -17 5 -15 9 7 11
22 10 29 -1z"/>
<path d="M13212 1438 c-15 -15 -16 -35 -2 -43 6 -4 9 3 7 16 -1 12 4 24 11 26
8 3 10 -1 5 -14 -7 -19 -5 -18 16 10 12 15 11 17 -6 17 -10 0 -24 -5 -31 -12z"/>
<path d="M13240 1390 c0 -5 5 -10 11 -10 5 0 7 5 4 10 -3 6 -8 10 -11 10 -2 0
-4 -4 -4 -10z"/>
<path d="M17216 1882 c-7 -12 22 -38 31 -28 4 3 0 14 -9 22 -9 10 -18 12 -22
6z"/>
<path d="M16225 1750 c3 -5 8 -10 11 -10 2 0 4 5 4 10 0 6 -5 10 -11 10 -5 0
-7 -4 -4 -10z"/>
<path d="M19666 1765 c-3 -8 -1 -15 4 -15 6 0 10 7 10 15 0 8 -2 15 -4 15 -2
0 -6 -7 -10 -15z"/>
<path d="M18380 668 c-11 -18 -20 -40 -20 -49 0 -16 44 -60 58 -57 4 0 18 -4
32 -10 14 -6 21 -11 15 -11 -11 -1 46 -41 58 -41 5 0 5 6 2 13 -4 6 0 4 8 -5
21 -27 40 -22 62 15 10 17 23 35 29 39 6 4 -1 16 -17 31 -45 38 -165 107 -187
107 -12 0 -28 -13 -40 -32z"/>
<path d="M18742 488 c3 -7 13 -15 24 -17 10 -2 24 -10 30 -19 6 -8 16 -13 23
-11 8 3 -3 16 -26 32 -43 30 -57 34 -51 15z"/>
<path d="M19110 251 c0 -11 31 -24 39 -16 3 3 -1 10 -9 15 -19 12 -30 12 -30
1z"/>
</g>
</svg>
