<svg width="595" height="537" viewBox="0 0 595 537" fill="none" xmlns="http://www.w3.org/2000/svg">
<g clip-path="url(#clip0_5711_60804)">
<rect x="46.5" y="90.5" width="503" height="357" rx="11.5" fill="#19181B" stroke="#222024"/>
<g filter="url(#filter0_b_5711_60804)">
<path d="M78 257C78 250.373 83.3726 245 90 245H275C281.627 245 287 250.373 287 257V404C287 410.627 281.627 416 275 416H90C83.3726 416 78 410.627 78 404V257Z" fill="#635D79" fill-opacity="0.12"/>
</g>
<path d="M99.3182 263.182V269H98.6364L95.4659 264.432H95.4091V269H94.7045V263.182H95.3864L98.5682 267.761H98.625V263.182H99.3182ZM102.467 269.091C102.046 269.091 101.683 268.998 101.379 268.812C101.076 268.625 100.842 268.364 100.677 268.028C100.514 267.691 100.433 267.299 100.433 266.852C100.433 266.405 100.514 266.011 100.677 265.67C100.842 265.328 101.071 265.061 101.364 264.869C101.66 264.676 102.004 264.58 102.398 264.58C102.626 264.58 102.85 264.617 103.072 264.693C103.293 264.769 103.495 264.892 103.677 265.062C103.859 265.231 104.004 265.455 104.112 265.733C104.219 266.011 104.273 266.354 104.273 266.761V267.045H100.91V266.466H103.592C103.592 266.22 103.542 266 103.444 265.807C103.347 265.614 103.209 265.461 103.029 265.349C102.851 265.238 102.641 265.182 102.398 265.182C102.131 265.182 101.9 265.248 101.705 265.381C101.512 265.511 101.363 265.682 101.259 265.892C101.155 266.102 101.103 266.328 101.103 266.568V266.955C101.103 267.284 101.16 267.563 101.273 267.793C101.389 268.02 101.549 268.193 101.754 268.312C101.958 268.43 102.196 268.489 102.467 268.489C102.643 268.489 102.802 268.464 102.944 268.415C103.088 268.364 103.212 268.288 103.316 268.188C103.42 268.085 103.501 267.958 103.558 267.807L104.205 267.989C104.137 268.208 104.022 268.402 103.862 268.568C103.701 268.733 103.502 268.862 103.265 268.955C103.028 269.045 102.762 269.091 102.467 269.091ZM106.282 269L104.952 264.636H105.657L106.6 267.977H106.646L107.577 264.636H108.293L109.214 267.966H109.259L110.202 264.636H110.907L109.577 269H108.918L107.964 265.648H107.896L106.941 269H106.282ZM116.793 267.216V264.636H117.464V269H116.793V268.261H116.748C116.646 268.483 116.487 268.671 116.271 268.827C116.055 268.98 115.782 269.057 115.452 269.057C115.18 269.057 114.937 268.997 114.725 268.878C114.513 268.757 114.346 268.575 114.225 268.332C114.104 268.088 114.043 267.78 114.043 267.409V264.636H114.714V267.364C114.714 267.682 114.803 267.936 114.981 268.125C115.161 268.314 115.39 268.409 115.668 268.409C115.835 268.409 116.004 268.366 116.177 268.281C116.351 268.196 116.497 268.065 116.614 267.889C116.734 267.713 116.793 267.489 116.793 267.216ZM121.783 265.614L121.18 265.784C121.143 265.684 121.087 265.586 121.013 265.491C120.941 265.395 120.842 265.315 120.717 265.253C120.592 265.19 120.432 265.159 120.237 265.159C119.97 265.159 119.748 265.221 119.57 265.344C119.393 265.465 119.305 265.619 119.305 265.807C119.305 265.973 119.366 266.105 119.487 266.202C119.608 266.298 119.798 266.379 120.055 266.443L120.703 266.602C121.093 266.697 121.384 266.842 121.575 267.037C121.767 267.23 121.862 267.479 121.862 267.784C121.862 268.034 121.79 268.258 121.646 268.455C121.504 268.652 121.305 268.807 121.05 268.92C120.794 269.034 120.497 269.091 120.158 269.091C119.713 269.091 119.344 268.994 119.053 268.801C118.761 268.608 118.576 268.326 118.499 267.955L119.135 267.795C119.196 268.03 119.31 268.206 119.479 268.324C119.649 268.441 119.872 268.5 120.146 268.5C120.459 268.5 120.707 268.434 120.891 268.301C121.076 268.167 121.169 268.006 121.169 267.818C121.169 267.667 121.116 267.54 121.01 267.438C120.904 267.333 120.741 267.256 120.521 267.205L119.794 267.034C119.394 266.939 119.101 266.793 118.913 266.594C118.728 266.393 118.635 266.142 118.635 265.841C118.635 265.595 118.704 265.377 118.842 265.188C118.982 264.998 119.173 264.849 119.413 264.741C119.656 264.634 119.93 264.58 120.237 264.58C120.669 264.58 121.008 264.674 121.254 264.864C121.502 265.053 121.679 265.303 121.783 265.614ZM124.701 269.091C124.281 269.091 123.918 268.998 123.613 268.812C123.31 268.625 123.076 268.364 122.911 268.028C122.748 267.691 122.667 267.299 122.667 266.852C122.667 266.405 122.748 266.011 122.911 265.67C123.076 265.328 123.305 265.061 123.599 264.869C123.894 264.676 124.239 264.58 124.633 264.58C124.86 264.58 125.085 264.617 125.306 264.693C125.528 264.769 125.729 264.892 125.911 265.062C126.093 265.231 126.238 265.455 126.346 265.733C126.454 266.011 126.508 266.354 126.508 266.761V267.045H123.144V266.466H125.826C125.826 266.22 125.777 266 125.678 265.807C125.582 265.614 125.443 265.461 125.263 265.349C125.085 265.238 124.875 265.182 124.633 265.182C124.366 265.182 124.135 265.248 123.94 265.381C123.746 265.511 123.598 265.682 123.494 265.892C123.389 266.102 123.337 266.328 123.337 266.568V266.955C123.337 267.284 123.394 267.563 123.508 267.793C123.623 268.02 123.783 268.193 123.988 268.312C124.192 268.43 124.43 268.489 124.701 268.489C124.877 268.489 125.036 268.464 125.178 268.415C125.322 268.364 125.446 268.288 125.55 268.188C125.655 268.085 125.735 267.958 125.792 267.807L126.44 267.989C126.371 268.208 126.257 268.402 126.096 268.568C125.935 268.733 125.736 268.862 125.499 268.955C125.263 269.045 124.996 269.091 124.701 269.091ZM127.528 269V264.636H128.175V265.295H128.221C128.3 265.08 128.444 264.904 128.653 264.77C128.861 264.635 129.096 264.568 129.357 264.568C129.406 264.568 129.468 264.569 129.542 264.571C129.616 264.573 129.672 264.576 129.71 264.58V265.261C129.687 265.256 129.635 265.247 129.553 265.236C129.474 265.223 129.389 265.216 129.3 265.216C129.088 265.216 128.899 265.26 128.732 265.349C128.567 265.437 128.437 265.558 128.34 265.713C128.246 265.866 128.198 266.042 128.198 266.239V269H127.528ZM133.595 265.614L132.993 265.784C132.955 265.684 132.899 265.586 132.825 265.491C132.753 265.395 132.655 265.315 132.53 265.253C132.405 265.19 132.245 265.159 132.05 265.159C131.783 265.159 131.56 265.221 131.382 265.344C131.206 265.465 131.118 265.619 131.118 265.807C131.118 265.973 131.179 266.105 131.3 266.202C131.421 266.298 131.61 266.379 131.868 266.443L132.516 266.602C132.906 266.697 133.196 266.842 133.388 267.037C133.579 267.23 133.675 267.479 133.675 267.784C133.675 268.034 133.603 268.258 133.459 268.455C133.317 268.652 133.118 268.807 132.862 268.92C132.607 269.034 132.309 269.091 131.97 269.091C131.525 269.091 131.157 268.994 130.865 268.801C130.573 268.608 130.389 268.326 130.311 267.955L130.947 267.795C131.008 268.03 131.123 268.206 131.291 268.324C131.462 268.441 131.684 268.5 131.959 268.5C132.271 268.5 132.519 268.434 132.703 268.301C132.889 268.167 132.982 268.006 132.982 267.818C132.982 267.667 132.929 267.54 132.822 267.438C132.716 267.333 132.554 267.256 132.334 267.205L131.607 267.034C131.207 266.939 130.913 266.793 130.726 266.594C130.54 266.393 130.447 266.142 130.447 265.841C130.447 265.595 130.517 265.377 130.655 265.188C130.795 264.998 130.985 264.849 131.226 264.741C131.468 264.634 131.743 264.58 132.05 264.58C132.482 264.58 132.821 264.674 133.067 264.864C133.315 265.053 133.491 265.303 133.595 265.614Z" fill="#A39FB2"/>
<path d="M97.9922 285.29V278.568H99.3295V285.29H97.9922ZM95.3026 282.595V281.263H102.024V282.595H95.3026ZM103.893 287V285.886L107.339 282.317C107.707 281.929 108.01 281.589 108.249 281.298C108.491 281.003 108.671 280.723 108.79 280.457C108.91 280.192 108.969 279.911 108.969 279.612C108.969 279.274 108.89 278.982 108.731 278.737C108.572 278.489 108.355 278.298 108.08 278.165C107.804 278.03 107.495 277.962 107.15 277.962C106.785 277.962 106.467 278.036 106.195 278.185C105.924 278.335 105.715 278.545 105.569 278.817C105.423 279.089 105.35 279.407 105.35 279.771H103.884C103.884 279.152 104.026 278.61 104.311 278.146C104.596 277.682 104.987 277.322 105.484 277.067C105.982 276.808 106.547 276.679 107.18 276.679C107.819 276.679 108.383 276.807 108.87 277.062C109.361 277.314 109.743 277.658 110.018 278.096C110.294 278.53 110.431 279.021 110.431 279.567C110.431 279.945 110.36 280.315 110.217 280.676C110.078 281.037 109.835 281.44 109.487 281.884C109.138 282.325 108.655 282.86 108.035 283.49L106.011 285.608V285.683H110.595V287H103.893ZM115.84 287.139C115.217 287.139 114.657 287.02 114.16 286.781C113.666 286.539 113.272 286.208 112.977 285.787C112.682 285.366 112.524 284.885 112.504 284.345H113.996C114.032 284.783 114.226 285.142 114.577 285.424C114.929 285.706 115.35 285.847 115.84 285.847C116.231 285.847 116.578 285.757 116.879 285.578C117.184 285.396 117.423 285.146 117.595 284.827C117.771 284.509 117.859 284.146 117.859 283.739C117.859 283.324 117.769 282.955 117.59 282.63C117.411 282.305 117.164 282.05 116.849 281.864C116.538 281.679 116.18 281.584 115.776 281.581C115.467 281.581 115.157 281.634 114.846 281.74C114.534 281.846 114.282 281.985 114.09 282.158L112.683 281.949L113.255 276.818H118.853V278.136H114.533L114.21 280.984H114.269C114.468 280.792 114.732 280.631 115.06 280.502C115.391 280.373 115.746 280.308 116.124 280.308C116.743 280.308 117.295 280.456 117.779 280.751C118.266 281.046 118.649 281.448 118.928 281.959C119.209 282.466 119.348 283.049 119.345 283.709C119.348 284.368 119.199 284.957 118.898 285.474C118.599 285.991 118.185 286.398 117.655 286.697C117.128 286.992 116.523 287.139 115.84 287.139ZM124.716 287.139C124.262 287.133 123.814 287.05 123.373 286.891C122.936 286.732 122.538 286.466 122.18 286.095C121.822 285.724 121.536 285.225 121.32 284.599C121.108 283.972 121.002 283.19 121.002 282.252C121.002 281.364 121.09 280.575 121.265 279.886C121.444 279.196 121.701 278.615 122.036 278.141C122.371 277.663 122.775 277.3 123.249 277.052C123.723 276.803 124.255 276.679 124.845 276.679C125.452 276.679 125.99 276.798 126.461 277.037C126.931 277.276 127.313 277.605 127.604 278.026C127.899 278.447 128.086 278.926 128.166 279.463H126.65C126.547 279.039 126.343 278.692 126.038 278.424C125.733 278.156 125.336 278.021 124.845 278.021C124.099 278.021 123.518 278.346 123.1 278.996C122.686 279.645 122.477 280.549 122.474 281.705H122.548C122.724 281.417 122.939 281.172 123.194 280.969C123.453 280.764 123.741 280.607 124.059 280.497C124.381 280.384 124.719 280.328 125.074 280.328C125.664 280.328 126.197 280.472 126.675 280.761C127.155 281.046 127.538 281.44 127.823 281.944C128.108 282.448 128.251 283.024 128.251 283.674C128.251 284.324 128.103 284.912 127.808 285.439C127.516 285.966 127.105 286.384 126.575 286.692C126.045 286.997 125.425 287.146 124.716 287.139ZM124.711 285.847C125.102 285.847 125.452 285.75 125.76 285.558C126.068 285.366 126.312 285.107 126.491 284.783C126.67 284.458 126.759 284.095 126.759 283.694C126.759 283.303 126.671 282.946 126.496 282.625C126.323 282.304 126.085 282.048 125.78 281.859C125.478 281.67 125.133 281.576 124.746 281.576C124.451 281.576 124.177 281.632 123.925 281.745C123.677 281.858 123.458 282.013 123.269 282.212C123.08 282.411 122.931 282.64 122.822 282.898C122.715 283.154 122.662 283.424 122.662 283.709C122.662 284.09 122.75 284.443 122.926 284.768C123.105 285.093 123.349 285.354 123.657 285.553C123.968 285.749 124.32 285.847 124.711 285.847ZM129.848 285.011V283.768L134.248 276.818H135.227V278.648H134.605L131.458 283.629V283.709H137.489V285.011H129.848ZM134.675 287V284.634L134.685 284.067V276.818H136.142V287H134.675Z" fill="#DFDEE2"/>
<rect opacity="0.6" x="94" y="308" width="177" height="1" stroke="url(#paint0_linear_5711_60804)" stroke-width="0.859823" stroke-dasharray="3.44 5.16"/>
<rect opacity="0.6" x="94" y="337" width="177" height="1" stroke="url(#paint1_linear_5711_60804)" stroke-width="0.859823" stroke-dasharray="3.44 5.16"/>
<rect opacity="0.6" x="94" y="366" width="177" height="1" stroke="url(#paint2_linear_5711_60804)" stroke-width="0.859823" stroke-dasharray="3.44 5.16"/>
<rect opacity="0.6" x="94" y="395" width="177" height="1" stroke="url(#paint3_linear_5711_60804)" stroke-width="0.859823" stroke-dasharray="3.44 5.16"/>
<path opacity="0.6" d="M130.5 367C117.7 369 100.833 386.5 94 395H264.5V308C257.5 321 239 326.5 229.5 332C220 337.5 207 363 193.5 360C180 357 179 346 165 350C151 354 146.5 364.5 130.5 367Z" fill="url(#paint4_linear_5711_60804)"/>
<path d="M94 395C100.833 386.5 117.7 369 130.5 367C146.5 364.5 151 354 165 350C179 346 180 357 193.5 360C207 363 220 337.5 229.5 332C239 326.5 257.5 321 264.5 308" stroke="url(#paint5_linear_5711_60804)" stroke-width="2" stroke-linecap="round"/>
<rect x="78" y="167" width="237" height="14" rx="7" fill="url(#paint6_linear_5711_60804)" fill-opacity="0.08"/>
<rect x="78" y="191" width="187" height="14" rx="7" fill="url(#paint7_linear_5711_60804)" fill-opacity="0.08"/>
<ellipse cx="66.9425" cy="110.939" rx="6.98153" ry="6.97959" fill="url(#paint8_linear_5711_60804)"/>
<ellipse cx="85.5597" cy="110.939" rx="6.98153" ry="6.97959" fill="url(#paint9_linear_5711_60804)"/>
<ellipse cx="104.177" cy="110.939" rx="6.98153" ry="6.97959" fill="url(#paint10_linear_5711_60804)"/>
<g filter="url(#filter1_b_5711_60804)">
<path d="M303 260C303 253.373 308.373 248 315 248H506C512.627 248 518 253.373 518 260V407C518 413.627 512.627 419 506 419H315C308.373 419 303 413.627 303 407V260Z" fill="#635D79" fill-opacity="0.12"/>
</g>
<path d="M319.705 263.182H320.545L322.523 268.011H322.591L324.568 263.182H325.409V269H324.75V264.58H324.693L322.875 269H322.239L320.42 264.58H320.364V269H319.705V263.182ZM328.504 269.091C328.11 269.091 327.764 268.997 327.467 268.81C327.171 268.622 326.94 268.36 326.773 268.023C326.609 267.686 326.526 267.292 326.526 266.841C326.526 266.386 326.609 265.99 326.773 265.651C326.94 265.312 327.171 265.048 327.467 264.861C327.764 264.673 328.11 264.58 328.504 264.58C328.897 264.58 329.242 264.673 329.538 264.861C329.835 265.048 330.066 265.312 330.231 265.651C330.397 265.99 330.481 266.386 330.481 266.841C330.481 267.292 330.397 267.686 330.231 268.023C330.066 268.36 329.835 268.622 329.538 268.81C329.242 268.997 328.897 269.091 328.504 269.091ZM328.504 268.489C328.803 268.489 329.049 268.412 329.242 268.259C329.435 268.105 329.578 267.903 329.671 267.653C329.764 267.403 329.81 267.133 329.81 266.841C329.81 266.549 329.764 266.277 329.671 266.026C329.578 265.774 329.435 265.57 329.242 265.415C329.049 265.259 328.803 265.182 328.504 265.182C328.204 265.182 327.958 265.259 327.765 265.415C327.572 265.57 327.429 265.774 327.336 266.026C327.243 266.277 327.197 266.549 327.197 266.841C327.197 267.133 327.243 267.403 327.336 267.653C327.429 267.903 327.572 268.105 327.765 268.259C327.958 268.412 328.204 268.489 328.504 268.489ZM332.175 266.375V269H331.504V264.636H332.152V265.318H332.209C332.311 265.097 332.466 264.919 332.675 264.784C332.883 264.648 333.152 264.58 333.482 264.58C333.777 264.58 334.036 264.64 334.257 264.761C334.479 264.881 334.651 265.062 334.774 265.307C334.897 265.549 334.959 265.856 334.959 266.227V269H334.288V266.273C334.288 265.93 334.199 265.663 334.021 265.472C333.843 265.278 333.599 265.182 333.288 265.182C333.074 265.182 332.883 265.228 332.714 265.321C332.548 265.414 332.416 265.549 332.32 265.727C332.223 265.905 332.175 266.121 332.175 266.375ZM338.082 264.636V265.205H335.82V264.636H338.082ZM336.479 263.591H337.15V267.75C337.15 267.939 337.177 268.081 337.232 268.176C337.289 268.269 337.361 268.331 337.448 268.364C337.537 268.394 337.631 268.409 337.729 268.409C337.803 268.409 337.864 268.405 337.911 268.398C337.959 268.388 337.996 268.381 338.025 268.375L338.161 268.977C338.116 268.994 338.052 269.011 337.971 269.028C337.889 269.047 337.786 269.057 337.661 269.057C337.472 269.057 337.286 269.016 337.104 268.935C336.924 268.853 336.775 268.729 336.656 268.562C336.538 268.396 336.479 268.186 336.479 267.932V263.591ZM339.854 266.375V269H339.184V263.182H339.854V265.318H339.911C340.013 265.093 340.167 264.914 340.371 264.781C340.578 264.647 340.853 264.58 341.195 264.58C341.493 264.58 341.753 264.639 341.977 264.759C342.2 264.876 342.373 265.057 342.496 265.301C342.621 265.544 342.684 265.852 342.684 266.227V269H342.013V266.273C342.013 265.926 341.924 265.658 341.744 265.469C341.566 265.277 341.318 265.182 341.002 265.182C340.782 265.182 340.585 265.228 340.411 265.321C340.239 265.414 340.103 265.549 340.002 265.727C339.904 265.905 339.854 266.121 339.854 266.375ZM344.581 263.182V269H343.911V263.182H344.581ZM346.241 270.636C346.127 270.636 346.026 270.627 345.937 270.608C345.848 270.591 345.786 270.574 345.752 270.557L345.923 269.966C346.085 270.008 346.229 270.023 346.354 270.011C346.479 270 346.59 269.944 346.687 269.844C346.785 269.745 346.875 269.585 346.957 269.364L347.082 269.023L345.468 264.636H346.195L347.4 268.114H347.445L348.65 264.636H349.377L347.525 269.636C347.442 269.862 347.338 270.048 347.215 270.196C347.092 270.346 346.949 270.456 346.786 270.528C346.625 270.6 346.443 270.636 346.241 270.636ZM352.512 269V264.636H353.183V269H352.512ZM352.853 263.909C352.722 263.909 352.61 263.865 352.515 263.776C352.422 263.687 352.376 263.58 352.376 263.455C352.376 263.33 352.422 263.223 352.515 263.134C352.61 263.045 352.722 263 352.853 263C352.984 263 353.095 263.045 353.188 263.134C353.283 263.223 353.33 263.33 353.33 263.455C353.33 263.58 353.283 263.687 353.188 263.776C353.095 263.865 352.984 263.909 352.853 263.909ZM355.081 266.375V269H354.411V264.636H355.058V265.318H355.115C355.217 265.097 355.373 264.919 355.581 264.784C355.789 264.648 356.058 264.58 356.388 264.58C356.683 264.58 356.942 264.64 357.163 264.761C357.385 264.881 357.557 265.062 357.68 265.307C357.804 265.549 357.865 265.856 357.865 266.227V269H357.195V266.273C357.195 265.93 357.106 265.663 356.928 265.472C356.75 265.278 356.505 265.182 356.195 265.182C355.981 265.182 355.789 265.228 355.621 265.321C355.454 265.414 355.322 265.549 355.226 265.727C355.129 265.905 355.081 266.121 355.081 266.375ZM360.863 269.091C360.454 269.091 360.102 268.994 359.806 268.801C359.511 268.608 359.283 268.342 359.124 268.003C358.965 267.664 358.886 267.277 358.886 266.841C358.886 266.398 358.967 266.007 359.13 265.668C359.295 265.327 359.524 265.061 359.817 264.869C360.113 264.676 360.458 264.58 360.852 264.58C361.158 264.58 361.435 264.636 361.681 264.75C361.927 264.864 362.129 265.023 362.286 265.227C362.443 265.432 362.541 265.67 362.579 265.943H361.908C361.857 265.744 361.744 265.568 361.567 265.415C361.393 265.259 361.158 265.182 360.863 265.182C360.602 265.182 360.372 265.25 360.175 265.386C359.98 265.521 359.828 265.711 359.718 265.957C359.61 266.202 359.556 266.489 359.556 266.818C359.556 267.155 359.609 267.449 359.715 267.699C359.823 267.949 359.975 268.143 360.17 268.281C360.367 268.42 360.598 268.489 360.863 268.489C361.037 268.489 361.195 268.458 361.337 268.398C361.479 268.337 361.6 268.25 361.698 268.136C361.797 268.023 361.867 267.886 361.908 267.727H362.579C362.541 267.985 362.447 268.217 362.298 268.423C362.15 268.628 361.954 268.791 361.71 268.912C361.467 269.031 361.185 269.091 360.863 269.091ZM365.332 269.091C364.938 269.091 364.592 268.997 364.295 268.81C363.999 268.622 363.768 268.36 363.602 268.023C363.437 267.686 363.354 267.292 363.354 266.841C363.354 266.386 363.437 265.99 363.602 265.651C363.768 265.312 363.999 265.048 364.295 264.861C364.592 264.673 364.938 264.58 365.332 264.58C365.726 264.58 366.07 264.673 366.366 264.861C366.663 265.048 366.894 265.312 367.059 265.651C367.226 265.99 367.309 266.386 367.309 266.841C367.309 267.292 367.226 267.686 367.059 268.023C366.894 268.36 366.663 268.622 366.366 268.81C366.07 268.997 365.726 269.091 365.332 269.091ZM365.332 268.489C365.631 268.489 365.877 268.412 366.07 268.259C366.263 268.105 366.406 267.903 366.499 267.653C366.592 267.403 366.638 267.133 366.638 266.841C366.638 266.549 366.592 266.277 366.499 266.026C366.406 265.774 366.263 265.57 366.07 265.415C365.877 265.259 365.631 265.182 365.332 265.182C365.032 265.182 364.786 265.259 364.593 265.415C364.4 265.57 364.257 265.774 364.164 266.026C364.071 266.277 364.025 266.549 364.025 266.841C364.025 267.133 364.071 267.403 364.164 267.653C364.257 267.903 364.4 268.105 364.593 268.259C364.786 268.412 365.032 268.489 365.332 268.489ZM368.332 269V264.636H368.98V265.318H369.037C369.128 265.085 369.275 264.904 369.477 264.776C369.68 264.645 369.923 264.58 370.207 264.58C370.495 264.58 370.735 264.645 370.926 264.776C371.119 264.904 371.27 265.085 371.378 265.318H371.423C371.535 265.093 371.703 264.914 371.926 264.781C372.15 264.647 372.418 264.58 372.73 264.58C373.12 264.58 373.439 264.702 373.688 264.946C373.936 265.188 374.06 265.566 374.06 266.08V269H373.389V266.08C373.389 265.758 373.301 265.527 373.125 265.389C372.949 265.251 372.741 265.182 372.503 265.182C372.196 265.182 371.958 265.275 371.79 265.46C371.621 265.644 371.537 265.877 371.537 266.159V269H370.855V266.011C370.855 265.763 370.775 265.563 370.614 265.412C370.453 265.259 370.245 265.182 369.991 265.182C369.817 265.182 369.654 265.228 369.503 265.321C369.353 265.414 369.232 265.543 369.139 265.707C369.048 265.87 369.003 266.059 369.003 266.273V269H368.332ZM377.115 269.091C376.695 269.091 376.332 268.998 376.027 268.812C375.724 268.625 375.49 268.364 375.325 268.028C375.162 267.691 375.081 267.299 375.081 266.852C375.081 266.405 375.162 266.011 375.325 265.67C375.49 265.328 375.719 265.061 376.013 264.869C376.308 264.676 376.653 264.58 377.047 264.58C377.274 264.58 377.499 264.617 377.72 264.693C377.942 264.769 378.143 264.892 378.325 265.062C378.507 265.231 378.652 265.455 378.76 265.733C378.868 266.011 378.922 266.354 378.922 266.761V267.045H375.558V266.466H378.24C378.24 266.22 378.191 266 378.092 265.807C377.996 265.614 377.857 265.461 377.678 265.349C377.5 265.238 377.289 265.182 377.047 265.182C376.78 265.182 376.549 265.248 376.354 265.381C376.161 265.511 376.012 265.682 375.908 265.892C375.804 266.102 375.751 266.328 375.751 266.568V266.955C375.751 267.284 375.808 267.563 375.922 267.793C376.037 268.02 376.197 268.193 376.402 268.312C376.607 268.43 376.844 268.489 377.115 268.489C377.291 268.489 377.45 268.464 377.592 268.415C377.736 268.364 377.86 268.288 377.964 268.188C378.069 268.085 378.149 267.958 378.206 267.807L378.854 267.989C378.786 268.208 378.671 268.402 378.51 268.568C378.349 268.733 378.15 268.862 377.913 268.955C377.677 269.045 377.411 269.091 377.115 269.091Z" fill="#A39FB2"/>
<path d="M323.121 288.273V275.545H323.937V288.273H323.121ZM325.672 279.493C325.619 279.022 325.4 278.658 325.016 278.399C324.631 278.137 324.147 278.006 323.564 278.006C323.146 278.006 322.785 278.073 322.48 278.205C322.175 278.335 321.938 278.513 321.769 278.742C321.603 278.968 321.521 279.224 321.521 279.513C321.521 279.755 321.577 279.964 321.69 280.139C321.806 280.315 321.956 280.462 322.142 280.582C322.331 280.698 322.533 280.795 322.749 280.875C322.964 280.951 323.171 281.014 323.37 281.064L324.364 281.322C324.689 281.402 325.022 281.51 325.364 281.646C325.705 281.781 326.022 281.96 326.313 282.183C326.605 282.405 326.84 282.68 327.019 283.008C327.201 283.336 327.293 283.729 327.293 284.186C327.293 284.763 327.143 285.275 326.845 285.722C326.55 286.17 326.121 286.523 325.558 286.781C324.997 287.04 324.32 287.169 323.524 287.169C322.762 287.169 322.102 287.048 321.545 286.806C320.989 286.564 320.553 286.221 320.238 285.777C319.923 285.33 319.749 284.799 319.716 284.186H321.257C321.287 284.554 321.406 284.861 321.615 285.106C321.827 285.348 322.097 285.528 322.425 285.648C322.757 285.764 323.12 285.822 323.514 285.822C323.948 285.822 324.335 285.754 324.673 285.618C325.014 285.479 325.282 285.286 325.478 285.041C325.674 284.793 325.771 284.503 325.771 284.171C325.771 283.87 325.685 283.623 325.513 283.43C325.344 283.238 325.113 283.079 324.822 282.953C324.533 282.827 324.207 282.716 323.842 282.62L322.639 282.292C321.824 282.07 321.178 281.743 320.7 281.312C320.226 280.882 319.989 280.312 319.989 279.602C319.989 279.016 320.148 278.504 320.467 278.066C320.785 277.629 321.216 277.289 321.759 277.047C322.303 276.802 322.916 276.679 323.599 276.679C324.288 276.679 324.896 276.8 325.423 277.042C325.954 277.284 326.371 277.617 326.676 278.041C326.981 278.462 327.14 278.946 327.153 279.493H325.672ZM332.544 287.139C332.09 287.133 331.642 287.05 331.202 286.891C330.764 286.732 330.366 286.466 330.008 286.095C329.65 285.724 329.364 285.225 329.148 284.599C328.936 283.972 328.83 283.19 328.83 282.252C328.83 281.364 328.918 280.575 329.094 279.886C329.273 279.196 329.529 278.615 329.864 278.141C330.199 277.663 330.603 277.3 331.077 277.052C331.551 276.803 332.083 276.679 332.673 276.679C333.28 276.679 333.818 276.798 334.289 277.037C334.76 277.276 335.141 277.605 335.432 278.026C335.727 278.447 335.915 278.926 335.994 279.463H334.478C334.375 279.039 334.171 278.692 333.866 278.424C333.561 278.156 333.164 278.021 332.673 278.021C331.927 278.021 331.346 278.346 330.928 278.996C330.514 279.645 330.305 280.549 330.302 281.705H330.376C330.552 281.417 330.767 281.172 331.023 280.969C331.281 280.764 331.569 280.607 331.888 280.497C332.209 280.384 332.547 280.328 332.902 280.328C333.492 280.328 334.025 280.472 334.503 280.761C334.983 281.046 335.366 281.44 335.651 281.944C335.936 282.448 336.079 283.024 336.079 283.674C336.079 284.324 335.931 284.912 335.636 285.439C335.345 285.966 334.934 286.384 334.403 286.692C333.873 286.997 333.253 287.146 332.544 287.139ZM332.539 285.847C332.93 285.847 333.28 285.75 333.588 285.558C333.896 285.366 334.14 285.107 334.319 284.783C334.498 284.458 334.587 284.095 334.587 283.694C334.587 283.303 334.499 282.946 334.324 282.625C334.151 282.304 333.913 282.048 333.608 281.859C333.306 281.67 332.961 281.576 332.574 281.576C332.279 281.576 332.005 281.632 331.753 281.745C331.505 281.858 331.286 282.013 331.097 282.212C330.908 282.411 330.759 282.64 330.65 282.898C330.544 283.154 330.491 283.424 330.491 283.709C330.491 284.09 330.578 284.443 330.754 284.768C330.933 285.093 331.177 285.354 331.485 285.553C331.796 285.749 332.148 285.847 332.539 285.847ZM337.676 285.011V283.768L342.076 276.818H343.055V278.648H342.434L339.287 283.629V283.709H345.317V285.011H337.676ZM342.503 287V284.634L342.513 284.067V276.818H343.97V287H342.503ZM348.621 285.608L348.546 286.15C348.496 286.548 348.412 286.962 348.293 287.393C348.177 287.827 348.056 288.23 347.93 288.601C347.807 288.972 347.706 289.267 347.626 289.486H346.572C346.616 289.28 346.675 289.002 346.751 288.651C346.828 288.303 346.902 287.913 346.975 287.482C347.048 287.051 347.103 286.612 347.139 286.165L347.189 285.608H348.621ZM353.963 276.679C354.417 276.682 354.864 276.765 355.305 276.928C355.746 277.09 356.144 277.355 356.498 277.723C356.856 278.091 357.141 278.588 357.353 279.214C357.569 279.838 357.678 280.613 357.681 281.541C357.681 282.433 357.592 283.227 357.413 283.923C357.234 284.615 356.977 285.2 356.642 285.678C356.311 286.155 355.908 286.518 355.434 286.766C354.96 287.015 354.427 287.139 353.833 287.139C353.227 287.139 352.688 287.02 352.218 286.781C351.747 286.543 351.364 286.213 351.069 285.792C350.774 285.368 350.59 284.88 350.517 284.33H352.034C352.133 284.768 352.335 285.122 352.64 285.394C352.949 285.663 353.346 285.797 353.833 285.797C354.579 285.797 355.161 285.472 355.578 284.822C355.996 284.17 356.207 283.258 356.21 282.088H356.13C355.958 282.373 355.743 282.618 355.484 282.824C355.229 283.029 354.942 283.188 354.624 283.301C354.306 283.414 353.966 283.47 353.605 283.47C353.018 283.47 352.484 283.326 352.004 283.038C351.523 282.749 351.141 282.353 350.855 281.849C350.57 281.346 350.428 280.771 350.428 280.124C350.428 279.481 350.574 278.898 350.865 278.374C351.16 277.851 351.571 277.436 352.098 277.131C352.629 276.823 353.25 276.672 353.963 276.679ZM353.968 277.972C353.58 277.972 353.23 278.068 352.919 278.26C352.61 278.449 352.367 278.706 352.188 279.031C352.009 279.352 351.919 279.71 351.919 280.104C351.919 280.499 352.006 280.857 352.178 281.178C352.354 281.496 352.592 281.75 352.894 281.939C353.199 282.125 353.547 282.217 353.938 282.217C354.23 282.217 354.501 282.161 354.753 282.048C355.005 281.936 355.225 281.78 355.414 281.581C355.603 281.379 355.751 281.15 355.857 280.895C355.963 280.64 356.016 280.371 356.016 280.089C356.016 279.715 355.926 279.367 355.748 279.045C355.572 278.724 355.33 278.465 355.022 278.27C354.713 278.071 354.362 277.972 353.968 277.972ZM363.022 287.169C362.237 287.166 361.566 286.959 361.009 286.548C360.452 286.137 360.026 285.538 359.731 284.753C359.436 283.967 359.289 283.021 359.289 281.914C359.289 280.81 359.436 279.867 359.731 279.085C360.029 278.303 360.457 277.706 361.014 277.295C361.574 276.884 362.243 276.679 363.022 276.679C363.801 276.679 364.469 276.886 365.026 277.3C365.583 277.711 366.008 278.308 366.303 279.09C366.602 279.869 366.751 280.81 366.751 281.914C366.751 283.024 366.603 283.972 366.308 284.758C366.013 285.54 365.588 286.138 365.031 286.553C364.474 286.964 363.804 287.169 363.022 287.169ZM363.022 285.842C363.712 285.842 364.25 285.505 364.638 284.832C365.029 284.16 365.225 283.187 365.225 281.914C365.225 281.069 365.135 280.355 364.956 279.771C364.78 279.185 364.527 278.741 364.195 278.439C363.867 278.134 363.476 277.982 363.022 277.982C362.336 277.982 361.798 278.32 361.406 278.996C361.015 279.672 360.818 280.645 360.815 281.914C360.815 282.763 360.903 283.48 361.078 284.067C361.257 284.65 361.511 285.093 361.839 285.394C362.167 285.692 362.561 285.842 363.022 285.842ZM372.059 287.169C371.274 287.166 370.603 286.959 370.046 286.548C369.489 286.137 369.063 285.538 368.768 284.753C368.473 283.967 368.326 283.021 368.326 281.914C368.326 280.81 368.473 279.867 368.768 279.085C369.066 278.303 369.494 277.706 370.051 277.295C370.611 276.884 371.28 276.679 372.059 276.679C372.838 276.679 373.506 276.886 374.063 277.3C374.62 277.711 375.046 278.308 375.341 279.09C375.639 279.869 375.788 280.81 375.788 281.914C375.788 283.024 375.641 283.972 375.346 284.758C375.051 285.54 374.625 286.138 374.068 286.553C373.511 286.964 372.842 287.169 372.059 287.169ZM372.059 285.842C372.749 285.842 373.287 285.505 373.675 284.832C374.066 284.16 374.262 283.187 374.262 281.914C374.262 281.069 374.172 280.355 373.993 279.771C373.818 279.185 373.564 278.741 373.233 278.439C372.904 278.134 372.513 277.982 372.059 277.982C371.373 277.982 370.835 278.32 370.444 278.996C370.052 279.672 369.855 280.645 369.852 281.914C369.852 282.763 369.94 283.48 370.115 284.067C370.294 284.65 370.548 285.093 370.876 285.394C371.204 285.692 371.599 285.842 372.059 285.842Z" fill="#DFDEE2"/>
<rect opacity="0.6" x="323" y="308" width="176" height="1" stroke="url(#paint11_linear_5711_60804)" stroke-width="0.859823" stroke-dasharray="3.44 5.16"/>
<rect opacity="0.6" x="323" y="337" width="176" height="1" stroke="url(#paint12_linear_5711_60804)" stroke-width="0.859823" stroke-dasharray="3.44 5.16"/>
<rect opacity="0.6" x="323" y="366" width="176" height="1" stroke="url(#paint13_linear_5711_60804)" stroke-width="0.859823" stroke-dasharray="3.44 5.16"/>
<rect opacity="0.6" x="323" y="395" width="176" height="1" stroke="url(#paint14_linear_5711_60804)" stroke-width="0.859823" stroke-dasharray="3.44 5.16"/>
<rect x="330" y="364.896" width="6" height="30.7704" rx="3" fill="url(#paint15_linear_5711_60804)"/>
<rect x="323" y="373.604" width="6" height="22.0618" rx="3" fill="url(#paint16_linear_5711_60804)"/>
<rect x="411" y="325.416" width="6" height="70.2494" rx="3" fill="url(#paint17_linear_5711_60804)"/>
<rect x="404" y="345.155" width="6" height="50.5099" rx="3" fill="url(#paint18_linear_5711_60804)"/>
<rect x="357" y="338.189" width="6" height="57.4768" rx="3" fill="url(#paint19_linear_5711_60804)"/>
<rect x="350" y="354.445" width="6" height="41.2207" rx="3" fill="url(#paint20_linear_5711_60804)"/>
<rect x="438" y="373.604" width="6" height="22.0618" rx="3" fill="url(#paint21_linear_5711_60804)"/>
<rect x="431" y="379.7" width="6" height="15.9658" rx="3" fill="url(#paint22_linear_5711_60804)"/>
<rect x="384" y="308" width="6" height="87.6667" rx="3" fill="url(#paint23_linear_5711_60804)"/>
<rect x="377" y="332.673" width="6" height="62.9923" rx="3" fill="url(#paint24_linear_5711_60804)"/>
<rect x="465" y="310.321" width="6" height="85.3444" rx="3" fill="url(#paint25_linear_5711_60804)"/>
<rect x="458" y="334.414" width="6" height="61.2506" rx="3" fill="url(#paint26_linear_5711_60804)"/>
<rect x="492" y="335.576" width="6" height="60.0894" rx="3" fill="url(#paint27_linear_5711_60804)"/>
<rect x="485" y="352.413" width="6" height="43.2528" rx="3" fill="url(#paint28_linear_5711_60804)"/>
<g filter="url(#filter2_d_5711_60804)">
<rect y="325" width="204" height="48" rx="24" fill="#111112"/>
<rect y="325" width="204" height="48" rx="24" fill="url(#paint29_linear_5711_60804)" fill-opacity="0.2"/>
<rect x="0.5" y="325.5" width="203" height="47" rx="23.5" stroke="#7A57F1" stroke-opacity="0.2"/>
<path opacity="0.4" d="M34 349C34 354.523 29.5228 359 24 359C18.4772 359 14 354.523 14 349C14 343.477 18.4772 339 24 339C29.5228 339 34 343.477 34 349Z" fill="url(#paint30_linear_5711_60804)"/>
<path fill-rule="evenodd" clip-rule="evenodd" d="M28.4605 345.408C28.7874 345.662 28.8463 346.134 28.592 346.46L24.585 351.612C23.9613 352.414 22.7881 352.518 22.033 351.839L19.4983 349.558C19.1904 349.28 19.1654 348.806 19.4425 348.498C19.7196 348.19 20.1938 348.165 20.5017 348.443L23.0364 350.724C23.1443 350.821 23.3119 350.806 23.401 350.691L27.408 345.54C27.6623 345.213 28.1335 345.154 28.4605 345.408Z" fill="url(#paint31_linear_5711_60804)"/>
<path d="M50.202 354L48.116 350.08H46.884V354H45.19V344.074H48.998C50.916 344.074 52.106 345.404 52.106 347.084C52.106 348.498 51.252 349.576 49.866 349.912L52.106 354H50.202ZM46.884 348.596H48.69C49.726 348.596 50.398 347.994 50.398 347.084C50.398 346.16 49.726 345.558 48.69 345.558H46.884V348.596ZM60.591 354H54.459V344.074H60.591V345.642H56.139V348.274H60.171V349.8H56.139V352.432H60.591V354ZM66.7368 351.802L69.5228 344.074H71.3008L67.5488 354H65.8408L62.1448 344.074H63.9648L66.7368 351.802ZM79.3204 354H73.1884V344.074H79.3204V345.642H74.8684V348.274H78.9004V349.8H74.8684V352.432H79.3204V354ZM90.2268 354H88.4768L83.5768 346.482V354H81.8968V344.074H84.0388L88.5468 351.116V344.074H90.2268V354ZM96.7459 354.21C94.6739 354.21 93.0499 352.936 93.0499 350.542V344.074H94.7159V350.444C94.7159 351.844 95.4859 352.614 96.7459 352.614C98.0199 352.614 98.7759 351.844 98.7759 350.444V344.074H100.456V350.542C100.456 352.936 98.8319 354.21 96.7459 354.21ZM109.411 354H103.279V344.074H109.411V345.642H104.959V348.274H108.991V349.8H104.959V352.432H109.411V354ZM117.728 354H116.02V344.074H117.728V354ZM128.998 354H127.248L122.348 346.482V354H120.668V344.074H122.81L127.318 351.116V344.074H128.998V354ZM136.343 354.21C133.669 354.21 131.331 352.278 131.331 349.044C131.331 345.81 133.753 343.864 136.329 343.864C138.849 343.864 140.347 345.348 140.795 347.084L139.213 347.616C138.919 346.412 137.995 345.446 136.329 345.446C134.691 345.446 133.053 346.636 133.053 349.044C133.053 351.368 134.649 352.6 136.343 352.6C138.009 352.6 138.961 351.536 139.297 350.416L140.837 350.92C140.389 352.6 138.877 354.21 136.343 354.21ZM148.114 354L146.028 350.08H144.796V354H143.102V344.074H146.91C148.828 344.074 150.018 345.404 150.018 347.084C150.018 348.498 149.164 349.576 147.778 349.912L150.018 354H148.114ZM144.796 348.596H146.602C147.638 348.596 148.31 347.994 148.31 347.084C148.31 346.16 147.638 345.558 146.602 345.558H144.796V348.596ZM158.503 354H152.371V344.074H158.503V345.642H154.051V348.274H158.083V349.8H154.051V352.432H158.503V354ZM167.869 354L166.931 351.508H162.731L161.807 354H160.029L163.893 344.074H165.839L169.703 354H167.869ZM164.831 345.894L163.319 349.954H166.343L164.831 345.894ZM178.021 346.398L176.509 346.874C176.411 346.258 175.893 345.348 174.563 345.348C173.555 345.348 172.855 346.02 172.855 346.776C172.855 347.406 173.247 347.882 174.017 348.05L175.445 348.344C177.195 348.694 178.133 349.8 178.133 351.2C178.133 352.74 176.887 354.21 174.619 354.21C172.099 354.21 170.937 352.586 170.783 351.158L172.351 350.71C172.449 351.746 173.191 352.698 174.619 352.698C175.809 352.698 176.425 352.096 176.425 351.326C176.425 350.682 175.949 350.164 175.095 349.982L173.695 349.688C172.183 349.38 171.175 348.386 171.175 346.902C171.175 345.236 172.701 343.864 174.549 343.864C176.887 343.864 177.797 345.292 178.021 346.398ZM186.57 354H180.438V344.074H186.57V345.642H182.118V348.274H186.15V349.8H182.118V352.432H186.57V354Z" fill="url(#paint32_linear_5711_60804)"/>
</g>
<g filter="url(#filter3_d_5711_60804)">
<rect x="342" y="166" width="253" height="48" rx="24" fill="#111112"/>
<rect x="342" y="166" width="253" height="48" rx="24" fill="url(#paint33_linear_5711_60804)" fill-opacity="0.2"/>
<rect x="342.5" y="166.5" width="252" height="47" rx="23.5" stroke="#7A57F1" stroke-opacity="0.2"/>
<circle opacity="0.4" cx="366" cy="190" r="10" fill="url(#paint34_linear_5711_60804)"/>
<path d="M371 188C371 188.552 370.552 189 370 189C369.448 189 369 188.552 369 188C369 187.448 369.448 187 370 187C370.552 187 371 187.448 371 188Z" fill="url(#paint35_linear_5711_60804)"/>
<path d="M363 188C363 188.552 362.552 189 362 189C361.448 189 361 188.552 361 188C361 187.448 361.448 187 362 187C362.552 187 363 187.448 363 188Z" fill="url(#paint36_linear_5711_60804)"/>
<path fill-rule="evenodd" clip-rule="evenodd" d="M363.495 192.436C363.185 192.164 362.714 192.193 362.439 192.502C362.164 192.811 362.192 193.285 362.502 193.561L363 193C362.502 193.561 362.501 193.56 362.502 193.561L362.503 193.561L362.504 193.562L362.506 193.565L362.512 193.57L362.53 193.585C362.544 193.597 362.563 193.612 362.586 193.63C362.632 193.667 362.695 193.715 362.777 193.772C362.939 193.885 363.172 194.031 363.47 194.175C364.065 194.464 364.927 194.75 366 194.75C367.073 194.75 367.935 194.464 368.53 194.175C368.828 194.031 369.061 193.885 369.223 193.772C369.305 193.715 369.369 193.667 369.414 193.63C369.437 193.612 369.456 193.597 369.47 193.585L369.488 193.57L369.494 193.565L369.496 193.562L369.497 193.561C369.498 193.561 369.498 193.561 369 193L369.498 193.561C369.808 193.285 369.836 192.811 369.561 192.502C369.286 192.193 368.815 192.164 368.505 192.436L368.505 192.437C368.501 192.44 368.493 192.447 368.482 192.456C368.459 192.474 368.42 192.503 368.367 192.541C368.259 192.615 368.094 192.719 367.876 192.825C367.44 193.037 366.802 193.25 366 193.25C365.198 193.25 364.56 193.037 364.124 192.825C363.906 192.719 363.741 192.615 363.633 192.541C363.58 192.503 363.541 192.474 363.518 192.456C363.507 192.447 363.5 192.44 363.496 192.438C363.495 192.437 363.495 192.436 363.495 192.436C363.495 192.436 363.495 192.436 363.495 192.436ZM368.505 192.436L368.505 192.437L368.503 192.438L368.503 192.439C368.504 192.438 368.504 192.437 368.505 192.436Z" fill="url(#paint37_linear_5711_60804)"/>
<path d="M391.6 195.21C388.926 195.21 386.588 193.278 386.588 190.044C386.588 186.81 389.01 184.864 391.586 184.864C394.106 184.864 395.604 186.348 396.052 188.084L394.47 188.616C394.176 187.412 393.252 186.446 391.586 186.446C389.948 186.446 388.31 187.636 388.31 190.044C388.31 192.368 389.906 193.6 391.6 193.6C393.266 193.6 394.218 192.536 394.554 191.416L396.094 191.92C395.646 193.6 394.134 195.21 391.6 195.21ZM401.902 195.21C399.83 195.21 398.206 193.936 398.206 191.542V185.074H399.872V191.444C399.872 192.844 400.642 193.614 401.902 193.614C403.176 193.614 403.932 192.844 403.932 191.444V185.074H405.612V191.542C405.612 193.936 403.988 195.21 401.902 195.21ZM414.959 187.398L413.447 187.874C413.349 187.258 412.831 186.348 411.501 186.348C410.493 186.348 409.793 187.02 409.793 187.776C409.793 188.406 410.185 188.882 410.955 189.05L412.383 189.344C414.133 189.694 415.071 190.8 415.071 192.2C415.071 193.74 413.825 195.21 411.557 195.21C409.037 195.21 407.875 193.586 407.721 192.158L409.289 191.71C409.387 192.746 410.129 193.698 411.557 193.698C412.747 193.698 413.363 193.096 413.363 192.326C413.363 191.682 412.887 191.164 412.033 190.982L410.633 190.688C409.121 190.38 408.113 189.386 408.113 187.902C408.113 186.236 409.639 184.864 411.487 184.864C413.825 184.864 414.735 186.292 414.959 187.398ZM424.461 186.656H421.227V195H419.547V186.656H416.327V185.074H424.461V186.656ZM427.204 190.03C427.204 192.424 428.856 193.614 430.522 193.614C432.202 193.614 433.854 192.424 433.854 190.03C433.854 187.636 432.202 186.446 430.522 186.446C428.856 186.446 427.204 187.636 427.204 190.03ZM425.482 190.03C425.482 186.782 427.918 184.864 430.522 184.864C433.126 184.864 435.576 186.782 435.576 190.03C435.576 193.292 433.126 195.21 430.522 195.21C427.918 195.21 425.482 193.292 425.482 190.03ZM448.83 195H447.164V187.692L444.07 195H442.614L439.548 187.72V195H437.91V185.074H440.15L443.37 192.648L446.548 185.074H448.83V195ZM457.905 195H451.773V185.074H457.905V186.642H453.453V189.274H457.485V190.8H453.453V193.432H457.905V195ZM465.493 195L463.407 191.08H462.175V195H460.481V185.074H464.289C466.207 185.074 467.397 186.404 467.397 188.084C467.397 189.498 466.543 190.576 465.157 190.912L467.397 195H465.493ZM462.175 189.596H463.981C465.017 189.596 465.689 188.994 465.689 188.084C465.689 187.16 465.017 186.558 463.981 186.558H462.175V189.596ZM480.307 187.398L478.795 187.874C478.697 187.258 478.179 186.348 476.849 186.348C475.841 186.348 475.141 187.02 475.141 187.776C475.141 188.406 475.533 188.882 476.303 189.05L477.731 189.344C479.481 189.694 480.419 190.8 480.419 192.2C480.419 193.74 479.173 195.21 476.905 195.21C474.385 195.21 473.223 193.586 473.069 192.158L474.637 191.71C474.735 192.746 475.477 193.698 476.905 193.698C478.095 193.698 478.711 193.096 478.711 192.326C478.711 191.682 478.235 191.164 477.381 190.982L475.981 190.688C474.469 190.38 473.461 189.386 473.461 187.902C473.461 186.236 474.987 184.864 476.835 184.864C479.173 184.864 480.083 186.292 480.307 187.398ZM489.377 195L488.439 192.508H484.239L483.315 195H481.537L485.401 185.074H487.347L491.211 195H489.377ZM486.339 186.894L484.827 190.954H487.851L486.339 186.894ZM499.31 186.656H496.076V195H494.396V186.656H491.176V185.074H499.31V186.656ZM502.956 195H501.248V185.074H502.956V195ZM512.42 187.398L510.908 187.874C510.81 187.258 510.292 186.348 508.962 186.348C507.954 186.348 507.254 187.02 507.254 187.776C507.254 188.406 507.646 188.882 508.416 189.05L509.844 189.344C511.594 189.694 512.532 190.8 512.532 192.2C512.532 193.74 511.286 195.21 509.018 195.21C506.498 195.21 505.336 193.586 505.182 192.158L506.75 191.71C506.848 192.746 507.59 193.698 509.018 193.698C510.208 193.698 510.824 193.096 510.824 192.326C510.824 191.682 510.348 191.164 509.494 190.982L508.094 190.688C506.582 190.38 505.574 189.386 505.574 187.902C505.574 186.236 507.1 184.864 508.948 184.864C511.286 184.864 512.196 186.292 512.42 187.398ZM516.517 195H514.837V185.074H521.011V186.656H516.517V189.442H520.549V190.996H516.517V195ZM529.282 195L528.344 192.508H524.144L523.22 195H521.442L525.306 185.074H527.252L531.116 195H529.282ZM526.244 186.894L524.732 190.954H527.756L526.244 186.894ZM536.992 195.21C534.318 195.21 531.98 193.278 531.98 190.044C531.98 186.81 534.402 184.864 536.978 184.864C539.498 184.864 540.996 186.348 541.444 188.084L539.862 188.616C539.568 187.412 538.644 186.446 536.978 186.446C535.34 186.446 533.702 187.636 533.702 190.044C533.702 192.368 535.298 193.6 536.992 193.6C538.658 193.6 539.61 192.536 539.946 191.416L541.486 191.92C541.038 193.6 539.526 195.21 536.992 195.21ZM550.781 186.656H547.547V195H545.867V186.656H542.647V185.074H550.781V186.656ZM554.427 195H552.719V185.074H554.427V195ZM558.487 190.03C558.487 192.424 560.139 193.614 561.805 193.614C563.485 193.614 565.137 192.424 565.137 190.03C565.137 187.636 563.485 186.446 561.805 186.446C560.139 186.446 558.487 187.636 558.487 190.03ZM556.765 190.03C556.765 186.782 559.201 184.864 561.805 184.864C564.409 184.864 566.859 186.782 566.859 190.03C566.859 193.292 564.409 195.21 561.805 195.21C559.201 195.21 556.765 193.292 556.765 190.03ZM577.523 195H575.773L570.873 187.482V195H569.193V185.074H571.335L575.843 192.116V185.074H577.523V195Z" fill="url(#paint38_linear_5711_60804)"/>
</g>
</g>
<defs>
<filter id="filter0_b_5711_60804" x="50.4857" y="217.486" width="264.029" height="226.029" filterUnits="userSpaceOnUse" color-interpolation-filters="sRGB">
<feFlood flood-opacity="0" result="BackgroundImageFix"/>
<feGaussianBlur in="BackgroundImageFix" stdDeviation="13.7572"/>
<feComposite in2="SourceAlpha" operator="in" result="effect1_backgroundBlur_5711_60804"/>
<feBlend mode="normal" in="SourceGraphic" in2="effect1_backgroundBlur_5711_60804" result="shape"/>
</filter>
<filter id="filter1_b_5711_60804" x="275.486" y="220.486" width="270.029" height="226.029" filterUnits="userSpaceOnUse" color-interpolation-filters="sRGB">
<feFlood flood-opacity="0" result="BackgroundImageFix"/>
<feGaussianBlur in="BackgroundImageFix" stdDeviation="13.7572"/>
<feComposite in2="SourceAlpha" operator="in" result="effect1_backgroundBlur_5711_60804"/>
<feBlend mode="normal" in="SourceGraphic" in2="effect1_backgroundBlur_5711_60804" result="shape"/>
</filter>
<filter id="filter2_d_5711_60804" x="-69.3333" y="257" width="342.667" height="186.667" filterUnits="userSpaceOnUse" color-interpolation-filters="sRGB">
<feFlood flood-opacity="0" result="BackgroundImageFix"/>
<feColorMatrix in="SourceAlpha" type="matrix" values="0 0 0 0 0 0 0 0 0 0 0 0 0 0 0 0 0 0 127 0" result="hardAlpha"/>
<feMorphology radius="5.33333" operator="dilate" in="SourceAlpha" result="effect1_dropShadow_5711_60804"/>
<feOffset dy="1.33333"/>
<feGaussianBlur stdDeviation="32"/>
<feComposite in2="hardAlpha" operator="out"/>
<feColorMatrix type="matrix" values="0 0 0 0 0.572549 0 0 0 0 0.505882 0 0 0 0 0.937255 0 0 0 0.08 0"/>
<feBlend mode="normal" in2="BackgroundImageFix" result="effect1_dropShadow_5711_60804"/>
<feBlend mode="normal" in="SourceGraphic" in2="effect1_dropShadow_5711_60804" result="shape"/>
</filter>
<filter id="filter3_d_5711_60804" x="272.667" y="98" width="391.667" height="186.667" filterUnits="userSpaceOnUse" color-interpolation-filters="sRGB">
<feFlood flood-opacity="0" result="BackgroundImageFix"/>
<feColorMatrix in="SourceAlpha" type="matrix" values="0 0 0 0 0 0 0 0 0 0 0 0 0 0 0 0 0 0 127 0" result="hardAlpha"/>
<feMorphology radius="5.33333" operator="dilate" in="SourceAlpha" result="effect1_dropShadow_5711_60804"/>
<feOffset dy="1.33333"/>
<feGaussianBlur stdDeviation="32"/>
<feComposite in2="hardAlpha" operator="out"/>
<feColorMatrix type="matrix" values="0 0 0 0 0.572549 0 0 0 0 0.505882 0 0 0 0 0.937255 0 0 0 0.08 0"/>
<feBlend mode="normal" in2="BackgroundImageFix" result="effect1_dropShadow_5711_60804"/>
<feBlend mode="normal" in="SourceGraphic" in2="effect1_dropShadow_5711_60804" result="shape"/>
</filter>
<linearGradient id="paint0_linear_5711_60804" x1="271" y1="307.951" x2="94" y2="307.951" gradientUnits="userSpaceOnUse">
<stop stop-color="#322F37" stop-opacity="0"/>
<stop offset="0.197401" stop-color="#322F37"/>
<stop offset="0.8" stop-color="#322F37"/>
<stop offset="1" stop-color="#322F37" stop-opacity="0"/>
</linearGradient>
<linearGradient id="paint1_linear_5711_60804" x1="271" y1="336.951" x2="94" y2="336.951" gradientUnits="userSpaceOnUse">
<stop stop-color="#322F37" stop-opacity="0"/>
<stop offset="0.197401" stop-color="#322F37"/>
<stop offset="0.8" stop-color="#322F37"/>
<stop offset="1" stop-color="#322F37" stop-opacity="0"/>
</linearGradient>
<linearGradient id="paint2_linear_5711_60804" x1="271" y1="365.951" x2="94" y2="365.951" gradientUnits="userSpaceOnUse">
<stop stop-color="#322F37" stop-opacity="0"/>
<stop offset="0.197401" stop-color="#322F37"/>
<stop offset="0.8" stop-color="#322F37"/>
<stop offset="1" stop-color="#322F37" stop-opacity="0"/>
</linearGradient>
<linearGradient id="paint3_linear_5711_60804" x1="271" y1="394.951" x2="94" y2="394.951" gradientUnits="userSpaceOnUse">
<stop stop-color="#322F37" stop-opacity="0"/>
<stop offset="0.197401" stop-color="#322F37"/>
<stop offset="0.8" stop-color="#322F37"/>
<stop offset="1" stop-color="#322F37" stop-opacity="0"/>
</linearGradient>
<linearGradient id="paint4_linear_5711_60804" x1="818.625" y1="281.702" x2="817.815" y2="399.395" gradientUnits="userSpaceOnUse">
<stop stop-color="#7C6A8F"/>
<stop offset="1" stop-color="#5C5068" stop-opacity="0"/>
</linearGradient>
<linearGradient id="paint5_linear_5711_60804" x1="818.625" y1="281.702" x2="817.815" y2="399.395" gradientUnits="userSpaceOnUse">
<stop stop-color="#7C6A8F"/>
<stop offset="1" stop-color="#5C5068"/>
</linearGradient>
<linearGradient id="paint6_linear_5711_60804" x1="107.625" y1="176.844" x2="386.404" y2="154.371" gradientUnits="userSpaceOnUse">
<stop stop-color="#E4D4F5"/>
<stop offset="1" stop-color="white" stop-opacity="0"/>
</linearGradient>
<linearGradient id="paint7_linear_5711_60804" x1="101.375" y1="200.844" x2="321.878" y2="186.819" gradientUnits="userSpaceOnUse">
<stop stop-color="#E4D4F5"/>
<stop offset="1" stop-color="white" stop-opacity="0"/>
</linearGradient>
<linearGradient id="paint8_linear_5711_60804" x1="59.9609" y1="123.502" x2="83.7633" y2="104.274" gradientUnits="userSpaceOnUse">
<stop stop-color="#838486" stop-opacity="0.1"/>
<stop offset="1" stop-color="#838486" stop-opacity="0.06"/>
</linearGradient>
<linearGradient id="paint9_linear_5711_60804" x1="78.5781" y1="123.502" x2="102.381" y2="104.274" gradientUnits="userSpaceOnUse">
<stop stop-color="#838486" stop-opacity="0.1"/>
<stop offset="1" stop-color="#838486" stop-opacity="0.06"/>
</linearGradient>
<linearGradient id="paint10_linear_5711_60804" x1="97.1953" y1="123.502" x2="120.998" y2="104.274" gradientUnits="userSpaceOnUse">
<stop stop-color="#838486" stop-opacity="0.1"/>
<stop offset="1" stop-color="#838486" stop-opacity="0.06"/>
</linearGradient>
<linearGradient id="paint11_linear_5711_60804" x1="499" y1="307.951" x2="323" y2="307.951" gradientUnits="userSpaceOnUse">
<stop stop-color="#322F37" stop-opacity="0"/>
<stop offset="0.197401" stop-color="#322F37"/>
<stop offset="0.8" stop-color="#322F37"/>
<stop offset="1" stop-color="#322F37" stop-opacity="0"/>
</linearGradient>
<linearGradient id="paint12_linear_5711_60804" x1="499" y1="336.951" x2="323" y2="336.951" gradientUnits="userSpaceOnUse">
<stop stop-color="#322F37" stop-opacity="0"/>
<stop offset="0.197401" stop-color="#322F37"/>
<stop offset="0.8" stop-color="#322F37"/>
<stop offset="1" stop-color="#322F37" stop-opacity="0"/>
</linearGradient>
<linearGradient id="paint13_linear_5711_60804" x1="499" y1="365.951" x2="323" y2="365.951" gradientUnits="userSpaceOnUse">
<stop stop-color="#322F37" stop-opacity="0"/>
<stop offset="0.197401" stop-color="#322F37"/>
<stop offset="0.8" stop-color="#322F37"/>
<stop offset="1" stop-color="#322F37" stop-opacity="0"/>
</linearGradient>
<linearGradient id="paint14_linear_5711_60804" x1="499" y1="394.951" x2="323" y2="394.951" gradientUnits="userSpaceOnUse">
<stop stop-color="#322F37" stop-opacity="0"/>
<stop offset="0.197401" stop-color="#322F37"/>
<stop offset="0.8" stop-color="#322F37"/>
<stop offset="1" stop-color="#322F37" stop-opacity="0"/>
</linearGradient>
<linearGradient id="paint15_linear_5711_60804" x1="355.5" y1="355.594" x2="352.634" y2="397.024" gradientUnits="userSpaceOnUse">
<stop stop-color="#7C6A8F"/>
<stop offset="1" stop-color="#5C5068"/>
</linearGradient>
<linearGradient id="paint16_linear_5711_60804" x1="348.5" y1="366.935" x2="347.023" y2="396.709" gradientUnits="userSpaceOnUse">
<stop stop-color="#3F3A44"/>
<stop offset="1" stop-color="#39343E"/>
</linearGradient>
<linearGradient id="paint17_linear_5711_60804" x1="436.5" y1="304.181" x2="421.856" y2="396.907" gradientUnits="userSpaceOnUse">
<stop stop-color="#7C6A8F"/>
<stop offset="1" stop-color="#5C5068"/>
</linearGradient>
<linearGradient id="paint18_linear_5711_60804" x1="429.5" y1="329.887" x2="421.84" y2="397.35" gradientUnits="userSpaceOnUse">
<stop stop-color="#3F3A44"/>
<stop offset="1" stop-color="#39343E"/>
</linearGradient>
<linearGradient id="paint19_linear_5711_60804" x1="382.5" y1="320.815" x2="372.618" y2="397.296" gradientUnits="userSpaceOnUse">
<stop stop-color="#7C6A8F"/>
<stop offset="1" stop-color="#5C5068"/>
</linearGradient>
<linearGradient id="paint20_linear_5711_60804" x1="375.5" y1="341.984" x2="370.376" y2="397.276" gradientUnits="userSpaceOnUse">
<stop stop-color="#3F3A44"/>
<stop offset="1" stop-color="#39343E"/>
</linearGradient>
<linearGradient id="paint21_linear_5711_60804" x1="463.5" y1="366.935" x2="462.023" y2="396.708" gradientUnits="userSpaceOnUse">
<stop stop-color="#7C6A8F"/>
<stop offset="1" stop-color="#5C5068"/>
</linearGradient>
<linearGradient id="paint22_linear_5711_60804" x1="456.5" y1="374.874" x2="455.726" y2="396.446" gradientUnits="userSpaceOnUse">
<stop stop-color="#3F3A44"/>
<stop offset="1" stop-color="#39343E"/>
</linearGradient>
<linearGradient id="paint23_linear_5711_60804" x1="409.5" y1="281.5" x2="387" y2="395.667" gradientUnits="userSpaceOnUse">
<stop stop-color="#7C6A8F"/>
<stop offset="1" stop-color="#5C5068"/>
</linearGradient>
<linearGradient id="paint24_linear_5711_60804" x1="402.5" y1="313.632" x2="390.669" y2="397.176" gradientUnits="userSpaceOnUse">
<stop stop-color="#3F3A44"/>
<stop offset="1" stop-color="#39343E"/>
</linearGradient>
<linearGradient id="paint25_linear_5711_60804" x1="490.5" y1="284.523" x2="469.135" y2="395.883" gradientUnits="userSpaceOnUse">
<stop stop-color="#7C6A8F"/>
<stop offset="1" stop-color="#5C5068"/>
</linearGradient>
<linearGradient id="paint26_linear_5711_60804" x1="483.5" y1="315.9" x2="472.302" y2="397.221" gradientUnits="userSpaceOnUse">
<stop stop-color="#3F3A44"/>
<stop offset="1" stop-color="#39343E"/>
</linearGradient>
<linearGradient id="paint27_linear_5711_60804" x1="517.5" y1="317.412" x2="506.715" y2="397.248" gradientUnits="userSpaceOnUse">
<stop stop-color="#7C6A8F"/>
<stop offset="1" stop-color="#5C5068"/>
</linearGradient>
<linearGradient id="paint28_linear_5711_60804" x1="510.5" y1="339.338" x2="504.864" y2="397.305" gradientUnits="userSpaceOnUse">
<stop stop-color="#3F3A44"/>
<stop offset="1" stop-color="#39343E"/>
</linearGradient>
<linearGradient id="paint29_linear_5711_60804" x1="20" y1="368.5" x2="72.4185" y2="260.226" gradientUnits="userSpaceOnUse">
<stop stop-color="#7A57F1" stop-opacity="0.61"/>
<stop offset="1" stop-color="#7A57F1" stop-opacity="0"/>
</linearGradient>
<linearGradient id="paint30_linear_5711_60804" x1="31.4942" y1="355.4" x2="17.9384" y2="344.776" gradientUnits="userSpaceOnUse">
<stop stop-color="#6A50FF"/>
<stop offset="1" stop-color="#A897FF"/>
</linearGradient>
<linearGradient id="paint31_linear_5711_60804" x1="27.5598" y1="351.021" x2="22.6549" y2="345.832" gradientUnits="userSpaceOnUse">
<stop stop-color="#6A50FF"/>
<stop offset="1" stop-color="#A897FF"/>
</linearGradient>
<linearGradient id="paint32_linear_5711_60804" x1="169.959" y1="356.68" x2="163.142" y2="324.625" gradientUnits="userSpaceOnUse">
<stop stop-color="#6A50FF"/>
<stop offset="1" stop-color="#A897FF"/>
</linearGradient>
<linearGradient id="paint33_linear_5711_60804" x1="366.804" y1="209.5" x2="412.078" y2="93.5221" gradientUnits="userSpaceOnUse">
<stop stop-color="#7A57F1" stop-opacity="0.61"/>
<stop offset="1" stop-color="#7A57F1" stop-opacity="0"/>
</linearGradient>
<linearGradient id="paint34_linear_5711_60804" x1="373.494" y1="196.4" x2="359.938" y2="185.776" gradientUnits="userSpaceOnUse">
<stop stop-color="#6A50FF"/>
<stop offset="1" stop-color="#A897FF"/>
</linearGradient>
<linearGradient id="paint35_linear_5711_60804" x1="370.749" y1="188.64" x2="369.394" y2="187.578" gradientUnits="userSpaceOnUse">
<stop stop-color="#6A50FF"/>
<stop offset="1" stop-color="#A897FF"/>
</linearGradient>
<linearGradient id="paint36_linear_5711_60804" x1="362.749" y1="188.64" x2="361.394" y2="187.578" gradientUnits="userSpaceOnUse">
<stop stop-color="#6A50FF"/>
<stop offset="1" stop-color="#A897FF"/>
</linearGradient>
<linearGradient id="paint37_linear_5711_60804" x1="368.81" y1="194.3" x2="367.553" y2="191.345" gradientUnits="userSpaceOnUse">
<stop stop-color="#6A50FF"/>
<stop offset="1" stop-color="#A897FF"/>
</linearGradient>
<linearGradient id="paint38_linear_5711_60804" x1="554.819" y1="197.68" x2="549.634" y2="164.998" gradientUnits="userSpaceOnUse">
<stop stop-color="#6A50FF"/>
<stop offset="1" stop-color="#A897FF"/>
</linearGradient>
<clipPath id="clip0_5711_60804">
<rect width="595" height="537" fill="white"/>
</clipPath>
</defs>
</svg>
