<svg width="595" height="537" viewBox="0 0 595 537" fill="none" xmlns="http://www.w3.org/2000/svg">
<g clip-path="url(#clip0_5711_61327)">
<rect x="72.4526" y="62.4526" width="450.095" height="361.095" rx="11.5474" fill="#1B1A1D" stroke="#222024" stroke-width="0.905229"/>
<circle opacity="0.4" cx="88.7473" cy="79.2092" r="5.43137" fill="url(#paint0_linear_5711_61327)"/>
<circle opacity="0.4" cx="103.231" cy="79.2092" r="5.43137" fill="url(#paint1_linear_5711_61327)"/>
<circle opacity="0.4" cx="117.715" cy="79.2092" r="5.43137" fill="url(#paint2_linear_5711_61327)"/>
<rect x="48.4526" y="96.4526" width="498.095" height="361.095" rx="11.5474" fill="#1D1C20" stroke="#2A272B" stroke-width="0.905229"/>
<ellipse opacity="0.4" cx="65.0837" cy="112.082" rx="5.7058" ry="5.43137" fill="url(#paint3_linear_5711_61327)"/>
<ellipse opacity="0.4" cx="80.2961" cy="112.082" rx="5.7058" ry="5.43137" fill="url(#paint4_linear_5711_61327)"/>
<ellipse opacity="0.4" cx="95.5129" cy="112.082" rx="5.7058" ry="5.43137" fill="url(#paint5_linear_5711_61327)"/>
<rect x="24.4526" y="132.453" width="546.095" height="361.095" rx="11.5474" fill="#211F24" stroke="#28262A" stroke-width="0.905229"/>
<circle opacity="0.6" cx="39.7746" cy="148.049" r="5.43137" fill="url(#paint6_linear_5711_61327)"/>
<circle opacity="0.6" cx="54.258" cy="148.049" r="5.43137" fill="url(#paint7_linear_5711_61327)"/>
<circle opacity="0.6" cx="68.7419" cy="148.049" r="5.43137" fill="url(#paint8_linear_5711_61327)"/>
<g opacity="0.5">
<rect x="290.523" y="196.931" width="221.781" height="217.255" rx="14.4837" fill="#222027"/>
<rect x="290.976" y="197.384" width="220.876" height="216.35" rx="14.031" stroke="white" stroke-opacity="0.4" stroke-width="0.905229" style="mix-blend-mode:soft-light"/>
</g>
<g opacity="0.5">
<g filter="url(#filter0_b_5711_61327)">
<path d="M59.6909 345.389C59.6909 343.389 61.3121 341.768 63.3118 341.768H159.266C161.266 341.768 162.887 343.389 162.887 345.389V374.356C162.887 376.356 161.266 377.977 159.266 377.977H63.3118C61.3121 377.977 59.6909 376.356 59.6909 374.356V345.389Z" fill="#635D79" fill-opacity="0.12"/>
</g>
<rect x="77.7954" y="354.441" width="66.9869" height="10.8627" rx="5.43137" fill="url(#paint9_linear_5711_61327)"/>
</g>
<rect x="59.6895" y="262.108" width="223.592" height="14.4837" rx="7.24183" fill="url(#paint10_linear_5711_61327)" fill-opacity="0.08"/>
<rect x="59.6895" y="233.141" width="223.592" height="14.4837" rx="7.24183" fill="url(#paint11_linear_5711_61327)" fill-opacity="0.08"/>
<rect opacity="0.3" x="59.6895" y="291.075" width="186.477" height="14.4837" rx="7.24183" fill="url(#paint12_linear_5711_61327)" fill-opacity="0.08"/>
<rect y="172" width="595" height="420" rx="12" fill="#111112"/>
<rect y="172" width="595" height="420" rx="12" fill="url(#paint13_linear_5711_61327)" fill-opacity="0.2"/>
<rect x="0.5" y="172.5" width="594" height="419" rx="11.5" stroke="#7A57F1" stroke-opacity="0.2"/>
<rect x="56" y="418.627" width="103.196" height="36.2092" rx="3.62091" fill="url(#paint14_linear_5711_61327)" fill-opacity="0.12"/>
<rect x="74.1045" y="431.301" width="66.9869" height="10.8627" rx="5.43137" fill="url(#paint15_linear_5711_61327)" fill-opacity="0.12"/>
<rect x="56" y="339" width="232" height="14" rx="7" fill="url(#paint16_linear_5711_61327)" fill-opacity="0.12"/>
<rect x="56" y="310" width="232" height="14" rx="7" fill="url(#paint17_linear_5711_61327)" fill-opacity="0.12"/>
<rect x="56.0039" y="367.935" width="186.477" height="14.4837" rx="7.24183" fill="url(#paint18_linear_5711_61327)" fill-opacity="0.12"/>
<rect x="351" y="284" width="188" height="189" rx="10.4762" fill="#655C86" fill-opacity="0.12"/>
<rect x="367" y="441" width="114" height="8" rx="4" fill="url(#paint19_linear_5711_61327)" fill-opacity="0.12"/>
<rect x="367" y="425" width="148" height="8" rx="4" fill="url(#paint20_linear_5711_61327)" fill-opacity="0.12"/>
<path d="M352 296C352 289.925 356.925 285 363 285H527C533.075 285 538 289.925 538 296V405H352V296Z" fill="url(#paint21_linear_5711_61327)" fill-opacity="0.05"/>
<g filter="url(#filter1_d_5711_61327)">
<rect x="440" y="196" width="131" height="36" rx="18" fill="#111112"/>
<rect x="440" y="196" width="131" height="36" rx="18" fill="url(#paint22_linear_5711_61327)" fill-opacity="0.2"/>
<rect x="440.5" y="196.5" width="130" height="35" rx="17.5" stroke="#7A57F1" stroke-opacity="0.2"/>
<path fill-rule="evenodd" clip-rule="evenodd" d="M466.166 212.417V207.667C466.166 206.562 465.271 205.667 464.166 205.667H459.833C458.728 205.667 457.833 206.562 457.833 207.667V212.417C458.892 211.337 460.367 210.667 462 210.667C463.632 210.667 465.108 211.337 466.166 212.417Z" fill="url(#paint23_linear_5711_61327)"/>
<circle opacity="0.4" cx="462" cy="216.5" r="5.83333" fill="url(#paint24_linear_5711_61327)"/>
<path fill-rule="evenodd" clip-rule="evenodd" d="M470.775 211.891C471.019 212.135 471.019 212.531 470.775 212.775L469.942 213.608C469.698 213.852 469.302 213.852 469.058 213.608C468.814 213.364 468.814 212.968 469.058 212.724L469.891 211.891C470.135 211.647 470.531 211.647 470.775 211.891Z" fill="url(#paint25_linear_5711_61327)"/>
<path fill-rule="evenodd" clip-rule="evenodd" d="M469.058 219.391C469.302 219.147 469.698 219.147 469.942 219.391L470.775 220.224C471.019 220.468 471.019 220.864 470.775 221.108C470.531 221.352 470.135 221.352 469.891 221.108L469.058 220.275C468.814 220.031 468.814 219.635 469.058 219.391Z" fill="url(#paint26_linear_5711_61327)"/>
<path fill-rule="evenodd" clip-rule="evenodd" d="M453.225 211.891C452.981 212.135 452.981 212.531 453.225 212.775L454.058 213.608C454.302 213.852 454.698 213.852 454.942 213.608C455.186 213.364 455.186 212.968 454.942 212.724L454.109 211.891C453.865 211.647 453.469 211.647 453.225 211.891Z" fill="url(#paint27_linear_5711_61327)"/>
<path fill-rule="evenodd" clip-rule="evenodd" d="M454.942 219.391C454.698 219.147 454.302 219.147 454.058 219.391L453.225 220.224C452.981 220.468 452.981 220.864 453.225 221.108C453.469 221.352 453.865 221.352 454.109 221.108L454.942 220.275C455.186 220.031 455.186 219.635 454.942 219.391Z" fill="url(#paint28_linear_5711_61327)"/>
<path fill-rule="evenodd" clip-rule="evenodd" d="M462.329 213.468C462.513 213.582 462.625 213.783 462.625 214V218.375H462.833C463.178 218.375 463.458 218.655 463.458 219C463.458 219.345 463.178 219.625 462.833 219.625H461.167C460.821 219.625 460.542 219.345 460.542 219C460.542 218.655 460.821 218.375 461.167 218.375H461.375V215.006C461.082 215.11 460.75 214.982 460.608 214.696C460.453 214.387 460.578 214.012 460.887 213.858L461.72 213.441C461.914 213.344 462.144 213.354 462.329 213.468Z" fill="url(#paint29_linear_5711_61327)"/>
<path d="M483.612 214.8L480.14 209.074H482.128L484.508 213.232L486.902 209.074H488.792L485.292 214.8V219H483.612V214.8ZM491.141 214.03C491.141 216.424 492.793 217.614 494.459 217.614C496.139 217.614 497.791 216.424 497.791 214.03C497.791 211.636 496.139 210.446 494.459 210.446C492.793 210.446 491.141 211.636 491.141 214.03ZM489.419 214.03C489.419 210.782 491.855 208.864 494.459 208.864C497.063 208.864 499.513 210.782 499.513 214.03C499.513 217.292 497.063 219.21 494.459 219.21C491.855 219.21 489.419 217.292 489.419 214.03ZM505.431 219.21C503.359 219.21 501.735 217.936 501.735 215.542V209.074H503.401V215.444C503.401 216.844 504.171 217.614 505.431 217.614C506.705 217.614 507.461 216.844 507.461 215.444V209.074H509.141V215.542C509.141 217.936 507.517 219.21 505.431 219.21ZM516.976 219L514.89 215.08H513.658V219H511.964V209.074H515.772C517.69 209.074 518.88 210.404 518.88 212.084C518.88 213.498 518.026 214.576 516.64 214.912L518.88 219H516.976ZM513.658 213.596H515.464C516.5 213.596 517.172 212.994 517.172 212.084C517.172 211.16 516.5 210.558 515.464 210.558H513.658V213.596ZM531.789 211.398L530.277 211.874C530.179 211.258 529.661 210.348 528.331 210.348C527.323 210.348 526.623 211.02 526.623 211.776C526.623 212.406 527.015 212.882 527.785 213.05L529.213 213.344C530.963 213.694 531.901 214.8 531.901 216.2C531.901 217.74 530.655 219.21 528.387 219.21C525.867 219.21 524.705 217.586 524.551 216.158L526.119 215.71C526.217 216.746 526.959 217.698 528.387 217.698C529.577 217.698 530.193 217.096 530.193 216.326C530.193 215.682 529.717 215.164 528.863 214.982L527.463 214.688C525.951 214.38 524.943 213.386 524.943 211.902C524.943 210.236 526.469 208.864 528.317 208.864C530.655 208.864 531.565 210.292 531.789 211.398ZM535.914 219H534.206V209.074H535.914V219ZM545.98 210.656H542.746V219H541.066V210.656H537.846V209.074H545.98V210.656ZM554.05 219H547.918V209.074H554.05V210.642H549.598V213.274H553.63V214.8H549.598V217.432H554.05V219Z" fill="url(#paint30_linear_5711_61327)"/>
</g>
<circle cx="16.2947" cy="188.258" r="5.43137" fill="url(#paint31_linear_5711_61327)"/>
<circle cx="30.779" cy="188.258" r="5.43137" fill="url(#paint32_linear_5711_61327)"/>
<circle cx="45.2595" cy="188.258" r="5.43137" fill="url(#paint33_linear_5711_61327)"/>
</g>
<defs>
<filter id="filter0_b_5711_61327" x="30.7236" y="312.801" width="161.131" height="94.1436" filterUnits="userSpaceOnUse" color-interpolation-filters="sRGB">
<feFlood flood-opacity="0" result="BackgroundImageFix"/>
<feGaussianBlur in="BackgroundImageFix" stdDeviation="14.4837"/>
<feComposite in2="SourceAlpha" operator="in" result="effect1_backgroundBlur_5711_61327"/>
<feBlend mode="normal" in="SourceGraphic" in2="effect1_backgroundBlur_5711_61327" result="shape"/>
</filter>
<filter id="filter1_d_5711_61327" x="370.667" y="128" width="269.667" height="174.667" filterUnits="userSpaceOnUse" color-interpolation-filters="sRGB">
<feFlood flood-opacity="0" result="BackgroundImageFix"/>
<feColorMatrix in="SourceAlpha" type="matrix" values="0 0 0 0 0 0 0 0 0 0 0 0 0 0 0 0 0 0 127 0" result="hardAlpha"/>
<feMorphology radius="5.33333" operator="dilate" in="SourceAlpha" result="effect1_dropShadow_5711_61327"/>
<feOffset dy="1.33333"/>
<feGaussianBlur stdDeviation="32"/>
<feComposite in2="hardAlpha" operator="out"/>
<feColorMatrix type="matrix" values="0 0 0 0 0.572549 0 0 0 0 0.505882 0 0 0 0 0.937255 0 0 0 0.08 0"/>
<feBlend mode="normal" in2="BackgroundImageFix" result="effect1_dropShadow_5711_61327"/>
<feBlend mode="normal" in="SourceGraphic" in2="effect1_dropShadow_5711_61327" result="shape"/>
</filter>
<linearGradient id="paint0_linear_5711_61327" x1="83.3159" y1="88.9857" x2="101.837" y2="74.0278" gradientUnits="userSpaceOnUse">
<stop stop-color="#838486" stop-opacity="0.1"/>
<stop offset="1" stop-color="#838486" stop-opacity="0.06"/>
</linearGradient>
<linearGradient id="paint1_linear_5711_61327" x1="97.7993" y1="88.9857" x2="116.321" y2="74.0278" gradientUnits="userSpaceOnUse">
<stop stop-color="#838486" stop-opacity="0.1"/>
<stop offset="1" stop-color="#838486" stop-opacity="0.06"/>
</linearGradient>
<linearGradient id="paint2_linear_5711_61327" x1="112.283" y1="88.9857" x2="130.805" y2="74.0278" gradientUnits="userSpaceOnUse">
<stop stop-color="#838486" stop-opacity="0.1"/>
<stop offset="1" stop-color="#838486" stop-opacity="0.06"/>
</linearGradient>
<linearGradient id="paint3_linear_5711_61327" x1="59.3779" y1="121.858" x2="78.0707" y2="105.999" gradientUnits="userSpaceOnUse">
<stop stop-color="#838486" stop-opacity="0.1"/>
<stop offset="1" stop-color="#838486" stop-opacity="0.06"/>
</linearGradient>
<linearGradient id="paint4_linear_5711_61327" x1="74.5903" y1="121.858" x2="93.2831" y2="105.999" gradientUnits="userSpaceOnUse">
<stop stop-color="#838486" stop-opacity="0.1"/>
<stop offset="1" stop-color="#838486" stop-opacity="0.06"/>
</linearGradient>
<linearGradient id="paint5_linear_5711_61327" x1="89.8071" y1="121.858" x2="108.5" y2="105.999" gradientUnits="userSpaceOnUse">
<stop stop-color="#838486" stop-opacity="0.1"/>
<stop offset="1" stop-color="#838486" stop-opacity="0.06"/>
</linearGradient>
<linearGradient id="paint6_linear_5711_61327" x1="34.3433" y1="157.826" x2="52.8647" y2="142.868" gradientUnits="userSpaceOnUse">
<stop stop-color="#838486" stop-opacity="0.1"/>
<stop offset="1" stop-color="#838486" stop-opacity="0.06"/>
</linearGradient>
<linearGradient id="paint7_linear_5711_61327" x1="48.8267" y1="157.826" x2="67.3481" y2="142.868" gradientUnits="userSpaceOnUse">
<stop stop-color="#838486" stop-opacity="0.1"/>
<stop offset="1" stop-color="#838486" stop-opacity="0.06"/>
</linearGradient>
<linearGradient id="paint8_linear_5711_61327" x1="63.3105" y1="157.826" x2="81.832" y2="142.868" gradientUnits="userSpaceOnUse">
<stop stop-color="#838486" stop-opacity="0.1"/>
<stop offset="1" stop-color="#838486" stop-opacity="0.06"/>
</linearGradient>
<linearGradient id="paint9_linear_5711_61327" x1="77.7954" y1="369.649" x2="85.1091" y2="333.226" gradientUnits="userSpaceOnUse">
<stop stop-color="#838486" stop-opacity="0.1"/>
<stop offset="1" stop-color="#838486" stop-opacity="0.06"/>
</linearGradient>
<linearGradient id="paint10_linear_5711_61327" x1="87.6384" y1="272.292" x2="350.932" y2="252.937" gradientUnits="userSpaceOnUse">
<stop stop-color="#E4D4F5"/>
<stop offset="1" stop-color="white" stop-opacity="0"/>
</linearGradient>
<linearGradient id="paint11_linear_5711_61327" x1="87.6384" y1="243.324" x2="350.932" y2="223.969" gradientUnits="userSpaceOnUse">
<stop stop-color="#E4D4F5"/>
<stop offset="1" stop-color="white" stop-opacity="0"/>
</linearGradient>
<linearGradient id="paint12_linear_5711_61327" x1="82.9991" y1="301.259" x2="302.948" y2="287.774" gradientUnits="userSpaceOnUse">
<stop stop-color="#E4D4F5"/>
<stop offset="1" stop-color="white" stop-opacity="0"/>
</linearGradient>
<linearGradient id="paint13_linear_5711_61327" x1="58.3333" y1="552.625" x2="604.572" y2="176.528" gradientUnits="userSpaceOnUse">
<stop stop-color="#7A57F1" stop-opacity="0.61"/>
<stop offset="1" stop-color="#7A57F1" stop-opacity="0"/>
</linearGradient>
<linearGradient id="paint14_linear_5711_61327" x1="68.8995" y1="444.087" x2="191.054" y2="442.429" gradientUnits="userSpaceOnUse">
<stop stop-color="#C18CF6"/>
<stop offset="1" stop-color="#E0C2FF" stop-opacity="0"/>
</linearGradient>
<linearGradient id="paint15_linear_5711_61327" x1="82.4779" y1="438.939" x2="161.717" y2="436.612" gradientUnits="userSpaceOnUse">
<stop stop-color="#C18CF6"/>
<stop offset="1" stop-color="#E0C2FF" stop-opacity="0"/>
</linearGradient>
<linearGradient id="paint16_linear_5711_61327" x1="85" y1="348.844" x2="357.972" y2="327.303" gradientUnits="userSpaceOnUse">
<stop stop-color="#C18CF6"/>
<stop offset="1" stop-color="#E0C2FF" stop-opacity="0"/>
</linearGradient>
<linearGradient id="paint17_linear_5711_61327" x1="85" y1="319.844" x2="357.972" y2="298.303" gradientUnits="userSpaceOnUse">
<stop stop-color="#C18CF6"/>
<stop offset="1" stop-color="#E0C2FF" stop-opacity="0"/>
</linearGradient>
<linearGradient id="paint18_linear_5711_61327" x1="79.3135" y1="378.118" x2="299.262" y2="364.633" gradientUnits="userSpaceOnUse">
<stop stop-color="#C18CF6"/>
<stop offset="1" stop-color="#E0C2FF" stop-opacity="0"/>
</linearGradient>
<linearGradient id="paint19_linear_5711_61327" x1="381.25" y1="446.625" x2="515.599" y2="437.508" gradientUnits="userSpaceOnUse">
<stop stop-color="#C18CF6"/>
<stop offset="1" stop-color="#E0C2FF" stop-opacity="0"/>
</linearGradient>
<linearGradient id="paint20_linear_5711_61327" x1="385.5" y1="430.625" x2="559.372" y2="415.308" gradientUnits="userSpaceOnUse">
<stop stop-color="#C18CF6"/>
<stop offset="1" stop-color="#E0C2FF" stop-opacity="0"/>
</linearGradient>
<linearGradient id="paint21_linear_5711_61327" x1="375.25" y1="369.375" x2="595.449" y2="367.75" gradientUnits="userSpaceOnUse">
<stop stop-color="#E4D4F5"/>
<stop offset="1" stop-color="white" stop-opacity="0"/>
</linearGradient>
<linearGradient id="paint22_linear_5711_61327" x1="452.843" y1="228.625" x2="495.79" y2="152.67" gradientUnits="userSpaceOnUse">
<stop stop-color="#7A57F1" stop-opacity="0.61"/>
<stop offset="1" stop-color="#7A57F1" stop-opacity="0"/>
</linearGradient>
<linearGradient id="paint23_linear_5711_61327" x1="465.122" y1="211.202" x2="460.413" y2="206.646" gradientUnits="userSpaceOnUse">
<stop stop-color="#6A50FF"/>
<stop offset="1" stop-color="#A897FF"/>
</linearGradient>
<linearGradient id="paint24_linear_5711_61327" x1="466.371" y1="220.233" x2="458.464" y2="214.036" gradientUnits="userSpaceOnUse">
<stop stop-color="#6A50FF"/>
<stop offset="1" stop-color="#A897FF"/>
</linearGradient>
<linearGradient id="paint25_linear_5711_61327" x1="470.697" y1="213.416" x2="469.285" y2="212.31" gradientUnits="userSpaceOnUse">
<stop stop-color="#6A50FF"/>
<stop offset="1" stop-color="#A897FF"/>
</linearGradient>
<linearGradient id="paint26_linear_5711_61327" x1="470.697" y1="220.916" x2="469.285" y2="219.81" gradientUnits="userSpaceOnUse">
<stop stop-color="#6A50FF"/>
<stop offset="1" stop-color="#A897FF"/>
</linearGradient>
<linearGradient id="paint27_linear_5711_61327" x1="453.303" y1="213.416" x2="454.715" y2="212.31" gradientUnits="userSpaceOnUse">
<stop stop-color="#6A50FF"/>
<stop offset="1" stop-color="#A897FF"/>
</linearGradient>
<linearGradient id="paint28_linear_5711_61327" x1="453.303" y1="220.916" x2="454.715" y2="219.81" gradientUnits="userSpaceOnUse">
<stop stop-color="#6A50FF"/>
<stop offset="1" stop-color="#A897FF"/>
</linearGradient>
<linearGradient id="paint29_linear_5711_61327" x1="463.093" y1="218.5" x2="460.278" y2="217.47" gradientUnits="userSpaceOnUse">
<stop stop-color="#6A50FF"/>
<stop offset="1" stop-color="#A897FF"/>
</linearGradient>
<linearGradient id="paint30_linear_5711_61327" x1="545.603" y1="221.68" x2="533.878" y2="192.963" gradientUnits="userSpaceOnUse">
<stop stop-color="#6A50FF"/>
<stop offset="1" stop-color="#A897FF"/>
</linearGradient>
<linearGradient id="paint31_linear_5711_61327" x1="10.8633" y1="198.035" x2="29.3847" y2="183.077" gradientUnits="userSpaceOnUse">
<stop stop-color="#838486" stop-opacity="0.1"/>
<stop offset="1" stop-color="#838486" stop-opacity="0.06"/>
</linearGradient>
<linearGradient id="paint32_linear_5711_61327" x1="25.3477" y1="198.035" x2="43.8691" y2="183.077" gradientUnits="userSpaceOnUse">
<stop stop-color="#838486" stop-opacity="0.1"/>
<stop offset="1" stop-color="#838486" stop-opacity="0.06"/>
</linearGradient>
<linearGradient id="paint33_linear_5711_61327" x1="39.8281" y1="198.035" x2="58.3496" y2="183.077" gradientUnits="userSpaceOnUse">
<stop stop-color="#838486" stop-opacity="0.1"/>
<stop offset="1" stop-color="#838486" stop-opacity="0.06"/>
</linearGradient>
<clipPath id="clip0_5711_61327">
<rect width="595" height="537" rx="12" fill="white"/>
</clipPath>
</defs>
</svg>
