<svg width="691" height="537" viewBox="0 0 691 537" fill="none" xmlns="http://www.w3.org/2000/svg">
<rect x="24" y="349" width="199.735" height="48" rx="24" fill="#111112"/>
<rect x="24" y="349" width="199.735" height="48" rx="24" fill="url(#paint0_linear_6427_7425)" fill-opacity="0.2"/>
<rect x="24.5" y="349.5" width="198.735" height="47" rx="23.5" stroke="#7A57F1" stroke-opacity="0.2"/>
<path opacity="0.4" fill-rule="evenodd" clip-rule="evenodd" d="M37.25 367C37.25 364.377 39.3766 362.25 42 362.25H43.5556C43.9698 362.25 44.3056 362.586 44.3056 363C44.3056 363.414 43.9698 363.75 43.5556 363.75H42C40.2051 363.75 38.75 365.205 38.75 367V368.556C38.75 368.97 38.4142 369.306 38 369.306C37.5858 369.306 37.25 368.97 37.25 368.556V367ZM51.6944 363C51.6944 362.586 52.0302 362.25 52.4444 362.25H54C56.6234 362.25 58.75 364.377 58.75 367V368.556C58.75 368.97 58.4142 369.306 58 369.306C57.5858 369.306 57.25 368.97 57.25 368.556V367C57.25 365.205 55.7949 363.75 54 363.75H52.4444C52.0302 363.75 51.6944 363.414 51.6944 363ZM38 376.694C38.4142 376.694 38.75 377.03 38.75 377.444V379C38.75 380.795 40.2051 382.25 42 382.25H43.5556C43.9698 382.25 44.3056 382.586 44.3056 383C44.3056 383.414 43.9698 383.75 43.5556 383.75H42C39.3766 383.75 37.25 381.623 37.25 379V377.444C37.25 377.03 37.5858 376.694 38 376.694ZM58 376.694C58.4142 376.694 58.75 377.03 58.75 377.444V379C58.75 381.623 56.6234 383.75 54 383.75H52.4444C52.0302 383.75 51.6944 383.414 51.6944 383C51.6944 382.586 52.0302 382.25 52.4444 382.25H54C55.7949 382.25 57.25 380.795 57.25 379V377.444C57.25 377.03 57.5858 376.694 58 376.694Z" fill="url(#paint1_linear_6427_7425)"/>
<circle cx="48" cy="373" r="5" fill="url(#paint2_linear_6427_7425)"/>
<path d="M73.012 378.173C70.338 378.173 68 376.241 68 373.007C68 369.773 70.422 367.827 72.998 367.827C75.518 367.827 77.016 369.311 77.464 371.047L75.882 371.579C75.588 370.375 74.664 369.409 72.998 369.409C71.36 369.409 69.722 370.599 69.722 373.007C69.722 375.331 71.318 376.563 73.012 376.563C74.678 376.563 75.63 375.499 75.966 374.379L77.506 374.883C77.058 376.563 75.546 378.173 73.012 378.173Z" fill="url(#paint3_linear_6427_7425)"/>
<path d="M86.0014 377.963H79.7714V368.037H81.4514V376.367H86.0014V377.963Z" fill="url(#paint4_linear_6427_7425)"/>
<path d="M89.805 377.963H88.097V368.037H89.805V377.963Z" fill="url(#paint5_linear_6427_7425)"/>
<path d="M98.8769 377.963H92.7449V368.037H98.8769V369.605H94.4249V372.237H98.4569V373.763H94.4249V376.395H98.8769V377.963Z" fill="url(#paint6_linear_6427_7425)"/>
<path d="M109.783 377.963H108.033L103.133 370.445V377.963H101.453V368.037H103.595L108.103 375.079V368.037H109.783V377.963Z" fill="url(#paint7_linear_6427_7425)"/>
<path d="M119.844 369.619H116.61V377.963H114.93V369.619H111.71V368.037H119.844V369.619Z" fill="url(#paint8_linear_6427_7425)"/>
<path d="M132.941 369.619H129.707V377.963H128.027V369.619H124.807V368.037H132.941V369.619Z" fill="url(#paint9_linear_6427_7425)"/>
<path d="M140.753 377.963L139.815 375.471H135.615L134.691 377.963H132.913L136.777 368.037H138.723L142.587 377.963H140.753ZM137.715 369.857L136.203 373.917H139.227L137.715 369.857Z" fill="url(#paint10_linear_6427_7425)"/>
<path d="M149.488 377.963L147.402 374.043H146.17V377.963H144.476V368.037H148.284C150.202 368.037 151.392 369.367 151.392 371.047C151.392 372.461 150.538 373.539 149.152 373.875L151.392 377.963H149.488ZM146.17 372.559H147.976C149.012 372.559 149.684 371.957 149.684 371.047C149.684 370.123 149.012 369.521 147.976 369.521H146.17V372.559Z" fill="url(#paint11_linear_6427_7425)"/>
<path d="M162.483 377.963H161.125L160.999 376.703C160.565 377.431 159.543 378.173 157.961 378.173C155.371 378.173 153.075 376.269 153.075 372.993C153.075 369.731 155.497 367.827 158.073 367.827C160.481 367.827 162.021 369.213 162.553 370.851L160.971 371.453C160.635 370.333 159.655 369.381 158.073 369.381C156.463 369.381 154.783 370.529 154.783 372.993C154.783 375.415 156.351 376.633 158.059 376.633C160.061 376.633 160.817 375.261 160.901 374.407H157.625V372.937H162.483V377.963Z" fill="url(#paint12_linear_6427_7425)"/>
<path d="M171.21 377.963H165.078V368.037H171.21V369.605H166.758V372.237H170.79V373.763H166.758V376.395H171.21V377.963Z" fill="url(#paint13_linear_6427_7425)"/>
<path d="M181.009 369.619H177.775V377.963H176.095V369.619H172.875V368.037H181.009V369.619Z" fill="url(#paint14_linear_6427_7425)"/>
<path d="M184.654 377.963H182.946V368.037H184.654V377.963Z" fill="url(#paint15_linear_6427_7425)"/>
<path d="M195.924 377.963H194.174L189.274 370.445V377.963H187.594V368.037H189.736L194.244 375.079V368.037H195.924V377.963Z" fill="url(#paint16_linear_6427_7425)"/>
<path d="M207.665 377.963H206.307L206.181 376.703C205.747 377.431 204.725 378.173 203.143 378.173C200.553 378.173 198.257 376.269 198.257 372.993C198.257 369.731 200.679 367.827 203.255 367.827C205.663 367.827 207.203 369.213 207.735 370.851L206.153 371.453C205.817 370.333 204.837 369.381 203.255 369.381C201.645 369.381 199.965 370.529 199.965 372.993C199.965 375.415 201.533 376.633 203.241 376.633C205.243 376.633 205.999 375.261 206.083 374.407H202.807V372.937H207.665V377.963Z" fill="url(#paint17_linear_6427_7425)"/>
<rect x="32" y="147" width="201.38" height="48" rx="24" fill="#111112"/>
<rect x="32" y="147" width="201.38" height="48" rx="24" fill="url(#paint18_linear_6427_7425)" fill-opacity="0.2"/>
<rect x="32.5" y="147.5" width="200.38" height="47" rx="23.5" stroke="#7A57F1" stroke-opacity="0.2"/>
<path opacity="0.4" d="M66 171C66 176.523 61.5228 181 56 181C50.4772 181 46 176.523 46 171C46 165.477 50.4772 161 56 161C61.5228 161 66 165.477 66 171Z" fill="url(#paint19_linear_6427_7425)"/>
<path fill-rule="evenodd" clip-rule="evenodd" d="M60.4605 167.408C60.7874 167.662 60.8463 168.134 60.592 168.46L56.585 173.612C55.9613 174.414 54.7881 174.518 54.033 173.839L51.4983 171.558C51.1904 171.28 51.1654 170.806 51.4425 170.498C51.7196 170.19 52.1938 170.165 52.5017 170.443L55.0364 172.724C55.1443 172.821 55.3119 172.806 55.401 172.691L59.408 167.54C59.6623 167.213 60.1335 167.154 60.4605 167.408Z" fill="url(#paint20_linear_6427_7425)"/>
<path d="M81.012 175.963L78.926 172.043H77.694V175.963H76V166.037H79.808C81.726 166.037 82.916 167.367 82.916 169.047C82.916 170.461 82.062 171.539 80.676 171.875L82.916 175.963H81.012ZM77.694 170.559H79.5C80.536 170.559 81.208 169.957 81.208 169.047C81.208 168.123 80.536 167.521 79.5 167.521H77.694V170.559Z" fill="url(#paint21_linear_6427_7425)"/>
<path d="M91.401 175.963H85.269V166.037H91.401V167.605H86.949V170.237H90.981V171.763H86.949V174.395H91.401V175.963Z" fill="url(#paint22_linear_6427_7425)"/>
<path d="M97.5468 173.765L100.333 166.037H102.111L98.3588 175.963H96.6508L92.9548 166.037H94.7748L97.5468 173.765Z" fill="url(#paint23_linear_6427_7425)"/>
<path d="M110.13 175.963H103.998V166.037H110.13V167.605H105.678V170.237H109.71V171.763H105.678V174.395H110.13V175.963Z" fill="url(#paint24_linear_6427_7425)"/>
<path d="M121.037 175.963H119.287L114.387 168.445V175.963H112.707V166.037H114.849L119.357 173.079V166.037H121.037V175.963Z" fill="url(#paint25_linear_6427_7425)"/>
<path d="M127.556 176.173C125.484 176.173 123.86 174.899 123.86 172.505V166.037H125.526V172.407C125.526 173.807 126.296 174.577 127.556 174.577C128.83 174.577 129.586 173.807 129.586 172.407V166.037H131.266V172.505C131.266 174.899 129.642 176.173 127.556 176.173Z" fill="url(#paint26_linear_6427_7425)"/>
<path d="M140.221 175.963H134.089V166.037H140.221V167.605H135.769V170.237H139.801V171.763H135.769V174.395H140.221V175.963Z" fill="url(#paint27_linear_6427_7425)"/>
<path d="M148.538 175.963H146.83V166.037H148.538V175.963Z" fill="url(#paint28_linear_6427_7425)"/>
<path d="M159.808 175.963H158.058L153.158 168.445V175.963H151.478V166.037H153.619L158.128 173.079V166.037H159.808V175.963Z" fill="url(#paint29_linear_6427_7425)"/>
<path d="M167.153 176.173C164.479 176.173 162.141 174.241 162.141 171.007C162.141 167.773 164.563 165.827 167.139 165.827C169.659 165.827 171.157 167.311 171.605 169.047L170.023 169.579C169.729 168.375 168.805 167.409 167.139 167.409C165.501 167.409 163.863 168.599 163.863 171.007C163.863 173.331 165.459 174.563 167.153 174.563C168.819 174.563 169.771 173.499 170.107 172.379L171.647 172.883C171.199 174.563 169.687 176.173 167.153 176.173Z" fill="url(#paint30_linear_6427_7425)"/>
<path d="M178.924 175.963L176.838 172.043H175.606V175.963H173.912V166.037H177.72C179.638 166.037 180.828 167.367 180.828 169.047C180.828 170.461 179.974 171.539 178.588 171.875L180.828 175.963H178.924ZM175.606 170.559H177.412C178.448 170.559 179.12 169.957 179.12 169.047C179.12 168.123 178.448 167.521 177.412 167.521H175.606V170.559Z" fill="url(#paint31_linear_6427_7425)"/>
<path d="M189.313 175.963H183.181V166.037H189.313V167.605H184.861V170.237H188.893V171.763H184.861V174.395H189.313V175.963Z" fill="url(#paint32_linear_6427_7425)"/>
<path d="M198.679 175.963L197.741 173.471H193.541L192.617 175.963H190.839L194.703 166.037H196.649L200.513 175.963H198.679ZM195.641 167.857L194.129 171.917H197.153L195.641 167.857Z" fill="url(#paint33_linear_6427_7425)"/>
<path d="M208.831 168.361L207.319 168.837C207.221 168.221 206.703 167.311 205.373 167.311C204.365 167.311 203.665 167.983 203.665 168.739C203.665 169.369 204.057 169.845 204.827 170.013L206.255 170.307C208.005 170.657 208.943 171.763 208.943 173.163C208.943 174.703 207.697 176.173 205.429 176.173C202.909 176.173 201.747 174.549 201.593 173.121L203.161 172.673C203.259 173.709 204.001 174.661 205.429 174.661C206.619 174.661 207.235 174.059 207.235 173.289C207.235 172.645 206.759 172.127 205.905 171.945L204.505 171.651C202.993 171.343 201.985 170.349 201.985 168.865C201.985 167.199 203.511 165.827 205.359 165.827C207.697 165.827 208.607 167.255 208.831 168.361Z" fill="url(#paint34_linear_6427_7425)"/>
<path d="M217.38 175.963H211.248V166.037H217.38V167.605H212.928V170.237H216.96V171.763H212.928V174.395H217.38V175.963Z" fill="url(#paint35_linear_6427_7425)"/>
<rect x="429" y="247" width="215" height="162" rx="12" fill="#111112"/>
<rect x="429" y="247" width="215" height="162" rx="12" fill="url(#paint36_linear_6427_7425)" fill-opacity="0.2"/>
<rect x="429.5" y="247.5" width="214" height="161" rx="11.5" stroke="#7A57F1" stroke-opacity="0.2"/>
<path d="M459.67 273.363V285H458.057L452.142 276.466H452.034V285H450.278V273.363H451.903L457.824 281.909H457.932V273.363H459.67Z" fill="#C5B5F9"/>
<path d="M466.496 285.176C465.637 285.176 464.896 284.992 464.275 284.625C463.657 284.253 463.18 283.733 462.843 283.062C462.51 282.388 462.343 281.598 462.343 280.693C462.343 279.799 462.51 279.011 462.843 278.329C463.18 277.647 463.65 277.115 464.252 276.733C464.858 276.35 465.567 276.159 466.377 276.159C466.87 276.159 467.347 276.24 467.809 276.403C468.271 276.566 468.686 276.822 469.053 277.17C469.421 277.519 469.71 277.971 469.923 278.528C470.135 279.081 470.241 279.753 470.241 280.545V281.147H463.303V279.875H468.576C468.576 279.428 468.485 279.032 468.303 278.687C468.121 278.339 467.866 278.064 467.536 277.863C467.21 277.663 466.828 277.562 466.388 277.562C465.911 277.562 465.495 277.68 465.138 277.914C464.786 278.145 464.513 278.449 464.32 278.824C464.131 279.195 464.036 279.598 464.036 280.034V281.028C464.036 281.611 464.138 282.108 464.343 282.517C464.551 282.926 464.841 283.238 465.212 283.454C465.584 283.666 466.017 283.772 466.513 283.772C466.835 283.772 467.129 283.727 467.394 283.636C467.659 283.541 467.888 283.401 468.082 283.216C468.275 283.03 468.423 282.801 468.525 282.528L470.133 282.818C470.004 283.291 469.773 283.706 469.44 284.062C469.11 284.414 468.695 284.689 468.195 284.886C467.699 285.079 467.133 285.176 466.496 285.176Z" fill="#C5B5F9"/>
<path d="M474.642 285L472.074 276.272H473.83L475.54 282.681H475.625L477.341 276.272H479.097L480.801 282.653H480.886L482.585 276.272H484.341L481.778 285H480.046L478.273 278.699H478.142L476.369 285H474.642Z" fill="#C5B5F9"/>
<path d="M493.166 273.363V285H491.468V273.363H493.166Z" fill="#C5B5F9"/>
<path d="M499.853 285.176C498.993 285.176 498.253 284.992 497.632 284.625C497.014 284.253 496.537 283.733 496.2 283.062C495.867 282.388 495.7 281.598 495.7 280.693C495.7 279.799 495.867 279.011 496.2 278.329C496.537 277.647 497.007 277.115 497.609 276.733C498.215 276.35 498.923 276.159 499.734 276.159C500.226 276.159 500.704 276.24 501.166 276.403C501.628 276.566 502.043 276.822 502.41 277.17C502.778 277.519 503.067 277.971 503.279 278.528C503.492 279.081 503.598 279.753 503.598 280.545V281.147H496.66V279.875H501.933C501.933 279.428 501.842 279.032 501.66 278.687C501.478 278.339 501.223 278.064 500.893 277.863C500.567 277.663 500.185 277.562 499.745 277.562C499.268 277.562 498.851 277.68 498.495 277.914C498.143 278.145 497.87 278.449 497.677 278.824C497.488 279.195 497.393 279.598 497.393 280.034V281.028C497.393 281.611 497.495 282.108 497.7 282.517C497.908 282.926 498.198 283.238 498.569 283.454C498.94 283.666 499.374 283.772 499.87 283.772C500.192 283.772 500.486 283.727 500.751 283.636C501.016 283.541 501.245 283.401 501.439 283.216C501.632 283.03 501.779 282.801 501.882 282.528L503.49 282.818C503.361 283.291 503.13 283.706 502.797 284.062C502.467 284.414 502.052 284.689 501.552 284.886C501.056 285.079 500.49 285.176 499.853 285.176Z" fill="#C5B5F9"/>
<path d="M508.662 285.193C508.109 285.193 507.609 285.091 507.162 284.886C506.715 284.678 506.361 284.377 506.1 283.983C505.842 283.589 505.713 283.106 505.713 282.534C505.713 282.041 505.808 281.636 505.998 281.318C506.187 281 506.443 280.748 506.765 280.562C507.087 280.377 507.446 280.236 507.844 280.142C508.242 280.047 508.647 279.975 509.06 279.926C509.583 279.865 510.007 279.816 510.333 279.778C510.659 279.736 510.895 279.67 511.043 279.579C511.191 279.488 511.265 279.341 511.265 279.136V279.096C511.265 278.6 511.124 278.216 510.844 277.943C510.568 277.67 510.155 277.534 509.606 277.534C509.034 277.534 508.583 277.661 508.253 277.914C507.928 278.164 507.702 278.443 507.577 278.75L505.981 278.386C506.17 277.856 506.446 277.428 506.81 277.102C507.178 276.772 507.6 276.534 508.077 276.386C508.554 276.234 509.056 276.159 509.583 276.159C509.931 276.159 510.301 276.2 510.691 276.284C511.085 276.363 511.452 276.511 511.793 276.727C512.138 276.943 512.42 277.252 512.64 277.653C512.859 278.051 512.969 278.568 512.969 279.204V285H511.31V283.806H511.242C511.132 284.026 510.967 284.242 510.748 284.454C510.528 284.666 510.246 284.842 509.901 284.983C509.556 285.123 509.143 285.193 508.662 285.193ZM509.032 283.829C509.501 283.829 509.903 283.736 510.236 283.551C510.573 283.365 510.829 283.123 511.003 282.824C511.181 282.52 511.27 282.197 511.27 281.852V280.727C511.21 280.788 511.092 280.844 510.918 280.897C510.748 280.947 510.553 280.99 510.333 281.028C510.113 281.062 509.899 281.094 509.691 281.125C509.482 281.151 509.308 281.174 509.168 281.193C508.838 281.234 508.537 281.305 508.265 281.403C507.996 281.502 507.78 281.644 507.617 281.829C507.458 282.011 507.378 282.253 507.378 282.556C507.378 282.977 507.534 283.295 507.844 283.511C508.155 283.723 508.551 283.829 509.032 283.829Z" fill="#C5B5F9"/>
<path d="M519.139 285.17C518.434 285.17 517.806 284.99 517.253 284.63C516.703 284.267 516.272 283.75 515.957 283.079C515.647 282.405 515.491 281.596 515.491 280.653C515.491 279.71 515.648 278.903 515.963 278.233C516.281 277.562 516.717 277.049 517.27 276.693C517.823 276.337 518.45 276.159 519.15 276.159C519.692 276.159 520.128 276.25 520.457 276.431C520.791 276.609 521.048 276.818 521.23 277.056C521.416 277.295 521.559 277.505 521.662 277.687H521.764V273.363H523.463V285H521.804V283.642H521.662C521.559 283.827 521.412 284.039 521.219 284.278C521.029 284.517 520.768 284.725 520.434 284.903C520.101 285.081 519.669 285.17 519.139 285.17ZM519.514 283.721C520.003 283.721 520.416 283.592 520.753 283.335C521.094 283.074 521.351 282.712 521.525 282.25C521.703 281.788 521.792 281.25 521.792 280.636C521.792 280.03 521.705 279.5 521.531 279.045C521.357 278.591 521.101 278.236 520.764 277.983C520.427 277.729 520.01 277.602 519.514 277.602C519.003 277.602 518.577 277.734 518.236 278C517.895 278.265 517.637 278.627 517.463 279.085C517.292 279.543 517.207 280.06 517.207 280.636C517.207 281.219 517.294 281.744 517.469 282.21C517.643 282.676 517.9 283.045 518.241 283.318C518.586 283.587 519.01 283.721 519.514 283.721Z" fill="#C5B5F9"/>
<path d="M533.067 278.403L531.528 278.676C531.463 278.479 531.361 278.291 531.221 278.113C531.084 277.935 530.899 277.789 530.664 277.676C530.429 277.562 530.136 277.505 529.783 277.505C529.302 277.505 528.901 277.613 528.579 277.829C528.257 278.041 528.096 278.316 528.096 278.653C528.096 278.945 528.204 279.18 528.42 279.358C528.636 279.536 528.984 279.681 529.465 279.795L530.851 280.113C531.654 280.299 532.253 280.585 532.647 280.971C533.041 281.358 533.238 281.859 533.238 282.477C533.238 283 533.086 283.466 532.783 283.875C532.484 284.28 532.065 284.598 531.528 284.829C530.993 285.06 530.374 285.176 529.67 285.176C528.692 285.176 527.895 284.967 527.278 284.551C526.66 284.13 526.281 283.534 526.141 282.761L527.783 282.511C527.886 282.939 528.096 283.263 528.414 283.483C528.732 283.699 529.147 283.806 529.658 283.806C530.215 283.806 530.66 283.691 530.993 283.46C531.327 283.225 531.493 282.939 531.493 282.602C531.493 282.329 531.391 282.1 531.187 281.914C530.986 281.729 530.677 281.589 530.261 281.494L528.783 281.17C527.969 280.984 527.367 280.689 526.976 280.284C526.59 279.878 526.397 279.365 526.397 278.744C526.397 278.229 526.541 277.778 526.829 277.392C527.117 277.005 527.514 276.704 528.022 276.488C528.529 276.269 529.111 276.159 529.766 276.159C530.709 276.159 531.452 276.363 531.993 276.772C532.535 277.178 532.893 277.721 533.067 278.403Z" fill="#C5B5F9"/>
<g style="mix-blend-mode:difference" opacity="0.6">
<path d="M437.312 316.051H638.067" stroke="url(#paint37_linear_6427_7425)" stroke-dasharray="4 6"/>
</g>
<g style="mix-blend-mode:difference" opacity="0.6">
<path d="M449 316L625 316" stroke="url(#paint38_linear_6427_7425)" stroke-dasharray="4 6"/>
</g>
<path d="M470.007 370.398C461.604 368.591 452.501 371.151 449 372.656V385H577.61V331.404L567.25 335.531C563.755 336.924 559.956 337.375 556.232 336.842L550.425 336.01C547.61 335.606 544.742 335.765 541.988 336.476L521.401 341.796C514.899 347.065 500.543 358.882 495.142 364C488.389 371.903 480.511 372.656 470.007 370.398Z" fill="url(#paint39_linear_6427_7425)"/>
<path d="M567.227 300.441V383.093" stroke="#8F7EC8" stroke-width="0.5"/>
<path d="M449.617 373.02C453.13 371.515 462.263 368.956 470.694 370.762C481.232 373.02 489.136 372.268 495.911 364.365C500.112 360.397 509.712 352.403 516.854 346.556C520.407 343.647 524.557 341.568 529.003 340.423L540.891 337.361C544.988 336.306 549.253 336.071 553.441 336.669L553.991 336.747C559.821 337.58 565.768 336.794 571.18 334.474L600.808 321.778C603.627 320.57 606.258 318.964 608.622 317.009L624.629 303.773" stroke="#7A57F1" stroke-width="1.36645" stroke-linecap="round"/>
<rect x="549" y="305" width="35" height="18" rx="9" fill="#7A57F1"/>
<path d="M555.805 316.835V311.92H556.92V316.835H555.805ZM553.905 314.935V313.82H558.82V314.935H553.905Z" fill="white"/>
<path d="M563.333 310.727V318H562.015V312.009H561.973L560.272 313.095V311.888L562.079 310.727H563.333Z" fill="white"/>
<path d="M567.867 318.138C567.283 318.138 566.781 317.99 566.362 317.694C565.945 317.396 565.624 316.966 565.399 316.405C565.177 315.842 565.066 315.163 565.066 314.37C565.068 313.577 565.18 312.902 565.403 312.346C565.628 311.787 565.949 311.361 566.365 311.068C566.784 310.774 567.285 310.627 567.867 310.627C568.45 310.627 568.951 310.774 569.37 311.068C569.789 311.361 570.109 311.787 570.332 312.346C570.557 312.905 570.669 313.58 570.669 314.37C570.669 315.166 570.557 315.845 570.332 316.409C570.109 316.97 569.789 317.398 569.37 317.694C568.953 317.99 568.452 318.138 567.867 318.138ZM567.867 317.027C568.322 317.027 568.681 316.803 568.943 316.355C569.209 315.906 569.341 315.244 569.341 314.37C569.341 313.793 569.281 313.307 569.16 312.914C569.039 312.521 568.869 312.225 568.649 312.027C568.429 311.825 568.168 311.725 567.867 311.725C567.415 311.725 567.058 311.95 566.795 312.399C566.532 312.847 566.4 313.504 566.397 314.37C566.395 314.95 566.453 315.438 566.571 315.833C566.692 316.229 566.862 316.527 567.083 316.728C567.303 316.927 567.564 317.027 567.867 317.027Z" fill="white"/>
<path d="M575.738 316.636V316.252C575.738 315.971 575.797 315.711 575.915 315.475C576.036 315.238 576.211 315.047 576.441 314.903C576.67 314.759 576.949 314.686 577.275 314.686C577.611 314.686 577.893 314.759 578.12 314.903C578.348 315.045 578.519 315.234 578.635 315.471C578.754 315.708 578.813 315.968 578.813 316.252V316.636C578.813 316.918 578.754 317.177 578.635 317.414C578.517 317.65 578.343 317.841 578.113 317.985C577.886 318.13 577.607 318.202 577.275 318.202C576.944 318.202 576.663 318.13 576.434 317.985C576.204 317.841 576.03 317.65 575.912 317.414C575.796 317.177 575.738 316.918 575.738 316.636ZM576.665 316.252V316.636C576.665 316.823 576.709 316.995 576.799 317.151C576.889 317.307 577.048 317.385 577.275 317.385C577.505 317.385 577.662 317.308 577.748 317.154C577.835 316.998 577.879 316.825 577.879 316.636V316.252C577.879 316.063 577.838 315.89 577.755 315.734C577.672 315.575 577.512 315.496 577.275 315.496C577.053 315.496 576.895 315.575 576.803 315.734C576.711 315.89 576.665 316.063 576.665 316.252ZM572.041 312.474V312.09C572.041 311.806 572.101 311.546 572.222 311.309C572.343 311.072 572.518 310.883 572.748 310.741C572.977 310.597 573.255 310.524 573.582 310.524C573.916 310.524 574.196 310.597 574.424 310.741C574.653 310.883 574.826 311.072 574.942 311.309C575.058 311.546 575.116 311.806 575.116 312.09V312.474C575.116 312.758 575.057 313.018 574.939 313.255C574.823 313.49 574.65 313.678 574.42 313.82C574.191 313.962 573.911 314.033 573.582 314.033C573.248 314.033 572.967 313.962 572.737 313.82C572.51 313.678 572.337 313.488 572.218 313.252C572.1 313.015 572.041 312.756 572.041 312.474ZM572.975 312.09V312.474C572.975 312.663 573.019 312.836 573.106 312.992C573.196 313.146 573.355 313.223 573.582 313.223C573.809 313.223 573.966 313.146 574.051 312.992C574.138 312.836 574.182 312.663 574.182 312.474V312.09C574.182 311.901 574.141 311.728 574.058 311.572C573.975 311.413 573.816 311.334 573.582 311.334C573.357 311.334 573.2 311.413 573.11 311.572C573.02 311.731 572.975 311.903 572.975 312.09ZM572.446 318L577.446 310.727H578.334L573.334 318H572.446Z" fill="white"/>
<path d="M567 328L563 323H571L567 328Z" fill="#7A57F1"/>
<circle cx="567" cy="336" r="3.5" fill="#7A57F1" stroke="white"/>
<defs>
<linearGradient id="paint0_linear_6427_7425" x1="43.5819" y1="392.5" x2="96.6844" y2="285.106" gradientUnits="userSpaceOnUse">
<stop stop-color="#7A57F1" stop-opacity="0.61"/>
<stop offset="1" stop-color="#7A57F1" stop-opacity="0"/>
</linearGradient>
<linearGradient id="paint1_linear_6427_7425" x1="56.0563" y1="379.88" x2="41.4837" y2="368.459" gradientUnits="userSpaceOnUse">
<stop stop-color="#6A50FF"/>
<stop offset="1" stop-color="#A897FF"/>
</linearGradient>
<linearGradient id="paint2_linear_6427_7425" x1="51.7471" y1="376.2" x2="44.9692" y2="370.888" gradientUnits="userSpaceOnUse">
<stop stop-color="#6A50FF"/>
<stop offset="1" stop-color="#A897FF"/>
</linearGradient>
<linearGradient id="paint3_linear_6427_7425" x1="190.228" y1="376.311" x2="188.876" y2="361.995" gradientUnits="userSpaceOnUse">
<stop stop-color="#6A50FF"/>
<stop offset="1" stop-color="#A897FF"/>
</linearGradient>
<linearGradient id="paint4_linear_6427_7425" x1="190.228" y1="376.311" x2="188.876" y2="361.995" gradientUnits="userSpaceOnUse">
<stop stop-color="#6A50FF"/>
<stop offset="1" stop-color="#A897FF"/>
</linearGradient>
<linearGradient id="paint5_linear_6427_7425" x1="190.228" y1="376.311" x2="188.876" y2="361.995" gradientUnits="userSpaceOnUse">
<stop stop-color="#6A50FF"/>
<stop offset="1" stop-color="#A897FF"/>
</linearGradient>
<linearGradient id="paint6_linear_6427_7425" x1="190.228" y1="376.311" x2="188.876" y2="361.995" gradientUnits="userSpaceOnUse">
<stop stop-color="#6A50FF"/>
<stop offset="1" stop-color="#A897FF"/>
</linearGradient>
<linearGradient id="paint7_linear_6427_7425" x1="190.228" y1="376.311" x2="188.876" y2="361.995" gradientUnits="userSpaceOnUse">
<stop stop-color="#6A50FF"/>
<stop offset="1" stop-color="#A897FF"/>
</linearGradient>
<linearGradient id="paint8_linear_6427_7425" x1="190.228" y1="376.311" x2="188.876" y2="361.995" gradientUnits="userSpaceOnUse">
<stop stop-color="#6A50FF"/>
<stop offset="1" stop-color="#A897FF"/>
</linearGradient>
<linearGradient id="paint9_linear_6427_7425" x1="190.228" y1="376.311" x2="188.876" y2="361.995" gradientUnits="userSpaceOnUse">
<stop stop-color="#6A50FF"/>
<stop offset="1" stop-color="#A897FF"/>
</linearGradient>
<linearGradient id="paint10_linear_6427_7425" x1="190.228" y1="376.311" x2="188.876" y2="361.995" gradientUnits="userSpaceOnUse">
<stop stop-color="#6A50FF"/>
<stop offset="1" stop-color="#A897FF"/>
</linearGradient>
<linearGradient id="paint11_linear_6427_7425" x1="190.228" y1="376.311" x2="188.876" y2="361.995" gradientUnits="userSpaceOnUse">
<stop stop-color="#6A50FF"/>
<stop offset="1" stop-color="#A897FF"/>
</linearGradient>
<linearGradient id="paint12_linear_6427_7425" x1="190.228" y1="376.311" x2="188.876" y2="361.995" gradientUnits="userSpaceOnUse">
<stop stop-color="#6A50FF"/>
<stop offset="1" stop-color="#A897FF"/>
</linearGradient>
<linearGradient id="paint13_linear_6427_7425" x1="190.228" y1="376.311" x2="188.876" y2="361.995" gradientUnits="userSpaceOnUse">
<stop stop-color="#6A50FF"/>
<stop offset="1" stop-color="#A897FF"/>
</linearGradient>
<linearGradient id="paint14_linear_6427_7425" x1="190.228" y1="376.311" x2="188.876" y2="361.995" gradientUnits="userSpaceOnUse">
<stop stop-color="#6A50FF"/>
<stop offset="1" stop-color="#A897FF"/>
</linearGradient>
<linearGradient id="paint15_linear_6427_7425" x1="190.228" y1="376.311" x2="188.876" y2="361.995" gradientUnits="userSpaceOnUse">
<stop stop-color="#6A50FF"/>
<stop offset="1" stop-color="#A897FF"/>
</linearGradient>
<linearGradient id="paint16_linear_6427_7425" x1="190.228" y1="376.311" x2="188.876" y2="361.995" gradientUnits="userSpaceOnUse">
<stop stop-color="#6A50FF"/>
<stop offset="1" stop-color="#A897FF"/>
</linearGradient>
<linearGradient id="paint17_linear_6427_7425" x1="190.228" y1="376.311" x2="188.876" y2="361.995" gradientUnits="userSpaceOnUse">
<stop stop-color="#6A50FF"/>
<stop offset="1" stop-color="#A897FF"/>
</linearGradient>
<linearGradient id="paint18_linear_6427_7425" x1="51.7431" y1="190.5" x2="104.581" y2="82.762" gradientUnits="userSpaceOnUse">
<stop stop-color="#7A57F1" stop-opacity="0.61"/>
<stop offset="1" stop-color="#7A57F1" stop-opacity="0"/>
</linearGradient>
<linearGradient id="paint19_linear_6427_7425" x1="63.4942" y1="177.4" x2="49.9384" y2="166.776" gradientUnits="userSpaceOnUse">
<stop stop-color="#6A50FF"/>
<stop offset="1" stop-color="#A897FF"/>
</linearGradient>
<linearGradient id="paint20_linear_6427_7425" x1="59.5598" y1="173.021" x2="54.6549" y2="167.832" gradientUnits="userSpaceOnUse">
<stop stop-color="#6A50FF"/>
<stop offset="1" stop-color="#A897FF"/>
</linearGradient>
<linearGradient id="paint21_linear_6427_7425" x1="199.667" y1="174.311" x2="198.33" y2="159.992" gradientUnits="userSpaceOnUse">
<stop stop-color="#6A50FF"/>
<stop offset="1" stop-color="#A897FF"/>
</linearGradient>
<linearGradient id="paint22_linear_6427_7425" x1="199.667" y1="174.311" x2="198.33" y2="159.992" gradientUnits="userSpaceOnUse">
<stop stop-color="#6A50FF"/>
<stop offset="1" stop-color="#A897FF"/>
</linearGradient>
<linearGradient id="paint23_linear_6427_7425" x1="199.667" y1="174.311" x2="198.33" y2="159.992" gradientUnits="userSpaceOnUse">
<stop stop-color="#6A50FF"/>
<stop offset="1" stop-color="#A897FF"/>
</linearGradient>
<linearGradient id="paint24_linear_6427_7425" x1="199.667" y1="174.311" x2="198.33" y2="159.992" gradientUnits="userSpaceOnUse">
<stop stop-color="#6A50FF"/>
<stop offset="1" stop-color="#A897FF"/>
</linearGradient>
<linearGradient id="paint25_linear_6427_7425" x1="199.667" y1="174.311" x2="198.33" y2="159.992" gradientUnits="userSpaceOnUse">
<stop stop-color="#6A50FF"/>
<stop offset="1" stop-color="#A897FF"/>
</linearGradient>
<linearGradient id="paint26_linear_6427_7425" x1="199.667" y1="174.311" x2="198.33" y2="159.992" gradientUnits="userSpaceOnUse">
<stop stop-color="#6A50FF"/>
<stop offset="1" stop-color="#A897FF"/>
</linearGradient>
<linearGradient id="paint27_linear_6427_7425" x1="199.667" y1="174.311" x2="198.33" y2="159.992" gradientUnits="userSpaceOnUse">
<stop stop-color="#6A50FF"/>
<stop offset="1" stop-color="#A897FF"/>
</linearGradient>
<linearGradient id="paint28_linear_6427_7425" x1="199.667" y1="174.311" x2="198.33" y2="159.992" gradientUnits="userSpaceOnUse">
<stop stop-color="#6A50FF"/>
<stop offset="1" stop-color="#A897FF"/>
</linearGradient>
<linearGradient id="paint29_linear_6427_7425" x1="199.667" y1="174.311" x2="198.33" y2="159.992" gradientUnits="userSpaceOnUse">
<stop stop-color="#6A50FF"/>
<stop offset="1" stop-color="#A897FF"/>
</linearGradient>
<linearGradient id="paint30_linear_6427_7425" x1="199.667" y1="174.311" x2="198.33" y2="159.992" gradientUnits="userSpaceOnUse">
<stop stop-color="#6A50FF"/>
<stop offset="1" stop-color="#A897FF"/>
</linearGradient>
<linearGradient id="paint31_linear_6427_7425" x1="199.667" y1="174.311" x2="198.33" y2="159.992" gradientUnits="userSpaceOnUse">
<stop stop-color="#6A50FF"/>
<stop offset="1" stop-color="#A897FF"/>
</linearGradient>
<linearGradient id="paint32_linear_6427_7425" x1="199.667" y1="174.311" x2="198.33" y2="159.992" gradientUnits="userSpaceOnUse">
<stop stop-color="#6A50FF"/>
<stop offset="1" stop-color="#A897FF"/>
</linearGradient>
<linearGradient id="paint33_linear_6427_7425" x1="199.667" y1="174.311" x2="198.33" y2="159.992" gradientUnits="userSpaceOnUse">
<stop stop-color="#6A50FF"/>
<stop offset="1" stop-color="#A897FF"/>
</linearGradient>
<linearGradient id="paint34_linear_6427_7425" x1="199.667" y1="174.311" x2="198.33" y2="159.992" gradientUnits="userSpaceOnUse">
<stop stop-color="#6A50FF"/>
<stop offset="1" stop-color="#A897FF"/>
</linearGradient>
<linearGradient id="paint35_linear_6427_7425" x1="199.667" y1="174.311" x2="198.33" y2="159.992" gradientUnits="userSpaceOnUse">
<stop stop-color="#6A50FF"/>
<stop offset="1" stop-color="#A897FF"/>
</linearGradient>
<linearGradient id="paint36_linear_6427_7425" x1="450.078" y1="393.812" x2="655.545" y2="261.282" gradientUnits="userSpaceOnUse">
<stop stop-color="#7A57F1" stop-opacity="0.61"/>
<stop offset="1" stop-color="#7A57F1" stop-opacity="0"/>
</linearGradient>
<linearGradient id="paint37_linear_6427_7425" x1="638" y1="316.001" x2="437" y2="316.001" gradientUnits="userSpaceOnUse">
<stop stop-color="#7A57F1" stop-opacity="0"/>
<stop offset="0.502282" stop-color="#7A57F1"/>
<stop offset="1" stop-color="#7A57F1" stop-opacity="0"/>
</linearGradient>
<linearGradient id="paint38_linear_6427_7425" x1="624.941" y1="315.951" x2="448.726" y2="315.951" gradientUnits="userSpaceOnUse">
<stop stop-color="#C5B5F9" stop-opacity="0"/>
<stop offset="0.502282" stop-color="#C5B5F9"/>
<stop offset="1" stop-color="#C5B5F9" stop-opacity="0.3"/>
</linearGradient>
<linearGradient id="paint39_linear_6427_7425" x1="505.755" y1="333.53" x2="513.352" y2="384.993" gradientUnits="userSpaceOnUse">
<stop stop-color="#7A57F1" stop-opacity="0.37"/>
<stop offset="1" stop-color="#7A57F1" stop-opacity="0"/>
</linearGradient>
</defs>
</svg>
